<svg width="305" height="304" viewBox="0 0 305 304" fill="none" xmlns="http://www.w3.org/2000/svg">
<rect x="0.765625" width="304" height="304" rx="152" fill="#B2DFDC"/>
<path fill-rule="evenodd" clip-rule="evenodd" d="M23.8076 198.673L24.46 181.016H51.2505L52.4738 198.673H23.8076Z" fill="white"/>
<path fill-rule="evenodd" clip-rule="evenodd" d="M51.25 181.016L58.8345 181.465L58.019 198.673H52.4733L51.25 181.016Z" fill="#EDEDED"/>
<path fill-rule="evenodd" clip-rule="evenodd" d="M51.658 187.174H38.4463L51.6988 187.5H55.4503L51.658 187.174Z" fill="#D8D8D8"/>
<path fill-rule="evenodd" clip-rule="evenodd" d="M51.9849 191.374L26.377 191.7H51.9849L57.1228 191.822L51.9849 191.374Z" fill="#D8D8D8"/>
<path fill-rule="evenodd" clip-rule="evenodd" d="M33.7577 232.64H75.8395V263.304L32.5752 262.978L33.7577 232.64Z" fill="#DDC4A8"/>
<path fill-rule="evenodd" clip-rule="evenodd" d="M33.4307 236.228L77.796 237.452V230.153H33.4307V236.228Z" fill="#D8B58B"/>
<path fill-rule="evenodd" clip-rule="evenodd" d="M20.831 232.355H62.9128V263.019H19.6484L20.831 232.355Z" fill="#FFECD2"/>
<path fill-rule="evenodd" clip-rule="evenodd" d="M19.7715 236.228L64.1368 237.452V230.153H19.7715V236.228Z" fill="#F2D1A5"/>
<path d="M37.5966 242.814H46.9346V239.919H37.5966V242.814Z" fill="#272342"/>
<path fill-rule="evenodd" clip-rule="evenodd" d="M75.8389 237.207L20.7901 236.31L20.627 237.574L75.8389 239.083V237.207Z" fill="#E2BF93"/>
<path d="M33.2371 253.991H52.7285V246.202H33.2371V253.991Z" fill="white"/>
<path fill-rule="evenodd" clip-rule="evenodd" d="M39.4659 201.079H68.703V230.275L38.6504 229.949L39.4659 201.079Z" fill="#DDC4A8"/>
<path fill-rule="evenodd" clip-rule="evenodd" d="M39.2627 204.504L70.0493 205.646V198.673H39.2627V204.504Z" fill="#D8B58B"/>
<path fill-rule="evenodd" clip-rule="evenodd" d="M30.4952 200.834H59.7323V229.99H29.6797L30.4952 200.834Z" fill="#FFECD2"/>
<path fill-rule="evenodd" clip-rule="evenodd" d="M29.7617 204.504L60.5891 205.646V198.673H29.7617V204.504Z" fill="#F2D1A5"/>
<path d="M42.1258 210.719H48.6094V207.987H42.1258V210.719Z" fill="#272342"/>
<path fill-rule="evenodd" clip-rule="evenodd" d="M68.7034 205.401L30.4546 204.586L30.373 205.768L68.7034 207.195V205.401Z" fill="#E2BF93"/>
<path d="M39.1232 221.372H52.6611V213.951H39.1232V221.372Z" fill="white"/>
<path fill-rule="evenodd" clip-rule="evenodd" d="M171.787 167.071L172.44 142.768H199.23L200.453 167.071H171.787Z" fill="white"/>
<path fill-rule="evenodd" clip-rule="evenodd" d="M199.23 142.768L206.856 143.339L205.999 167.071H200.454L199.23 142.768Z" fill="#EDEDED"/>
<path fill-rule="evenodd" clip-rule="evenodd" d="M171.787 160.465L198.945 160.832L206.162 161.525L206.121 161.974L198.945 161.24H171.909L171.787 160.465Z" fill="#D8D8D8"/>
<path fill-rule="evenodd" clip-rule="evenodd" d="M199.678 151.209H186.426L199.678 151.657H203.43L199.678 151.209Z" fill="#D8D8D8"/>
<path fill-rule="evenodd" clip-rule="evenodd" d="M200.862 145.174L194.419 145.581L200.902 145.867L202.37 145.5L200.862 145.174Z" fill="#D8D8D8"/>
<path fill-rule="evenodd" clip-rule="evenodd" d="M199.963 156.999L174.355 157.447H199.963L205.101 157.61L199.963 156.999Z" fill="#D8D8D8"/>
<path d="M243.799 269.339C243.799 271.868 199.638 273.906 145.16 273.906C90.6819 273.906 46.5205 271.868 46.5205 269.339C46.5205 266.811 90.6819 264.772 145.16 264.772C199.638 264.772 243.799 266.811 243.799 269.339Z" fill="#91BFBC"/>
<path d="M160.41 258.656C160.41 259.92 141.816 260.939 118.858 260.939C95.9009 260.939 77.3066 259.92 77.3066 258.656C77.3066 257.392 95.9009 256.372 118.858 256.372C141.816 256.372 160.41 257.392 160.41 258.656Z" fill="#91BFBC"/>
<path d="M128.644 270.359C151.593 270.359 170.196 267.657 170.196 264.324C170.196 260.991 151.593 258.289 128.644 258.289C105.696 258.289 87.0928 260.991 87.0928 264.324C87.0928 267.657 105.696 270.359 128.644 270.359Z" fill="#91BFBC"/>
<path d="M95.8614 196.43C95.8614 196.43 86.3604 194.717 85.2187 197.776C84.0769 200.834 86.442 208.174 86.442 208.174C86.442 208.174 149.075 208.826 151.196 208.052C153.316 207.277 152.174 199.692 150.258 197.98C148.382 196.226 95.8614 196.43 95.8614 196.43Z" fill="#EE534F"/>
<path d="M105.933 134.572C105.933 134.572 90.642 134.123 88.3177 137.344C85.9934 140.566 82.8944 188.316 84.8924 190.803C86.9313 193.29 128.157 190.803 128.157 190.803L105.933 134.572Z" fill="#EE534F"/>
<path d="M113.559 208.337L114.7 248.625L123.834 247.483V208.419L113.559 208.337Z" fill="white"/>
<path d="M91.7422 255.394C91.7422 255.394 92.8839 249.155 97.084 248.625C101.284 248.054 142.469 245.403 145.16 247.687C147.81 249.97 147.077 255.434 147.077 255.434H145.16C145.16 255.434 144.263 249.97 140.348 249.481C136.434 248.992 103.812 249.196 100.142 251.112C96.4723 253.029 94.8005 255.434 94.8005 255.434H91.7422V255.394Z" fill="white"/>
<path d="M114.415 248.992L113.559 254.211H116.25L118.696 248.625L114.415 248.992Z" fill="white"/>
<path d="M114.985 258.656C116.472 258.656 117.677 257.451 117.677 255.964C117.677 254.478 116.472 253.273 114.985 253.273C113.499 253.273 112.294 254.478 112.294 255.964C112.294 257.451 113.499 258.656 114.985 258.656Z" fill="white"/>
<path d="M93.618 258.656C95.1044 258.656 96.3093 257.451 96.3093 255.964C96.3093 254.478 95.1044 253.273 93.618 253.273C92.1317 253.273 90.9268 254.478 90.9268 255.964C90.9268 257.451 92.1317 258.656 93.618 258.656Z" fill="white"/>
<path d="M145.934 258.656C147.421 258.656 148.626 257.451 148.626 255.964C148.626 254.478 147.421 253.273 145.934 253.273C144.448 253.273 143.243 254.478 143.243 255.964C143.243 257.451 144.448 258.656 145.934 258.656Z" fill="white"/>
<path d="M148.626 177.958C148.626 177.958 169.178 176.246 171.42 179.1C173.704 181.954 158.657 178.774 154.702 182.77C150.746 186.766 162.286 207.644 158.779 211.232C155.273 214.861 124.445 214.372 124.445 214.372V212.17C124.445 212.17 151.113 211.395 154.702 208.949C158.331 206.502 143.121 183.096 148.626 177.958Z" fill="white"/>
<path d="M102.792 137.752C102.792 137.752 91.9048 136.855 91.0077 141.096C90.1106 145.337 84.5242 185.787 88.9689 187.582C93.4136 189.376 110.418 186.195 110.418 186.195L102.792 137.752Z" fill="#FF5F5F"/>
<path d="M136.964 196.838C136.964 196.838 90.111 196.104 89.2954 197.735C88.4799 199.366 87.909 203.729 90.6818 204.667C93.4547 205.605 148.626 207.032 149.156 204.422C149.727 201.813 136.964 196.838 136.964 196.838Z" fill="#FF5F5F"/>
<path d="M113.559 208.337L113.762 215.922C113.762 215.922 116.087 213.842 119.023 213.393C121.959 212.945 121.714 213.067 121.959 212.945C122.163 212.822 121.265 208.378 121.265 208.378H113.559V208.337Z" fill="#EFEFEF"/>
<path d="M114.659 247.401L122.814 247.034L122.61 242.304C122.61 242.304 121.265 244.751 118.736 245.444C116.208 246.137 114.577 245.362 114.577 245.362L114.659 247.401Z" fill="#EFEFEF"/>
<path d="M94.0255 166.214C94.0255 166.214 93.0876 131.309 106.177 128.006C119.226 124.703 145.935 124.337 152.336 126.702C158.779 129.107 158.779 166.214 158.779 166.214H94.0255Z" fill="#F29A39"/>
<path d="M125.097 126.824C125.097 126.824 123.262 129.923 122.977 133.022C122.651 136.121 126.361 141.952 131.866 141.83C137.371 141.748 139.818 137.63 139.818 137.63L125.097 126.824Z" fill="#FFBE83"/>
<path d="M130.48 166.214C130.48 166.214 131.989 162.667 137.698 162.3C143.407 161.933 144.304 166.214 144.304 166.214H130.48Z" fill="white"/>
<path d="M125.628 166.214L127.544 160.873C127.544 160.873 133.131 158.018 136.108 158.508C139.084 158.997 144.875 160.587 144.345 162.3C143.855 164.012 142.673 163.564 142.673 163.564C142.673 163.564 141.001 163.115 137.779 163.319C134.558 163.523 133.335 165.97 131.622 166.255C129.869 166.5 125.628 166.214 125.628 166.214Z" fill="#FFBE83"/>
<path d="M103.609 168.049L101.692 185.013L149.157 182.688L147.73 166.622L103.609 168.049Z" fill="#F29A39"/>
<path d="M101.692 185.013C101.692 185.013 99.4896 198.469 105.606 201.486C111.682 204.545 147.973 204.545 151.235 199.203C154.538 193.861 149.156 182.688 149.156 182.688L101.692 185.013Z" fill="#282741"/>
<path d="M110.664 191.374C110.664 191.374 125.343 186.807 129.91 191.374C134.477 195.941 125.425 261.755 125.425 261.755H120.939L118.778 204.789L107.238 202.057L110.664 191.374Z" fill="#282741"/>
<path d="M147.403 182.77C147.403 182.77 170.687 188.071 174.153 191.333C177.619 194.636 168.73 261.714 168.73 261.714H165.182L163.673 203.525L137.576 202.995L147.403 182.77Z" fill="#282741"/>
<path d="M123.385 108.841C121.672 118.505 125.098 140.362 138.676 139.873C149.441 139.506 146.424 111.492 142.142 108.352C137.861 105.171 125.138 99.1771 123.385 108.841Z" fill="#FFBE83"/>
<path d="M145.078 124.173C145.078 124.173 149.523 126.049 149.156 131.146C148.789 136.203 147.117 136.325 147.117 136.325L148.177 138.527L142.102 139.873L140.43 135.387L145.078 124.173Z" fill="#FFBE83"/>
<path d="M148.178 138.568C148.178 138.568 166.446 158.793 165.182 163.36C163.918 167.927 158.046 167.682 152.99 167.438C147.974 167.152 142.103 139.913 142.103 139.913L148.178 138.568Z" fill="#F29A39"/>
<path d="M122.448 113.938C122.448 113.938 118.941 102.154 130.195 99.6665C136.189 98.3208 137.453 101.828 142.714 98.8101C144.508 97.7499 144.1 96.1596 144.1 96.1596C144.1 96.1596 149.156 105.131 144.712 108.597C137.902 113.938 122.448 113.938 122.448 113.938Z" fill="#6B3000"/>
<path d="M129.217 111.41L124.69 119.606L122.488 118.791C122.488 118.791 119.145 113.653 122.448 110.309C124.405 108.311 129.217 111.41 129.217 111.41Z" fill="#6B3000"/>
<path d="M124.242 119.362C124.242 119.362 120.735 118.016 120.164 119.362C119.593 120.707 120.409 123.439 121.673 124.173C122.937 124.948 124.609 124.622 124.609 124.622L124.242 119.362Z" fill="#FFBE83"/>
<path d="M144.508 114.795C144.508 114.795 146.914 113.857 147.933 114.795C148.952 115.733 147.688 118.465 147.036 119.035C146.384 119.606 145.242 119.484 145.242 119.484L144.508 114.795Z" fill="#FFBE83"/>
<path d="M138.554 116.14C138.554 116.14 137.861 119.525 138.554 121.074C139.248 122.583 142.673 126.335 142.673 126.335C142.673 126.335 141.49 129.067 139.533 129.067C137.576 129.067 136.679 127.843 136.679 127.843L137.739 126.824C137.739 126.824 136.679 122.461 136.679 120.748C136.679 119.035 136.679 116.14 136.679 116.14H138.554Z" fill="url(#paint0_linear)"/>
<path d="M129.013 116.874L134.885 115.692L135.17 117.241L129.339 118.709L129.013 116.874Z" fill="#6B3000"/>
<path d="M138.921 115.121L144.793 113.938L145.078 115.488L139.288 116.956L138.921 115.121Z" fill="#6B3000"/>
<path d="M124.69 119.606C124.69 119.606 126.81 127.721 128.523 129.515C130.235 131.309 135.455 132.573 135.455 132.573C135.455 132.573 136.352 129.678 139.818 129.067C143.284 128.455 145.812 129.515 145.812 129.515C145.812 129.515 146.465 137.63 140.593 139.506C134.721 141.381 130.439 138.119 128.482 134.938C126.484 131.758 125.261 129.719 124.608 126.987C123.996 124.255 123.222 119.117 123.222 119.117L124.69 119.606Z" fill="#EFAA70"/>
<path d="M136.882 134.857C136.882 134.857 139.818 133.634 141.49 133.267C143.161 132.9 143.895 133.104 143.895 133.104V133.471C143.895 133.471 141.857 133.511 140.796 133.756C139.736 134.001 137.127 135.224 137.127 135.224L136.882 134.857Z" fill="#6B3000"/>
<path d="M126.035 160.016L124.159 164.502C124.159 164.502 102.874 164.42 100.305 161.077C97.7357 157.733 99.8153 132.777 103.811 132.043C107.808 131.309 104.953 158.467 104.953 158.467L126.035 160.016Z" fill="#FFA64D"/>
<path d="M144.222 140.81L148.34 139.873C148.34 139.873 163.672 158.752 162.367 161.444C160.981 164.094 151.765 163.727 144.222 140.81Z" fill="#FFA64D"/>
<path d="M107.931 156.224C107.931 156.224 105.851 134.939 110.214 132.451C114.578 129.964 120.979 130.249 120.979 130.249C120.979 130.249 119.593 140.81 127.585 143.216C135.578 145.663 139.451 140.688 139.451 140.688L141.205 140.607C141.205 140.607 142.306 147.375 143.896 151.209C145.486 155.042 148.3 159.772 148.3 159.772L145.079 160.669C145.079 160.669 145.364 157.651 138.921 156.224C132.479 154.797 126.036 158.426 126.036 158.426L107.931 156.224Z" fill="#FFA64D"/>
<path d="M132.355 185.013L145.893 183.626C145.893 183.626 171.379 190.477 171.705 191.863C172.031 193.25 158.29 193.657 147.158 191.088C136.025 188.56 132.355 185.013 132.355 185.013Z" fill="#383851"/>
<path d="M107.441 186.684L120.531 185.91C120.531 185.91 130.97 193.29 128.156 195.941C125.342 198.591 108.542 190.599 107.441 186.684Z" fill="#383851"/>
<path d="M144.222 99.7072C144.222 99.7072 146.913 105.09 143.937 107.251C140.96 109.412 132.601 112.144 129.665 110.758C126.729 109.371 126.525 103.336 128.156 102.643C129.787 101.95 133.702 104.274 138.35 102.725C142.999 101.094 144.222 99.7072 144.222 99.7072Z" fill="#7C3C0D"/>
<path d="M120.938 261.755V268.075L141.327 267.586C141.327 267.586 142.387 266.526 136.964 264.895C131.54 263.304 126.973 263.304 126.973 263.304L125.465 261.755H120.938Z" fill="#EE534F"/>
<path d="M164.733 261.755V268.075L185.122 267.586C185.122 267.586 186.182 266.526 180.759 264.895C175.335 263.304 170.768 263.304 170.768 263.304L169.26 261.755H164.733Z" fill="#EE534F"/>
<path d="M140.186 120.3C140.186 120.3 140.267 123.236 142.754 123.358C145.242 123.48 144.263 119.158 144.263 119.158L140.186 120.3Z" fill="#EFAA70"/>
<path d="M131.173 122.869C131.173 122.869 131.254 125.804 133.742 125.927C136.229 126.049 135.251 121.727 135.251 121.727L131.173 122.869Z" fill="#EFAA70"/>
<path d="M140.634 120.096C140.634 120.096 141.001 122.257 142.795 121.971C144.752 121.645 144.1 119.117 144.1 119.117L140.634 120.096Z" fill="white"/>
<path d="M142.428 121.115C143.081 121.115 143.61 120.586 143.61 119.933C143.61 119.279 143.081 118.75 142.428 118.75C141.775 118.75 141.245 119.279 141.245 119.933C141.245 120.586 141.775 121.115 142.428 121.115Z" fill="#6B3000"/>
<path d="M139.94 120.707C139.94 120.707 139.247 116.834 141.205 116.507C143.162 116.14 144.793 119.321 144.793 119.321L139.94 120.707Z" fill="url(#paint1_linear)"/>
<path d="M131.256 122.624C131.256 122.624 131.623 124.785 133.417 124.5C135.374 124.173 134.722 121.645 134.722 121.645L131.256 122.624Z" fill="white"/>
<path d="M134.232 122.42C134.232 123.072 133.702 123.603 133.05 123.603C132.397 123.603 131.867 123.072 131.867 122.42C131.867 121.768 132.397 121.237 133.05 121.237C133.702 121.278 134.232 121.808 134.232 122.42Z" fill="#6B3000"/>
<path d="M130.603 123.236C130.603 123.236 129.909 119.362 131.867 119.036C133.824 118.669 135.455 121.849 135.455 121.849L130.603 123.236Z" fill="url(#paint2_linear)"/>
<path d="M110.785 172.372H146.057C146.057 172.372 148.993 178.162 147.117 179.997C145.241 181.791 110.989 183.504 109.562 181.628C108.134 179.712 110.785 172.372 110.785 172.372Z" fill="#FFA64D"/>
<path d="M120.939 261.755C120.939 261.755 120.286 260.532 120.572 259.675C120.857 258.86 122.04 258.982 121.428 258.452C120.816 257.922 119.267 258.411 119.879 257.514C120.49 256.576 121.387 257.025 120.735 256.209C120.082 255.394 119.512 255.434 119.919 254.986C120.327 254.537 121.387 254.333 121.387 254.333C121.387 254.333 125.873 253.885 126.362 254.7C126.851 255.516 126.444 255.761 126.566 256.291C126.648 256.821 128.401 256.943 127.218 257.718C126.036 258.493 125.71 258.085 126.199 259.064C126.688 260.042 126.851 260.654 126.403 260.858C125.914 261.062 125.465 261.673 125.465 261.673H120.939V261.755Z" fill="#282741"/>
<path d="M165.181 261.755C165.181 261.755 165.141 261.469 164.733 260.939C164.325 260.409 164.733 260.491 164.733 260.042C164.733 259.594 164.774 259.634 164.284 259.308C163.795 258.982 163.632 258.982 164.203 258.33C164.733 257.677 165.181 257.636 164.733 256.943C164.325 256.25 164.244 256.331 164.733 255.842C165.222 255.353 165.1 254.782 165.548 254.415C165.997 254.048 169.463 253.436 169.463 253.436C169.463 253.436 170.849 253.966 170.523 254.945C170.197 255.883 169.626 255.271 169.789 256.046C169.993 256.821 170.768 256.372 170.156 257.473C169.545 258.574 168.729 258.33 169.3 259.471C169.83 260.572 170.116 261.306 169.749 261.429C169.382 261.551 168.729 261.796 168.729 261.796H165.181V261.755Z" fill="#282741"/>
<path d="M130.562 143.706C129.298 143.706 128.074 143.502 126.973 143.094C125.342 142.482 123.956 141.422 122.773 139.995C121.591 138.527 120.938 136.896 120.816 135.102C120.734 133.674 120.979 132.166 121.591 130.616C122.61 127.966 124.2 126.131 124.282 126.049L124.608 126.335C124.608 126.335 122.977 128.21 121.999 130.779C120.694 134.205 121.061 137.222 123.1 139.709C125.179 142.278 127.952 143.461 131.296 143.257C133.783 143.094 135.944 142.156 136.76 141.707C137.983 140.973 138.432 139.832 138.472 139.832L138.88 139.995C138.839 140.036 138.35 141.3 137.004 142.074C136.189 142.564 133.905 143.542 131.336 143.706C131.092 143.706 130.847 143.706 130.562 143.706Z" fill="#D67C22"/>
<path d="M125.547 164.706C124.446 164.706 109.97 164.706 106.586 164.42C104.547 164.257 104.261 163.89 104.057 163.36C103.976 163.115 103.894 162.952 103.242 162.789C103.079 162.748 102.589 162.626 102.426 162.667C102.385 162.667 102.385 162.667 102.345 162.83C102.222 163.115 102.059 163.605 100.958 164.053C100.224 164.339 99.8573 164.379 99.6534 164.176C99.4088 163.89 99.6534 163.401 100.02 162.667C100.224 162.3 100.428 161.851 100.591 161.444C100.673 161.24 100.673 161.158 100.673 161.117C100.632 161.117 100.51 161.117 100.428 161.117C99.8165 161.117 98.634 161.077 97.8592 158.875C96.6359 155.409 99.4495 134.368 99.5719 133.471L100.02 133.511C99.9796 133.715 97.0845 155.368 98.3078 158.711C99.001 160.628 99.8981 160.628 100.469 160.669C100.714 160.669 100.958 160.669 101.081 160.873C101.203 161.077 101.162 161.362 101.04 161.607C100.877 162.055 100.673 162.504 100.469 162.871C100.306 163.238 100.061 163.686 100.061 163.849C100.102 163.849 100.306 163.849 100.877 163.645C101.815 163.278 101.937 162.911 102.018 162.667C102.222 162.178 102.467 162.137 103.405 162.381C104.261 162.585 104.424 162.912 104.547 163.238C104.669 163.564 104.751 163.849 106.667 164.012C110.133 164.298 125.506 164.257 125.669 164.257V164.706C125.628 164.706 125.588 164.706 125.547 164.706Z" fill="#D67C22"/>
<path d="M157.352 163.931C157.23 163.89 154.62 162.463 151.562 158.018C148.544 153.614 144.752 139.954 144.589 139.342L144.997 139.22C145.037 139.342 148.911 153.41 151.888 157.733C154.865 162.055 157.474 163.482 157.515 163.482L157.352 163.931Z" fill="#D67C22"/>
<path d="M106.302 170.803L105.076 185.023L105.523 185.061L106.749 170.842L106.302 170.803Z" fill="#D67C22"/>
<path d="M122.488 261.755H122.04C122.081 261.143 121.958 259.512 121.306 259.064C121.102 258.941 120.857 258.737 120.898 258.493C120.939 258.166 121.387 258.126 121.999 258.003C122.284 257.963 122.57 257.881 122.896 257.799C122.978 257.759 123.059 257.759 123.1 257.718C122.978 257.636 122.651 257.473 122.448 257.351C122.244 257.269 122.04 257.147 121.877 257.065C121.632 256.902 121.51 256.739 121.469 256.576C121.387 256.25 121.632 255.883 121.958 255.475C122.081 255.312 122.162 255.149 122.284 254.986C122.529 254.333 122.04 245.566 121.591 237.085C121.061 227.258 120.49 216.085 120.694 212.578C121.02 207.073 121.306 205.972 121.836 204.096C121.958 203.688 122.081 203.199 122.203 202.628C122.284 202.302 122.366 202.017 122.407 201.813C121.999 202.18 121.265 202.669 120.205 202.424C119.471 202.261 119.104 202.139 119.022 201.853C118.941 201.609 119.145 201.405 119.471 201.079C119.838 200.753 120.327 200.263 120.694 199.529C120.735 199.407 120.735 199.325 120.694 199.285C120.409 198.714 118.248 198.347 115.923 197.98C112.58 197.409 108.38 196.716 106.3 194.962C104.669 193.576 103.649 191.415 103.405 188.683C103.201 186.644 103.486 185.053 103.527 184.972L103.976 185.053C103.976 185.053 103.69 186.684 103.853 188.642C104.016 190.436 104.628 192.964 106.585 194.595C108.583 196.267 112.702 196.96 115.964 197.49C118.982 197.98 120.694 198.306 121.061 199.04C121.143 199.162 121.184 199.407 121.061 199.692C120.653 200.508 120.123 201.038 119.756 201.364C119.634 201.487 119.512 201.609 119.43 201.69C119.512 201.731 119.716 201.813 120.246 201.935C121.224 202.139 121.877 201.568 122.203 201.242C122.407 201.079 122.529 200.956 122.733 201.038C122.896 201.16 122.855 201.364 122.815 201.609C122.774 201.813 122.692 202.139 122.57 202.669C122.448 203.24 122.284 203.729 122.162 204.137C121.673 205.972 121.347 207.073 121.02 212.537C120.817 216.003 121.428 227.135 121.917 237.003C122.162 241.652 122.407 246.015 122.529 249.318C122.733 254.374 122.651 254.986 122.529 255.149C122.407 255.353 122.284 255.516 122.162 255.679C121.917 256.005 121.714 256.291 121.754 256.454C121.754 256.535 121.836 256.576 121.958 256.658C122.121 256.739 122.325 256.862 122.529 256.943C123.1 257.229 123.508 257.392 123.467 257.759C123.426 258.003 123.141 258.126 122.896 258.207C122.57 258.289 122.244 258.37 121.958 258.411C121.714 258.452 121.428 258.533 121.265 258.574C121.306 258.615 121.347 258.615 121.428 258.697C122.57 259.308 122.488 261.51 122.488 261.755Z" fill="#46465E"/>
<path d="M166.487 261.796L166.079 261.632C166.079 261.592 166.242 261.143 165.793 260.817C165.549 260.654 165.508 260.409 165.508 260.287C165.508 259.92 165.834 259.471 166.568 258.982C166.609 258.941 166.65 258.9 166.69 258.9C166.69 258.86 166.65 258.86 166.65 258.819C166.487 258.656 166.242 258.411 165.997 257.922C165.549 257.065 165.508 256.984 165.793 256.413C165.875 256.25 165.997 256.005 166.12 255.638C166.242 255.312 166.323 255.067 166.405 254.904C166.446 254.782 166.527 254.619 166.527 254.619C166.527 254.578 166.446 254.497 166.324 254.374C166.242 254.293 166.201 254.211 166.079 254.089C165.916 253.885 165.753 253.232 165.793 247.483C165.834 243.813 165.916 239.042 166.038 234.434C166.16 228.399 166.283 222.691 166.242 219.795C166.12 212.741 166.935 204.789 167.791 202.098C167.914 201.69 167.955 201.486 167.995 201.364C167.955 201.405 167.873 201.405 167.832 201.446C167.302 201.69 166.323 202.18 165.182 201.486C164.529 201.119 164.285 200.834 164.244 200.549C164.244 200.263 164.489 200.1 164.692 199.937C165.059 199.692 165.223 199.529 165.059 199.162C164.815 198.632 162.817 198.877 160.248 199.121C157.475 199.407 153.683 199.815 149.197 199.692C140.145 199.448 133.376 197.939 133.335 197.939L133.417 197.49C133.498 197.49 140.185 198.999 149.197 199.244C153.642 199.366 157.434 198.958 160.207 198.673C163.388 198.347 165.1 198.143 165.467 198.958C165.793 199.692 165.263 200.059 164.937 200.304C164.856 200.386 164.692 200.467 164.652 200.549C164.652 200.549 164.652 200.712 165.345 201.12C166.283 201.69 167.057 201.323 167.588 201.079C167.873 200.956 168.077 200.834 168.281 200.997C168.485 201.16 168.403 201.486 168.199 202.261C167.506 204.586 166.568 212.129 166.69 219.795C166.731 222.731 166.609 228.44 166.487 234.475C166.405 239.001 166.283 243.731 166.242 247.361C166.201 252.58 166.323 253.681 166.405 253.844C166.487 253.966 166.568 254.048 166.609 254.089C166.976 254.497 166.976 254.578 166.731 255.108C166.65 255.271 166.568 255.475 166.446 255.801C166.324 256.168 166.201 256.413 166.12 256.617C165.997 256.862 165.957 256.943 165.997 257.025C165.997 257.147 166.12 257.351 166.324 257.759C166.568 258.207 166.772 258.411 166.894 258.574C167.017 258.697 167.139 258.819 167.098 258.982C167.098 259.145 166.935 259.267 166.772 259.39C165.997 259.961 165.916 260.246 165.916 260.368C165.916 260.409 165.916 260.45 166.038 260.532C166.65 260.898 166.609 261.551 166.487 261.796Z" fill="#46465E"/>
<path d="M106.625 190.477C105.157 190.477 103.934 190.191 103.812 190.191L103.893 189.743C103.934 189.743 108.052 190.64 110.214 189.131C112.375 187.622 112.334 184.482 112.334 184.482H112.782C112.782 184.605 112.823 187.867 110.458 189.498C109.439 190.273 107.93 190.477 106.625 190.477Z" fill="#383851"/>
<path d="M114.781 211.803C114.781 211.803 87.2562 214.209 84.6872 211.803C82.1183 209.397 81.1804 188.397 83.0562 187.704C84.9727 187.011 102.955 192.883 106.625 191.007C110.295 189.131 88.1533 179.1 82.0367 181.383C75.961 183.667 78.9377 208.337 81.8329 212.211C84.6872 216.125 114.74 213.72 114.74 213.72V211.803H114.781Z" fill="white"/>
<path d="M121.754 264.528V267.178L139.533 266.811C139.533 266.811 136.148 264.691 131.214 264.283C126.239 263.875 121.754 264.528 121.754 264.528Z" fill="#FF5F5F"/>
<path d="M165.833 264.487L165.385 267.26L183.734 266.974C183.734 266.974 179.249 264.528 175.661 264.201C172.113 263.834 165.833 264.487 165.833 264.487Z" fill="#FF5F5F"/>
<path d="M122.365 58.6856C122.365 59.2565 121.916 59.705 121.346 59.705C120.775 59.705 120.326 59.2565 120.326 58.6856C120.326 58.1147 120.775 57.6662 121.346 57.6662C121.916 57.6662 122.365 58.1147 122.365 58.6856Z" fill="#91BFBC"/>
<path d="M120.816 75.7304C120.816 76.4644 120.204 77.0352 119.511 77.0352C118.777 77.0352 118.206 76.4236 118.206 75.7304C118.206 74.9964 118.818 74.4255 119.511 74.4255C120.245 74.3847 120.816 74.9964 120.816 75.7304Z" fill="#91BFBC"/>
<path d="M142.183 85.0275C142.183 85.68 141.653 86.1693 141.041 86.1693C140.389 86.1693 139.899 85.6392 139.899 85.0275C139.899 84.3751 140.43 83.8858 141.041 83.8858C141.694 83.8858 142.183 84.3751 142.183 85.0275Z" fill="#91BFBC"/>
<path d="M130.643 94.1616C130.643 95.2625 129.746 96.1596 128.645 96.1596C127.544 96.1596 126.646 95.2625 126.646 94.1616C126.646 93.0606 127.544 92.1635 128.645 92.1635C129.705 92.1635 130.643 93.0606 130.643 94.1616Z" fill="#91BFBC"/>
<path d="M158.739 66.9633C158.739 67.3711 158.372 67.7381 157.964 67.7381C157.556 67.7381 157.189 67.3711 157.189 66.9633C157.189 66.5556 157.556 66.1886 157.964 66.1886C158.413 66.1886 158.739 66.5148 158.739 66.9633Z" fill="#91BFBC"/>
<path d="M137.494 63.8643C137.494 64.1497 137.249 64.3944 136.964 64.3944C136.678 64.3944 136.434 64.1497 136.434 63.8643C136.434 63.5789 136.678 63.3342 136.964 63.3342C137.249 63.3342 137.494 63.5789 137.494 63.8643Z" fill="#91BFBC"/>
<path d="M149.034 52.9361C149.034 53.2215 148.789 53.4662 148.504 53.4662C148.218 53.4662 147.974 53.2215 147.974 52.9361C147.974 52.6506 148.218 52.406 148.504 52.406C148.789 52.406 149.034 52.6506 149.034 52.9361Z" fill="#91BFBC"/>
<path d="M105.117 73.7323C105.117 74.0177 104.872 74.2624 104.587 74.2624C104.301 74.2624 104.057 74.0177 104.057 73.7323C104.057 73.4469 104.301 73.2022 104.587 73.2022C104.872 73.2022 105.117 73.4469 105.117 73.7323Z" fill="#91BFBC"/>
<path d="M152.295 94.1208C152.295 94.8548 151.724 95.4256 150.99 95.4256C150.256 95.4256 149.686 94.8548 149.686 94.1208C149.686 93.3868 150.256 92.8159 150.99 92.8159C151.724 92.8159 152.295 93.3868 152.295 94.1208Z" fill="#91BFBC"/>
<path d="M150.094 72.7944C150.094 73.6915 149.4 74.3847 148.503 74.3847C147.606 74.3847 146.913 73.6915 146.913 72.7944C146.913 71.8974 147.606 71.2041 148.503 71.2041C149.4 71.2041 150.094 71.9381 150.094 72.7944Z" fill="#91BFBC"/>
<path d="M61.7305 166.214H232.464V170.251L61.7305 171.271V166.214Z" fill="#6B3000"/>
<path d="M61.812 171.271L54.8799 270.359H59.7323L68.5809 171.271H61.812Z" fill="white"/>
<path d="M232.423 170.251L239.314 269.339H234.503L225.613 170.251H232.423Z" fill="white"/>
<path d="M167.098 18.1671C153.274 18.1671 142.061 29.3808 142.061 43.2041H192.135C192.135 29.3808 180.921 18.1671 167.098 18.1671Z" fill="#EE534F"/>
<path d="M145.119 40.4313C145.119 40.4313 150.053 20.0428 165.263 20.5729C180.514 21.103 188.465 41.1245 188.465 41.1245L145.119 40.4313Z" fill="#FF5F5F"/>
<path d="M165.467 18.2079V1H167.098L167.669 18.2079H165.467Z" fill="#282741"/>
<path d="M142.061 43.2041C142.061 43.2041 149.645 45.7323 167.668 46.4255C185.692 47.1187 192.135 43.2041 192.135 43.2041C192.135 43.2041 175.416 42.1439 167.098 42.1439C158.779 42.1439 142.061 43.2041 142.061 43.2041Z" fill="white"/>
<g style="mix-blend-mode:screen">
<path d="M142.061 43.2041L118.166 85.7345L216.642 86.6724L192.135 43.2041H142.061Z" fill="url(#paint3_linear)"/>
</g>
<path d="M189.036 219.184H227.693V267.871H186.345L189.036 219.184Z" fill="#282741"/>
<path d="M215.867 219.184L213.176 267.871H227.692V219.184H215.867Z" fill="#383851"/>
<path d="M217.499 221.753L225.614 221.386L226.511 265.588H214.645L217.499 221.753Z" fill="#9E9E9E"/>
<path d="M114.333 104.111L76.0431 96.1596L71.7207 158.752L115.597 149.537L121.387 117.201L114.333 104.111Z" fill="url(#paint4_linear)"/>
<path d="M114.333 104.111L115.597 149.537H186.59L188.221 104.111H114.333Z" fill="#282741"/>
<path d="M143.57 147.661L145.731 163.809H135.496L135.863 166.214H167.343L166.69 163.442L158.413 163.645L158.698 147.661H143.57Z" fill="#282741"/>
<path d="M117.31 105.905L117.799 147.008L185.326 148.313L186.916 106.476L117.31 105.905Z" fill="#383851"/>
<path d="M109.766 166.214L110.54 163.36H149.075L149.564 166.214H109.766Z" fill="#282741"/>
<path d="M217.906 237.778L218.355 228.155H220.067L220.598 237.452L217.906 237.778Z" fill="#282741"/>
<path d="M223.37 234.72C223.37 235.413 222.799 235.984 222.106 235.984C221.413 235.984 220.842 235.413 220.842 234.72C220.842 234.027 221.413 233.456 222.106 233.456C222.799 233.456 223.37 234.027 223.37 234.72Z" fill="#282741"/>
<path d="M217.009 257.922L224.879 257.636V258.656L217.009 258.982V257.922Z" fill="#282741"/>
<path d="M217.009 259.675L224.879 259.39V260.409L217.009 260.735V259.675Z" fill="#282741"/>
<path d="M217.009 261.469L224.879 261.143V262.163L217.009 262.53V261.469Z" fill="#282741"/>
<path d="M217.009 263.223L224.879 262.937V263.916L217.009 264.283V263.223Z" fill="#282741"/>
<path d="M84.688 110.595C75.6355 110.595 68.2549 103.214 68.2549 94.1616C68.2549 85.1091 75.6355 77.7285 84.688 77.7285C93.7405 77.7285 101.121 85.1091 101.121 94.1616C101.121 103.214 93.7405 110.595 84.688 110.595ZM84.688 79.0741C76.3695 79.0741 69.5597 85.8431 69.5597 94.1616C69.5597 102.48 76.3287 109.249 84.688 109.249C93.0065 109.249 99.7755 102.48 99.7755 94.1616C99.7755 85.8431 93.0065 79.0741 84.688 79.0741Z" fill="white"/>
<path d="M84.688 93.6315L75.4316 86.047L83.8317 94.447L84.688 93.6315Z" fill="#EE534F"/>
<path d="M85.0142 94.6101L89.622 90.247L84.4434 93.7538L85.0142 94.6101Z" fill="#EE534F"/>
<path d="M86.0751 94.1616C86.0751 94.9363 85.4227 95.5888 84.6479 95.5888C83.8731 95.5888 83.2207 94.9363 83.2207 94.1616C83.2207 93.3868 83.8731 92.7344 84.6479 92.7344C85.4634 92.7344 86.0751 93.3868 86.0751 94.1616Z" fill="white"/>
<path d="M202.125 253.396C202.003 253.396 201.88 253.396 201.758 253.396C193.888 253.355 183.449 252.131 177.7 248.828C176.395 248.054 175.212 246.056 174.193 242.712C173.255 239.735 172.44 235.658 171.706 230.642C170.482 222.16 169.544 210.784 168.933 196.838C167.873 173.106 168.117 149.781 168.117 149.537H168.606C168.606 149.781 168.362 173.065 169.422 196.797C170.808 228.114 173.744 245.974 177.944 248.38C183.612 251.642 193.97 252.825 201.758 252.865C206.325 252.865 210.444 252.539 213.747 251.846C217.213 251.153 219.455 250.093 220.23 248.869C221.983 246.096 222.31 242.427 222.31 239.817C222.31 236.962 221.861 234.76 221.861 234.72L222.35 234.638C222.35 234.679 222.799 236.922 222.799 239.817C222.799 242.508 222.432 246.3 220.638 249.155C219.578 250.867 216.356 251.846 213.828 252.335C210.607 253.029 206.57 253.396 202.125 253.396Z" fill="#EE534F"/>
<path d="M200.861 259.349C199.801 259.349 198.782 259.349 197.803 259.308C189.24 259.064 181.737 257.84 178.312 256.209C176.273 255.231 174.886 249.155 173.989 237.615C173.296 228.603 172.97 216.289 172.97 201.12C173.011 175.226 174.071 149.537 174.071 149.251L174.56 149.292C174.56 149.537 173.5 175.267 173.459 201.12C173.459 216.329 173.785 228.562 174.478 237.574C175.539 251.479 177.251 255.149 178.515 255.72C181.9 257.351 189.321 258.533 197.803 258.778C206.366 259.023 213.502 258.248 216.438 256.78C217.294 256.331 217.784 255.842 217.865 255.353C218.762 250.337 219.415 234.883 219.415 234.72H219.904C219.904 234.883 219.292 250.378 218.354 255.434C218.232 256.128 217.661 256.739 216.642 257.229C213.624 258.819 206.978 259.349 200.861 259.349Z" fill="#EE534F"/>
<path fill-rule="evenodd" clip-rule="evenodd" d="M68.3359 124.255L69.0291 80.6644H98.1439L99.4895 124.255H68.3359Z" fill="white"/>
<path fill-rule="evenodd" clip-rule="evenodd" d="M98.1436 80.6644L106.421 81.6838L105.524 124.255H99.4892L98.1436 80.6644Z" fill="#EDEDED"/>
<path fill-rule="evenodd" clip-rule="evenodd" d="M68.9072 88.412L98.389 89.0237L106.218 90.2877V91.1033L98.4297 89.7576H69.0296L68.9072 88.412Z" fill="#D8D8D8"/>
<path fill-rule="evenodd" clip-rule="evenodd" d="M98.5927 95.8334H84.2393L98.6335 96.6082H102.711L98.5927 95.8334Z" fill="#D8D8D8"/>
<path fill-rule="evenodd" clip-rule="evenodd" d="M98.6738 98.4431L91.6602 99.2179L98.7146 99.748L100.305 99.0956L98.6738 98.4431Z" fill="#D8D8D8"/>
<path fill-rule="evenodd" clip-rule="evenodd" d="M98.9193 106.191L71.1094 107.006H98.96L104.506 107.333L98.9193 106.191Z" fill="#D8D8D8"/>
<path fill-rule="evenodd" clip-rule="evenodd" d="M68.9072 82.5401L87.2976 82.9071L68.9072 83.6819V82.5401Z" fill="#D8D8D8"/>
<path d="M53.7786 277.576C53.7786 278.229 47.5805 278.759 39.9552 278.759C32.3299 278.759 26.1318 278.229 26.1318 277.576C26.1318 276.924 32.3299 276.394 39.9552 276.394C47.5805 276.394 53.7786 276.924 53.7786 277.576Z" fill="#91BFBC"/>
<path d="M64.2997 288.219C64.2997 288.79 61.2822 289.279 57.5307 289.279C53.7792 289.279 50.7617 288.79 50.7617 288.219C50.7617 287.648 53.7792 287.159 57.5307 287.159C61.2822 287.159 64.2997 287.648 64.2997 288.219Z" fill="#91BFBC"/>
<path d="M75.6762 284.019C75.6762 284.59 73.3519 285.079 70.4568 285.079C67.6024 285.079 65.2373 284.59 65.2373 284.019C65.2373 283.448 67.5616 282.959 70.4568 282.959C73.3519 282.959 75.6762 283.407 75.6762 284.019Z" fill="#91BFBC"/>
<path d="M62.2605 279.901C65.1431 279.901 67.4799 279.426 67.4799 278.84C67.4799 278.255 65.1431 277.78 62.2605 277.78C59.3778 277.78 57.041 278.255 57.041 278.84C57.041 279.426 59.3778 279.901 62.2605 279.901Z" fill="#91BFBC"/>
<path d="M25.6836 247.524L26.0506 244.547L27.7224 244.996L28.6603 243.405C28.6603 243.405 30.7807 243.283 30.9846 243.405C31.1885 243.528 32.8603 243.364 32.8603 243.364L34.8584 241.203L37.1011 240.306C37.1011 240.306 40.8526 239.45 41.0565 239.45C41.2604 239.45 43.1361 241.774 43.1361 241.774L46.276 243.487C46.276 243.487 46.4798 243.895 47.1323 244.221C47.7847 244.547 48.7226 244.343 48.7226 244.343V246.871L36.3672 249.399L25.6836 247.524Z" fill="white"/>
<path d="M24.3379 246.83H49.8643L44.9302 277.576H26.8661L24.3379 246.83Z" fill="#282741"/>
<path d="M26.6621 249.032H44.3185C44.3185 249.032 43.4214 267.056 41.7088 271.052C39.9962 275.048 28.5378 275.945 28.5378 275.945L26.6621 249.032Z" fill="#35354C"/>
<path d="M58.1421 275.66L59.6916 274.681L60.7518 275.17L63.6062 273.376L66.3791 275.66L64.5849 277.536L63.0354 279.167C63.0354 279.167 62.7091 280.798 62.2606 280.798C61.812 280.798 58.9577 278.84 58.9577 278.84C58.9577 278.84 56.6741 279.167 57.1635 278.514C57.6528 277.862 58.1421 276.557 58.1421 276.557V275.66Z" fill="white"/>
<path d="M67.969 280.838L70.2525 280.268L71.3535 281.205L73.1884 280.757V282.469L73.637 283.978L70.7826 284.753C70.7826 284.753 68.7845 284.101 68.703 283.937C68.6622 283.774 66.3379 284.141 66.3379 284.141V282.51L66.868 279.901L67.969 280.838Z" fill="white"/>
<path d="M51.6172 284.753L54.1861 283.244C54.1861 283.244 55.7764 283.937 55.9803 283.978C56.1842 284.019 57.4075 282.184 57.5706 282.266C57.7337 282.347 60.5473 284.182 60.5473 284.182L59.0386 286.955L57.9784 288.994L53.6968 287.893C53.6968 287.893 53.0852 287.689 52.8405 287.771C52.5551 287.893 51.9434 286.67 51.9434 286.506C51.9434 286.343 52.3919 285.65 52.3919 285.65L51.6172 284.753Z" fill="white"/>
<path fill-rule="evenodd" clip-rule="evenodd" d="M251.914 225.626H283.76V248.829H251.017L251.914 225.626Z" fill="#DDC4A8"/>
<path fill-rule="evenodd" clip-rule="evenodd" d="M252.077 228.522L285.596 229.419V223.914H252.077V228.522Z" fill="#D8B58B"/>
<path fill-rule="evenodd" clip-rule="evenodd" d="M255.298 250.582H287.145V273.784L254.401 273.539L255.298 250.582Z" fill="#DDC4A8"/>
<path fill-rule="evenodd" clip-rule="evenodd" d="M255.055 253.314L288.573 254.211V248.665H255.055V253.314Z" fill="#D8B58B"/>
<path fill-rule="evenodd" clip-rule="evenodd" d="M245.512 250.378H277.359V273.58H244.615L245.512 250.378Z" fill="#FFECD2"/>
<path fill-rule="evenodd" clip-rule="evenodd" d="M244.737 253.314L278.256 254.211V248.665H244.737V253.314Z" fill="#F2D1A5"/>
<path d="M258.186 258.245H265.24V256.043H258.186V258.245Z" fill="#272342"/>
<path fill-rule="evenodd" clip-rule="evenodd" d="M287.145 254.007L245.471 253.355L245.349 254.293L287.145 255.434V254.007Z" fill="#E2BF93"/>
<path d="M254.904 266.719H269.625V260.847H254.904V266.719Z" fill="white"/>
<path fill-rule="evenodd" clip-rule="evenodd" d="M205.347 138.119H237.194V166.214L204.45 165.929L205.347 138.119Z" fill="#DDC4A8"/>
<path fill-rule="evenodd" clip-rule="evenodd" d="M205.103 141.422L238.662 142.523V135.836H205.103V141.422Z" fill="#D8B58B"/>
<path fill-rule="evenodd" clip-rule="evenodd" d="M195.56 137.874H227.407V165.97H194.663L195.56 137.874Z" fill="#FFECD2"/>
<path fill-rule="evenodd" clip-rule="evenodd" d="M194.785 141.422L228.304 142.523V135.836H194.785V141.422Z" fill="#F2D1A5"/>
<path d="M208.257 147.444H215.312V144.793H208.257V147.444Z" fill="#272342"/>
<path fill-rule="evenodd" clip-rule="evenodd" d="M237.193 142.319L195.519 141.504L195.438 142.645L237.193 144.032V142.319Z" fill="#E2BF93"/>
<path d="M204.976 157.679H219.696V150.543H204.976V157.679Z" fill="white"/>
<path fill-rule="evenodd" clip-rule="evenodd" d="M243.066 225.504H274.913V248.665H242.169L243.066 225.504Z" fill="#FFECD2"/>
<path fill-rule="evenodd" clip-rule="evenodd" d="M242.291 228.399L275.85 229.296V223.791H242.291V228.399Z" fill="#F2D1A5"/>
<path d="M255.756 233.392H262.811V231.19H255.756V233.392Z" fill="#272342"/>
<path fill-rule="evenodd" clip-rule="evenodd" d="M283.761 229.378L243.025 228.481L242.943 229.419L283.761 230.805V229.378Z" fill="#E2BF93"/>
<path d="M252.475 241.826H267.195V235.954H252.475V241.826Z" fill="white"/>
<path fill-rule="evenodd" clip-rule="evenodd" d="M249.509 223.791L250.161 199.488H276.952L278.216 223.791H249.509Z" fill="white"/>
<path fill-rule="evenodd" clip-rule="evenodd" d="M276.951 199.488L284.576 200.059L283.761 223.791H278.215L276.951 199.488Z" fill="#EDEDED"/>
<path fill-rule="evenodd" clip-rule="evenodd" d="M250.038 203.811L277.196 204.137L284.413 204.83L284.372 205.279L277.236 204.545H250.16L250.038 203.811Z" fill="#D8D8D8"/>
<path fill-rule="evenodd" clip-rule="evenodd" d="M277.4 207.929H264.188L277.4 208.378H281.152L277.4 207.929Z" fill="#D8D8D8"/>
<path fill-rule="evenodd" clip-rule="evenodd" d="M277.481 209.397L270.997 209.805L277.521 210.131L278.949 209.764L277.481 209.397Z" fill="#D8D8D8"/>
<path fill-rule="evenodd" clip-rule="evenodd" d="M277.685 213.72L252.077 214.168H277.726L282.823 214.331L277.685 213.72Z" fill="#D8D8D8"/>
<path fill-rule="evenodd" clip-rule="evenodd" d="M201.718 120.544L202.37 96.2004H229.161L230.384 120.544H201.718Z" fill="white"/>
<path fill-rule="evenodd" clip-rule="evenodd" d="M229.161 96.2004L236.786 96.7713L235.971 120.544H230.384L229.161 96.2004Z" fill="#EDEDED"/>
<path fill-rule="evenodd" clip-rule="evenodd" d="M201.718 113.938L228.875 114.265L236.093 114.999L236.052 115.447L228.916 114.672H201.84L201.718 113.938Z" fill="#D8D8D8"/>
<path fill-rule="evenodd" clip-rule="evenodd" d="M229.609 104.682H216.397L229.609 105.131H233.361L229.609 104.682Z" fill="#D8D8D8"/>
<path fill-rule="evenodd" clip-rule="evenodd" d="M230.791 98.6062L224.349 99.0548L230.832 99.3402L232.3 98.9732L230.791 98.6062Z" fill="#D8D8D8"/>
<path fill-rule="evenodd" clip-rule="evenodd" d="M229.895 110.432L204.287 110.921H229.895L235.033 111.084L229.895 110.432Z" fill="#D8D8D8"/>
<path fill-rule="evenodd" clip-rule="evenodd" d="M250.038 200.508L266.961 200.712L250.038 201.16V200.508Z" fill="#D8D8D8"/>
<path fill-rule="evenodd" clip-rule="evenodd" d="M65.9297 166.174L66.6637 122.583H95.7376L97.0833 166.174H65.9297Z" fill="white"/>
<path fill-rule="evenodd" clip-rule="evenodd" d="M95.7383 122.583L104.016 123.603L103.119 166.174H97.0839L95.7383 122.583Z" fill="#EDEDED"/>
<path fill-rule="evenodd" clip-rule="evenodd" d="M66.501 130.331L95.9827 130.942L103.812 132.206V133.022L96.0235 131.676H66.6641L66.501 130.331Z" fill="#D8D8D8"/>
<path fill-rule="evenodd" clip-rule="evenodd" d="M96.2275 137.752H81.874L96.2275 138.527H100.305L96.2275 137.752Z" fill="#D8D8D8"/>
<path fill-rule="evenodd" clip-rule="evenodd" d="M96.7177 156.999L89.7041 157.774L96.7585 158.304L98.3488 157.651L96.7177 156.999Z" fill="#D8D8D8"/>
<path fill-rule="evenodd" clip-rule="evenodd" d="M96.514 148.109L68.7041 148.925H96.5548L102.141 149.251L96.514 148.109Z" fill="#D8D8D8"/>
<path fill-rule="evenodd" clip-rule="evenodd" d="M66.501 124.459L84.8914 124.826L66.501 125.641V124.459Z" fill="#D8D8D8"/>
<path fill-rule="evenodd" clip-rule="evenodd" d="M75.9208 53.0176C75.5539 53.0992 56.2256 69.4507 56.2256 69.4507L66.4606 79.6042L85.3403 64.5167L75.9208 53.0176Z" fill="white"/>
<path fill-rule="evenodd" clip-rule="evenodd" d="M35.1846 140.484C35.2661 140.851 52.7594 159.16 52.7594 159.16L62.3012 148.354L46.1128 130.412L35.1846 140.484Z" fill="white"/>
<path fill-rule="evenodd" clip-rule="evenodd" d="M260.967 174.411C260.6 174.329 236.582 182.362 236.582 182.362L242.332 195.574L265.452 188.519L260.967 174.411Z" fill="white"/>
<path fill-rule="evenodd" clip-rule="evenodd" d="M71.1088 90.247H66.501V96.2412H72.6583L71.1088 90.247Z" fill="white"/>
<path fill-rule="evenodd" clip-rule="evenodd" d="M95.9834 110.35H100.469L100.795 113.938L97.0844 115.284L95.9834 110.35Z" fill="white"/>
<path d="M69.7228 149.088H65.0742V166.214H69.7228V149.088Z" fill="white"/>
<path fill-rule="evenodd" clip-rule="evenodd" d="M193.848 135.836H232.953L233.565 129.882L193.399 129.474L193.848 135.836Z" fill="#F29A39"/>
<path fill-rule="evenodd" clip-rule="evenodd" d="M194.785 130.738H233.482L232.993 135.306L195.111 134.49L194.785 130.738Z" fill="white"/>
<path fill-rule="evenodd" clip-rule="evenodd" d="M197.64 129.515V120.544L238.661 118.587V130.249L197.64 129.515Z" fill="#EE534F"/>
<path fill-rule="evenodd" clip-rule="evenodd" d="M197.273 122.42L236.052 120.707L237.194 127.884H197.273V122.42Z" fill="white"/>
<path fill-rule="evenodd" clip-rule="evenodd" d="M227.611 95.4256L195.805 95.0179V96.649L227.896 97.016L227.611 95.4256Z" fill="white"/>
<defs>
<linearGradient id="paint0_linear" x1="139.993" y1="128.533" x2="137.509" y2="118.027" gradientUnits="userSpaceOnUse">
<stop stop-color="#FFA56A"/>
<stop offset="1" stop-color="#FFBE83"/>
</linearGradient>
<linearGradient id="paint1_linear" x1="142.444" y1="120.186" x2="141.264" y2="117" gradientUnits="userSpaceOnUse">
<stop stop-color="#FFA56A"/>
<stop offset="1" stop-color="#FFBE83"/>
</linearGradient>
<linearGradient id="paint2_linear" x1="133.093" y1="122.698" x2="131.913" y2="119.512" gradientUnits="userSpaceOnUse">
<stop stop-color="#FFA56A"/>
<stop offset="1" stop-color="#FFBE83"/>
</linearGradient>
<linearGradient id="paint3_linear" x1="168.054" y1="42.758" x2="167.435" y2="84.6408" gradientUnits="userSpaceOnUse">
<stop stop-color="#808285"/>
<stop offset="0.0283958" stop-color="#76787B"/>
<stop offset="0.1453" stop-color="#525355"/>
<stop offset="0.2676" stop-color="#343536"/>
<stop offset="0.3948" stop-color="#1D1E1E"/>
<stop offset="0.5292" stop-color="#0D0D0D"/>
<stop offset="0.6754" stop-color="#030303"/>
<stop offset="0.8556"/>
</linearGradient>
<linearGradient id="paint4_linear" x1="125.059" y1="129.095" x2="77.1295" y2="127.573" gradientUnits="userSpaceOnUse">
<stop stop-color="#808285"/>
<stop offset="0.2525" stop-color="#515355"/>
<stop offset="0.5245" stop-color="#252627"/>
<stop offset="0.7346" stop-color="#0A0A0B"/>
<stop offset="0.8556"/>
</linearGradient>
</defs>
</svg>
