<svg width="315" height="304" viewBox="0 0 315 304" fill="none" xmlns="http://www.w3.org/2000/svg">
<rect x="5.76562" width="304" height="304" rx="152" fill="#9784B0"/>
<path d="M78.1569 250.664H33.34C30.987 250.664 29.0752 248.754 29.0752 246.403V201.62C29.0752 199.269 30.987 197.358 33.34 197.358H78.1753C80.5283 197.358 82.4401 199.269 82.4401 201.62V246.421C82.4217 248.772 80.5099 250.664 78.1569 250.664Z" fill="#D4D3D3"/>
<path d="M98.783 241.645V246.421C98.783 248.772 96.8712 250.682 94.5366 250.682H84.1504L98.783 241.645Z" fill="#D4D3D3"/>
<path d="M98.7826 214.79V241.645L84.1316 250.664H49.7009C49.0943 250.664 48.506 250.535 47.9729 250.297C46.8332 249.782 45.9508 248.79 45.6016 247.56L84.8486 223.368L98.7826 214.79Z" fill="white"/>
<path d="M98.782 201.62V214.79L84.8664 223.368L45.601 247.578C45.4907 247.211 45.4355 246.825 45.4355 246.421V201.62C45.4355 199.269 47.3473 197.377 49.6819 197.377H94.5173C96.8886 197.377 98.782 199.269 98.782 201.62Z" fill="#F3EEE8"/>
<path d="M98.7837 234.298V241.645L84.1511 250.664H72.2207L98.7837 234.298Z" fill="#F3EEE8"/>
<path d="M98.783 230.716V232.442L69.2053 250.664H66.4111L98.783 230.716Z" fill="#E6E5E5"/>
<path d="M98.7828 224.709V228.769L63.2491 250.664H56.6865L98.7828 224.709Z" fill="#F3EEE8"/>
<path d="M84.9227 197.377L45.4551 221.697V205.881L59.2605 197.377H84.9227Z" fill="#E6E5E5"/>
<path d="M72.4765 201.087H71.7412V205.183H72.4765V201.087Z" fill="#262763"/>
<path d="M72.4775 242.839H71.7422V246.935H72.4775V242.839Z" fill="#262763"/>
<path d="M95.0505 223.662H90.9512V224.397H95.0505V223.662Z" fill="#262763"/>
<path d="M53.2673 223.662H49.168V224.397H53.2673V223.662Z" fill="#262763"/>
<path d="M60.9668 203.979L60.3301 204.347L61.3597 206.128L61.9965 205.761L60.9668 203.979Z" fill="#262763"/>
<path d="M82.879 241.909L82.2422 242.276L83.2717 244.058L83.9084 243.691L82.879 241.909Z" fill="#262763"/>
<path d="M52.436 212.236L52.0684 212.872L53.8513 213.901L54.219 213.264L52.436 212.236Z" fill="#262763"/>
<path d="M90.3921 234.156L90.0244 234.793L91.8074 235.821L92.1751 235.185L90.3921 234.156Z" fill="#262763"/>
<path d="M53.8476 234.148L52.0645 235.177L52.432 235.813L54.2152 234.785L53.8476 234.148Z" fill="#262763"/>
<path d="M91.8037 212.238L90.0205 213.267L90.3881 213.903L92.1713 212.874L91.8037 212.238Z" fill="#262763"/>
<path d="M61.3544 241.907L60.3252 243.689L60.9621 244.056L61.9913 242.274L61.3544 241.907Z" fill="#262763"/>
<path d="M83.2802 203.967L82.251 205.748L82.8878 206.116L83.9171 204.334L83.2802 203.967Z" fill="#262763"/>
<path d="M94.5358 197.377H49.7005C47.3475 197.377 45.4541 199.287 45.4541 201.62V246.421C45.4541 248.772 47.3659 250.682 49.7005 250.682H94.5358C96.8888 250.682 98.7822 248.772 98.7822 246.421V201.62C98.7822 199.269 96.8704 197.377 94.5358 197.377ZM98.0469 246.421C98.0469 248.368 96.466 249.948 94.5358 249.948H49.7005C47.7519 249.948 46.1894 248.368 46.1894 246.421V201.62C46.1894 199.673 47.7703 198.112 49.7005 198.112H94.5358C96.4844 198.112 98.0469 199.691 98.0469 201.62V246.421Z" fill="white"/>
<path d="M143.506 169.126H135.418V155.551C135.418 151.676 138.047 148.296 141.815 147.359L152.679 144.641L154.646 152.484L143.782 155.202C143.617 155.239 143.506 155.386 143.506 155.551V169.126Z" fill="#4E346B"/>
<path d="M261.34 250.664H216.505C214.152 250.664 212.24 248.754 212.24 246.403V201.62C212.24 199.269 214.152 197.358 216.505 197.358H261.34C263.693 197.358 265.605 199.269 265.605 201.62V246.421C265.605 248.772 263.693 250.664 261.34 250.664Z" fill="#D4D3D3"/>
<path d="M180.419 185.198C176.08 185.198 172.551 181.672 172.551 177.337V155.57C172.551 155.405 172.441 155.258 172.275 155.221L161.19 152.502L163.121 144.659L174.205 147.377C177.992 148.314 180.639 151.676 180.639 155.588V176.988L194.831 170.577H200.75V178.659H196.559L183.654 184.482C182.643 184.96 181.558 185.198 180.419 185.198Z" fill="#4E346B"/>
<path d="M191.798 180.827L188.471 173.461L194.831 170.595H200.75V178.678H196.577L191.798 180.827Z" fill="#4E346B"/>
<path d="M180.42 185.198C176.081 185.198 172.552 181.672 172.552 177.337V169.585C172.552 167.344 174.353 165.544 176.596 165.544C178.839 165.544 180.64 167.344 180.64 169.585V176.988L184.409 175.279C186.449 174.361 188.839 175.261 189.758 177.3C190.677 179.339 189.776 181.727 187.736 182.645L183.655 184.482C182.644 184.96 181.559 185.198 180.42 185.198Z" fill="#262763"/>
<path d="M180.639 169.567H172.551V155.57C172.551 155.405 172.441 155.258 172.275 155.221L161.19 152.502L163.121 144.659L174.205 147.377C177.992 148.314 180.639 151.676 180.639 155.588V169.567Z" fill="#4E346B"/>
<path d="M172.551 147.047V192.987H143.507V147.047L150.161 145.284H165.989L172.551 147.047Z" fill="#4E346B"/>
<path d="M165.989 145.283V168.373L155.014 152.355L150.161 145.265L153.121 141.591L160.364 143.777H164.518C164.922 143.777 165.29 143.943 165.547 144.2C165.823 144.457 165.97 144.824 165.97 145.228L165.989 145.283Z" fill="#FFEB9D"/>
<path d="M165.988 150.665V153.2L162.918 148.902C162.771 148.7 162.569 148.571 162.33 148.516C162.109 148.48 161.889 148.535 161.705 148.663L155.51 153.053L154.683 151.841L160.859 147.469C161.374 147.102 161.981 146.973 162.587 147.065C163.194 147.175 163.764 147.524 164.113 148.039L165.988 150.665Z" fill="#CFB13C"/>
<path d="M165.989 161.448V168.391L160.75 160.731L161.669 153.274L158.305 149.269L160.842 147.488C162.386 146.404 164.518 147.506 164.518 149.398V153.274V153.292L165.989 161.448Z" fill="#EA5E3F"/>
<path d="M164.518 153.274H161.669L158.305 149.269L160.842 147.488C162.386 146.404 164.518 147.506 164.518 149.398V153.274Z" fill="#DF3738"/>
<path d="M164.518 132.94V143.796L161.669 146.073L153.121 141.61V132.94H164.518Z" fill="#F76866"/>
<path d="M158.139 201.069H158.029C142.606 201.069 126.98 200.444 111.594 199.195L93.4872 197.744C90.6379 197.505 87.7334 197.395 84.8657 197.395H83.873V189.313H84.8657C87.954 189.313 91.0607 189.442 94.1306 189.68L112.238 191.131C127.403 192.362 142.808 192.968 158.029 192.968H158.139V201.069Z" fill="#4E346B"/>
<path d="M72.752 178.016L74.5902 197.395H77.1822L75.3439 178.016H72.752Z" fill="#262763"/>
<path d="M75.3438 178.016L77.182 197.395H83.8733V189.313L75.3438 178.016Z" fill="#AD4553"/>
<path d="M87.3662 189.35H86.6309V197.377H87.3662V189.35Z" fill="#262763"/>
<path d="M82.3662 189.037V186.154C82.3662 185.235 83.1199 184.482 84.039 184.482C84.8111 184.482 85.4729 184.978 85.6567 185.731C85.8589 186.484 85.528 187.237 84.8663 187.623L82.3662 189.037ZM84.039 185.198C83.5243 185.198 83.1015 185.621 83.1015 186.135V187.752L84.517 186.943C84.9766 186.686 85.0501 186.227 84.9582 185.878C84.8663 185.566 84.5721 185.198 84.039 185.198Z" fill="#262763"/>
<path d="M84.039 192.289C83.1199 192.289 82.3662 191.536 82.3662 190.617V187.733L84.8846 189.166C85.5648 189.552 85.8773 190.305 85.6751 191.058C85.4729 191.774 84.8111 192.289 84.039 192.289ZM83.1015 188.982V190.599C83.1015 191.113 83.5243 191.536 84.039 191.536C84.5721 191.536 84.8663 191.168 84.9582 190.838C85.0501 190.507 84.9766 190.048 84.517 189.772L83.1015 188.982Z" fill="#262763"/>
<path d="M158.139 201.069V192.987C173.36 192.987 188.764 192.362 203.93 191.15L222.037 189.699C225.107 189.46 228.232 189.331 231.302 189.331H232.294V197.414H231.302C228.434 197.414 225.548 197.524 222.68 197.763L204.573 199.214C189.187 200.444 173.562 201.069 158.139 201.069Z" fill="#4E346B"/>
<path d="M243.417 178.016L241.578 197.395H238.986L240.825 178.016H243.417Z" fill="#262763"/>
<path d="M240.825 178.016L238.987 197.395H232.296V189.313L240.825 178.016Z" fill="#AD4553"/>
<path d="M229.537 189.35H228.802V197.377H229.537V189.35Z" fill="#262763"/>
<path d="M233.803 189.037L231.285 187.605C230.605 187.219 230.292 186.466 230.494 185.713C230.697 184.96 231.34 184.464 232.112 184.464C233.031 184.464 233.785 185.217 233.785 186.135V189.037H233.803ZM232.112 185.198C231.579 185.198 231.285 185.566 231.193 185.896C231.101 186.227 231.174 186.686 231.634 186.962L233.05 187.77V186.154C233.068 185.621 232.645 185.198 232.112 185.198Z" fill="#262763"/>
<path d="M232.112 192.289C231.34 192.289 230.678 191.793 230.495 191.04C230.292 190.287 230.623 189.533 231.285 189.148L233.803 187.715V190.599C233.803 191.536 233.05 192.289 232.112 192.289ZM233.068 188.982L231.653 189.791C231.193 190.048 231.12 190.507 231.211 190.856C231.303 191.187 231.597 191.554 232.131 191.554C232.645 191.554 233.068 191.131 233.068 190.617V188.982Z" fill="#262763"/>
<path d="M165.988 182.002C166.496 182.002 166.908 181.591 166.908 181.084C166.908 180.577 166.496 180.165 165.988 180.165C165.481 180.165 165.069 180.577 165.069 181.084C165.069 181.591 165.481 182.002 165.988 182.002Z" fill="#262763"/>
<path d="M165.988 187.605C166.496 187.605 166.908 187.194 166.908 186.686C166.908 186.179 166.496 185.768 165.988 185.768C165.481 185.768 165.069 186.179 165.069 186.686C165.069 187.194 165.481 187.605 165.988 187.605Z" fill="#262763"/>
<path d="M218.876 168.538H190.879C190.879 169.677 191.798 170.577 192.919 170.577H216.817C217.957 170.595 218.876 169.677 218.876 168.538Z" fill="#262763"/>
<path d="M196.357 168.538H170.621C170.621 169.677 171.54 170.577 172.662 170.577H194.316C195.438 170.595 196.357 169.677 196.357 168.538Z" fill="white"/>
<path d="M229.576 138.248L227.315 146.184L225.421 152.87L224.98 154.449L224.3 156.856L224.079 157.646L221.45 166.885C221.175 167.877 220.237 168.575 219.263 168.575H196.744L197.479 165.875L197.755 164.864L197.902 164.332L205.66 135.879H228.179L228.123 136.044L228.179 135.879C229.245 136.062 229.888 137.128 229.576 138.248Z" fill="#E0DFDF"/>
<path d="M196.633 168.575H196.817H219.243C220.218 168.575 221.155 167.877 221.431 166.885L224.06 157.646L224.28 156.856L224.96 154.449L225.402 152.87L227.295 146.184L213.343 154.78L199.997 163.009L197.864 164.332L197.478 164.57L196.633 168.575Z" fill="#F3EEE8"/>
<path d="M225.42 152.851L224.96 154.449L202.055 168.575H199.923L225.42 152.851Z" fill="white"/>
<path d="M224.28 156.856L224.059 157.646L206.32 168.575H205.254L224.28 156.856Z" fill="white"/>
<path d="M216.633 152.208C216.155 153.898 214.758 155.276 213.49 155.276C212.221 155.276 211.596 153.898 212.074 152.208C212.552 150.519 213.949 149.141 215.218 149.141C216.468 149.141 217.111 150.519 216.633 152.208Z" fill="white"/>
<path d="M205.64 135.86L196.356 168.538C197.441 168.74 198.599 167.987 198.912 166.885L207.037 138.248C207.349 137.128 206.724 136.062 205.64 135.86Z" fill="white"/>
<path d="M191.761 168.538H178.856V162.293H187.073C189.665 162.293 191.761 164.387 191.761 166.977V168.538Z" fill="#FFB18F"/>
<path d="M186.357 168.538H178.856V166.113H183.948C185.272 166.113 186.357 167.197 186.357 168.538Z" fill="#FF9887"/>
<path d="M180.64 160.456H177.331V168.538H180.64V160.456Z" fill="#FFE994"/>
<path d="M213.545 170.595H200.641V176.841H208.858C211.45 176.841 213.545 174.747 213.545 172.157V170.595Z" fill="#FFB18F"/>
<path d="M208.141 170.595H200.641V173.02H205.733C207.056 173.002 208.141 171.918 208.141 170.595Z" fill="#FF9887"/>
<path d="M202.423 170.595H199.114V178.678H202.423V170.595Z" fill="#FFE994"/>
<path d="M68.1618 207.701L67.4512 207.89L71.415 222.802L72.1257 222.614L68.1618 207.701Z" fill="#262763"/>
<path d="M72.1086 226.05C71.5755 226.05 71.0607 225.848 70.6563 225.444C69.8659 224.654 69.8659 223.35 70.6563 222.56C71.4468 221.77 72.752 221.77 73.5424 222.56C74.3329 223.35 74.3329 224.654 73.5424 225.444C73.1564 225.866 72.6417 226.05 72.1086 226.05ZM71.1894 224.948C71.7041 225.462 72.5314 225.462 73.0277 224.948C73.5424 224.434 73.5424 223.607 73.0277 223.111C72.513 222.597 71.6858 222.597 71.1894 223.111C70.6931 223.607 70.6747 224.434 71.1894 224.948Z" fill="#262763"/>
<path d="M70.47 224.557L61.6338 229.653L62.0014 230.289L70.8376 225.193L70.47 224.557Z" fill="#262763"/>
<path d="M45.0367 251.407L314.766 251.407V250.672L45.0367 250.672V251.407Z" fill="#262763"/>
<path d="M-0.000331879 251.407H38.7871V250.672H-0.000331879V251.407Z" fill="#262763"/>
<path d="M160.363 254.728L297.682 254.728V253.993L160.363 253.993V254.728Z" fill="#262763"/>
<path d="M28.0047 254.728L154.055 254.728V253.993L28.0047 253.993V254.728Z" fill="#262763"/>
<path d="M112.871 258.049H271.826V257.314H112.871V258.049Z" fill="#262763"/>
<path d="M46.499 258.049H81.4629V257.314H46.499V258.049Z" fill="#262763"/>
<path d="M89.1232 258.049H101.035V257.314H89.1232V258.049Z" fill="#262763"/>
<path d="M215.732 226.344H184.096V250.664H215.732V226.344Z" fill="#AD4553"/>
<path d="M215.732 226.344H184.096V235.694H215.732V226.344Z" fill="#D45465"/>
<path d="M190.511 226.473H189.775V224.342C189.775 222.046 191.65 220.172 193.948 220.172H202.239C204.537 220.172 206.412 222.046 206.412 224.342V226.344H205.676V224.342C205.676 222.45 204.132 220.907 202.239 220.907H193.948C192.055 220.907 190.511 222.45 190.511 224.342V226.473Z" fill="#262763"/>
<path d="M197.368 235.326H184.096V236.061H197.368V235.326Z" fill="#262763"/>
<path d="M215.751 235.326H202.479V236.061H215.751V235.326Z" fill="#262763"/>
<path d="M202.459 235.308H197.367V240.396H202.459V235.308Z" fill="white"/>
<path d="M265.181 88.3593H242.479V71.1663H265.181V88.3593ZM243.214 87.6245H264.446V71.901H243.214V87.6245Z" fill="white"/>
<path d="M253.838 80.2219L242.625 71.8275L243.066 71.2397L253.838 79.3035L264.592 71.2397L265.033 71.8275L253.838 80.2219Z" fill="white"/>
<path d="M263.526 77.1544C265.922 77.1544 267.864 75.2136 267.864 72.8194C267.864 70.4253 265.922 68.4844 263.526 68.4844C261.13 68.4844 259.188 70.4253 259.188 72.8194C259.188 75.2136 261.13 77.1544 263.526 77.1544Z" fill="#F08B8C"/>
<path d="M262.626 74.4915H261.928V72.5812V72.2689L261.946 71.9199C261.836 72.0301 261.744 72.1036 261.707 72.1403L261.321 72.4526L260.99 72.0301L262.056 71.1852H262.626V74.4915Z" fill="white"/>
<path d="M263.51 73.095C263.51 72.4521 263.657 71.9561 263.933 71.6438C264.208 71.3316 264.613 71.1663 265.164 71.1663C265.348 71.1663 265.495 71.1846 265.605 71.203V71.7541C265.477 71.7173 265.348 71.7173 265.201 71.7173C264.962 71.7173 264.76 71.7541 264.613 71.8275C264.466 71.901 264.355 72.0112 264.282 72.1398C264.208 72.2867 264.153 72.4888 264.153 72.746H264.19C264.337 72.4888 264.576 72.3602 264.907 72.3602C265.201 72.3602 265.44 72.4521 265.605 72.6357C265.771 72.8194 265.863 73.0766 265.863 73.4072C265.863 73.7562 265.771 74.0318 265.569 74.2338C265.366 74.4359 265.091 74.5461 264.741 74.5461C264.502 74.5461 264.282 74.491 264.098 74.3808C263.914 74.2706 263.786 74.1052 263.675 73.8848C263.565 73.6644 263.51 73.3889 263.51 73.095ZM264.705 73.9767C264.852 73.9767 264.962 73.9215 265.054 73.8297C265.146 73.7379 265.183 73.5909 265.183 73.4072C265.183 73.2419 265.146 73.1133 265.072 73.0215C264.999 72.9296 264.888 72.8745 264.741 72.8745C264.594 72.8745 264.484 72.9113 264.374 73.0031C264.282 73.095 264.227 73.2052 264.227 73.3154C264.227 73.4991 264.282 73.646 264.374 73.7746C264.447 73.9216 264.558 73.9767 264.705 73.9767Z" fill="white"/>
<path d="M112.109 132.462H102.256V122.617H112.109V132.462ZM102.991 131.727H111.374V123.351H102.991V131.727Z" fill="#D1B5F5"/>
<path d="M107.293 130.387L103.635 126.75L104.168 126.217L107.293 129.358L114.352 122.286L114.885 122.819L107.293 130.387Z" fill="white"/>
<path d="M112.109 147.451H102.256V137.605H112.109V147.451ZM102.991 146.716H111.374V138.34H102.991V146.716Z" fill="#D1B5F5"/>
<path d="M107.293 145.394L103.635 141.738L104.168 141.224L107.293 144.347L114.352 137.293L114.885 137.807L107.293 145.394Z" fill="white"/>
<path d="M112.109 162.458H102.256V152.613H112.109V162.458ZM102.991 161.723H111.374V153.347H102.991V161.723Z" fill="#D1B5F5"/>
<path d="M189.316 116.849C190.437 115.49 191.062 113.763 191.062 111.981V96.1475C191.062 94.0902 191.816 92.1064 193.194 90.5635C194.775 88.7817 197.055 87.7714 199.445 87.7714H221.577C226.191 87.7714 229.96 91.537 229.96 96.1475V107.15C229.96 111.761 226.191 115.526 221.577 115.526H199.445C198.305 115.526 197.202 115.306 196.154 114.865C194.573 116.518 192.386 117.455 190.088 117.455H188.819L189.316 116.849ZM196.228 114.075C197.239 114.553 198.323 114.792 199.445 114.792H221.577C225.787 114.792 229.224 111.357 229.224 107.15V96.1475C229.224 91.9411 225.787 88.5062 221.577 88.5062H199.445C197.275 88.5062 195.198 89.443 193.746 91.0594C192.496 92.4554 191.797 94.2739 191.797 96.1475V111.981C191.797 113.671 191.283 115.324 190.345 116.702C192.422 116.628 194.408 115.71 195.805 114.167L195.989 113.965L196.228 114.075Z" fill="white"/>
<path d="M212.386 98.4252H196.669V99.16H212.386V98.4252Z" fill="white"/>
<path d="M203.599 101.346H196.669V102.081H203.599V101.346Z" fill="white"/>
<path d="M218.086 101.346H206.303V102.081H218.086V101.346Z" fill="white"/>
<path d="M213.912 95.5046H196.669V96.2393H213.912V95.5046Z" fill="white"/>
<path d="M167.717 74.6747H166.981V71.9377H164.261V71.203H167.717V74.6747Z" fill="#D1B5F5"/>
<path d="M167.086 71.3262L160.236 78.1711L160.756 78.6907L167.606 71.8458L167.086 71.3262Z" fill="#D1B5F5"/>
<path d="M282.332 85.7876H281.597V89.4613H282.332V85.7876Z" fill="#D1B5F5"/>
<path d="M283.803 87.2571H280.126V87.9919H283.803V87.2571Z" fill="#D1B5F5"/>
<path d="M232.479 64.0576H231.744C231.744 61.3207 229.519 59.0981 226.78 59.0981V58.3633C229.519 58.3633 231.744 56.1407 231.744 53.4038H232.479C232.479 56.1407 234.703 58.3633 237.442 58.3633V59.0981C234.722 59.0981 232.479 61.3207 232.479 64.0576ZM228.802 58.7307C230.328 59.3001 231.541 60.5308 232.13 62.0554C232.699 60.5308 233.931 59.3185 235.457 58.7307C233.931 58.1613 232.718 56.9306 232.13 55.406C231.541 56.9306 230.328 58.1429 228.802 58.7307Z" fill="#D1B5F5"/>
<path d="M134.132 110.806L132.202 108.877L130.271 110.806L129.738 110.291L132.202 107.848L134.646 110.291L134.132 110.806Z" fill="#D1B5F5"/>
<path d="M132.57 108.363H131.835V118.043H132.57V108.363Z" fill="#D1B5F5"/>
<path d="M201.116 70.8723H200.381V72.8929H201.116V70.8723Z" fill="white"/>
<path d="M201.116 76.4564H200.381V78.477H201.116V76.4564Z" fill="white"/>
<path d="M198.343 71.7272L197.823 72.2467L199.253 73.6756L199.773 73.1561L198.343 71.7272Z" fill="white"/>
<path d="M202.296 75.6685L201.776 76.1881L203.206 77.6168L203.726 77.0972L202.296 75.6685Z" fill="white"/>
<path d="M198.985 74.3073H196.963V75.042H198.985V74.3073Z" fill="white"/>
<path d="M204.553 74.3073H202.531V75.042H204.553V74.3073Z" fill="white"/>
<path d="M199.229 75.6697L197.799 77.0984L198.319 77.618L199.749 76.1893L199.229 75.6697Z" fill="white"/>
<path d="M203.189 71.7313L201.759 73.16L202.279 73.6795L203.709 72.2508L203.189 71.7313Z" fill="white"/>
<path d="M264.317 184.849H262.093V171.789C262.093 170.559 263.085 169.567 264.317 169.567V184.849Z" fill="#4BCF54"/>
<path d="M268.765 184.849H266.541V169.548C267.773 169.548 268.765 170.54 268.765 171.771V184.849Z" fill="#4BCF54"/>
<path d="M268.779 173.035L267.661 174.152L268.779 175.269L269.897 174.152L268.779 173.035Z" fill="#008A42"/>
<path d="M268.776 176.319L267.658 177.436L268.776 178.553L269.894 177.436L268.776 176.319Z" fill="#008A42"/>
<path d="M268.774 179.613L267.656 180.73L268.774 181.847L269.892 180.73L268.774 179.613Z" fill="#008A42"/>
<path d="M262.091 173.041L260.973 174.158L262.091 175.275L263.208 174.158L262.091 173.041Z" fill="#008A42"/>
<path d="M262.086 176.325L260.968 177.442L262.086 178.559L263.204 177.442L262.086 176.325Z" fill="#008A42"/>
<path d="M262.086 179.62L260.968 180.736L262.086 181.853L263.204 180.736L262.086 179.62Z" fill="#008A42"/>
<path d="M264.226 168.556L265.439 171.404L266.634 168.556H264.226Z" fill="#09664B"/>
<path d="M266.542 169.548H264.317V184.849H266.542V169.548Z" fill="#009449"/>
<path d="M265.433 176.33L264.315 177.447L265.433 178.564L266.551 177.447L265.433 176.33Z" fill="#09664B"/>
<path d="M265.431 179.622L264.313 180.739L265.431 181.856L266.549 180.739L265.431 179.622Z" fill="#09664B"/>
<path d="M265.433 173.031L264.315 174.148L265.433 175.265L266.551 174.148L265.433 173.031Z" fill="#09664B"/>
<path d="M265.438 168.208L264.354 166.83L265.438 165.452L266.504 166.83L265.438 168.208Z" fill="#DF3738"/>
<path d="M267.92 166.83L267.185 168.556H263.674L262.938 166.83H267.92Z" fill="#DF3738"/>
<path d="M271.653 184.849H259.189V186.87H271.653V184.849Z" fill="#FF5455"/>
<path d="M270.605 186.87L270.495 187.605L270.458 187.88L270.385 188.431L270.201 189.846L269.907 192.032L269.778 192.932L269.668 193.832L269.19 197.395H261.69L261.193 193.832L261.083 192.932L260.954 192.032L260.66 189.846L260.476 188.431L260.403 187.88L260.366 187.605L260.256 186.87H270.605Z" fill="white"/>
<path d="M270.605 186.87L270.495 187.605H260.366L260.256 186.87H270.605Z" fill="#262763"/>
<path d="M270.201 189.846L269.907 192.032H260.954L260.66 189.846H270.201Z" fill="#FF5455"/>
<path d="M269.778 192.932L269.668 193.832H261.193L261.083 192.932H269.778Z" fill="#FF5455"/>
<path d="M132.201 75.0053H103.487V58.9327C119.352 58.9327 132.201 66.1149 132.201 75.0053Z" fill="#D8C2F5"/>
<path d="M132.569 75.3726H103.12V58.5654H103.488C111.208 58.5654 118.488 60.2553 123.966 63.3228C129.499 66.4271 132.551 70.5784 132.551 75.0052V75.3726H132.569ZM103.855 74.6379H131.815C131.466 66.2067 119.095 59.4103 103.855 59.3001V74.6379Z" fill="white"/>
<path d="M74.2414 89.4797C74.1495 89.4797 74.076 89.443 74.0024 89.3879C70.8406 86.6877 69.1494 83.5467 69.1494 80.2771C69.1494 75.8502 72.2009 71.6989 77.7341 68.5946C83.2122 65.5271 90.4733 63.8372 98.2124 63.8372C98.4146 63.8372 98.5801 64.0025 98.5801 64.2045V80.2771C98.5801 80.424 98.4882 80.571 98.3411 80.6261L74.3701 89.4614C74.315 89.4797 74.2782 89.4797 74.2414 89.4797ZM97.8448 64.5719C82.4033 64.6821 69.8847 71.6806 69.8847 80.2771C69.8847 83.2711 71.4105 86.1734 74.315 88.6899L97.8448 80.0199V64.5719Z" fill="white"/>
<path d="M108.911 95.5597C108.801 95.5597 108.691 95.5046 108.617 95.4128L97.9184 80.4975C97.8449 80.3873 97.8265 80.2403 97.8817 80.1117C97.9368 79.9831 98.0655 79.9097 98.2126 79.9097H126.908C127.11 79.9097 127.276 80.075 127.276 80.277C127.276 81.7833 126.926 83.2711 126.228 84.6855C123.82 89.5899 117.386 93.6494 109.003 95.5413C108.966 95.5597 108.948 95.5597 108.911 95.5597ZM98.9295 80.6444L109.077 94.7882C117.128 92.933 123.287 89.0389 125.566 84.3732C126.154 83.1609 126.485 81.9118 126.54 80.6444H98.9295Z" fill="white"/>
<path d="M108.911 105.295C108.819 105.295 108.745 105.258 108.69 105.222C108.598 105.148 108.543 105.038 108.543 104.928V95.1923C108.543 95.027 108.653 94.8801 108.837 94.825C117.017 92.9881 123.267 89.0756 125.565 84.3549C126.209 83.0323 126.54 81.6547 126.54 80.2587C126.54 80.0566 126.705 79.8913 126.907 79.8913C127.109 79.8913 127.275 80.0566 127.275 80.2587V89.9756C127.275 96.7537 120.106 102.76 108.984 105.258C108.966 105.295 108.947 105.295 108.911 105.295ZM109.278 95.4862V104.45C114.278 103.275 118.543 101.327 121.631 98.8109C124.848 96.2026 126.54 93.1534 126.54 89.994V83.9691C126.448 84.2079 126.337 84.4467 126.227 84.6855C123.856 89.5532 117.532 93.5759 109.278 95.4862Z" fill="white"/>
<path d="M108.912 95.1924V104.928C105.603 105.681 102 106.085 98.2133 106.085C91.0992 106.085 84.5917 104.634 79.5732 102.228V92.5106C84.5917 94.9168 91.0992 96.368 98.2133 96.368C102 96.3496 105.603 95.9455 108.912 95.1924Z" fill="#EDC149"/>
<path d="M98.2138 106.452C91.3202 106.452 84.6473 105.075 79.4083 102.558C79.2796 102.503 79.2061 102.374 79.2061 102.228V92.5105C79.2061 92.382 79.2796 92.2717 79.3715 92.1983C79.4818 92.1248 79.6105 92.1248 79.7208 92.1799C84.8679 94.6413 91.4305 96.0006 98.1954 96.0006C101.872 96.0006 105.438 95.6148 108.821 94.8433C108.931 94.825 109.041 94.8434 109.133 94.9168C109.225 94.9903 109.28 95.1005 109.28 95.2107V104.946C109.28 105.111 109.17 105.258 108.986 105.313C105.567 106.067 101.945 106.452 98.2138 106.452ZM79.9414 101.989C85.0517 104.395 91.5225 105.699 98.2138 105.699C101.78 105.699 105.254 105.332 108.545 104.615V95.6332C105.254 96.3496 101.78 96.6986 98.2138 96.6986C91.5592 96.6986 85.0885 95.4128 79.9414 93.0616V101.989Z" fill="white"/>
<path d="M79.573 92.5106V102.228C79.0031 101.952 78.4516 101.676 77.9186 101.364C76.5398 100.593 75.3082 99.7478 74.2236 98.8293V89.1124C75.731 90.3798 77.5325 91.5187 79.573 92.5106Z" fill="#EB7273"/>
<path d="M79.5735 102.595C79.5183 102.595 79.4632 102.577 79.408 102.558C78.8382 102.283 78.2683 101.989 77.7352 101.695C76.3381 100.905 75.0697 100.042 73.9851 99.1232C73.9116 99.0498 73.8564 98.9579 73.8564 98.8477V89.1307C73.8564 88.9838 73.9484 88.8552 74.077 88.8001C74.2057 88.745 74.3528 88.7634 74.4631 88.8552C75.9153 90.1043 77.6984 91.2248 79.7205 92.1983C79.8492 92.2534 79.9227 92.382 79.9227 92.5289V102.228C79.9227 102.356 79.8492 102.466 79.7573 102.54C79.7205 102.577 79.647 102.595 79.5735 102.595ZM74.6101 98.664C75.6212 99.509 76.7977 100.317 78.1028 101.052C78.4705 101.254 78.8381 101.456 79.2058 101.64V92.731C77.4778 91.886 75.9337 90.9309 74.6101 89.8838V98.664Z" fill="white"/>
<path d="M74.2414 99.2151C74.1495 99.2151 74.076 99.1783 74.0024 99.1232C70.8406 96.423 69.1494 93.282 69.1494 90.0124V80.2954C69.1494 80.0934 69.3149 79.928 69.5171 79.928C69.7193 79.928 69.8847 80.0934 69.8847 80.2954C69.8847 83.3446 71.4656 86.3019 74.4804 88.8552C74.5539 88.9286 74.6091 89.0205 74.6091 89.1307V98.8661C74.6091 99.013 74.5171 99.1416 74.3885 99.1967C74.3333 99.1967 74.2966 99.2151 74.2414 99.2151ZM69.8847 83.9875V90.0124C69.8847 92.8412 71.2634 95.5964 73.8738 98.0211V89.2777C71.9803 87.6612 70.6384 85.8611 69.8847 83.9875Z" fill="white"/>
<path d="M132.201 75.0053V84.7223H126.907V80.2771H103.487V75.0053H132.201Z" fill="#BCA4D9"/>
<path d="M132.569 85.0897H126.558V80.6445H103.12V74.6379H132.551V85.0897H132.569ZM127.275 84.3549H131.815V75.3727H103.855V79.9097H127.275V84.3549Z" fill="white"/>
<path d="M98.2132 80.277L79.5732 92.4922C77.5143 91.5002 75.7128 90.3614 74.2422 89.1123L98.2132 80.277Z" fill="#FF7D7E"/>
<path d="M79.5735 92.8779C79.5183 92.8779 79.4632 92.8595 79.408 92.8412C77.3124 91.8493 75.4925 90.6737 73.9851 89.4062C73.9116 89.3328 73.8564 89.2409 73.8564 89.1307C73.8564 88.9838 73.9484 88.8368 74.0954 88.7817L98.0664 79.9464C98.2319 79.8913 98.4341 79.9648 98.526 80.1301C98.6179 80.2954 98.5628 80.4975 98.3973 80.6077L79.7573 92.8228C79.7205 92.8595 79.647 92.8779 79.5735 92.8779ZM74.9594 89.2409C76.2646 90.2879 77.8087 91.2431 79.5367 92.0881L95.309 81.7466L74.9594 89.2409Z" fill="white"/>
<path d="M108.912 95.1923C105.603 95.9454 102 96.3495 98.2133 96.3495C91.0992 96.3495 84.5917 94.8984 79.5732 92.4921L98.2133 80.277L108.912 95.1923Z" fill="#FFCF7A"/>
<path d="M98.2138 96.717C91.3202 96.717 84.6473 95.3393 79.4083 92.8228C79.2796 92.7677 79.2061 92.6391 79.2061 92.5105C79.2061 92.382 79.2612 92.2534 79.3715 92.1799L98.0115 79.9648C98.177 79.8546 98.3976 79.8913 98.5079 80.0566L109.207 94.9719C109.28 95.0638 109.299 95.1924 109.243 95.3209C109.207 95.4312 109.096 95.523 108.986 95.5414C105.567 96.3312 101.945 96.717 98.2138 96.717ZM80.3274 92.4554C85.3826 94.7331 91.6879 96.0006 98.2138 96.0006C101.688 96.0006 105.089 95.6516 108.287 94.9719L98.1218 80.7914L80.3274 92.4554Z" fill="white"/>
<path d="M115.897 67.217L115.382 66.7027L128.967 53.1283C129.04 53.0548 129.132 53.0181 129.224 53.0181H167.239V53.7528H129.371L115.897 67.217Z" fill="white"/>
<path d="M152.957 49.5464H129.556V50.2811H152.957V49.5464Z" fill="#D1B5F5"/>
<path d="M161.394 46.0748H129.556V46.8095H161.394V46.0748Z" fill="#D1B5F5"/>
<path d="M172.551 163.946V172.579H171.246C170.823 172.579 170.419 172.708 170.07 172.947L150.014 187.072C149.169 187.678 148.25 188.156 147.275 188.505C145.437 189.184 143.507 187.788 143.507 185.823V178.659H146.908L172.551 163.946Z" fill="#262763"/>
<path d="M147.551 181.892H143.507V158.472C145.75 158.472 147.551 160.272 147.551 162.513V181.892Z" fill="#262763"/>
<path d="M143.194 185.198C138.911 185.198 135.418 181.708 135.418 177.429V169.144H143.506V176.841L163.084 163.064C165.492 161.374 168.305 160.474 171.246 160.474H177.33V168.556H171.246C169.977 168.556 168.764 168.942 167.735 169.659L147.679 183.784C146.356 184.702 144.812 185.198 143.194 185.198Z" fill="#4E346B"/>
<path d="M184.114 226.344H180.254V250.664H184.114V226.344Z" fill="#262763"/>
<path d="M281.966 241.645V246.421C281.966 248.772 280.054 250.682 277.719 250.682H267.333L281.966 241.645Z" fill="#D4D3D3"/>
<path d="M281.966 214.79V241.645L267.315 250.664H232.866C232.259 250.664 231.671 250.535 231.138 250.297C229.998 249.782 229.116 248.79 228.767 247.56L268.014 223.368L281.966 214.79Z" fill="white"/>
<path d="M281.966 201.62V214.79L268.05 223.368L228.803 247.56C228.693 247.192 228.638 246.807 228.638 246.403V201.62C228.638 199.269 230.55 197.377 232.884 197.377H277.719C280.054 197.377 281.966 199.269 281.966 201.62Z" fill="#F3EEE8"/>
<path d="M281.966 234.298V241.645L267.315 250.664H255.403L281.966 234.298Z" fill="#F3EEE8"/>
<path d="M281.967 230.716V232.442L252.389 250.664H249.595L281.967 230.716Z" fill="#E6E5E5"/>
<path d="M281.966 224.709V228.769L246.433 250.664H239.87L281.966 224.709Z" fill="#F3EEE8"/>
<path d="M268.105 197.377L228.619 221.697V205.881L242.443 197.377H268.105Z" fill="#E6E5E5"/>
<path d="M255.66 201.087H254.925V205.183H255.66V201.087Z" fill="#262763"/>
<path d="M255.661 242.839H254.926V246.935H255.661V242.839Z" fill="#262763"/>
<path d="M278.234 223.662H274.135V224.397H278.234V223.662Z" fill="#262763"/>
<path d="M236.451 223.662H232.352V224.397H236.451V223.662Z" fill="#262763"/>
<path d="M244.132 203.975L243.495 204.343L244.525 206.124L245.161 205.757L244.132 203.975Z" fill="#262763"/>
<path d="M266.04 241.923L265.403 242.29L266.433 244.072L267.069 243.704L266.04 241.923Z" fill="#262763"/>
<path d="M235.611 212.235L235.243 212.871L237.026 213.9L237.394 213.264L235.611 212.235Z" fill="#262763"/>
<path d="M273.572 234.149L273.204 234.785L274.987 235.814L275.355 235.178L273.572 234.149Z" fill="#262763"/>
<path d="M237.034 234.15L235.251 235.178L235.619 235.815L237.402 234.786L237.034 234.15Z" fill="#262763"/>
<path d="M274.99 212.24L273.207 213.268L273.575 213.904L275.358 212.876L274.99 212.24Z" fill="#262763"/>
<path d="M244.531 241.904L243.502 243.686L244.139 244.053L245.168 242.272L244.531 241.904Z" fill="#262763"/>
<path d="M266.457 203.961L265.428 205.743L266.065 206.11L267.094 204.328L266.457 203.961Z" fill="#262763"/>
<path d="M258.442 207.545L255.209 222.632L255.928 222.786L259.161 207.699L258.442 207.545Z" fill="#262763"/>
<path d="M255.311 226.069C255.164 226.069 255.017 226.05 254.888 226.032C254.355 225.922 253.895 225.609 253.601 225.15C253.307 224.691 253.197 224.14 253.326 223.607C253.454 223.074 253.748 222.615 254.208 222.321C254.667 222.027 255.219 221.917 255.752 222.046C256.855 222.285 257.554 223.368 257.315 224.47C257.204 225.003 256.892 225.462 256.432 225.756C256.065 225.94 255.697 226.069 255.311 226.069ZM255.292 222.707C255.035 222.707 254.796 222.781 254.594 222.909C254.3 223.093 254.098 223.387 254.024 223.736C253.951 224.085 254.024 224.434 254.208 224.709C254.392 225.003 254.686 225.205 255.035 225.279C255.734 225.426 256.432 224.985 256.579 224.268C256.726 223.57 256.285 222.872 255.568 222.725C255.476 222.725 255.384 222.707 255.292 222.707Z" fill="#262763"/>
<path d="M267.166 223.662H256.964V224.397H267.166V223.662Z" fill="#262763"/>
<path d="M277.719 197.377H232.884C230.531 197.377 228.638 199.287 228.638 201.62V246.421C228.638 248.772 230.55 250.682 232.884 250.682H277.719C280.072 250.682 281.966 248.772 281.966 246.421V201.62C281.966 199.269 280.054 197.377 277.719 197.377ZM281.231 246.421C281.231 248.368 279.65 249.948 277.719 249.948H232.884C230.936 249.948 229.373 248.368 229.373 246.421V201.62C229.373 199.673 230.954 198.112 232.884 198.112H277.719C279.668 198.112 281.231 199.691 281.231 201.62V246.421Z" fill="white"/>
<path d="M83.7611 162.421H18.5762V111.687H19.3115V161.687H83.7611V162.421Z" fill="white"/>
<path d="M20.2862 161.687H17.584V162.421H20.2862V161.687Z" fill="white"/>
<path d="M20.2862 154.505H17.584V155.239H20.2862V154.505Z" fill="white"/>
<path d="M20.2862 147.304H17.584V148.039H20.2862V147.304Z" fill="white"/>
<path d="M20.2862 140.104H17.584V140.838H20.2862V140.104Z" fill="white"/>
<path d="M20.2862 132.903H17.584V133.638H20.2862V132.903Z" fill="white"/>
<path d="M20.2862 125.703H17.584V126.437H20.2862V125.703Z" fill="white"/>
<path d="M20.2862 118.502H17.584V119.237H20.2862V118.502Z" fill="white"/>
<path d="M20.2862 111.32H17.584V112.055H20.2862V111.32Z" fill="white"/>
<path d="M19.3115 160.713H18.5762V163.413H19.3115V160.713Z" fill="white"/>
<path d="M26.5185 160.713H25.7832V163.413H26.5185V160.713Z" fill="white"/>
<path d="M33.7246 160.713H32.9893V163.413H33.7246V160.713Z" fill="white"/>
<path d="M40.9121 160.713H40.1768V163.413H40.9121V160.713Z" fill="white"/>
<path d="M48.1181 160.713H47.3828V163.413H48.1181V160.713Z" fill="white"/>
<path d="M55.3232 160.713H54.5879V163.413H55.3232V160.713Z" fill="white"/>
<path d="M62.5302 160.713H61.7949V163.413H62.5302V160.713Z" fill="white"/>
<path d="M69.7353 160.713H69V163.413H69.7353V160.713Z" fill="white"/>
<path d="M76.9423 160.713H76.207V163.413H76.9423V160.713Z" fill="white"/>
<path d="M84.1289 160.713H83.3936V163.413H84.1289V160.713Z" fill="white"/>
<path d="M33.5405 140.838H26.0771V140.104H33.1729L44.0922 125.739L76.4825 118.52L76.6479 119.237L44.515 126.401L33.5405 140.838Z" fill="white"/>
<path d="M27.1422 140.471C27.1422 141.059 26.6642 141.536 26.076 141.536C25.4877 141.536 25.0098 141.059 25.0098 140.471C25.0098 139.883 25.4877 139.406 26.076 139.406C26.6642 139.406 27.1422 139.883 27.1422 140.471Z" fill="#45ACBE"/>
<path d="M26.0764 141.904C25.286 141.904 24.6426 141.261 24.6426 140.471C24.6426 139.681 25.286 139.038 26.0764 139.038C26.8669 139.038 27.5103 139.681 27.5103 140.471C27.5103 141.261 26.8669 141.904 26.0764 141.904ZM26.0764 139.773C25.6904 139.773 25.3779 140.085 25.3779 140.471C25.3779 140.857 25.6904 141.169 26.0764 141.169C26.4625 141.169 26.775 140.857 26.775 140.471C26.775 140.085 26.4625 139.773 26.0764 139.773Z" fill="white"/>
<path d="M34.4234 140.471C34.4234 141.059 33.9455 141.536 33.3572 141.536C32.769 141.536 32.291 141.059 32.291 140.471C32.291 139.883 32.769 139.406 33.3572 139.406C33.9455 139.406 34.4234 139.883 34.4234 140.471Z" fill="#45ACBE"/>
<path d="M33.3567 141.904C32.5662 141.904 31.9229 141.261 31.9229 140.471C31.9229 139.681 32.5662 139.038 33.3567 139.038C34.1472 139.038 34.7906 139.681 34.7906 140.471C34.7906 141.261 34.1472 141.904 33.3567 141.904ZM33.3567 139.773C32.9707 139.773 32.6582 140.085 32.6582 140.471C32.6582 140.857 32.9707 141.169 33.3567 141.169C33.7427 141.169 34.0552 140.857 34.0552 140.471C34.0552 140.085 33.7427 139.773 33.3567 139.773Z" fill="white"/>
<path d="M45.3609 126.07C45.3609 126.658 44.8829 127.135 44.2947 127.135C43.7065 127.135 43.2285 126.658 43.2285 126.07C43.2285 125.482 43.7065 125.005 44.2947 125.005C44.8829 125.005 45.3609 125.482 45.3609 126.07Z" fill="#45ACBE"/>
<path d="M44.2942 127.503C43.5037 127.503 42.8604 126.86 42.8604 126.07C42.8604 125.28 43.5037 124.637 44.2942 124.637C45.0847 124.637 45.7281 125.28 45.7281 126.07C45.7281 126.86 45.0847 127.503 44.2942 127.503ZM44.2942 125.372C43.9082 125.372 43.5957 125.684 43.5957 126.07C43.5957 126.456 43.9082 126.768 44.2942 126.768C44.6802 126.768 44.9927 126.456 44.9927 126.07C44.9927 125.684 44.6802 125.372 44.2942 125.372Z" fill="white"/>
<path d="M77.6226 118.869C77.6226 119.457 77.1447 119.935 76.5564 119.935C75.9682 119.935 75.4902 119.457 75.4902 118.869C75.4902 118.282 75.9682 117.804 76.5564 117.804C77.1447 117.822 77.6226 118.3 77.6226 118.869Z" fill="#45ACBE"/>
<path d="M76.5755 120.302C75.785 120.302 75.1416 119.659 75.1416 118.869C75.1416 118.08 75.785 117.437 76.5755 117.437C77.3659 117.437 78.0093 118.08 78.0093 118.869C77.9909 119.659 77.3475 120.302 76.5755 120.302ZM76.5755 118.19C76.1894 118.19 75.8769 118.502 75.8769 118.888C75.8769 119.274 76.1894 119.586 76.5755 119.586C76.9615 119.586 77.274 119.274 77.274 118.888C77.2556 118.502 76.9431 118.19 76.5755 118.19Z" fill="white"/>
<path d="M69.3683 155.239C69.258 155.239 69.1293 155.184 69.0558 155.074L54.7173 133.583L33.5772 126.547L26.4999 147.782C26.4448 147.965 26.2242 148.075 26.0403 148.02C25.8565 147.965 25.7462 147.745 25.8014 147.561L33.0074 125.978C33.0625 125.794 33.2831 125.684 33.4669 125.739L55.0666 132.94C55.1401 132.958 55.2136 133.013 55.2504 133.087L69.6624 154.67C69.7727 154.835 69.736 155.074 69.5521 155.184C69.497 155.202 69.4418 155.239 69.3683 155.239Z" fill="white"/>
<path d="M27.5233 147.67L26.1455 146.294L24.7677 147.67L26.1455 149.047L27.5233 147.67Z" fill="#45ACBE"/>
<path d="M26.1501 149.563L24.2383 147.653L26.1501 145.743L28.0619 147.653L26.1501 149.563ZM25.2861 147.671L26.1501 148.535L27.0141 147.671L26.1501 146.808L25.2861 147.671Z" fill="white"/>
<path d="M34.7235 126.062L33.3457 124.685L31.9679 126.062L33.3457 127.438L34.7235 126.062Z" fill="#45ACBE"/>
<path d="M33.3561 127.98L31.4443 126.07L33.3561 124.16L35.2679 126.07L33.3561 127.98ZM32.4922 126.07L33.3561 126.933L34.2201 126.07L33.3561 125.207L32.4922 126.07Z" fill="white"/>
<path d="M56.3339 133.268L54.9561 131.892L53.5782 133.268L54.9561 134.645L56.3339 133.268Z" fill="#45ACBE"/>
<path d="M54.954 135.181L53.0605 133.27L54.9723 131.36L56.8841 133.27L54.954 135.181ZM54.09 133.27L54.954 134.134L55.8179 133.27L54.954 132.407L54.09 133.27Z" fill="white"/>
<path d="M69.3675 155.239C69.3124 155.239 69.2572 155.221 69.2021 155.203C69.0183 155.111 68.9447 154.89 69.0366 154.707L76.2426 140.306C76.3345 140.122 76.5551 140.048 76.739 140.14C76.9228 140.232 76.9963 140.453 76.9044 140.636L69.6984 155.037C69.6249 155.147 69.4962 155.239 69.3675 155.239Z" fill="white"/>
<path d="M70.7519 154.859L69.374 153.482L67.9962 154.859L69.374 156.235L70.7519 154.859Z" fill="#45ACBE"/>
<path d="M69.3688 156.764L67.457 154.854L69.3688 152.943L71.2806 154.854L69.3688 156.764ZM68.5048 154.872L69.3688 155.735L70.2328 154.872L69.3688 154.009L68.5048 154.872Z" fill="white"/>
<path d="M77.9354 140.462L76.5576 139.085L75.1798 140.462L76.5576 141.839L77.9354 140.462Z" fill="#45ACBE"/>
<path d="M76.5749 142.363L74.6631 140.453L76.5749 138.542L78.4867 140.453L76.5749 142.363ZM75.7109 140.471L76.5749 141.334L77.4389 140.471L76.5749 139.608L75.7109 140.471Z" fill="white"/>
<path d="M26.4083 155.129L25.8936 154.596L40.4894 140.03L54.883 147.212L76.2988 125.813L76.8319 126.327L55.0301 148.112L40.6181 140.912L26.4083 155.129Z" fill="#D1B5F5"/>
<path d="M77.6226 126.07C77.6226 126.658 77.1447 127.135 76.5564 127.135C75.9682 127.135 75.4902 126.658 75.4902 126.07C75.4902 125.482 75.9682 125.005 76.5564 125.005C77.1447 125.005 77.6226 125.482 77.6226 126.07Z" fill="#45ACBE"/>
<path d="M76.5755 127.503C75.785 127.503 75.1416 126.86 75.1416 126.07C75.1416 125.28 75.785 124.637 76.5755 124.637C77.3659 124.637 78.0093 125.28 78.0093 126.07C77.9909 126.86 77.3475 127.503 76.5755 127.503ZM76.5755 125.372C76.1894 125.372 75.8769 125.684 75.8769 126.07C75.8769 126.456 76.1894 126.768 76.5755 126.768C76.9615 126.768 77.274 126.456 77.274 126.07C77.2556 125.684 76.9431 125.372 76.5755 125.372Z" fill="white"/>
<path d="M27.1422 154.872C27.1422 155.46 26.6642 155.937 26.076 155.937C25.4877 155.937 25.0098 155.46 25.0098 154.872C25.0098 154.284 25.4877 153.807 26.076 153.807C26.6642 153.807 27.1422 154.284 27.1422 154.872Z" fill="#45ACBE"/>
<path d="M26.0764 156.286C25.286 156.286 24.6426 155.643 24.6426 154.854C24.6426 154.064 25.286 153.421 26.0764 153.421C26.8669 153.421 27.5103 154.064 27.5103 154.854C27.5103 155.643 26.8669 156.286 26.0764 156.286ZM26.0764 154.174C25.6904 154.174 25.3779 154.486 25.3779 154.872C25.3779 155.258 25.6904 155.57 26.0764 155.57C26.4625 155.57 26.775 155.258 26.775 154.872C26.775 154.486 26.4625 154.174 26.0764 154.174Z" fill="white"/>
<path d="M41.6119 140.471C41.6119 141.059 41.1339 141.536 40.5457 141.536C39.9574 141.536 39.4795 141.059 39.4795 140.471C39.4795 139.883 39.9574 139.406 40.5457 139.406C41.1339 139.406 41.6119 139.883 41.6119 140.471Z" fill="#45ACBE"/>
<path d="M40.5452 141.904C39.7547 141.904 39.1113 141.261 39.1113 140.471C39.1113 139.681 39.7547 139.038 40.5452 139.038C41.3356 139.038 41.979 139.681 41.979 140.471C41.979 141.261 41.3356 141.904 40.5452 141.904ZM40.5452 139.773C40.1591 139.773 39.8466 140.085 39.8466 140.471C39.8466 140.857 40.1591 141.169 40.5452 141.169C40.9312 141.169 41.2437 140.857 41.2437 140.471C41.2437 140.085 40.9312 139.773 40.5452 139.773Z" fill="white"/>
<path d="M56.023 147.671C56.023 148.259 55.5451 148.737 54.9568 148.737C54.3686 148.737 53.8906 148.259 53.8906 147.671C53.8906 147.084 54.3686 146.606 54.9568 146.606C55.5451 146.606 56.023 147.084 56.023 147.671Z" fill="#45ACBE"/>
<path d="M54.9563 149.104C54.1659 149.104 53.5225 148.461 53.5225 147.671C53.5225 146.882 54.1659 146.239 54.9563 146.239C55.7468 146.239 56.3902 146.882 56.3902 147.671C56.3902 148.461 55.7468 149.104 54.9563 149.104ZM54.9563 146.973C54.5703 146.973 54.2578 147.286 54.2578 147.671C54.2578 148.057 54.5703 148.369 54.9563 148.369C55.3423 148.369 55.6549 148.057 55.6549 147.671C55.6549 147.286 55.3423 146.973 54.9563 146.973Z" fill="white"/>
<path d="M272.112 156.415C267.976 156.415 263.877 155.423 260.219 153.531L260.55 152.87C264.153 154.725 268.031 155.68 272.112 155.68C274.576 155.68 277.002 155.331 279.337 154.633L279.539 155.331C277.131 156.047 274.631 156.415 272.112 156.415Z" fill="#D1B5F5"/>
<path d="M282.48 154.247L282.186 153.568C291.395 149.545 297.351 140.471 297.351 130.442C297.351 124.747 295.495 119.365 291.965 114.883L292.535 114.424C296.156 119.035 298.087 124.582 298.087 130.442C298.087 140.765 291.947 150.114 282.48 154.247Z" fill="#D1B5F5"/>
<path d="M288.142 111.008C283.638 107.297 277.939 105.24 272.094 105.24C270.384 105.24 268.675 105.405 267.02 105.754L266.873 105.038C268.583 104.689 270.347 104.505 272.094 104.505C278.105 104.505 283.969 106.618 288.601 110.438L288.142 111.008Z" fill="#D1B5F5"/>
<path d="M264.556 106.397L264.335 105.699C265.162 105.442 266.026 105.222 266.872 105.038L267.019 105.754C266.192 105.92 265.364 106.14 264.556 106.397Z" fill="#D1B5F5"/>
<path d="M261.082 107.775L260.751 107.114C261.119 106.93 261.505 106.765 261.891 106.599L262.185 107.279C261.817 107.426 261.449 107.591 261.082 107.775Z" fill="#D1B5F5"/>
<path d="M253.803 113.102L253.27 112.587C254.74 111.026 256.413 109.667 258.233 108.51L258.619 109.134C256.873 110.255 255.236 111.596 253.803 113.102Z" fill="#D1B5F5"/>
<path d="M272.112 153.843C259.207 153.843 248.711 143.355 248.711 130.46C248.711 117.565 259.207 107.077 272.112 107.077C285.017 107.077 295.513 117.565 295.513 130.46C295.513 143.355 284.998 153.843 272.112 153.843ZM272.112 107.812C259.612 107.812 249.446 117.969 249.446 130.46C249.446 142.951 259.612 153.108 272.112 153.108C284.612 153.108 294.778 142.951 294.778 130.46C294.778 117.969 284.594 107.812 272.112 107.812Z" fill="white"/>
<path d="M268.381 135.364C266.175 135.364 263.951 134.519 262.278 132.848C258.914 129.486 258.914 124.013 262.278 120.633C263.914 118.998 266.083 118.098 268.381 118.098C270.697 118.098 272.866 118.998 274.484 120.633C276.12 122.268 277.021 124.435 277.021 126.731C277.021 129.046 276.12 131.213 274.484 132.83C272.793 134.519 270.587 135.364 268.381 135.364ZM268.381 118.833C266.267 118.833 264.282 119.659 262.793 121.147C259.704 124.233 259.704 129.229 262.793 132.315C265.881 135.401 270.881 135.401 273.969 132.315C275.458 130.827 276.286 128.844 276.286 126.731C276.286 124.619 275.458 122.635 273.969 121.147C272.462 119.659 270.477 118.833 268.381 118.833Z" fill="white"/>
<path d="M273.931 125.482C273.821 125.023 273.674 124.564 273.453 124.16L274.115 123.829C274.354 124.307 274.538 124.803 274.648 125.335L273.931 125.482Z" fill="white"/>
<path d="M272.407 122.708C270.183 120.486 266.561 120.486 264.356 122.708L263.841 122.194C266.341 119.696 270.44 119.696 272.94 122.194L272.407 122.708Z" fill="white"/>
<path d="M282.02 142.969L274.226 135.181L276.818 132.591L284.612 140.379L282.02 142.969ZM275.273 135.181L282.038 141.94L283.601 140.379L276.836 133.619L275.273 135.181Z" fill="white"/>
<path d="M177.262 126.637C177.878 125.102 177.132 123.359 175.596 122.744C174.059 122.129 172.315 122.874 171.7 124.409C171.084 125.944 171.83 127.687 173.366 128.302C174.902 128.917 176.646 128.171 177.262 126.637Z" fill="#FFB18F"/>
<path d="M177.191 103.971L175.594 103.888L174.461 125.514L176.058 125.598L177.191 103.971Z" fill="#9C2D40"/>
<path d="M175.328 109.079L174.059 133.399L171.081 137.954C170.879 138.248 170.677 138.524 170.456 138.781C167.791 141.867 163.085 142.381 159.794 139.773L158.526 138.763L150.144 132.132L151.412 107.812L175.328 109.079Z" fill="#FFB18F"/>
<path d="M174.625 122.517L150.302 121.244L150.19 123.372L174.513 124.644L174.625 122.517Z" fill="#FF9280"/>
<path d="M161.651 125.17L156.871 124.913C156.945 123.59 158.066 122.58 159.39 122.653C160.695 122.745 161.724 123.866 161.651 125.17Z" fill="#221C54"/>
<path d="M173.527 125.794L168.747 125.537C168.821 124.215 169.942 123.204 171.265 123.278C172.589 123.351 173.6 124.49 173.527 125.794Z" fill="#221C54"/>
<path d="M162.184 119.402L156.209 119.861L156.117 121.57L162.055 121.864L162.184 119.402Z" fill="#9C2D40"/>
<path d="M168.838 119.733L174.72 120.835L174.628 122.525L168.709 122.213L168.838 119.733Z" fill="#9C2D40"/>
<path d="M159.15 127.043L158.544 138.799L150.161 132.15L150.455 126.603L159.15 127.043Z" fill="#FF9280"/>
<path d="M174.353 127.852L174.059 133.417L171.081 137.973C170.879 138.267 170.677 138.542 170.456 138.799L171.044 127.668L174.353 127.852Z" fill="#FF9280"/>
<path d="M160.547 129.211L156.191 128.991C155.566 128.954 155.106 128.439 155.125 127.815L155.143 127.558C155.18 126.933 155.694 126.474 156.319 126.492L160.676 126.713C161.301 126.75 161.761 127.264 161.742 127.888L161.724 128.146C161.687 128.77 161.154 129.248 160.547 129.211Z" fill="#F76866"/>
<path d="M174.242 129.927L169.426 129.67C168.801 129.633 168.342 129.119 168.36 128.495L168.378 128.237C168.415 127.613 168.93 127.154 169.555 127.172L174.371 127.429L174.242 129.927Z" fill="#F76866"/>
<path d="M175.437 103.881L175.088 110.236L153.782 109.116L152.992 124.398L147.403 124.105L148.525 102.466L175.437 103.881Z" fill="#9C2D40"/>
<path d="M155.328 123.657L150.61 123.41L150.443 126.602L155.161 126.849L155.328 123.657Z" fill="#FFB18F"/>
<path d="M181.192 118.208L173.747 117.822C170.898 117.675 168.324 116.573 166.302 114.847L166.174 117.216C162.038 116.224 158.747 113.194 157.368 109.299L149.703 108.895C147.956 108.803 146.596 107.316 146.688 105.552L160.015 106.25C161.155 110.438 164.905 113.653 169.446 113.892C175.108 114.185 179.997 109.777 180.31 104.138L183.508 104.303C183.361 107.022 182.148 109.41 180.273 111.1C179.814 111.522 179.299 111.889 178.766 112.22C180.365 113.708 181.303 115.875 181.192 118.208Z" fill="#9C2D40"/>
<path d="M180.309 104.138C180.015 109.795 175.106 114.204 169.444 113.91C164.886 113.671 161.154 110.457 160.014 106.269C159.738 105.24 159.61 104.175 159.665 103.054L169.978 103.587L178.415 97.6354C179.776 99.5273 180.437 101.823 180.309 104.138Z" fill="#B5364A"/>
<path d="M162.692 103.211L146.85 102.382L146.683 105.556L162.525 106.384L162.692 103.211Z" fill="#B5364A"/>
<path d="M169.371 131.691L167.772 134.483C167.367 135.181 166.613 135.585 165.823 135.548L163.93 135.456C163.121 135.42 162.422 134.924 162.091 134.189L160.786 131.25L169.371 131.691Z" fill="white"/>
<path d="M165.653 120.977L165.596 122.077L166.991 122.15L167.048 121.05L165.653 120.977Z" fill="#262763"/>
<path d="M177.993 121.606L148.857 120.082C147.736 120.027 146.798 120.89 146.725 121.992L146.614 124.068L147.717 124.123L147.828 122.047C147.846 121.533 148.287 121.147 148.802 121.184L151.761 121.331C153.214 121.404 154.39 122.506 154.556 123.939L154.721 125.207C154.868 126.364 155.806 127.246 156.964 127.301L161.467 127.539C162.644 127.595 163.71 126.768 163.931 125.629L164.427 123.113L166.596 123.223L166.835 125.776C166.945 126.952 167.92 127.888 169.096 127.944L173.6 128.182C174.758 128.237 175.788 127.466 176.045 126.345L176.688 123.572C176.817 123.057 177.277 122.69 177.828 122.727H177.92L177.993 121.606ZM162.865 125.409C162.736 126.033 162.166 126.474 161.541 126.437L157.037 126.199C156.412 126.162 155.897 125.684 155.824 125.078L155.383 121.515L163.563 121.937L162.865 125.409ZM174.997 126.088C174.85 126.694 174.299 127.117 173.674 127.08L169.17 126.841C168.545 126.805 168.012 126.309 167.957 125.684L167.626 122.176L175.806 122.598L175.034 125.941L174.997 126.088Z" fill="#262763"/>
<path d="M148.719 127.154C150.374 127.149 151.712 125.804 151.706 124.151C151.701 122.497 150.355 121.161 148.7 121.166C147.046 121.171 145.708 122.516 145.714 124.17C145.719 125.823 147.065 127.159 148.719 127.154Z" fill="#FFB18F"/>
</svg>
