<svg width="338" height="304" viewBox="0 0 338 304" fill="none" xmlns="http://www.w3.org/2000/svg">
<rect x="16.7656" width="304" height="304" rx="152" fill="#2B417C"/>
<path d="M337.427 272.011H0.000976562V276.305H337.427V272.011Z" fill="#162E51"/>
<path d="M230.125 41.3343H82.2715V197.961H230.125V41.3343Z" fill="#1D3663"/>
<path d="M220.983 50.5368H91.8408V190.108H220.983V50.5368Z" fill="#162E51"/>
<path d="M95.0929 146.856H106.749V123.543H120.86V146.856H128.835V110.66L133.743 102.746L138.038 110.783V146.856H141.105V119.862H153.375V131.519H162.578V108.206H176.689V130.905H180.37V116.795H195.094V124.157H200.002V133.973H207.364V89.1874L220.861 67.5921V190.108L92.0254 190.415V136.427H95.0929V146.856Z" fill="#112742"/>
<path opacity="0.1" d="M92.0254 94.7702L159.633 50.5368H100.369L92.0254 56.1197V94.7702Z" fill="#112742"/>
<path opacity="0.1" d="M92.0254 107.531L179.265 50.5368H169.204L92.0254 100.967V107.531Z" fill="#112742"/>
<path opacity="0.1" d="M92.0254 134.832L220.861 50.5981V50.5368H190.738L92.0254 115.016V134.832Z" fill="#112742"/>
<path d="M110.308 127.777H109.449V129.556H110.308V127.777Z" fill="#BCB26C"/>
<path d="M119.204 132.93H118.345V134.709H119.204V132.93Z" fill="#BCB26C"/>
<path d="M214.542 91.8254H210.615V93.6046H214.542V91.8254Z" fill="#205B60"/>
<path d="M214.542 94.4021H210.615V96.1813H214.542V94.4021Z" fill="#205B60"/>
<path d="M214.542 97.0402H210.615V98.8193H214.542V97.0402Z" fill="#205B60"/>
<path d="M214.542 99.6782H210.615V101.457H214.542V99.6782Z" fill="#205B60"/>
<path d="M214.542 102.316H210.615V104.095H214.542V102.316Z" fill="#205B60"/>
<path d="M52.0516 85.009C63.2257 80.2904 68.459 67.4068 63.7404 56.2326C59.0219 45.0585 46.1382 39.8252 34.9641 44.5437C23.7899 49.2623 18.5566 62.1459 23.2752 73.3201C27.9938 84.4943 40.8774 89.7276 52.0516 85.009Z" fill="#162E51"/>
<path d="M60.9242 67.5975C62.482 57.9986 55.9635 48.9543 46.3646 47.3965C36.7657 45.8386 27.7213 52.3572 26.1635 61.9561C24.6057 71.555 31.1242 80.5993 40.7231 82.1571C50.322 83.715 59.3663 77.1964 60.9242 67.5975Z" fill="#325187"/>
<path d="M46.3171 55.0981L45.5439 54.9024L42.8189 65.667L43.5921 65.8627L46.3171 55.0981Z" fill="#162E51"/>
<path d="M59.0375 67.7994L59.1572 67.073L42.5103 64.3297L42.3906 65.0561L59.0375 67.7994Z" fill="#162E51"/>
<path d="M43.4987 49.4325C43.9282 49.4325 44.2963 49.0644 44.2963 48.6349C44.2963 48.2055 43.9282 47.8374 43.4987 47.8374C43.0693 47.8374 42.7012 48.2055 42.7012 48.6349C42.7012 49.0644 43.1306 49.4325 43.4987 49.4325Z" fill="#162E51"/>
<path d="M43.4987 81.764C43.9282 81.764 44.2963 81.3959 44.2963 80.9664C44.2963 80.537 43.9282 80.1689 43.4987 80.1689C43.0693 80.1689 42.7012 80.537 42.7012 80.9664C42.7625 81.3959 43.1306 81.764 43.4987 81.764Z" fill="#162E51"/>
<path d="M28.099 64.8314C28.099 64.4019 27.7309 64.0338 27.3015 64.0338C26.872 64.0338 26.5039 64.4019 26.5039 64.8314C26.5039 65.2608 26.872 65.6289 27.3015 65.6289C27.7923 65.5676 28.099 65.2608 28.099 64.8314Z" fill="#162E51"/>
<path d="M60.4301 64.8314C60.4301 64.4019 60.062 64.0338 59.6325 64.0338C59.2031 64.0338 58.835 64.4019 58.835 64.8314C58.835 65.2608 59.2031 65.6289 59.6325 65.6289C60.1233 65.5676 60.4301 65.2608 60.4301 64.8314Z" fill="#162E51"/>
<path d="M58.8974 99.5555H28.0996V136.366H58.8974V99.5555Z" fill="#162E51"/>
<path d="M56.1978 102.746H30.7988V133.175H56.1978V102.746Z" fill="#325187"/>
<path d="M54.0508 106.181H32.6396V107.776H54.0508V106.181Z" fill="#162E51"/>
<path d="M54.0508 114.586H32.6396V115.384H54.0508V114.586Z" fill="#162E51"/>
<path d="M54.0508 116.304H32.6396V117.102H54.0508V116.304Z" fill="#162E51"/>
<path d="M54.0508 118.022H32.6396V118.819H54.0508V118.022Z" fill="#162E51"/>
<path d="M54.0508 119.801H32.6396V120.599H54.0508V119.801Z" fill="#162E51"/>
<path d="M54.0508 121.519H32.6396V122.316H54.0508V121.519Z" fill="#162E51"/>
<path d="M54.0508 123.298H32.6396V124.096H54.0508V123.298Z" fill="#162E51"/>
<path d="M45.9526 125.016H32.6396V125.813H45.9526V125.016Z" fill="#162E51"/>
<path d="M50.6145 109.249H36.1973V110.844H50.6145V109.249Z" fill="#162E51"/>
<path d="M51.1057 131.58C52.3933 131.58 53.437 130.537 53.437 129.249C53.437 127.961 52.3933 126.918 51.1057 126.918C49.8182 126.918 48.7744 127.961 48.7744 129.249C48.7744 130.537 49.8182 131.58 51.1057 131.58Z" fill="#162E51"/>
<path d="M337.856 46.4877H255.77V272.011H337.856V46.4877Z" fill="#162E51"/>
<path d="M337.427 40.9662H248.224V52.0092H337.427V40.9662Z" fill="#325187"/>
<path d="M337.427 91.396H248.224V98.758H337.427V91.396Z" fill="#325187"/>
<path d="M337.427 128.206H248.224V135.568H337.427V128.206Z" fill="#325187"/>
<path d="M337.427 165.016H248.224V172.378H337.427V165.016Z" fill="#325187"/>
<path d="M337.427 201.826H248.224V209.188H337.427V201.826Z" fill="#325187"/>
<path d="M337.427 238.636H248.224V245.998H337.427V238.636Z" fill="#325187"/>
<path d="M259.252 272.025L259.252 40.98H248.209L248.209 272.025H259.252Z" fill="#325187"/>
<path d="M336.506 248.759H328.408V270.845H336.506V248.759Z" fill="#1D3663"/>
<path d="M327.855 248.759H321.229V270.845H327.855V248.759Z" fill="#1D3663"/>
<path d="M292.825 248.759H286.199V270.845H292.825V248.759Z" fill="#1D3663"/>
<path d="M285.401 250.415H279.818V270.845H285.401V250.415Z" fill="#1D3663"/>
<path d="M279.205 250.415H273.622V270.845H279.205V250.415Z" fill="#1D3663"/>
<path d="M265.401 247.103H259.818V270.845H265.401V247.103Z" fill="#1D3663"/>
<path d="M272.518 247.103H266.138V270.845H272.518V247.103Z" fill="#1D3663"/>
<path d="M320.678 245.998H315.095V270.784H320.678V245.998Z" fill="#1D3663"/>
<path d="M314.482 248.145H307.304V270.784H314.482V248.145Z" fill="#1D3663"/>
<path d="M306.751 247.103H304.481V270.845H306.751V247.103Z" fill="#1D3663"/>
<path d="M295.892 247.103H293.622V270.845H295.892V247.103Z" fill="#1D3663"/>
<path d="M303.868 248.759H296.506V270.845H303.868V248.759Z" fill="#1D3663"/>
<path d="M336.997 211.029H326.874V238.759H336.997V211.029Z" fill="#1D3663"/>
<path d="M334.665 214.096H329.267V216.612H334.665V214.096Z" fill="#325187"/>
<path d="M326.015 211.029H315.893V238.759H326.015V211.029Z" fill="#1D3663"/>
<path d="M323.621 214.096H318.223V216.612H323.621V214.096Z" fill="#325187"/>
<path d="M314.972 211.029H304.85V238.759H314.972V211.029Z" fill="#1D3663"/>
<path d="M312.641 214.096H307.242V216.612H312.641V214.096Z" fill="#325187"/>
<path d="M303.929 211.029H293.807V238.759H303.929V211.029Z" fill="#1D3663"/>
<path d="M301.598 214.096H296.199V216.612H301.598V214.096Z" fill="#325187"/>
<path d="M292.947 211.029H282.824V238.759H292.947V211.029Z" fill="#1D3663"/>
<path d="M290.555 214.096H285.156V216.612H290.555V214.096Z" fill="#325187"/>
<path d="M281.904 211.029H271.781V238.759H281.904V211.029Z" fill="#1D3663"/>
<path d="M279.574 214.096H274.175V216.612H279.574V214.096Z" fill="#325187"/>
<path d="M270.861 211.029H260.738V238.759H270.861V211.029Z" fill="#1D3663"/>
<path d="M268.531 214.096H263.132V216.612H268.531V214.096Z" fill="#325187"/>
<path d="M336.506 139.556H328.408V164.955H336.506V139.556Z" fill="#1D3663"/>
<path d="M327.855 139.556H321.229V164.955H327.855V139.556Z" fill="#325187"/>
<path d="M292.825 139.556H286.199V164.955H292.825V139.556Z" fill="#325187"/>
<path d="M285.401 141.458H279.818V164.955H285.401V141.458Z" fill="#325187"/>
<path d="M279.205 141.458H273.622V164.955H279.205V141.458Z" fill="#1D3663"/>
<path d="M265.401 137.654H259.818V164.955H265.401V137.654Z" fill="#1D3663"/>
<path d="M272.518 137.654H266.138V164.955H272.518V137.654Z" fill="#325187"/>
<path d="M320.678 136.427H315.095V164.955H320.678V136.427Z" fill="#325187"/>
<path d="M314.482 138.881H307.304V164.955H314.482V138.881Z" fill="#1D3663"/>
<path d="M306.751 137.654H304.481V164.955H306.751V137.654Z" fill="#325187"/>
<path d="M295.892 137.654H293.622V164.955H295.892V137.654Z" fill="#1D3663"/>
<path d="M303.868 139.556H296.506V164.955H303.868V139.556Z" fill="#1D3663"/>
<path d="M259.82 201.852H267.918V176.453H259.82V201.852Z" fill="#1D3663"/>
<path d="M268.474 201.829H275.1V174.161H268.474V201.829Z" fill="#325187"/>
<path d="M306.743 201.852H313.123V176.453H306.743V201.852Z" fill="#325187"/>
<path d="M318.898 175.568H316.506V201.826H318.898V175.568Z" fill="#325187"/>
<path d="M316.016 178.574H313.623V201.888H316.016V178.574Z" fill="#325187"/>
<path d="M319.483 201.846H322.734V178.349H319.483V201.846Z" fill="#1D3663"/>
<path d="M334.334 201.834H336.543V174.533H334.334V201.834Z" fill="#1D3663"/>
<path d="M328.716 201.834H333.624V174.533H328.716V201.834Z" fill="#325187"/>
<path d="M323.305 201.834H328.213V174.533H323.305V201.834Z" fill="#325187"/>
<path d="M275.679 201.888H281.262V173.36H275.679V201.888Z" fill="#1D3663"/>
<path d="M281.839 201.841H286.134V175.767H281.839V201.841Z" fill="#1D3663"/>
<path d="M289.642 201.834H291.912V174.533H289.642V201.834Z" fill="#325187"/>
<path d="M286.702 201.834H288.972V174.533H286.702V201.834Z" fill="#325187"/>
<path d="M300.474 201.834H305.995V174.533H300.474V201.834Z" fill="#1D3663"/>
<path d="M292.815 201.852H295.883V176.453H292.815V201.852Z" fill="#1D3663"/>
<path d="M296.611 201.852H299.679V176.453H296.611V201.852Z" fill="#1D3663"/>
<path d="M259.82 90.9895H267.918V65.5906H259.82V90.9895Z" fill="#1D3663"/>
<path d="M268.474 90.9895H275.1V65.5906H268.474V90.9895Z" fill="#325187"/>
<path d="M303.488 90.9895H310.114V65.5906H303.488V90.9895Z" fill="#325187"/>
<path d="M310.935 90.9831H316.518V67.486H310.935V90.9831Z" fill="#325187"/>
<path d="M317.172 90.9831H322.755V67.486H317.172V90.9831Z" fill="#1D3663"/>
<path d="M330.927 90.9711H336.51V63.6703H330.927V90.9711Z" fill="#1D3663"/>
<path d="M323.799 90.9711H330.18V63.6703H323.799V90.9711Z" fill="#325187"/>
<path d="M275.679 90.9636H281.262V62.4358H275.679V90.9636Z" fill="#325187"/>
<path d="M281.889 90.9785H289.067V64.9047H281.889V90.9785Z" fill="#1D3663"/>
<path d="M293.241 91.0158L295.491 90.7177L291.907 63.6544L289.656 63.9525L293.241 91.0158Z" fill="#325187"/>
<path d="M300.48 90.9711H302.75V63.6703H300.48V90.9711Z" fill="#1D3663"/>
<path d="M279.204 114.954H264.848C264.603 114.954 264.419 115.016 264.419 115.261V115.568C264.419 115.813 264.603 116.181 264.848 116.181H264.91C264.91 116.181 264.91 116.304 264.91 116.427C264.91 120.844 265.953 124.77 267.548 127.224H267.609C267.364 127.224 266.873 127.593 266.873 127.838V128.145C267.302 128.145 267.302 128.145 267.548 128.145H276.505C276.75 128.145 276.934 128.145 277.241 128.145V127.838C277.241 127.593 276.689 127.224 276.444 127.224H276.505C278.1 124.77 279.143 120.844 279.143 116.427C279.143 116.304 279.143 116.181 279.143 116.181H279.204C279.45 116.181 279.756 115.813 279.756 115.568V115.261C279.756 115.016 279.45 114.954 279.204 114.954Z" fill="#325187"/>
<path d="M333.07 104.218H327.487V127.715H333.07V104.218Z" fill="#325187"/>
<path d="M326.811 104.218H321.229V127.715H326.811V104.218Z" fill="#1D3663"/>
<path d="M336.505 99.6169H333.744V128.145H336.505V99.6169Z" fill="#325187"/>
<path d="M320.002 114.648H291.106V121.212H320.002V114.648Z" fill="#325187"/>
<path d="M316.505 121.151H287.609V127.715H316.505V121.151Z" fill="#1D3663"/>
<path d="M315.401 108.083H286.505V114.648H315.401V108.083Z" fill="#1D3663"/>
<path d="M278.53 113.973L277.732 113.482C277.732 113.298 277.732 113.175 277.732 112.991C277.732 112.807 277.732 112.623 277.671 112.439L278.346 112.01L277.548 111.887C277.425 111.273 277.119 110.783 276.751 110.292L277.119 109.801L276.382 109.862C275.953 109.494 275.462 109.126 274.91 108.881L274.849 108.267L274.481 108.697C274.112 108.574 273.683 108.451 273.254 108.39L273.192 107.531L272.824 108.329C272.579 108.329 272.272 108.267 271.965 108.267C271.781 108.267 271.597 108.267 271.413 108.267L271.045 107.47V108.329C270.431 108.39 269.879 108.513 269.389 108.758L268.652 108.329L268.775 109.065C268.468 109.249 268.162 109.433 267.916 109.678L267.057 109.494L267.425 110.169C267.241 110.414 267.057 110.66 266.873 110.967L266.137 110.905L266.689 111.396C266.566 111.764 266.444 112.194 266.382 112.623L265.523 112.746L266.321 113.053C266.321 113.421 266.382 113.727 266.444 113.973L265.892 114.402H266.566C267.241 116.181 269.388 116.55 271.965 116.55C274.603 116.55 276.812 116.12 277.425 114.218L278.53 113.973Z" fill="#325187"/>
<path d="M35.7678 182.501C28.1604 171.642 14.8474 167.777 14.8474 167.777C14.8474 167.777 13.9272 181.581 21.5346 192.501C29.142 203.36 42.455 207.225 42.455 207.225C42.455 207.225 43.3752 193.421 35.7678 182.501Z" fill="#162E51"/>
<path d="M54.9096 238.268H19.5106C18.8971 238.268 18.4062 238.943 18.4062 239.556V240.354C18.4062 240.968 18.8971 241.949 19.5106 241.949H19.6946C19.6946 241.949 19.6946 242.501 19.6946 242.808C19.6946 253.667 22.21 263.422 26.1364 269.557H26.2591C25.6456 269.557 25.1548 269.925 25.1548 270.538V271.336C25.1548 271.949 25.6456 272.011 26.2591 272.011H48.1611C48.7746 272.011 49.0813 271.949 49.0813 271.336V270.538C49.0813 269.925 48.7746 269.557 48.1611 269.557H48.2838C52.2102 263.422 54.7255 253.667 54.7255 242.808C54.7255 242.44 54.7255 241.949 54.7255 241.949H54.9096C55.5231 241.949 55.8298 240.968 55.8298 240.354V239.556C55.8298 238.943 55.5231 238.268 54.9096 238.268Z" fill="#162E51"/>
<path d="M54.9086 238.268H47.6079C47.792 239.372 47.8533 240.415 47.8533 241.52C47.9147 252.747 44.6018 262.87 39.1416 272.011H48.1601C48.7736 272.011 49.0803 271.949 49.0803 271.336V270.538C49.0803 269.925 48.7736 269.557 48.1601 269.557H48.2828C52.2092 263.422 54.7245 253.667 54.7245 242.808C54.7245 242.44 54.7245 241.949 54.7245 241.949H54.9086C55.5221 241.949 55.8288 240.968 55.8288 240.354V239.556C55.8288 238.943 55.5221 238.268 54.9086 238.268Z" fill="#1C3A5E"/>
<path d="M33.989 209.863C34.6025 215.262 33.4368 243.176 32.0258 247.9C30.5534 252.624 35.216 251.949 35.216 251.949C35.216 251.949 34.173 216.121 35.216 209.863C36.2589 203.605 33.989 209.863 33.989 209.863Z" fill="#162E51"/>
<path d="M45.523 199.74C42.9463 205.016 36.075 229.618 35.8296 237.225C35.5842 244.833 37.6701 245.201 37.6701 245.201C37.6701 245.201 43.8052 203.851 47.2408 198.697C50.615 193.421 45.523 199.74 45.523 199.74Z" fill="#162E51"/>
<path d="M48.4673 204.157C45.8906 209.434 39.0194 234.035 38.774 241.642C38.5286 249.25 40.6145 249.618 40.6145 249.618C40.6145 249.618 46.7495 208.268 50.1851 203.115C53.5594 197.838 48.4673 204.157 48.4673 204.157Z" fill="#162E51"/>
<path d="M32.5166 200.476C35.4614 206.243 36.443 238.514 35.5228 242.379C34.6025 246.244 38.4676 245.814 38.4676 245.814C38.4676 245.814 34.6639 204.28 34.2958 199.74C33.9277 195.2 32.5166 200.476 32.5166 200.476Z" fill="#162E51"/>
<path d="M30.4312 257.532C30.922 249.863 29.4496 234.096 26.8115 228.145C24.1735 222.194 28.652 227.348 28.652 227.348C28.652 227.348 31.4128 249.863 34.6643 255.139C37.9159 260.416 30.4312 257.532 30.4312 257.532Z" fill="#162E51"/>
<path d="M24.4189 180.415C21.106 166.427 27.8545 152.869 27.8545 152.869C27.8545 152.869 39.9405 161.949 43.2534 175.936C46.5663 189.924 39.8178 203.483 39.8178 203.483C39.8178 203.483 27.7318 194.403 24.4189 180.415Z" fill="#162E51"/>
<path d="M43.253 175.936C39.9401 161.949 27.8541 152.869 27.8541 152.869C27.8541 152.869 27.7928 152.991 27.7314 153.176C31.9646 162.562 36.6886 172.071 38.7131 182.255C40.1855 189.495 40.5536 196.55 39.6947 203.421C39.8174 203.483 39.8174 203.544 39.8174 203.544C39.8174 203.544 46.5659 189.924 43.253 175.936Z" fill="#1C3A5E"/>
<path d="M37.4244 178.697C40.8601 169.004 50.308 163.482 50.308 163.482C50.308 163.482 54.2344 173.728 50.8601 183.421C47.4245 193.114 37.9766 198.636 37.9766 198.636C37.9766 198.636 34.0502 188.39 37.4244 178.697Z" fill="#162E51"/>
<path d="M50.3693 163.544C50.3693 163.544 46.8723 165.568 43.314 169.372C43.8662 171.396 44.2343 173.482 44.357 175.63C44.6637 181.09 44.2343 186.611 42.9459 192.01C42.6392 193.36 42.2097 194.648 41.7803 195.937C44.7864 193.421 48.8969 189.188 50.8601 183.482C54.2957 173.728 50.3693 163.544 50.3693 163.544Z" fill="#1C3A5E"/>
<path d="M17.9153 216.857C24.9705 220.477 28.5902 227.409 28.5902 227.409C28.5902 227.409 20.7987 228.575 13.7435 224.955C6.74954 221.335 3.12988 214.403 3.12988 214.403C3.12988 214.403 10.86 213.237 17.9153 216.857Z" fill="#162E51"/>
<path d="M62.8844 221.581C73.682 213.851 77.4244 200.476 77.4244 200.476C77.4244 200.476 63.6206 199.679 52.7617 207.409C41.964 215.139 38.2217 228.513 38.2217 228.513C38.2217 228.513 52.0255 229.311 62.8844 221.581Z" fill="#162E51"/>
<path d="M75.8294 201.274C76.3202 201.151 76.7496 201.029 77.2404 200.967C77.3018 200.661 77.3631 200.538 77.3631 200.538C77.3631 200.538 63.5594 199.74 52.7004 207.47C45.6451 212.501 41.596 219.924 39.6328 224.526C47.9151 212.44 62.0256 204.832 75.8294 201.274Z" fill="#1C3A5E"/>
<path d="M18.2221 209.495C11.7803 201.458 12.1484 190.538 12.1484 190.538C12.1484 190.538 22.946 192.562 29.3264 200.599C35.7682 208.636 35.4001 219.556 35.4001 219.556C35.4001 219.556 24.6638 217.532 18.2221 209.495Z" fill="#162E51"/>
<path d="M23.0687 224.035C16.627 215.998 16.9951 205.078 16.9951 205.078C16.9951 205.078 27.7927 207.102 34.1731 215.139C40.6149 223.176 40.2468 234.096 40.2468 234.096C40.2468 234.096 29.5105 232.072 23.0687 224.035Z" fill="#162E51"/>
<path d="M35.7679 203.176C40.0624 189.495 52.8232 181.274 52.8232 181.274C52.8232 181.274 58.5901 195.323 54.2342 209.004C49.9397 222.685 37.1789 230.906 37.1789 230.906C37.1789 230.906 31.4734 216.918 35.7679 203.176Z" fill="#162E51"/>
<path d="M52.8234 181.274C52.8234 181.274 50.4308 182.808 47.3633 185.691C49.0811 189.004 49.8173 192.624 50.2467 196.55C51.2897 203.973 51.7805 211.151 49.5105 218.575C51.4124 215.814 53.1302 212.624 54.2345 209.004C58.5904 195.323 52.8234 181.274 52.8234 181.274Z" fill="#1C3A5E"/>
<path d="M171.905 127.715H165.463V134.709H171.905V127.715Z" fill="#F3A17C"/>
<path d="M171.905 131.028C171.905 131.028 170.616 131.458 168.715 131.458C166.874 131.458 165.524 131.028 165.524 131.028V127.715H171.966V131.028H171.905Z" fill="#D87A60"/>
<path d="M190.555 100.537C191.537 109.126 191.905 119.372 191.598 122.93C189.328 125.016 185.34 124.218 184.481 124.034C183.991 121.948 183.377 106.734 183.868 103.359C184.42 99.985 190.555 100.537 190.555 100.537Z" fill="#B25253"/>
<path d="M190.555 100.537C191.537 109.126 191.905 119.372 191.598 122.93C189.328 125.016 185.34 124.218 184.482 124.034C184.298 123.298 184.236 122.255 184.175 121.458C185.77 120.905 189.88 121.58 190.187 119.433C190.739 116.12 190.555 100.537 190.555 100.537Z" fill="#9B4549"/>
<path d="M147.18 100.353C146.137 109.188 145.462 119.372 145.769 122.93C148.039 125.016 152.026 124.218 152.885 124.034C153.376 121.948 153.99 106.733 153.499 103.359C153.008 99.985 147.18 100.353 147.18 100.353Z" fill="#B25253"/>
<path d="M147.18 100.353C146.137 109.188 145.462 119.372 145.769 122.93C148.039 125.016 152.026 124.218 152.885 124.034C153.008 123.482 153.069 123.237 153.069 122.5C151.658 121.764 147.732 121.948 147.364 119.494C146.873 116.181 147.18 100.353 147.18 100.353Z" fill="#9B4549"/>
<path d="M191.66 112.132C191.66 113.911 188.837 116.12 187.058 116.12C185.279 116.12 185.218 113.911 185.218 112.132C185.218 110.353 186.69 108.881 188.469 108.881C190.187 108.942 191.66 110.353 191.66 112.132Z" fill="#EA9371"/>
<path d="M188.408 109.924C188.285 111.457 187.855 113.605 187.487 115.016C187.733 115.077 188.162 114.893 188.408 114.77C189.757 114.034 190.677 113.421 190.677 112.194C190.677 110.905 189.635 109.924 188.408 109.924Z" fill="#D87A60"/>
<path d="M145.893 112.132C145.893 113.911 148.715 116.12 150.494 116.12C152.273 116.12 152.334 113.911 152.334 112.132C152.334 110.353 150.862 108.881 149.083 108.881C147.365 108.942 145.893 110.353 145.893 112.132Z" fill="#EA9371"/>
<path d="M149.144 109.924C149.267 111.457 149.696 113.605 150.064 115.016C149.819 115.077 149.389 114.893 149.144 114.77C147.794 114.034 146.874 113.421 146.874 112.194C146.874 110.905 147.856 109.924 149.144 109.924Z" fill="#D87A60"/>
<path d="M187.896 113.379C190.36 102.786 183.77 92.1999 173.177 89.7353C162.583 87.2707 151.997 93.8606 149.533 104.454C147.068 115.048 153.658 125.633 164.252 128.098C174.845 130.563 185.431 123.973 187.896 113.379Z" fill="#F3A17C"/>
<path d="M168.714 89.2487C157.855 89.2487 149.021 98.0831 149.021 108.942C149.021 119.801 157.855 128.635 168.714 128.635C179.573 128.635 188.407 119.801 188.407 108.942C188.407 98.0831 179.573 89.2487 168.714 89.2487ZM168.714 127.715C158.346 127.715 151.168 119.31 151.168 108.942C151.168 98.5739 158.346 90.169 168.714 90.169C179.082 90.169 186.076 98.5739 186.076 108.942C186.076 119.31 179.082 127.715 168.714 127.715Z" fill="#EA9371"/>
<path d="M168.714 89.2487C157.855 89.2487 149.021 98.0831 149.021 108.942C149.021 109.003 149.021 109.065 149.021 109.188C153.254 108.881 162.149 98.0218 162.149 98.0218C162.149 98.0218 180.677 120.476 188.223 111.58C188.346 110.721 188.407 109.862 188.407 108.942C188.407 98.0831 179.573 89.2487 168.714 89.2487Z" fill="#EA9371"/>
<path d="M168.714 117.47C169.629 117.47 170.371 117.168 170.371 116.795C170.371 116.422 169.629 116.12 168.714 116.12C167.799 116.12 167.058 116.422 167.058 116.795C167.058 117.168 167.799 117.47 168.714 117.47Z" fill="#EA9371"/>
<path d="M164.972 120.537C164.849 120.783 166.383 121.703 168.407 121.703C170.493 121.703 171.966 120.844 171.843 120.537C171.72 120.231 170.186 120.599 168.407 120.599C166.628 120.66 165.094 120.292 164.972 120.537Z" fill="#E36861"/>
<path d="M171.781 120.476C171.413 120.844 170.063 121.396 168.468 121.396C166.811 121.396 165.523 120.844 165.155 120.476C165.094 120.476 165.032 120.537 165.032 120.537C164.91 120.783 166.443 121.703 168.468 121.703C170.554 121.703 172.026 120.844 171.903 120.537C171.903 120.537 171.842 120.476 171.781 120.476Z" fill="#CE5E5B"/>
<path d="M158.1 110.783C158.039 110.783 157.978 110.783 157.916 110.721C157.794 110.599 157.794 110.415 157.916 110.292C157.978 110.23 159.021 109.065 161.168 109.249C161.352 109.249 161.475 109.433 161.475 109.556C161.475 109.74 161.291 109.862 161.168 109.862C159.327 109.74 158.468 110.66 158.407 110.721C158.223 110.783 158.162 110.783 158.1 110.783Z" fill="#6A4B46"/>
<path d="M178.286 110.844C178.224 110.844 178.102 110.783 178.04 110.721C177.979 110.66 177.12 109.74 175.279 109.862C175.095 109.862 174.973 109.74 174.973 109.556C174.973 109.372 175.095 109.249 175.279 109.249C177.427 109.126 178.47 110.292 178.531 110.292C178.654 110.415 178.654 110.599 178.531 110.721C178.408 110.783 178.347 110.844 178.286 110.844Z" fill="#6A4B46"/>
<path d="M168.592 146.795C180.79 146.795 190.678 143.884 190.678 140.292C190.678 136.7 180.79 133.789 168.592 133.789C156.394 133.789 146.506 136.7 146.506 140.292C146.506 143.884 156.394 146.795 168.592 146.795Z" fill="#F3A17C"/>
<path d="M155.463 140.292C155.463 137.225 160.125 134.709 165.647 133.973V133.85C154.174 133.85 143.684 138.083 143.684 141.335C143.684 144.893 156.506 146.734 168.714 146.734C161.352 146.734 155.463 143.85 155.463 140.292Z" fill="#4D8F9D"/>
<path d="M182.396 140.292C182.396 137.225 177.427 134.648 171.905 133.973V133.912C183.562 133.912 193.991 138.697 193.991 142.01C193.991 145.568 181.292 146.795 169.145 146.795C176.445 146.734 182.396 143.85 182.396 140.292Z" fill="#4D8F9D"/>
<path d="M188.715 117.102C188.715 117.715 188.346 117.961 187.978 117.961C187.61 117.961 187.242 117.715 187.242 117.102C187.242 116.488 187.978 115.997 187.978 115.997C187.978 115.997 188.715 116.488 188.715 117.102Z" fill="#529EA8"/>
<path d="M150.126 117.102C150.126 117.715 149.758 117.961 149.39 117.961C148.96 117.961 148.653 117.715 148.653 117.102C148.653 116.488 149.39 115.997 149.39 115.997C149.39 115.997 150.126 116.488 150.126 117.102Z" fill="#529EA8"/>
<path d="M202.641 153.728V181.09H206.26C208.039 178.145 209.021 174.771 209.021 171.212C209.021 165.323 206.628 158.636 202.641 153.728Z" fill="#3E7F87"/>
<path d="M135.462 153.728V181.09H131.843C130.064 178.145 129.082 174.771 129.082 171.212C129.082 165.323 131.475 158.636 135.462 153.728Z" fill="#3E7F87"/>
<path d="M162.334 113.85C162.334 113.053 160.923 111.887 160.923 111.887C160.923 111.887 159.512 113.114 159.512 113.85C159.512 114.586 160.125 115.261 160.923 115.261C161.72 115.261 162.334 114.648 162.334 113.85Z" fill="#6A4B46"/>
<path d="M174.052 113.85C174.052 113.053 175.463 111.887 175.463 111.887C175.463 111.887 176.874 113.114 176.874 113.85C176.874 114.586 176.26 115.261 175.463 115.261C174.665 115.323 174.052 114.648 174.052 113.85Z" fill="#6A4B46"/>
<path d="M190.555 102.684C186.997 128.206 162.089 95.9972 162.089 95.9972C162.089 95.9972 146.812 114.648 146.812 103.789C146.812 92.9297 156.629 84.0953 168.653 84.0953C180.678 84.0953 192.089 91.8868 190.555 102.684Z" fill="#B25253"/>
<path d="M168.715 88.0217C179.267 88.0217 189.267 94.034 190.555 102.746V102.684C192.089 91.8868 180.739 84.0953 168.715 84.0953C156.69 84.0953 146.874 92.9297 146.874 103.789C146.874 104.464 146.935 104.954 147.058 105.445C148.285 95.6291 157.488 88.0217 168.715 88.0217Z" fill="#9B4549"/>
<path d="M190.555 101.089C186.997 126.611 162.089 94.4021 162.089 94.4021C162.089 94.4021 147.487 112.194 146.812 102.868C146.812 103.175 146.812 103.482 146.812 103.789C146.812 114.648 162.089 95.9972 162.089 95.9972C162.089 95.9972 186.935 128.145 190.555 102.684C190.678 101.764 190.739 100.844 190.678 99.985C190.678 100.353 190.616 100.721 190.555 101.089Z" fill="#9B4549"/>
<path opacity="0.9" d="M204.051 142.807H133.498L124.603 107.408H212.824L204.051 142.807Z" fill="url(#paint0_linear)"/>
<path d="M138.161 210.661H199.511C201.965 210.661 203.929 208.697 203.929 206.243C203.929 203.789 201.965 201.826 199.511 201.826H138.161C135.707 201.826 133.744 203.789 133.744 206.243C133.744 208.697 135.769 210.661 138.161 210.661Z" fill="#162E51"/>
<path opacity="0.2" d="M146.566 201.888H138.774C137.241 201.888 135.891 202.501 134.971 203.421H146.566V201.888Z" fill="#162E51"/>
<path opacity="0.1" d="M190.002 203.36H202.64C201.72 202.44 200.37 201.826 198.836 201.826H189.94V203.36H190.002Z" fill="#162E51"/>
<path d="M173.928 209.188H163.806V268.943H173.928V209.188Z" fill="#162E51"/>
<path d="M173.621 259.925L200.247 266.673L200.308 268.943H173.621V259.925Z" fill="#162E51"/>
<path d="M201.782 272.501C204.052 272.501 205.893 270.661 205.893 268.391C205.893 266.121 204.052 264.281 201.782 264.281C199.512 264.281 197.672 266.121 197.672 268.391C197.672 270.661 199.512 272.501 201.782 272.501Z" fill="#162E51"/>
<path d="M164.42 259.925L137.733 266.673L137.487 268.943H164.42V259.925Z" fill="#162E51"/>
<path d="M135.892 272.501C138.162 272.501 140.002 270.661 140.002 268.391C140.002 266.121 138.162 264.281 135.892 264.281C133.622 264.281 131.781 266.121 131.781 268.391C131.781 270.661 133.622 272.501 135.892 272.501Z" fill="#162E51"/>
<path d="M141.167 186.305C141.167 186.305 143.253 197.777 145.339 201.888C147.425 205.998 188.652 205.323 192.026 201.888C195.4 198.452 196.75 189.495 196.934 186.121C197.118 182.808 141.903 184.157 141.167 186.305Z" fill="#1D3663"/>
<path d="M182.763 268.391H169.327V208.575C169.327 204.894 172.333 201.826 176.076 201.826C179.757 201.826 182.824 204.832 182.824 208.575V268.391H182.763Z" fill="#2D3A47"/>
<path d="M155.032 268.391H168.468V208.575C168.468 204.894 165.462 201.826 161.719 201.826C158.038 201.826 154.971 204.832 154.971 208.575V268.391H155.032Z" fill="#2D3A47"/>
<path d="M169.634 206.427C170.431 198.022 176.75 196.243 178.284 196.121C179.818 195.998 188.775 196.121 188.775 196.121C188.775 196.121 189.818 205.2 182.763 210.047C175.646 214.894 169.634 206.427 169.634 206.427Z" fill="#2D3A47"/>
<path d="M168.1 206.55C167.303 198.145 160.8 196.243 159.327 196.121C157.794 195.998 148.837 196.121 148.837 196.121C148.837 196.121 147.794 205.2 154.849 210.047C161.904 214.894 168.1 206.55 168.1 206.55Z" fill="#2D3A47"/>
<path opacity="0.1" d="M155.218 208.575C155.218 204.894 158.101 201.826 161.844 201.826C164.85 201.826 167.304 203.789 168.163 206.489C167.365 198.084 160.862 196.182 159.39 196.059C157.856 195.937 148.899 196.059 148.899 196.059C148.899 196.059 147.979 205.139 155.034 209.986C155.095 209.986 155.279 210.047 155.279 210.047V208.575H155.218Z" fill="#F9EC75"/>
<path opacity="0.05" d="M188.775 196.121C188.775 196.121 179.818 195.998 178.284 196.121C176.75 196.243 170.431 198.022 169.634 206.427C170.554 203.789 173.069 201.826 176.014 201.826C179.695 201.826 182.763 204.832 182.763 208.575V210.047C189.573 205.2 188.775 196.121 188.775 196.121Z" fill="#F9EC75"/>
<path d="M188.1 272.011C188.038 266.796 183.621 262.563 178.284 262.563C172.885 262.563 168.529 266.796 168.468 272.011H188.1Z" fill="#1F4156"/>
<path d="M185.033 266.182C185.033 264.219 183.315 262.563 181.168 262.563C179.021 262.563 177.303 264.158 177.303 266.182C177.303 268.146 179.021 269.802 181.168 269.802C183.315 269.802 185.033 268.146 185.033 266.182Z" fill="#19394C"/>
<path d="M181.536 268.391C183.365 268.391 184.848 266.908 184.848 265.078C184.848 263.248 183.365 261.765 181.536 261.765C179.706 261.765 178.223 263.248 178.223 265.078C178.223 266.908 179.706 268.391 181.536 268.391Z" fill="#B0B7C6"/>
<path d="M149.634 272.011C149.695 266.796 154.112 262.563 159.45 262.563C164.849 262.563 169.204 266.796 169.266 272.011H149.634Z" fill="#1F4156"/>
<path d="M152.701 266.182C152.701 264.219 154.419 262.563 156.566 262.563C158.713 262.563 160.431 264.158 160.431 266.182C160.431 268.146 158.713 269.802 156.566 269.802C154.419 269.802 152.701 268.146 152.701 266.182Z" fill="#19394C"/>
<path d="M156.199 268.391C158.028 268.391 159.512 266.908 159.512 265.078C159.512 263.248 158.028 261.765 156.199 261.765C154.369 261.765 152.886 263.248 152.886 265.078C152.886 266.908 154.369 268.391 156.199 268.391Z" fill="#B0B7C6"/>
<path d="M149.634 272.011H169.266C169.266 271.52 169.204 270.784 169.082 270.784H149.756C149.695 270.784 149.634 271.52 149.634 272.011Z" fill="#19394C"/>
<path d="M168.406 272.011H188.038C188.038 271.52 187.977 270.784 187.854 270.784H168.529C168.468 270.784 168.406 271.52 168.406 272.011Z" fill="#19394C"/>
<path d="M62.1479 194.525C64.0498 194.525 65.6449 192.992 65.6449 191.029C65.6449 189.065 64.1111 187.532 62.1479 187.532C59.7553 187.532 57.8534 187.041 56.8105 186.182C56.1356 185.63 55.8289 185.016 55.8289 184.157C55.8289 182.378 57.3013 180.415 59.4485 180.415C61.3504 180.415 62.9455 178.881 62.9455 176.918C62.9455 174.955 61.4117 173.421 59.4485 173.421C53.1295 173.421 48.835 178.943 48.835 184.096C48.835 187.041 50.062 189.679 52.3933 191.519C54.7859 193.544 58.0988 194.525 62.1479 194.525Z" fill="#B25253"/>
<path d="M84.1722 158.084C81.9023 155.752 59.3254 150.967 58.7119 172.439C58.7119 180.231 58.7119 180.599 58.7119 180.599H101.902C101.902 180.599 105.583 174.096 96.8717 174.096C86.3195 174.096 84.1722 158.084 84.1722 158.084Z" fill="#B25253"/>
<path d="M82.0252 149.985C82.516 149.004 83.5589 148.452 84.1111 148.636C85.2154 149.004 88.7737 152.807 90.062 154.28C91.2277 153.912 92.4547 153.728 93.8044 153.728C95.0927 153.728 96.3811 153.912 97.5467 154.28C98.8964 152.807 102.393 149.004 103.559 148.636C104.111 148.452 105.154 149.004 105.645 149.985C106.136 150.967 105.522 157.347 105.522 163.421C105.522 163.666 105.522 163.85 105.522 164.096C105.522 169.801 100.246 174.464 93.743 174.464C87.2399 174.464 81.9638 169.801 81.9638 164.096C81.9638 163.85 81.9638 163.605 81.9638 163.421C82.0252 157.347 81.5344 150.967 82.0252 149.985Z" fill="#D67F54"/>
<path d="M99.0817 166.366C99.6338 166.366 100.186 166.182 100.554 165.875C101.045 165.507 101.29 164.955 101.29 164.341C101.29 164.157 101.106 163.973 100.922 163.973C100.738 163.973 100.554 164.157 100.554 164.341C100.554 165.2 99.8179 165.63 99.0817 165.63C98.3455 165.63 97.6093 165.261 97.6093 164.341C97.6093 164.157 97.4252 163.973 97.2412 163.973C97.0571 163.973 96.873 164.157 96.873 164.341C96.873 165.63 97.9774 166.366 99.0817 166.366Z" fill="#42210B"/>
<path d="M89.5699 166.366C90.1221 166.366 90.6742 166.182 91.0423 165.875C91.5331 165.507 91.7785 164.955 91.7785 164.341C91.7785 164.157 91.5945 163.973 91.4104 163.973C91.2264 163.973 91.0423 164.157 91.0423 164.341C91.0423 165.2 90.3061 165.63 89.5699 165.63C88.8337 165.63 88.0975 165.261 88.0975 164.341C88.0975 164.157 87.9135 163.973 87.7294 163.973C87.5454 163.973 87.3613 164.157 87.3613 164.341C87.3613 165.63 88.4656 166.366 89.5699 166.366Z" fill="#42210B"/>
<path d="M100.491 155.507C100.798 154.403 102.27 152.807 103.068 152.562C103.865 152.317 103.865 159.801 103.681 159.126C103.436 158.574 100.491 155.507 100.491 155.507Z" fill="#B25253"/>
<path d="M87.4241 155.507C87.1173 154.403 85.6449 152.807 84.8474 152.562C84.0498 152.317 84.0498 159.801 84.2339 159.126C84.4793 158.574 87.4241 155.507 87.4241 155.507Z" fill="#B25253"/>
<path d="M94.4179 168.268C95.1972 168.268 95.8289 167.993 95.8289 167.654C95.8289 167.315 95.1972 167.041 94.4179 167.041C93.6386 167.041 93.0068 167.315 93.0068 167.654C93.0068 167.993 93.6386 168.268 94.4179 168.268Z" fill="#42210B"/>
<path d="M65.6444 158.329C65.3377 162.869 68.0984 166.857 68.0984 166.857C68.7119 167.593 68.5892 168.697 67.7917 169.311C67.4849 169.556 67.1168 169.679 66.6874 169.679C66.1966 169.679 65.6444 169.433 65.3377 169.004C65.215 168.82 62.6996 165.875 62.1475 161.335C63.8039 159.311 65.4604 158.452 65.6444 158.329Z" fill="#D67F54"/>
<path d="M72.8851 166.366C72.5783 166.611 72.2102 166.734 71.7808 166.734C71.29 166.734 70.7378 166.488 70.4311 166.059C70.3084 165.875 67.4863 162.378 67.1182 157.47C68.2225 156.979 69.3881 156.611 70.5538 156.366C70.5538 160.538 73.1305 163.85 73.1305 163.85C73.8053 164.648 73.6826 165.752 72.8851 166.366Z" fill="#D67F54"/>
<path d="M78.5278 164.219C78.2211 164.464 77.853 164.587 77.4235 164.587C76.9327 164.587 76.3806 164.341 76.0738 163.912C75.9511 163.728 73.4358 160.538 72.8223 156.059C74.0493 155.936 75.2149 155.936 76.3192 155.998C76.8714 159.311 78.7119 161.703 78.7732 161.765C79.4481 162.501 79.3254 163.605 78.5278 164.219Z" fill="#D67F54"/>
<path d="M59.8779 191.029C59.8779 189.679 60.5528 188.39 61.6571 187.532C61.8411 187.532 62.0252 187.532 62.2092 187.532C64.1111 187.532 65.7062 189.065 65.7062 191.029C65.7062 192.992 64.1724 194.525 62.2092 194.525C62.0252 194.525 61.8411 194.525 61.6571 194.525C60.5528 193.667 59.8779 192.378 59.8779 191.029Z" fill="#D67F54"/>
<path d="M228.099 162.562C223.928 162.562 221.044 162.562 221.044 162.562V166.304C221.044 166.304 220.676 166.304 220.553 166.304C218.652 166.304 216.995 168.268 216.995 170.66C216.995 173.053 218.652 175.016 220.615 175.016C220.737 175.016 221.106 175.016 221.106 175.016V180.354H235.216V162.562C235.155 162.562 232.149 162.562 228.099 162.562ZM220.553 172.992C219.51 172.992 218.59 171.949 218.59 170.66C218.59 169.372 219.572 168.329 220.553 168.329C220.676 168.329 221.044 168.329 221.044 168.39V172.992C221.044 172.93 220.615 172.992 220.553 172.992Z" fill="#B25253"/>
<path d="M217.426 168.574C217.18 169.188 216.996 169.863 216.996 170.599C216.996 172.992 218.653 174.955 220.616 174.955C220.738 174.955 221.045 174.955 221.045 174.955V173.789C218.284 173.421 217.119 170.906 217.426 168.574Z" fill="#994145"/>
<path d="M235.155 179.127H221.045V180.354H235.155V179.127Z" fill="#994145"/>
<path d="M233.928 164.403H232.088V177.9H233.928V164.403Z" fill="#BC6870"/>
<path d="M252.211 186.121L265.523 272.011H264.91L245.155 186.121H252.211Z" fill="#1D3663"/>
<path d="M256.26 212.256L252.149 208.943L264.91 272.011H265.524L256.26 212.256Z" fill="#23416D"/>
<path d="M244.848 186.121L231.167 272.011H230.554L237.793 186.121H244.848Z" fill="#1D3663"/>
<path d="M242.456 201.09L231.167 272.011H230.554L239.327 198.575L242.456 201.09Z" fill="#23416D"/>
<path d="M84.9088 186.121L71.6572 272.011H72.2707L92.0255 186.121H84.9088Z" fill="#1D3663"/>
<path d="M92.2715 186.121L106.014 272.011H106.627L99.3881 186.121H92.2715Z" fill="#1D3663"/>
<path d="M85.5837 198.207L71.6572 272.011H72.2707L88.6512 200.661L85.5837 198.207Z" fill="#23416D"/>
<path d="M97.4238 207.716L106.013 272.011H106.626L101.596 211.09L97.4238 207.716Z" fill="#23416D"/>
<path d="M284.174 180.354H56.5039V181.09H284.174V180.354Z" fill="#D67F54"/>
<path d="M284.174 181.09H56.5039V186.305H284.174V181.09Z" fill="#3B4B5C"/>
<path opacity="0.2" d="M221.781 95.077L77.6699 180.599L246.015 180.354L247.978 115.138L221.781 95.077Z" fill="#F5F2AD"/>
<path opacity="0.3" d="M221.843 95.077L91.6582 180.599L236.935 180.354L247.978 115.138L221.843 95.077Z" fill="#F5F2AF"/>
<path d="M244.236 83.1137L251.476 73.7271L251.414 73.7885C253.439 71.1504 257.181 70.721 259.819 72.7455C262.457 74.7701 262.948 78.4511 260.923 81.0891V81.0278V81.0891L253.561 90.7211C256.384 98.5126 252.887 108.758 247.979 115.138L221.721 94.8929C226.629 88.5125 236.936 83.0524 244.236 83.1137Z" fill="#162E51"/>
<path d="M256.873 76.1811C256.751 76.1198 256.567 76.1198 256.505 76.2425L248.959 86.0585C248.898 86.1812 248.898 86.3653 249.021 86.4266C249.143 86.488 249.327 86.488 249.389 86.3653L256.935 76.5492C256.996 76.4265 256.935 76.2425 256.873 76.1811Z" fill="#29427A"/>
<path d="M258.039 77.1014C257.917 77.04 257.733 77.04 257.671 77.1627L250.125 86.9788C250.064 87.1015 250.064 87.2855 250.187 87.3469C250.309 87.4082 250.493 87.4082 250.555 87.2855L258.101 77.4695C258.223 77.3468 258.162 77.1627 258.039 77.1014Z" fill="#29427A"/>
<path d="M259.266 78.0216C259.143 77.9603 258.959 77.9603 258.898 78.083L251.352 87.899C251.29 88.0217 251.29 88.2058 251.413 88.2671C251.536 88.3285 251.72 88.3285 251.781 88.2058L259.327 78.3897C259.389 78.267 259.389 78.1443 259.266 78.0216Z" fill="#29427A"/>
<path d="M255.647 75.1995C255.524 75.1382 255.34 75.1382 255.279 75.2609L247.733 85.0769C247.671 85.1996 247.671 85.3837 247.794 85.445C247.917 85.5064 248.101 85.5064 248.162 85.3837L255.708 75.5676C255.77 75.5063 255.77 75.3222 255.647 75.1995Z" fill="#29427A"/>
<path d="M254.419 74.2793C254.297 74.2179 254.113 74.2179 254.051 74.3406L246.505 84.1567C246.444 84.2794 246.444 84.4634 246.566 84.5248C246.689 84.5861 246.873 84.5861 246.935 84.4634L254.481 74.6474C254.542 74.5247 254.542 74.402 254.419 74.2793Z" fill="#29427A"/>
<path d="M280.616 174.955H263.867C262.333 174.955 261.106 176.182 261.106 177.716V180.354H283.438V177.716C283.377 176.182 282.15 174.955 280.616 174.955Z" fill="#162E51"/>
<path d="M269.74 177.355L274.821 178.776L288.452 130.03L283.37 128.609L269.74 177.355Z" fill="#162E51"/>
<path d="M279.695 151.519C280.248 151.703 280.861 151.335 281.045 150.783L285.217 135.875C285.401 135.323 285.033 134.709 284.481 134.525C283.929 134.341 283.315 134.709 283.131 135.261L278.959 150.169C278.775 150.783 279.082 151.335 279.695 151.519Z" fill="#29427A"/>
<path d="M273.745 172.685C274.297 172.869 274.911 172.501 275.095 171.949L279.267 157.041C279.451 156.488 279.082 155.875 278.53 155.691C277.978 155.507 277.365 155.875 277.181 156.427L273.009 171.335C272.825 171.949 273.193 172.501 273.745 172.685Z" fill="#29427A"/>
<path d="M282.566 129.391L286.829 126.283L257.012 85.3867L252.749 88.4948L282.566 129.391Z" fill="#162E51"/>
<path d="M268.408 105.568C268.898 105.2 269.021 104.525 268.653 104.095L259.512 91.58C259.144 91.0892 258.469 90.9665 258.04 91.3346C257.549 91.7027 257.426 92.3776 257.794 92.807L266.935 105.322C267.242 105.813 267.917 105.936 268.408 105.568Z" fill="#29427A"/>
<path d="M281.352 123.359C281.843 122.991 281.966 122.316 281.597 121.887L272.456 109.372C272.088 108.881 271.413 108.758 270.984 109.126C270.493 109.494 270.37 110.169 270.738 110.599L279.88 123.114C280.186 123.605 280.861 123.727 281.352 123.359Z" fill="#29427A"/>
<path d="M290.329 130.999C291.455 128.721 290.521 125.961 288.243 124.835C285.965 123.709 283.206 124.643 282.08 126.921C280.954 129.199 281.888 131.958 284.166 133.084C286.444 134.21 289.203 133.276 290.329 130.999Z" fill="#162E51"/>
<path d="M288.776 128.942C288.776 127.531 287.611 126.366 286.2 126.366C284.789 126.366 283.623 127.531 283.623 128.942C283.623 130.353 284.789 131.519 286.2 131.519C287.611 131.519 288.776 130.353 288.776 128.942Z" fill="#29427A"/>
<path d="M136.505 139.004H200.861C202.518 139.004 203.868 140.353 203.868 142.01V180.354H133.499V142.01C133.499 140.353 134.849 139.004 136.505 139.004Z" fill="#5F6477"/>
<path d="M169.695 154.464C169.204 154.341 168.713 154.341 168.223 154.403C169.572 155.323 170.308 157.041 169.879 158.697C169.45 160.415 168.038 161.58 166.443 161.765C166.811 162.01 167.302 162.255 167.793 162.378C169.94 162.93 172.149 161.58 172.701 159.372C173.192 157.225 171.904 155.016 169.695 154.464Z" fill="#C2C6D3"/>
<path d="M203.868 178.759H133.499V180.354H203.868V178.759Z" fill="#515668"/>
<defs>
<linearGradient id="paint0_linear" x1="168.718" y1="142.811" x2="168.718" y2="107.432" gradientUnits="userSpaceOnUse">
<stop stop-color="#00A99D"/>
<stop offset="0.0923607" stop-color="#06AB9F"/>
<stop offset="0.2177" stop-color="#17B1A6"/>
<stop offset="0.362" stop-color="#34BBB1"/>
<stop offset="0.5204" stop-color="#5CC8C0"/>
<stop offset="0.6905" stop-color="#8FD9D4"/>
<stop offset="0.8674" stop-color="#CCEEEB"/>
<stop offset="1" stop-color="white"/>
</linearGradient>
</defs>
</svg>
