<svg width="120" height="120" viewBox="0 0 120 120" fill="none" xmlns="http://www.w3.org/2000/svg">
<circle cx="60" cy="60" r="60" fill="#A6DAE8"/>
<mask id="mask0" mask-type="alpha" maskUnits="userSpaceOnUse" x="0" y="0" width="120" height="120">
<circle cx="60" cy="60" r="60" fill="#A6DAE8"/>
</mask>
<g mask="url(#mask0)">
<path d="M83.0236 86.1981L37.6286 96.7174L23.1621 30.5193L68.5954 20L83.0236 86.1981Z" fill="#F7F7F8"/>
<path d="M68.0573 25.7027L25.8857 35.4514L25.502 33.7559L67.6736 24.0073L68.0573 25.7027Z" fill="#C6C0B6"/>
<path d="M38.1257 35.3743L27.4197 37.8403L27.1895 36.9541L37.8955 34.4881L38.1257 35.3743Z" fill="#A5A5A5"/>
<path d="M46.8377 33.3706L39.7387 34.989L39.5469 34.1028L46.6458 32.4459L46.8377 33.3706Z" fill="#A5A5A5"/>
<path d="M42.4265 36.7229L27.8833 40.0752L27.6914 39.189L42.2347 35.7982L42.4265 36.7229Z" fill="#A5A5A5"/>
<path d="M50.6355 34.7963L43.8051 36.3761L43.6133 35.4899L50.4436 33.9101L50.6355 34.7963Z" fill="#A5A5A5"/>
<path d="M37.3612 40.3835L28.4204 42.4257L28.2285 41.5394L37.1694 39.4587L37.3612 40.3835Z" fill="#A5A5A5"/>
<path d="M46.0729 38.3413L38.4751 40.1137L38.2832 39.2275L45.881 37.455L46.0729 38.3413Z" fill="#A5A5A5"/>
<path d="M39.6244 42.3486L28.9184 44.8147L28.7266 43.9284L39.4326 41.4238L39.6244 42.3486Z" fill="#A5A5A5"/>
<path d="M41.2737 44.4293L29.4548 47.1651L29.2246 46.2789L41.0434 43.5431L41.2737 44.4293Z" fill="#A5A5A5"/>
<path d="M58.7313 45.2L44.2264 48.5523L44.1113 47.8587L58.5779 44.5064L58.7313 45.2Z" fill="#A5A5A5"/>
<path d="M56.7744 48.5523L45.0324 51.2495L44.8789 50.5945L56.621 47.8587L56.7744 48.5523Z" fill="#A5A5A5"/>
<path d="M45.9565 43.3504L42.4262 44.1596L42.2344 43.2734L45.7647 42.4642L45.9565 43.3504Z" fill="#A5A5A5"/>
<path d="M52.175 41.9248L47.1098 43.0807L46.918 42.1945L51.9832 41L52.175 41.9248Z" fill="#A5A5A5"/>
<path d="M96.5299 32.022L66.1004 33.5633L65.7167 25.8183C65.6783 25.0477 66.2539 24.3541 67.0213 24.3156L94.6881 22.9284C95.4555 22.8899 96.1078 23.5064 96.1462 24.2771L96.5299 32.022Z" fill="#484A59"/>
<path d="M96.5311 32.022L66.1016 33.5633L67.0993 54.4477C67.1376 55.2183 67.79 55.8348 68.5574 55.7963L96.2242 54.4092C96.9916 54.3706 97.5672 53.7156 97.5288 52.9064L96.5311 32.022Z" fill="#CACCCE"/>
<path d="M94.2672 30.4422L68.2505 31.7523L68.0586 27.7064L94.0753 26.3963L94.2672 30.4422Z" fill="#DBDBDD"/>
<path d="M93.7301 25.6642L88.8951 25.8954L88.8184 24.4312L93.6533 24.1615L93.7301 25.6642Z" fill="#8E8E8E"/>
<path d="M72.0875 37.5706L69.0561 37.7248C68.7875 37.7248 68.5572 37.5321 68.5572 37.2238L68.4805 35.6055C68.4805 35.3358 68.6723 35.1046 68.9409 35.066L71.9724 34.9119C72.241 34.9119 72.4712 35.1046 72.4712 35.4128L72.548 37.0312C72.548 37.3009 72.3561 37.5321 72.0875 37.5706Z" fill="#F7AF2C"/>
<path d="M77.5738 37.2624L74.5424 37.4165C74.2738 37.4165 74.0435 37.2239 74.0435 36.9156L73.9668 35.2973C73.9668 35.0275 74.1587 34.7963 74.4273 34.7578L77.4203 34.6422C77.6889 34.6422 77.9192 34.8349 77.9192 35.1431L77.9959 36.7615C78.0343 37.0312 77.8424 37.2624 77.5738 37.2624Z" fill="#98989C"/>
<path d="M83.0621 36.9926L80.0307 37.1468C79.7621 37.1468 79.5318 36.9541 79.5318 36.6458L79.4551 35.0275C79.4551 34.7578 79.6469 34.5266 79.9155 34.4881L82.947 34.3339C83.2156 34.3339 83.4458 34.5266 83.4458 34.8348L83.5226 36.4532C83.5226 36.7614 83.3307 36.9926 83.0621 36.9926Z" fill="#98989C"/>
<path d="M88.5484 36.7229L85.517 36.877C85.2484 36.877 85.0182 36.6844 85.0182 36.3761L84.9414 34.7578C84.9414 34.488 85.1333 34.2569 85.4019 34.2183L88.4333 34.0642C88.7019 34.0642 88.9322 34.2569 88.9322 34.5651L89.0089 36.1835C89.0473 36.4917 88.817 36.7229 88.5484 36.7229Z" fill="#98989C"/>
<path d="M94.0328 36.4532L91.0014 36.6073C90.7328 36.6073 90.5025 36.4147 90.5025 36.1064L90.4258 34.4881C90.4258 34.2183 90.6176 33.9872 90.8863 33.9486L93.9177 33.7945C94.1863 33.7945 94.4165 33.9872 94.4165 34.2954L94.4933 35.9138C94.5317 36.1835 94.3014 36.4532 94.0328 36.4532Z" fill="#98989C"/>
<path d="M72.2379 41.5394L69.2064 41.6936C68.9378 41.6936 68.7076 41.5009 68.7076 41.1926L68.6309 39.5743C68.6309 39.3046 68.8227 39.0734 69.0913 39.0349L72.1228 38.8807C72.3914 38.8807 72.6216 39.0734 72.6216 39.3816L72.6984 41C72.7367 41.3082 72.5449 41.5394 72.2379 41.5394Z" fill="#68676C"/>
<path d="M77.7672 41.2697L74.7357 41.4239C74.4671 41.4239 74.2369 41.2312 74.2369 40.9229L74.1602 39.3046C74.1602 39.0349 74.352 38.8037 74.6206 38.7652L77.6521 38.611C77.9207 38.611 78.1509 38.8037 78.1509 39.1119L78.2277 40.7303C78.2277 41.0385 78.0358 41.2697 77.7672 41.2697Z" fill="#68676C"/>
<path d="M83.2516 41L80.2201 41.1541C79.9515 41.1541 79.7213 40.9614 79.7213 40.6532L79.6445 39.0348C79.6445 38.7651 79.8364 38.5339 80.105 38.4954L83.1364 38.3413C83.405 38.3413 83.6353 38.5339 83.6353 38.8422L83.712 40.4605C83.712 40.7688 83.5202 41 83.2516 41Z" fill="#68676C"/>
<path d="M88.7379 40.7303L85.7065 40.8844C85.4378 40.8844 85.2076 40.6917 85.2076 40.3835L85.1309 38.7651C85.1309 38.4954 85.3227 38.2642 85.5913 38.2257L88.6228 38.0716C88.8914 38.0716 89.1216 38.2642 89.1216 38.5725L89.1984 40.1908C89.2367 40.4606 89.0065 40.7303 88.7379 40.7303Z" fill="#98989C"/>
<path d="M94.2262 40.4605L91.1947 40.6147C90.9261 40.6147 90.6959 40.422 90.6959 40.1137L90.6191 38.4954C90.6191 38.2257 90.811 37.9945 91.0796 37.9559L94.111 37.8018C94.3797 37.8018 94.6099 37.9945 94.6099 38.3027L94.6866 39.9211C94.725 40.1908 94.4948 40.422 94.2262 40.4605Z" fill="#98989C"/>
<path d="M72.4312 45.5468L69.3998 45.7009C69.1312 45.7009 68.901 45.5082 68.901 45.2L68.8242 43.5816C68.8242 43.3119 69.0161 43.0807 69.2847 43.0422L72.3161 42.888C72.5847 42.888 72.815 43.0807 72.815 43.389L72.8917 45.0073C72.9301 45.3156 72.7382 45.5468 72.4312 45.5468Z" fill="#68676C"/>
<path d="M77.9567 45.277L74.9252 45.4312C74.6566 45.4312 74.4264 45.2385 74.4264 44.9302L74.3496 43.3119C74.3496 43.0422 74.5415 42.811 74.8101 42.7724L77.8415 42.6183C78.1102 42.6183 78.3404 42.811 78.3404 43.1192L78.4171 44.7376C78.4171 45.0458 78.2253 45.277 77.9567 45.277Z" fill="#68676C"/>
<path d="M83.4469 45.0073L80.4154 45.1615C80.1468 45.1615 79.9166 44.9688 79.9166 44.6605L79.8398 43.0422C79.8398 42.7725 80.0317 42.5413 80.3003 42.5027L83.3318 42.3486C83.6004 42.3486 83.8306 42.5413 83.8306 42.8495L83.9073 44.4679C83.9073 44.7376 83.7155 45.0073 83.4469 45.0073Z" fill="#68676C"/>
<path d="M88.9313 44.7376L85.8998 44.8917C85.6312 44.8917 85.401 44.6991 85.401 44.3908L85.3242 42.7725C85.3242 42.5027 85.5161 42.2715 85.7847 42.233L88.8161 42.0789C89.0847 42.0789 89.315 42.2715 89.315 42.5798L89.3917 44.1982C89.4301 44.4679 89.1999 44.6991 88.9313 44.7376Z" fill="#98989C"/>
<path d="M94.4176 44.4679L91.3861 44.622C91.1175 44.622 90.8873 44.4293 90.8873 44.1211L90.8105 42.5027C90.8105 42.233 91.0024 42.0018 91.271 41.9633L94.3025 41.8092C94.5711 41.8092 94.8013 42.0018 94.8013 42.3101L94.878 43.9284C94.9164 44.1981 94.6862 44.4293 94.4176 44.4679Z" fill="#98989C"/>
<path d="M72.6227 49.5541L69.5912 49.7083C69.3226 49.7083 69.0924 49.5156 69.0924 49.2073L69.0156 47.589C69.0156 47.3193 69.2075 47.0881 69.4761 47.0495L72.5076 46.8954C72.7762 46.8954 73.0064 47.0881 73.0064 47.3963L73.0831 49.0147C73.1215 49.3229 72.9297 49.5541 72.6227 49.5541Z" fill="#68676C"/>
<path d="M78.15 49.2844L75.1186 49.4385C74.85 49.4385 74.6197 49.2458 74.6197 48.9376L74.543 47.3192C74.543 47.0495 74.7348 46.8183 75.0034 46.7798L78.0349 46.6257C78.3035 46.6257 78.5337 46.8183 78.5337 47.1266L78.6105 48.7449C78.6105 49.0147 78.4186 49.2844 78.15 49.2844Z" fill="#68676C"/>
<path d="M83.6363 49.0147L80.6049 49.1688C80.3363 49.1688 80.106 48.9761 80.106 48.6679L80.0293 47.0495C80.0293 46.7798 80.2212 46.5486 80.4898 46.5101L83.5212 46.3559C83.7898 46.3559 84.0201 46.5486 84.0201 46.8569L84.0968 48.4752C84.0968 48.7449 83.9049 48.9761 83.6363 49.0147Z" fill="#68676C"/>
<path d="M89.1246 48.7449L86.0932 48.8991C85.8246 48.8991 85.5943 48.7064 85.5943 48.3981L85.5176 46.7798C85.5176 46.5101 85.7094 46.2789 85.978 46.2403L89.0095 46.0862C89.2781 46.0862 89.5083 46.2789 89.5083 46.5871L89.5851 48.2055C89.6235 48.4752 89.3932 48.7064 89.1246 48.7449Z" fill="#98989C"/>
<path d="M72.816 53.5614L69.7846 53.7156C69.516 53.7156 69.2857 53.5229 69.2857 53.2146L69.209 51.5963C69.209 51.3266 69.4008 51.0954 69.6695 51.0568L72.7009 50.9027C72.9695 50.9027 73.1997 51.0954 73.1997 51.4036L73.2765 53.022C73.3148 53.2917 73.0846 53.5614 72.816 53.5614Z" fill="#68676C"/>
<path d="M78.3395 53.2917L75.308 53.4459C75.0394 53.4459 74.8092 53.2532 74.8092 52.9449L74.7324 51.3266C74.7324 51.0569 74.9243 50.8257 75.1929 50.7871L78.2243 50.633C78.493 50.633 78.7232 50.8257 78.7232 51.1339L78.7999 52.7523C78.7999 53.022 78.6081 53.2532 78.3395 53.2917Z" fill="#68676C"/>
<path d="M83.8297 53.022L80.7982 53.1762C80.5296 53.1762 80.2994 52.9835 80.2994 52.6752L80.2227 51.0569C80.2227 50.7872 80.4145 50.556 80.6831 50.5174L83.7146 50.3633C83.9832 50.3633 84.2134 50.556 84.2134 50.8642L84.2902 52.4826C84.2902 52.7523 84.0983 52.9835 83.8297 53.022Z" fill="#68676C"/>
<path d="M89.3141 52.7137L86.2826 52.8679C86.014 52.8679 85.7838 52.6752 85.7838 52.3669L85.707 50.7486C85.707 50.4789 85.8989 50.2477 86.1675 50.2092L89.1989 50.055C89.4675 50.055 89.6978 50.2477 89.6978 50.5559L89.7745 52.1743C89.7745 52.4825 89.5827 52.7137 89.3141 52.7137Z" fill="#98989C"/>
<path d="M94.8028 52.444L91.7714 52.5981C91.5028 52.5981 91.2725 52.4055 91.2725 52.0972L91.0039 46.4715C91.0039 46.2018 91.1958 45.9706 91.4644 45.9321L94.4958 45.778C94.7644 45.778 94.9947 45.9706 94.9947 46.2789L95.2633 51.9046C95.3016 52.2128 95.0714 52.444 94.8028 52.444Z" fill="#98989C"/>
<path d="M86.0536 27.822L86.092 28.6312C86.2071 28.5541 86.3606 28.5156 86.5141 28.5156C86.9362 28.4771 87.2432 28.7853 87.2816 29.3248C87.3199 29.8642 86.9746 30.2495 86.4374 30.2495C86.1304 30.2495 85.8618 30.1339 85.6699 29.9413L85.8618 29.7486C86.0153 29.9028 86.2071 29.9798 86.4374 29.9798C86.7827 29.9798 86.9746 29.7101 86.9362 29.3248C86.8978 28.9009 86.706 28.7853 86.4374 28.7853C86.2839 28.7853 86.2071 28.8239 86.0536 28.9009H85.785L85.7083 27.5908L87.0513 27.5138L87.013 27.7835L86.0536 27.822Z" fill="#818084"/>
<path d="M87.9697 27.7064L88.008 28.5156C88.1232 28.4385 88.2766 28.4 88.4301 28.4C88.8522 28.3615 89.1592 28.6697 89.1976 29.2092C89.236 29.7486 88.8906 30.134 88.3534 30.134C88.0464 30.134 87.7778 30.0184 87.5859 29.8257L87.7778 29.633C87.9313 29.7872 88.1232 29.8642 88.3534 29.8642C88.6987 29.8642 88.8906 29.5945 88.8522 29.2092C88.8139 28.7853 88.622 28.6697 88.3534 28.6697C88.1999 28.6697 88.1232 28.7083 87.9697 28.7853H87.7011L87.6243 27.4752L88.9674 27.3982L88.929 27.6679L87.9697 27.7064Z" fill="#818084"/>
<path d="M90.0848 29.7872C90.0848 29.9413 90.008 30.0569 89.8545 30.0569C89.701 30.0569 89.5859 29.9413 89.5859 29.8257C89.5859 29.6716 89.6627 29.556 89.8162 29.556C89.9696 29.5174 90.0848 29.633 90.0848 29.7872Z" fill="#818084"/>
<path d="M90.7348 29.9413L90.6197 27.6679L90.0441 28.0917L89.8906 27.8605L90.6581 27.3211H90.9267L91.0418 29.9413H90.7348Z" fill="#818084"/>
<path d="M93.3053 28.5156C93.3437 29.4018 93.0751 29.9028 92.5378 29.9028C91.9622 29.9413 91.6553 29.4789 91.6169 28.5927C91.5785 27.7064 91.8471 27.2055 92.3843 27.2055C92.9599 27.167 93.2669 27.6294 93.3053 28.5156ZM91.9622 28.5541C92.0006 29.3248 92.1925 29.633 92.5378 29.633C92.8832 29.633 93.0367 29.2862 92.9983 28.5156C92.9599 27.745 92.7681 27.4367 92.4227 27.4367C92.0774 27.4752 91.9239 27.7835 91.9622 28.5541Z" fill="#818084"/>
<path d="M100.829 79.5321C97.184 75.2935 91.8118 75.4091 87.8978 66.4312C86.6315 63.4642 85.2885 60.8055 84.0989 57.8C83.178 55.4881 83.2931 53.8697 84.4826 53.3303C85.7106 52.7908 87.4373 52.9835 89.3944 57.1449C90.0851 58.6092 91.62 60.4587 93.884 62.8477C93.8456 59.6495 94.6514 58.6092 91.8502 51.789C91.4665 50.9027 91.006 50.4403 88.0897 46.2789C87.3222 45.1614 87.3606 43.2348 88.6269 42.4642C89.1257 42.1559 90.2002 42.1559 91.8502 43.9284C93.2316 45.4312 94.9584 47.7816 96.0712 49.0917C96.2631 49.3229 96.3014 49.4 96.5317 49.7468C96.1096 48.6293 99.0259 45.9321 100.599 47.8972C101.405 48.8991 101.443 49.1303 101.558 49.3614C102.096 49.0147 103.669 49.0532 104.283 49.5541C105.396 50.4789 107.123 53.4073 109.387 58.378C111.727 63.5798 111.152 68.666 114.298 76.1798C115.449 78.9156 117.56 83.2312 117.56 83.2312L105.588 87.3926L100.829 79.5321Z" fill="#FCC7A9"/>
<path d="M101.599 86.5064L121.246 90.7064L114.224 74.7926L99.2969 81.3045L101.599 86.5064Z" fill="#F7F7F8"/>
<path d="M104.998 102L126 99.7999L115.985 77.3743L97.2207 85.5431L104.998 102Z" fill="#1B1C20"/>
<path d="M46.1852 62.077C45.0724 61.2679 43.5375 60.9211 40.7363 64.6587C39.7386 65.9688 37.9351 68.2807 35.1722 70.1688C35.9013 67.6257 37.6281 63.6954 40.9665 58.8789C41.5421 58.0697 43.1921 55.9504 45.341 52.1743C46.0317 50.9798 46.7992 49.6312 45.6096 48.822C44.6119 48.1284 43.998 48.5523 41.8107 51.0954C39.3932 53.8697 39.1246 54.3706 37.9735 55.7192C36.4002 57.6073 33.9059 60.6128 33.9443 60.6128C33.9443 60.6128 33.4071 60.7284 33.8292 60.1504C36.0164 57.1064 42.0793 49.2844 42.6166 48.5137C43.8061 46.7027 42.0026 44.8147 40.3142 45.9321C39.2781 46.6257 36.2851 50.2862 34.328 52.5211C33.0234 54.0238 29.1861 58.4936 29.1861 58.4936C29.1861 58.4936 33.7141 51.9431 34.5199 50.9027C37.0141 47.7431 37.4746 46.2789 36.3234 45.3926C34.5967 44.044 32.2943 47.7046 29.9919 50.3248C29.6082 50.7871 27.9965 53.4459 26.4616 55.3339C26.3081 55.5266 25.9244 55.989 25.7709 56.1816C26.7302 54.7174 28.0733 52.5596 28.457 52.0972C30.2989 49.8624 30.8745 48.822 29.9536 48.244C28.3035 47.2037 26.8454 49.6312 25.2721 51.5963C24.236 52.9064 22.7395 56.2972 20.7057 59.5725C19.4778 61.5376 18.058 63.1945 16.6766 66.3926C15.2184 69.7835 14.7196 72.5578 11.2277 77.7211C9.53926 80.2257 6.50781 84.1174 6.50781 84.1174L18.5185 91.2844L24.9267 84.4256C29.4547 80.9578 34.2897 82.1137 40.0456 73.9064C41.9258 71.2091 43.691 69.0899 45.4945 66.3156C46.8376 64.1963 47.2597 62.8862 46.1852 62.077Z" fill="#FCC7A9"/>
<path d="M20.3583 96.2165L4.43359 84.888L10.65 75.6403L26.5747 86.9688L20.3583 96.2165Z" fill="#F7F7F8"/>
<path d="M17.5 108L-7 99.7999L5.43277 81.6128L25.5017 96.0623L17.5 108Z" fill="#1B1C20"/>
<path d="M86.9006 79.3779L85.3273 81.1504L60.6152 58.2238L62.1885 56.4514L86.9006 79.3779Z" fill="#C4001D"/>
<path d="M86.7052 79.5706L85.5156 80.9578L87.4726 82.7688L88.6622 81.3816L86.7052 79.5706Z" fill="#C4001D"/>
<path d="M84.8627 77.1431L82.9824 79.3009L83.9417 80.2256L85.822 78.0678L84.8627 77.1431Z" fill="#D8DADC"/>
<path d="M79.2606 70.9009L78.7617 71.4789L86.3595 78.5688L86.8584 77.9908L79.2606 70.9009Z" fill="#D8DADC"/>
<path d="M58.8863 54.5247L58.4258 55.0257L60.613 58.2238L62.1863 56.4514L58.8863 54.5247Z" fill="#E73324"/>
</g>
</svg>
