<svg width="120" height="120" viewBox="0 0 120 120" fill="none" xmlns="http://www.w3.org/2000/svg">
<circle cx="60" cy="60" r="60" fill="#A6DAE8"/>
<mask id="mask0" mask-type="alpha" maskUnits="userSpaceOnUse" x="0" y="0" width="120" height="120">
<circle cx="60" cy="60" r="60" fill="#A6DAE8"/>
</mask>
<g mask="url(#mask0)">
<path opacity="0.2" d="M83.4698 25.119H83.1435L83.1761 24.3033H83.0783V23.5529C83.0783 22.933 82.5562 22.4109 81.9363 22.4109H80.8922C80.6965 22.2478 80.4355 22.1173 80.1418 22.1173H27.5467C26.9268 22.1173 26.4048 22.6393 26.4048 23.2592V98.4976C26.4048 99.1175 26.9268 99.6395 27.5467 99.6395H28.5908C28.7866 99.8027 29.0476 99.9332 29.3412 99.9332H81.9689C82.5889 99.9332 83.1109 99.4111 83.1109 98.7912V38.7245L83.4698 25.119Z" fill="#414042"/>
<path d="M82.2954 98.0081C82.2954 98.628 81.7734 99.1501 81.1535 99.1501H28.5585C27.9385 99.1501 27.4165 98.628 27.4165 98.0081V22.7372C27.4165 22.1172 27.9385 21.5952 28.5585 21.5952H81.1861C81.806 21.5952 82.3281 22.1172 82.3281 22.7372V98.0081H82.2954Z" fill="#F29D08"/>
<path opacity="0.2" d="M33.9577 22.9927L31.8638 97.2551L80.5893 98.629L82.6832 24.3666L33.9577 22.9927Z" fill="#414042"/>
<path d="M33.6764 22.159L31.5825 96.4215L80.3081 97.7954L82.402 23.5329L33.6764 22.159Z" fill="#FAFAFA"/>
<path d="M80.5025 97.7145C80.5025 98.3344 79.9805 98.8564 79.3606 98.8564H26.7655C26.1456 98.8564 25.6235 98.3344 25.6235 97.7145V22.4762C25.6235 21.8562 26.1456 21.3342 26.7655 21.3342H79.3932C80.0131 21.3342 80.5351 21.8562 80.5351 22.4762V97.7145H80.5025Z" fill="#FBB03B"/>
<path opacity="0.2" d="M78.4882 23.4246L29.7529 24.3449L31.1555 98.6222L79.8908 97.7019L78.4882 23.4246Z" fill="#414042"/>
<path d="M77.8339 22.6087L29.0986 23.5289L30.5012 97.8063L79.2365 96.886L77.8339 22.6087Z" fill="#FAFAFA"/>
<path opacity="0.2" d="M31.0124 23.876L28.54 98.1235L77.2558 99.7457L79.7282 25.4981L31.0124 23.876Z" fill="#414042"/>
<path d="M30.738 23.0452L28.2656 97.2928L76.9814 98.915L79.4538 24.6674L30.738 23.0452Z" fill="#FAFAFA"/>
<path opacity="0.2" d="M74.4149 21.173L25.9136 26.0401L33.3315 99.9608L81.8328 95.0937L74.4149 21.173Z" fill="#414042"/>
<path d="M73.5013 20L25 24.8672L32.4181 98.7879L80.9194 93.9207L73.5013 20Z" fill="#FAFAFA"/>
<path d="M52.9063 23.8743L42.2905 24.9396L42.4827 26.8549L53.0985 25.7896L52.9063 23.8743Z" fill="#D1D3D4"/>
<path d="M44.9304 24.6641L42.3008 24.928L42.493 26.8434L45.1226 26.5795L44.9304 24.6641Z" fill="#D1D3D4"/>
<path d="M35.2394 30.4082L32.6099 30.6721L32.8021 32.5874L35.4317 32.3236L35.2394 30.4082Z" fill="#D1D3D4"/>
<path d="M45.0489 29.4168L36.9653 30.228L37.1575 32.1434L45.2411 31.3322L45.0489 29.4168Z" fill="#D1D3D4"/>
<path d="M52.524 28.657L46.8428 29.2271L47.035 31.1425L52.7162 30.5724L52.524 28.657Z" fill="#D1D3D4"/>
<path d="M63.5481 27.5546L55.4321 28.369L55.6243 30.2844L63.7404 29.4699L63.5481 27.5546Z" fill="#D1D3D4"/>
<path d="M70.3726 26.8675L64.8213 27.4246L65.0135 29.34L70.5648 28.7829L70.3726 26.8675Z" fill="#D1D3D4"/>
<path d="M32.531 34.5497L29.9014 34.8136L30.0936 36.7289L32.7232 36.465L32.531 34.5497Z" fill="#D1D3D4"/>
<path d="M40.94 39.5089L30.4541 40.5611L30.63 42.3142L41.1159 41.2619L40.94 39.5089Z" fill="#D1D3D4"/>
<path d="M49.1054 38.685L41.7686 39.4212L41.9445 41.1743L49.2814 40.438L49.1054 38.685Z" fill="#D1D3D4"/>
<path d="M60.7759 37.5168L50.29 38.5691L50.466 40.3221L60.9519 39.2698L60.7759 37.5168Z" fill="#D1D3D4"/>
<path d="M44.3595 42.3873L30.7896 43.7491L30.9655 45.5021L44.5355 44.1403L44.3595 42.3873Z" fill="#D1D3D4"/>
<path d="M55.8511 41.2369L45.3652 42.2892L45.5412 44.0423L56.0271 42.99L55.8511 41.2369Z" fill="#D1D3D4"/>
<path d="M35.6687 46.4614L31.0913 46.9207L31.2672 48.6738L35.8447 48.2144L35.6687 46.4614Z" fill="#D1D3D4"/>
<path d="M50.9147 44.9481L36.3384 46.4109L36.5143 48.1639L51.0907 46.7012L50.9147 44.9481Z" fill="#D1D3D4"/>
<path d="M66.4767 43.3818L51.9004 44.8446L52.0763 46.5976L66.6527 45.1349L66.4767 43.3818Z" fill="#D1D3D4"/>
<path d="M41.9195 49.0667L31.4336 50.1189L31.6095 51.872L42.0954 50.8197L41.9195 49.0667Z" fill="#D1D3D4"/>
<path d="M54.3143 47.8044L42.7246 48.9675L42.9005 50.7206L54.4902 49.5575L54.3143 47.8044Z" fill="#D1D3D4"/>
<path d="M39.3166 52.5418L31.7524 53.3008L31.9284 55.0539L39.4925 54.2948L39.3166 52.5418Z" fill="#D1D3D4"/>
<path d="M54.773 50.9911L44.2871 52.0434L44.463 53.7964L54.9489 52.7442L54.773 50.9911Z" fill="#D1D3D4"/>
<path d="M43.0475 52.1588L40.2231 52.4422L40.3991 54.1953L43.2234 53.9118L43.0475 52.1588Z" fill="#D1D3D4"/>
<path d="M43.7226 55.3276L36.3857 56.0639L36.5617 57.817L43.8985 57.0807L43.7226 55.3276Z" fill="#D1D3D4"/>
<path d="M55.0679 54.1911L44.582 55.2434L44.758 56.9965L55.2438 55.9442L55.0679 54.1911Z" fill="#D1D3D4"/>
<path d="M34.8883 56.2057L32.064 56.4891L32.2399 58.2422L35.0643 57.9587L34.8883 56.2057Z" fill="#D1D3D4"/>
<path d="M38.2439 58.6294L32.3354 59.2223L32.5114 60.9754L38.4198 60.3824L38.2439 58.6294Z" fill="#D1D3D4"/>
<path d="M48.0555 57.629L39.1279 58.5249L39.3039 60.278L48.2315 59.382L48.0555 57.629Z" fill="#D1D3D4"/>
<path d="M62.009 56.2439L48.8936 57.56L49.0695 59.3131L62.185 57.9969L62.009 56.2439Z" fill="#D1D3D4"/>
<path d="M51.3256 61.0038L43.9888 61.7401L44.1647 63.4931L51.5016 62.7568L51.3256 61.0038Z" fill="#D1D3D4"/>
<path d="M54.9245 60.6425L52.1001 60.9259L52.276 62.6789L55.1004 62.3955L54.9245 60.6425Z" fill="#D1D3D4"/>
<path d="M34.9908 62.6278L32.7183 62.8559L32.8942 64.6089L35.1667 64.3809L34.9908 62.6278Z" fill="#D1D3D4"/>
<path d="M39.1609 62.2008L35.5249 62.5656L35.7008 64.3187L39.3368 63.9538L39.1609 62.2008Z" fill="#D1D3D4"/>
<path d="M43.2082 61.8077L39.5723 62.1725L39.7482 63.9256L43.3842 63.5608L43.2082 61.8077Z" fill="#D1D3D4"/>
<path d="M42.3067 33.5615L34.2231 34.3727L34.4154 36.2881L42.4989 35.4769L42.3067 33.5615Z" fill="#D1D3D4"/>
<path d="M46.2701 33.1719L44.1274 33.3869L44.3197 35.3023L46.4623 35.0873L46.2701 33.1719Z" fill="#D1D3D4"/>
<path d="M51.4559 32.6591L48.1445 32.9914L48.3367 34.9068L51.6481 34.5745L51.4559 32.6591Z" fill="#D1D3D4"/>
<path d="M60.806 31.6993L52.6899 32.5138L52.8822 34.4292L60.9982 33.6147L60.806 31.6993Z" fill="#D1D3D4"/>
<path d="M70.6031 30.7263L66.5127 31.1368L66.7049 33.0521L70.7954 32.6417L70.6031 30.7263Z" fill="#D1D3D4"/>
<path d="M64.3449 31.361L61.8452 31.6118L62.0374 33.5272L64.5371 33.2764L64.3449 31.361Z" fill="#D1D3D4"/>
<path d="M47.6179 86.7587C48.8224 83.7084 47.3262 80.2591 44.2759 79.0545C41.2256 77.8499 37.7763 79.3462 36.5717 82.3965C35.3671 85.4468 36.8634 88.8961 39.9137 90.1007C42.964 91.3053 46.4133 89.809 47.6179 86.7587Z" stroke="#D1D3D4" stroke-miterlimit="10"/>
<path d="M43.1735 82.0534C41.7706 81.4334 40.1392 82.086 39.5193 83.5216C38.8994 84.9246 39.5519 86.5559 40.9875 87.1758C42.3905 87.7958 44.0218 87.1432 44.6418 85.7076C45.2291 84.272 44.5765 82.6407 43.1735 82.0534ZM41.0854 86.9474C39.7803 86.3928 39.193 84.8919 39.7477 83.5868C40.3023 82.2817 41.8032 81.6945 43.1083 82.2491C44.4134 82.8038 45.0007 84.3046 44.446 85.6097C43.8913 86.9148 42.3579 87.5021 41.0854 86.9474Z" fill="#D1D3D4"/>
<path d="M44.121 79.8674C41.5108 78.7581 38.5091 79.9653 37.3998 82.5429C36.2904 85.153 37.4977 88.1547 40.0752 89.2641C42.6854 90.3734 45.6871 89.1662 46.7964 86.5886C47.9057 84.0111 46.6985 81.0094 44.121 79.8674ZM40.1405 89.0683C37.6608 87.9916 36.5188 85.1204 37.5955 82.6407C38.6722 80.1611 41.5434 79.0191 44.0231 80.0958C46.5028 81.1725 47.6447 84.0437 46.568 86.5234C45.4913 89.003 42.6201 90.145 40.1405 89.0683Z" fill="#D1D3D4"/>
<path d="M45.8506 82.1839L45.1328 82.706C45.7201 83.6522 45.8506 84.8594 45.3938 85.9361L46.2095 86.3276C46.7968 84.9573 46.601 83.3912 45.8506 82.1839Z" fill="#D1D3D4"/>
<path d="M42.167 81.0093L42.2322 80.1284C41.5797 80.0958 40.9271 80.2263 40.3398 80.4873L40.7314 81.303C41.1882 81.1072 41.6776 81.0093 42.167 81.0093Z" fill="#D1D3D4"/>
<path d="M40.6656 87.861C39.9804 87.5674 39.4584 87.1106 39.0995 86.5233L38.3164 86.9475C38.7732 87.6979 39.4584 88.2852 40.3393 88.6767C41.677 89.2314 43.1126 89.1335 44.2872 88.4809L43.7978 87.7305C42.8516 88.2199 41.7096 88.3178 40.6656 87.861Z" fill="#D1D3D4"/>
<path d="M38.5112 84.7288L37.5977 84.6962C37.5977 85.3487 37.7608 85.9686 38.0544 86.5559L38.8375 86.0992C38.6744 85.675 38.5438 85.1856 38.5112 84.7288Z" fill="#D1D3D4"/>
<path d="M43.2747 81.2377L43.6336 80.3894C43.34 80.2915 43.0463 80.1936 42.7527 80.161L42.6548 81.0745C42.8505 81.1072 43.0463 81.1724 43.2747 81.2377Z" fill="#D1D3D4"/>
<path d="M45.559 81.7924C45.1674 81.303 44.6454 80.8788 44.0581 80.5852L43.6992 81.4009C44.1234 81.6293 44.5149 81.9555 44.8085 82.3144L45.559 81.7924Z" fill="#D1D3D4"/>
<path d="M44.187 87.4369L44.6764 88.1873C45.1985 87.8284 45.6552 87.339 45.9815 86.7843L45.1658 86.3928C44.9048 86.817 44.5785 87.1759 44.187 87.4369Z" fill="#D1D3D4"/>
<path d="M42.5206 83.5543C41.9659 83.3259 41.2807 83.5869 41.0523 84.1416C40.824 84.6962 41.085 85.3814 41.6396 85.6098C42.1943 85.8382 42.8795 85.5772 43.1078 85.0225C43.3689 84.4678 43.1079 83.8153 42.5206 83.5543ZM41.7375 85.3814C41.3134 85.1856 41.085 84.6962 41.2807 84.2394C41.4765 83.8153 41.9659 83.5869 42.4227 83.7827C42.8468 83.9784 43.0752 84.4678 42.8795 84.9246C42.6837 85.3814 42.1943 85.5772 41.7375 85.3814Z" fill="#D1D3D4"/>
<path d="M42.2594 84.1741C42.031 84.0763 41.77 84.1741 41.6721 84.4025C41.5742 84.6309 41.6721 84.892 41.9005 84.9898C42.1289 85.0877 42.3899 84.9898 42.4878 84.7614C42.5856 84.533 42.4878 84.272 42.2594 84.1741ZM41.9983 84.7614C41.9005 84.7288 41.8678 84.6309 41.9005 84.5331C41.9331 84.4352 42.031 84.4025 42.1289 84.4352C42.2267 84.4678 42.2594 84.5657 42.2267 84.6636C42.1941 84.7614 42.0962 84.7941 41.9983 84.7614Z" fill="#D1D3D4"/>
<path d="M63.2084 86.2623L63.2736 85.5119C63.3389 85.0225 63.5347 84.4026 63.763 83.8805L64.2525 81.4335C64.1872 81.564 64.1219 81.6945 64.0893 81.7924C63.9914 81.9881 63.9262 82.1839 63.8283 82.347C63.6652 82.7059 63.5347 83.0975 63.2736 83.4564C63.241 83.5216 63.1758 83.5869 63.1431 83.6521C62.98 83.8479 62.8495 83.9784 62.9147 84.1089L62.6211 84.2721C62.458 83.9458 62.6863 83.6848 62.8821 83.4564C62.9147 83.3911 62.98 83.3585 63.0126 83.2932C63.241 82.967 63.3715 82.6081 63.5347 82.2492C63.5999 82.0534 63.6978 81.8576 63.7957 81.6619C63.8609 81.5314 63.9262 81.4335 63.9914 81.303C64.3503 80.6178 64.7419 79.8021 64.8071 79.0843H65.1334C65.1334 79.639 65.0029 80.0958 64.8724 80.5525C64.8071 80.8136 64.7092 81.0746 64.644 81.3682L64.2851 83.1301C64.5461 82.8691 64.7745 82.9017 64.9376 82.9343C65.0681 82.967 65.1334 82.967 65.2639 82.9017C65.3618 82.8365 65.427 82.7386 65.4923 82.6081C65.5902 82.4123 65.7533 82.1187 66.1775 82.1513C66.308 82.1513 66.4058 82.2165 66.4711 82.2818C66.569 82.347 66.6342 82.3797 66.6669 82.3797C66.83 82.347 67.1236 82.0208 67.1889 81.825L67.352 81.3356L67.4825 81.825C67.5152 81.9229 67.5478 82.0208 67.5478 82.1187C67.5804 82.347 67.5804 82.347 67.9393 82.3144C68.1351 82.2818 68.2982 82.1839 68.494 82.086C68.6245 82.0208 68.755 81.9229 68.9181 81.8903L69.016 81.8576L69.0813 81.9229C69.1792 82.0208 69.4402 81.8903 69.6359 81.7924C69.7665 81.7271 69.897 81.6619 69.9948 81.6292C70.2232 81.564 70.419 81.564 70.6148 81.5314C70.8431 81.4987 71.0389 81.4987 71.2673 81.4335L71.6262 81.3356L71.4304 81.6619C71.3978 81.7271 71.3652 81.7598 71.3326 81.825C71.6588 81.7271 71.9851 81.6619 72.3766 81.564C72.8334 81.4661 73.2902 81.3682 73.4533 81.2703L73.6165 81.564C73.4207 81.6619 72.9965 81.7598 72.4745 81.8903C72.083 81.9881 71.5283 82.1187 71.0389 82.2492C70.7779 82.5754 70.419 82.8691 70.0275 82.9017L69.8317 82.9343V82.7386C69.8317 82.4123 70.2232 82.1839 70.8105 81.9555C70.8431 81.8903 70.9084 81.825 70.941 81.7924C70.8431 81.7924 70.7453 81.825 70.6148 81.825C70.419 81.8576 70.2232 81.8576 70.0275 81.8903C69.9622 81.9229 69.8317 81.9555 69.7338 82.0208C69.4728 82.1513 69.1465 82.3144 68.8855 82.1513C68.7876 82.1839 68.6897 82.2492 68.5919 82.3144C68.3961 82.4123 68.2003 82.5428 67.9393 82.5754C67.4499 82.6407 67.2868 82.5428 67.2215 82.2492C67.0584 82.4449 66.8626 82.6081 66.6669 82.6407C66.4711 82.6733 66.3406 82.5754 66.2427 82.5102C66.1775 82.4776 66.1122 82.4449 66.0796 82.4449C65.8838 82.4449 65.8186 82.5102 65.7207 82.7059C65.6554 82.8365 65.5575 83.0322 65.3618 83.1301C65.166 83.228 65.0029 83.1954 64.8397 83.1954C64.6766 83.1627 64.5787 83.1627 64.4156 83.3585C64.2851 83.5216 64.1546 83.7174 64.0567 83.9458V83.9784C63.9262 84.5657 63.7957 85.153 63.5347 85.5771L63.2084 86.2623Z" fill="#D1D3D4"/>
<path opacity="0.2" d="M56.0671 92.5594L56.0997 92.5268L56.1649 92.4289L56.2955 92.2332L59.7539 86.9802V86.9476L63.865 77.0941L66.573 70.6013C66.5078 70.895 66.6056 71.156 66.7688 71.1886C66.9645 71.2212 67.1603 70.9929 67.2908 70.6666C67.454 70.2751 67.6824 69.9162 67.976 69.5899C68.2696 69.2636 68.6285 68.9373 68.9548 68.5458C69.6074 67.7954 70.0968 66.9471 70.4883 66.0662C70.8798 65.1852 71.1735 64.239 71.2713 63.2602C71.3692 62.314 71.2713 61.3352 70.8472 60.4216L70.9124 60.2259C71.1408 59.6386 71.0103 58.9534 70.6188 58.4966L71.2387 56.9632C71.4019 56.6043 71.1408 56.1475 70.6841 55.9517C70.2273 55.7559 69.7052 55.9191 69.5747 56.278L68.9548 57.8115C68.3349 57.8767 67.7802 58.2682 67.5192 58.8555L61.8095 73.3746L61.6463 73.7988L60.8633 75.8217L56.948 85.773C56.8827 85.9035 56.1649 89.8188 55.7734 91.9722C55.7408 92.1027 55.7408 92.2332 55.7082 92.3637C55.5777 93.3425 56.0671 92.5594 56.0671 92.5594ZM70.5862 63.2276C70.4883 64.1085 70.2273 64.9894 69.8357 65.8378C69.4768 66.6861 69.0201 67.4691 68.4001 68.1543C68.1065 68.5132 67.7802 68.8068 67.4213 69.1657C67.1929 69.3941 66.9972 69.6878 66.834 69.9814L70.423 61.3678C70.6188 61.9877 70.6514 62.6077 70.5862 63.2276Z" fill="#414042"/>
<path d="M69.2823 57.8115C69.576 57.942 69.837 58.1052 70.0654 58.3335L70.6853 56.8001C70.8484 56.4412 70.5874 55.9844 70.1306 55.7886C69.6738 55.5929 69.1518 55.756 69.0213 56.1149L68.4014 57.6484C68.6624 57.6157 68.9887 57.681 69.2823 57.8115Z" fill="#605E67"/>
<path d="M59.1999 86.7518L63.3109 76.8984L70.3584 60.0628C70.7173 59.1818 70.2605 58.1378 69.3143 57.7462C68.3681 57.3547 67.3241 57.7789 66.9652 58.6924L60.2766 75.6586L56.3613 85.6099L59.1999 86.7518Z" fill="#FFD700"/>
<path d="M56.3614 85.61C56.2961 85.7405 55.4804 90.1452 55.1215 92.2007C54.991 93.1469 55.5131 92.3638 55.5131 92.3638L59.1999 86.7519L56.3614 85.61Z" fill="#FFD700"/>
<path d="M70.6834 63.0971C70.7813 62.1509 70.6834 61.1395 70.2593 60.2259L69.8678 61.1395C70.0309 61.7268 70.0635 62.3793 69.9983 62.9992C69.9004 63.8802 69.6394 64.7611 69.2478 65.6094C68.8889 66.4577 68.4322 67.2408 67.8123 67.9259C67.5186 68.2848 67.1923 68.5785 66.8334 68.9374C66.605 69.1984 66.3767 69.492 66.2135 69.8183L65.9851 70.373C65.9199 70.6992 66.0178 70.9603 66.1483 70.9929C66.344 71.0255 66.5398 70.7971 66.6703 70.4709C66.8334 70.0793 67.0618 69.7204 67.3555 69.3942C67.6491 69.0679 68.008 68.7416 68.3343 68.3501C68.9868 67.5997 69.4762 66.7514 69.8678 65.8704C70.2919 65.0221 70.5856 64.0759 70.6834 63.0971Z" fill="#605E67"/>
<path d="M69.3128 57.7463C69.1823 57.681 69.0517 57.6484 68.9212 57.6484L55.7725 90.0799C55.4788 90.7977 55.4136 91.5807 55.5441 92.2985L59.2309 86.7519L63.342 76.8985L70.3895 60.0628C70.7157 59.1819 70.2263 58.1378 69.3128 57.7463Z" fill="#F2CE0E"/>
<path d="M56.7807 84.5655L56.3516 85.6237L59.1937 86.7763L59.6229 85.7181L56.7807 84.5655Z" fill="#605E67"/>
<path d="M61.2415 73.2137L61.0698 73.637L64.1539 74.8876L64.3255 74.4643L61.2415 73.2137Z" fill="#605E67"/>
<path d="M55.5131 91.7438C55.3825 91.7112 55.2847 91.7112 55.1868 91.8091C55.1542 91.9396 55.1542 92.0701 55.1215 92.2006C54.991 93.1468 55.5131 92.3638 55.5131 92.3638L55.7414 92.0375C55.7088 91.907 55.6109 91.8091 55.5131 91.7438Z" fill="#605E67"/>
<path opacity="0.2" d="M95.4426 86.3276C101.119 86.3276 105.72 81.7261 105.72 76.05C105.72 70.3738 101.119 65.7724 95.4426 65.7724C89.7665 65.7724 85.165 70.3738 85.165 76.05C85.165 81.7261 89.7665 86.3276 95.4426 86.3276Z" fill="#414042"/>
<path d="M94.758 86.1318C100.434 86.1318 105.036 81.5304 105.036 75.8542C105.036 70.1781 100.434 65.5767 94.758 65.5767C89.0819 65.5767 84.4805 70.1781 84.4805 75.8542C84.4805 81.5304 89.0819 86.1318 94.758 86.1318Z" fill="white"/>
<path opacity="0.2" d="M107.288 84.3046L104.384 81.4008C105.232 80.1283 105.721 78.5948 105.721 76.9635C105.721 72.4935 102.1 68.8393 97.5973 68.8393C93.1274 68.8393 89.4731 72.4609 89.4731 76.9635C89.4731 81.4334 93.0948 85.0876 97.5973 85.0876C99.2287 85.0876 100.762 84.5982 102.035 83.7499L104.938 86.6537C105.167 86.8821 105.526 86.8821 105.721 86.6537L107.288 85.0876C107.516 84.8919 107.516 84.533 107.288 84.3046Z" fill="#414042"/>
<path d="M94.757 83.9784C99.2439 83.9784 102.881 80.3411 102.881 75.8542C102.881 71.3673 99.2439 67.73 94.757 67.73C90.2701 67.73 86.6328 71.3673 86.6328 75.8542C86.6328 80.3411 90.2701 83.9784 94.757 83.9784Z" fill="white"/>
<path d="M94.7547 82.6407C98.5028 82.6407 101.541 79.6023 101.541 75.8542C101.541 72.1062 98.5028 69.0678 94.7547 69.0678C91.0067 69.0678 87.9683 72.1062 87.9683 75.8542C87.9683 79.6023 91.0067 82.6407 94.7547 82.6407Z" fill="#7A4B39"/>
<path d="M95.7988 70.0792C97.3649 70.0792 98.8331 70.6013 99.9751 71.5148C98.7352 70.014 96.8429 69.0678 94.7547 69.0678C91.0026 69.0678 87.9683 72.1021 87.9683 75.8542C87.9683 78.0403 88.9797 79.9653 90.5784 81.2051C89.5996 80.0305 89.0123 78.4971 89.0123 76.8657C89.0123 73.1136 92.0467 70.0792 95.7988 70.0792Z" fill="#694031"/>
<path d="M104.447 83.1953L101.543 80.2915C100.924 81.2377 100.141 82.0207 99.1943 82.6406L102.098 85.5444C102.327 85.7728 102.685 85.7728 102.881 85.5444L104.447 83.9783C104.643 83.7826 104.643 83.4237 104.447 83.1953Z" fill="white"/>
<path opacity="0.1" d="M101.544 80.2915C100.924 81.2377 100.141 82.0207 99.1943 82.6406L100.336 83.7826C101.185 83.0322 101.87 82.1186 102.327 81.1072L101.544 80.2915Z" fill="#414042"/>
</g>
</svg>
