<svg width="120" height="120" viewBox="0 0 120 120" fill="none" xmlns="http://www.w3.org/2000/svg">
<circle cx="60" cy="60" r="60" fill="#A6DAE8"/>
<mask id="mask0" mask-type="alpha" maskUnits="userSpaceOnUse" x="0" y="0" width="120" height="120">
<circle cx="60" cy="60" r="60" fill="#A6DAE8"/>
</mask>
<g mask="url(#mask0)">
<path d="M25.9992 83.8909L79.3221 93.6348L93.3828 19.7438L40.1048 9.99997L25.9992 83.8909Z" fill="#F7F7F8"/>
<path d="M40.9584 16.2708L90.418 25.338L90.8223 23.4434L41.3178 14.3762L40.9584 16.2708Z" fill="#C6C0B6"/>
<path d="M52.9492 22.1789L40.326 20.1039L40.5057 19.0663L53.1289 21.1414L52.9492 22.1789Z" fill="#A5A5A5"/>
<path d="M68.9434 28.0898L38.8903 22.9472L39.2946 20.6916L69.3477 25.8342L68.9434 28.0898Z" fill="#45AAE1"/>
<path d="M59.6035 34.9917L37.9958 31.2926L38.4001 29.0371L60.0078 32.7361L59.6035 34.9917Z" fill="#45AAE1"/>
<path d="M57.0391 25.3817L39.9236 22.5849L40.0584 21.5473L57.2187 24.3893L57.0391 25.3817Z" fill="#A5A5A5"/>
<path d="M50.3457 38.1944L37.7674 36.1193L37.9022 35.1269L50.5254 37.1569L50.3457 38.1944Z" fill="#A5A5A5"/>
<path d="M54.4336 41.3974L37.3182 38.6005L37.4978 37.6081L54.6133 40.4049L54.4336 41.3974Z" fill="#A5A5A5"/>
<path d="M66.6992 26.9615L58.6581 25.6533L58.8378 24.6609L66.8789 25.9691L66.6992 26.9615Z" fill="#A5A5A5"/>
<path d="M50.0332 26.9616L39.4764 25.2022L39.6112 24.2098L50.2129 25.9691L50.0332 26.9616Z" fill="#A5A5A5"/>
<path d="M60.2754 28.6301L51.2909 27.1866L51.4706 26.149L60.4102 27.6377L60.2754 28.6301Z" fill="#A5A5A5"/>
<path d="M51.6055 29.9397L38.9823 27.8646L39.162 26.8722L51.7852 28.9473L51.6055 29.9397Z" fill="#A5A5A5"/>
<path d="M52.457 32.8254L38.5311 30.5248L38.7108 29.5323L52.6367 31.7879L52.457 32.8254Z" fill="#A5A5A5"/>
<path d="M70.6113 63.9968L53.5408 61.1999L53.6756 60.433L70.7012 63.2299L70.6113 63.9968Z" fill="#A5A5A5"/>
<path d="M67.0117 66.6141L53.2205 64.3135L53.3553 63.5466L67.1465 65.8472L67.0117 66.6141Z" fill="#A5A5A5"/>
<path d="M58.0273 33.7276L53.8046 33.051L53.9843 32.0134L58.1621 32.7352L58.0273 33.7276Z" fill="#A5A5A5"/>
<path d="M71.3672 38.6898L38.3043 33.2314L38.484 32.239L71.5469 37.6974L71.3672 38.6898Z" fill="#A5A5A5"/>
<path d="M82.6465 49.0656L36.4662 41.487L36.601 40.4495L82.8262 48.0732L82.6465 49.0656Z" fill="#A5A5A5"/>
<path d="M82.2461 51.2761L36.0659 43.6975L36.2455 42.7051L82.4258 50.2837L82.2461 51.2761Z" fill="#A5A5A5"/>
<path d="M81.6582 53.3953L35.433 45.8168L35.6127 44.7792L81.793 52.4029L81.6582 53.3953Z" fill="#A5A5A5"/>
<path d="M70.9266 57.909C72.4048 57.2211 73.3061 57.6917 75.2889 60.7328C76.1181 61.9998 77.6683 64.715 79.2906 66.7786C78.894 64.6788 77.5601 61.2396 75.361 56.3523C75.0005 55.5558 73.955 53.5285 72.4769 49.9082C72.0082 48.7497 71.6837 47.2292 72.9095 46.6862C73.9189 46.2156 74.4236 46.7224 76.046 49.2928C77.8125 52.0804 77.9927 52.5872 78.8219 53.9267C79.9756 55.8092 81.7782 58.8502 81.7782 58.8502C81.7782 58.8502 82.2468 59.0312 81.9584 58.4882C80.4443 55.4834 76.082 47.6637 75.7215 46.9034C74.8923 45.1295 76.8752 43.7538 78.2451 45.0209C79.1104 45.7811 81.2734 49.4738 82.7155 51.7545C83.6889 53.275 86.5009 57.8004 86.5009 57.8004C86.5009 57.8004 83.4005 51.3563 82.7876 50.3064C80.985 47.1568 80.8048 45.8173 81.9945 45.2019C83.7971 44.2968 85.3473 47.8809 87.0417 50.5599C87.3301 51.0305 88.3756 53.6009 89.5293 55.5196C89.6374 55.7368 89.9258 56.1712 90.034 56.3885C89.385 54.9766 88.4838 52.8406 88.2314 52.37C86.8975 50.1254 86.5009 49.1118 87.4743 48.7497C89.1687 48.0981 90.1061 50.4513 91.2597 52.4062C92.0168 53.7095 92.846 56.9315 94.1799 60.1173C95.0091 62.036 96.0546 63.7014 96.8117 66.7062C97.6048 69.892 97.6408 72.4262 100.056 77.4945C101.21 79.9563 103.373 83.8299 103.373 83.8299L91.1876 88.1742L86.3928 81.1509C82.7876 77.3859 78.137 77.6393 74.1713 69.53C72.8734 66.851 71.5756 64.7512 70.3498 62.036C69.3404 59.9363 69.8091 58.4158 70.9266 57.909Z" fill="#FCC7A9"/>
<path d="M94.5399 108.121L117 108.121L100.164 76.4803L86.1399 82.7795L94.5399 108.121Z" fill="#59C6B9"/>
<path d="M30.1925 87.0145C29.2551 86.9059 28.6062 86.0733 28.7504 85.2044L29.5075 79.593L32.8242 80.0275L32.0671 85.6388C31.959 86.5077 31.1298 87.1593 30.1925 87.0145Z" fill="#CEA086"/>
<path d="M35.1996 86.0743L35.1636 86.0743C33.9378 86.2192 32.8202 85.3865 32.64 84.1918L31.5945 76.5893L36.1009 76.0101L37.1464 83.6126C37.2906 84.8073 36.4254 85.8933 35.1996 86.0743Z" fill="#CEA086"/>
<path d="M13.0652 90.7436C13.0652 90.7436 15.012 84.915 17.6798 79.4485C19.0858 76.5161 21.7897 72.8596 22.691 72.3166C23.5562 71.7735 26.8008 71.0857 29.5768 71.2305C32.8935 71.4115 35.6335 72.0631 36.5348 72.2804C36.5348 72.2804 27.1253 76.154 27.1253 76.2988C27.4858 76.1902 27.8824 76.0092 28.3511 75.8282C32.6412 74.0905 36.9674 71.9545 39.4549 71.3029C40.4644 71.0495 41.5099 71.1219 42.1588 72.3528C42.6635 73.3302 42.6275 74.1991 41.5459 75.249C40.897 75.9006 39.8875 76.5523 38.4094 77.4935C36.2824 78.833 33.1459 81.2948 31.0549 82.6705C30.7665 82.8515 30.5862 83.1773 30.5502 83.5031C30.3339 86.1459 29.2884 90.5264 25.8275 93.6398C23.1596 96.0292 22.2944 97.8031 21.6815 99.2874C19.5545 98.6358 11.1545 96.174 11.1545 96.174C11.1545 96.174 11.8755 93.676 13.0652 90.7436Z" fill="#FCC7A9"/>
<path d="M38.0195 72.7595L10.623 72.3149L10.5642 75.971L37.9606 76.4155L38.0195 72.7595Z" fill="#45AAE1"/>
<path d="M45.138 74.226L38.2168 74.1138L38.2017 75.055L45.1229 75.1672L45.138 74.226Z" fill="#45AAE1"/>
<path d="M96.8845 37.6709L93.2794 38.214L95.3343 51.102L98.9395 50.5228L96.8845 37.6709Z" fill="#45AAE1"/>
<path d="M97.9687 42.088L93.6065 42.7758L93.282 40.7485L97.6443 40.0968L97.9687 42.088Z" fill="#504F53"/>
<path d="M100.637 50.9576L99.447 51.1386L97.5002 39.0108L98.6899 38.8297L100.637 50.9576Z" fill="#504F53"/>
<path d="M43.998 74.1276L43.962 75.2136L37.9414 76.4083L38.0135 72.7519L43.998 74.1276Z" fill="#39373A"/>
<path d="M23.7012 96.4275L21.1776 108.121L5.99987 108.121L11.66 92.8797L23.7012 96.4275Z" fill="#59C6B9"/>
<path d="M41.2595 81.9107L41.2235 81.9469C40.1059 82.4899 38.772 82.0555 38.1951 80.9694L34.6621 74.1272L38.6999 72.136L42.2329 78.9783C42.8098 80.0282 42.3771 81.3315 41.2595 81.9107Z" fill="#CEA086"/>
<path d="M27.093 76.2993C27.4535 76.1907 27.8501 75.9373 28.3187 75.7563C32.5007 73.9462 36.8269 71.8826 39.3145 71.231C40.3239 70.9776 41.4415 71.1586 42.0904 72.3894C42.5951 73.3669 42.5591 74.2358 41.4776 75.2856C40.8286 75.9373 39.8192 76.5889 38.3411 77.5302C36.214 78.8697 33.0775 81.3315 30.9865 82.7071C30.7342 82.852 27.093 76.1545 27.093 76.2993Z" fill="#FCC7A9"/>
</g>
</svg>
