<svg id="Isolation_Mode" data-name="Isolation Mode" xmlns="http://www.w3.org/2000/svg" viewBox="0 0 46.22 44.3"><title>finger-up</title><path d="M38,42.37H20.22a10.8,10.8,0,0,1-6.46-2.21,1,1,0,0,1-.28-.68V22.15a1,1,0,0,1,.53-.86l1.63-.82,5.54-12V1.93a1,1,0,0,1,.36-.76A6.12,6.12,0,0,1,25,0c2.22,0,5.77,3.53,5.77,7.7a27.43,27.43,0,0,1-1.54,7.71H41.41a4.81,4.81,0,0,1,4.81,4.81A4.75,4.75,0,0,1,45,23.45a4.3,4.3,0,0,1,0,6.09,4.15,4.15,0,0,1-1.11.79,4.18,4.18,0,0,1,.45,1.93,4.31,4.31,0,0,1-2.37,3.85A4.34,4.34,0,0,1,38,42.37ZM15.41,39a9.84,9.84,0,0,0,4.81,1.4H38a2.4,2.4,0,0,0,1.64-4.15,1,1,0,0,1,.55-1.65,2.38,2.38,0,0,0,1.38-4.12,1,1,0,0,1,0-1.37.93.93,0,0,1,.59-.29A2.39,2.39,0,0,0,43,24.35a1,1,0,0,1-.41-1.3,1.06,1.06,0,0,1,.35-.38,2.89,2.89,0,0,0-1.5-5.34H27.93a1,1,0,0,1-1-1A.8.8,0,0,1,27,16,30.12,30.12,0,0,0,28.89,7.7c0-3.15-2.8-5.77-3.85-5.77a4.07,4.07,0,0,0-1.93.52V8.67a.93.93,0,0,1-.09.4L17.24,21.59a.88.88,0,0,1-.44.45l-1.39.7V39Z" fill="#6c6c6a"/><path d="M14.44,44.3H1a1,1,0,0,1-1-1V20.22a1,1,0,0,1,1-1H14.44a1,1,0,0,1,1,1V43.33A1,1,0,0,1,14.44,44.3Z" fill="#73d3f9"/><circle cx="7.62" cy="39.44" r="2.25" fill="#6c6c6a"/></svg>