<svg id="Isolation_Mode" data-name="Isolation Mode" xmlns="http://www.w3.org/2000/svg" viewBox="0 0 87.36 50.48"><title>glasses</title><path d="M0,23.19V9.08A6.81,6.81,0,0,1,2,4.26L5.86.4A1.36,1.36,0,0,1,7.79,2.33L3.93,6.19a4.09,4.09,0,0,0-1.2,2.89v10a1.37,1.37,0,0,0,1.36,1.37h6.82a1.39,1.39,0,0,1,1.23.75A1.37,1.37,0,0,1,12,22.65l-4.1,5.46a1.35,1.35,0,0,1-1.09.54H5.46A5.45,5.45,0,0,1,0,23.19Z" fill="#6c6c6a"/><path d="M64.13,16.37A16.38,16.38,0,1,0,80.5,32.75,16.4,16.4,0,0,0,64.13,16.37Z" fill="#73d3f9"/><path d="M67.52,23.9A5.46,5.46,0,1,0,73,29.35,5.46,5.46,0,0,0,67.52,23.9Z" fill="#fff"/><path d="M23.23,16.37A16.38,16.38,0,1,0,39.6,32.75,16.39,16.39,0,0,0,23.23,16.37Z" fill="#73d3f9"/><path d="M48.47,29.33A1.36,1.36,0,0,1,47.11,28a3.41,3.41,0,1,0-6.82,0,1.37,1.37,0,0,1-2.73,0,6.14,6.14,0,0,1,12.28,0A1.36,1.36,0,0,1,48.47,29.33Z" fill="#6c6c6a"/><path d="M81.9,28.65H80.54a1.39,1.39,0,0,1-1.1-.54l-4.09-5.46a1.36,1.36,0,0,1,1.09-2.18h6.82a1.37,1.37,0,0,0,1.37-1.37v-10a4.09,4.09,0,0,0-1.2-2.89L79.57,2.33A1.36,1.36,0,0,1,81.5.4l3.86,3.86a6.81,6.81,0,0,1,2,4.82V23.19A5.46,5.46,0,0,1,81.9,28.65Z" fill="#6c6c6a"/><path d="M23.23,50.48A17.74,17.74,0,1,1,41,32.75,17.75,17.75,0,0,1,23.23,50.48Zm0-32.74a15,15,0,1,0,15,15A15,15,0,0,0,23.23,17.74Z" fill="#6c6c6a"/><path d="M64.16,50.48A17.74,17.74,0,1,1,81.9,32.75,17.75,17.75,0,0,1,64.16,50.48Zm0-32.74a15,15,0,1,0,15,15A15,15,0,0,0,64.16,17.74Z" fill="#6c6c6a"/><path d="M26.62,23.9a5.46,5.46,0,1,0,5.46,5.45A5.45,5.45,0,0,0,26.62,23.9Z" fill="#fff"/></svg>