<svg id="Isolation_Mode" data-name="Isolation Mode" xmlns="http://www.w3.org/2000/svg" viewBox="0 0 28 32"><title>job-icon_02</title><path d="M2.19,0A2.19,2.19,0,0,0,0,2.19V29.81A2.19,2.19,0,0,0,2.19,32H4V0Z" fill="#727270"/><path d="M25.81,0h-18V32h18A2.19,2.19,0,0,0,28,29.81V2.19A2.19,2.19,0,0,0,25.81,0Z" fill="#727270"/><rect x="4" width="4" height="32" fill="#73d3f9"/><path d="M17.58,8.8a.47.47,0,0,1,.84,0l1.49,3a.45.45,0,0,0,.35.25l3.34.49a.46.46,0,0,1,.26.79l-2.42,2.36a.45.45,0,0,0-.13.41l.57,3.33a.45.45,0,0,1-.19.45.48.48,0,0,1-.49,0l-3-1.57a.42.42,0,0,0-.43,0l-3,1.57a.44.44,0,0,1-.48,0,.45.45,0,0,1-.19-.45l.57-3.33a.45.45,0,0,0-.13-.41l-2.42-2.36a.46.46,0,0,1,.26-.79l3.34-.49a.45.45,0,0,0,.35-.25Z" fill="#73d3f9"/></svg>