<svg id="Layer_1" data-name="Layer 1" xmlns="http://www.w3.org/2000/svg" viewBox="0 0 28 32"><title>job-icon_01</title><polyline points="24 15.74 24 0 14.19 0 14.19 16" fill="#73d3f9"/><path d="M2.19,0A2.19,2.19,0,0,0,0,2.19H0V29.81A2.19,2.19,0,0,0,2.19,32H4V0Z" transform="translate(0 0)" fill="#727270"/><path d="M25.81,0H24V12L20,8l-4,4V0H7.81V32h18A2.19,2.19,0,0,0,28,29.81h0V2.19A2.19,2.19,0,0,0,25.81,0Z" transform="translate(0 0)" fill="#727270"/><rect x="4" width="4" height="32" fill="#73d3f9"/></svg>