<?xml version="1.0" encoding="utf-8"?>
<!-- Generator: Adobe Illustrator 22.1.0, SVG Export Plug-In . SVG Version: 6.00 Build 0)  -->
<svg version="1.0" id="Layer_1" xmlns="http://www.w3.org/2000/svg" xmlns:xlink="http://www.w3.org/1999/xlink" x="0px" y="0px"
	 width="332.9" height="106.4" viewBox="0 0 332.9 106.4" enable-background="new 0 0 332.9 106.4" xml:space="preserve">
<g>
	<rect x="173.6" y="87.3" fill="#F7B600" width="153.9" height="13.8"/>
	<rect x="173.6" y="5.3" fill="#1A1F71" width="153.9" height="13.8"/>
	<path fill="#1A1F71" d="M235.2,34.3l-15.9,37.9h-10.4l-7.8-30.3c-0.5-1.9-0.9-2.5-2.3-3.3c-3.1-1.5-6.3-2.6-9.7-3.2l0.2-1.1H206
		c2.3,0,4.2,1.7,4.5,3.9l4.1,21.9l10.2-25.8H235.2z M275.9,59.8c0-10-13.8-10.6-13.7-15c0-1.4,1.3-2.8,4.2-3.2
		c3.3-0.3,6.7,0.3,9.7,1.7l1.7-8c-2.9-1.1-6.1-1.7-9.2-1.7c-9.7,0-16.5,5.2-16.6,12.5c-0.1,5.5,4.9,8.5,8.6,10.3s5.1,3.1,5.1,4.7
		c0,2.5-3.1,3.7-5.9,3.7c-3.5,0.1-7-0.7-10.1-2.4l-1.8,8.3c3.5,1.4,7.2,2.1,10.9,2C269.1,72.8,275.8,67.7,275.9,59.8 M301.5,72.2
		h9.1l-7.9-37.9h-8.4c-1.8,0-3.5,1.1-4.2,2.8l-14.8,35.1h10.3l2-5.7h12.6L301.5,72.2z M290.5,58.8l5.2-14.2l3,14.2H290.5z
		 M249.2,34.3l-8.1,37.9h-9.8l8.1-37.9L249.2,34.3z"/>
	<path d="M46.9,97.5v-6c0.2-1.9-1.2-3.6-3.2-3.8c-0.2,0-0.4,0-0.5,0c-1.3-0.1-2.6,0.6-3.4,1.7c-0.7-1.1-1.9-1.8-3.2-1.7
		c-1.1,0-2.2,0.5-2.9,1.4v-1.2h-1.9v9.6h1.9V92c-0.1-1.2,0.7-2.3,2-2.5c0.1,0,0.3,0,0.4,0c1.4,0,2.2,0.9,2.2,2.5v5.5h1.9V92
		c-0.1-1.2,0.7-2.3,2-2.5c0.1,0,0.3,0,0.4,0c1.4,0,2.2,0.9,2.2,2.5v5.5H46.9z M78.1,88h-3.5v-2.9h-1.9V88h-2v1.7h2v4.5
		c0,2.2,0.8,3.5,3.2,3.5c0.9,0,1.8-0.3,2.6-0.7l-0.6-1.7c-0.5,0.3-1.2,0.5-1.8,0.5c-0.8,0.1-1.4-0.5-1.5-1.3c0-0.1,0-0.2,0-0.3v-4.6
		h3.5C78.1,89.6,78.1,88,78.1,88z M95.9,87.7c-1.1,0-2,0.5-2.6,1.4v-1.2h-1.9v9.6h1.9v-5.4c0-1.6,0.8-2.6,2.1-2.6
		c0.4,0,0.9,0.1,1.3,0.2l0.6-1.8C96.8,87.8,96.4,87.7,95.9,87.7z M69,88.7c-1.2-0.7-2.5-1.1-3.9-1c-2.4,0-3.9,1.1-3.9,3
		c0,1.6,1.1,2.5,3.2,2.8l1,0.1c1.1,0.2,1.8,0.6,1.8,1.1c0,0.7-0.8,1.2-2.3,1.2c-1.1,0-2.3-0.3-3.2-1l-1,1.5c1.2,0.8,2.6,1.2,4.1,1.2
		c2.8,0,4.3-1.3,4.3-3.1s-1.2-2.5-3.3-2.8l-1-0.1c-0.9-0.1-1.7-0.4-1.7-1s0.8-1.2,1.9-1.2c1,0,2.1,0.3,3,0.8L69,88.7z M98.1,92.7
		c-0.2,2.6,1.8,4.8,4.4,5c0.2,0,0.4,0,0.6,0c1.2,0.1,2.4-0.3,3.4-1.1l-1-1.5c-0.7,0.6-1.6,0.9-2.5,0.9c-1.8-0.1-3.1-1.7-2.9-3.5
		c0.1-1.6,1.4-2.8,2.9-2.9c0.9,0,1.8,0.3,2.5,0.9l1-1.5c-1-0.8-2.2-1.2-3.4-1.1c-2.5-0.3-4.7,1.5-5,3.9
		C98.1,92.1,98.1,92.4,98.1,92.7z M84.6,87.7c-2.8,0-4.7,2-4.7,5c-0.2,2.6,1.8,4.8,4.4,5c0.2,0,0.3,0,0.5,0c1.4,0,2.8-0.4,3.9-1.3
		l-1-1.4c-0.8,0.6-1.8,1-2.8,1c-1.5,0.1-2.7-1-2.9-2.5h7.1v-0.8C89.1,89.7,87.3,87.7,84.6,87.7z M84.6,89.5c1.3-0.1,2.4,1,2.5,2.3
		c0,0,0,0.1,0,0.1h-5.2C82,90.5,83.2,89.4,84.6,89.5z M58.7,92.7v-4.8h-1.9v1.2c-0.7-0.9-1.9-1.5-3.1-1.4c-2.8,0-5,2.2-5,5
		s2.2,5,5,5c1.2,0.1,2.4-0.5,3.1-1.4v1.2h1.9V92.7z M50.9,92.7c0.1-1.7,1.5-2.9,3.2-2.8s2.9,1.5,2.8,3.2c-0.1,1.6-1.4,2.8-3,2.8
		c-1.6,0-3-1.2-3-2.9C50.9,92.9,50.9,92.8,50.9,92.7z M124.8,87.7c-1.1,0-2,0.5-2.6,1.4v-1.2h-1.9v9.6h1.9v-5.4
		c0-1.6,0.8-2.6,2.1-2.6c0.4,0,0.9,0.1,1.3,0.2l0.6-1.8C125.7,87.8,125.3,87.7,124.8,87.7z M140.2,96.1c0.1,0,0.3,0,0.4,0.1
		c0.1,0,0.2,0.1,0.3,0.2s0.2,0.2,0.2,0.3s0.1,0.2,0.1,0.4c0,0.1,0,0.3-0.1,0.4c-0.1,0.1-0.1,0.2-0.2,0.3s-0.2,0.2-0.3,0.2
		s-0.2,0.1-0.4,0.1c-0.1,0-0.3,0-0.4-0.1c-0.1-0.1-0.2-0.1-0.3-0.2s-0.2-0.2-0.2-0.3s-0.1-0.2-0.1-0.4c0-0.1,0-0.3,0.1-0.4
		c0.1-0.1,0.1-0.2,0.2-0.3s0.2-0.2,0.3-0.2S140.1,96.1,140.2,96.1z M140.2,97.8c0.1,0,0.2,0,0.3-0.1c0.1,0,0.2-0.1,0.2-0.2l0.2-0.2
		c0-0.1,0.1-0.2,0.1-0.3c0-0.1,0-0.2-0.1-0.3c0-0.1-0.1-0.2-0.2-0.2l-0.2-0.2c-0.1,0-0.2-0.1-0.3-0.1c-0.1,0-0.2,0-0.3,0.1
		c-0.1,0-0.2,0.1-0.2,0.2l-0.2,0.2c0,0.1-0.1,0.2-0.1,0.3c0,0.1,0,0.2,0.1,0.3c0,0.1,0.1,0.2,0.2,0.2l0.2,0.2
		C140,97.8,140.1,97.8,140.2,97.8z M140.3,96.7c0.1,0,0.2,0,0.3,0.1c0.1,0.1,0.1,0.1,0.1,0.2s0,0.1-0.1,0.2
		c-0.1,0.1-0.1,0.1-0.2,0.1l0.3,0.3h-0.3l-0.3-0.3H140v0.3h-0.2v-0.9L140.3,96.7z M140.1,96.8V97h0.3v-0.2
		C140.4,96.8,140.1,96.8,140.1,96.8z M117.4,92.7v-4.8h-1.9v1.2c-0.7-0.9-1.9-1.5-3.1-1.4c-2.8,0-5,2.2-5,5s2.2,5,5,5
		c1.2,0.1,2.4-0.5,3.1-1.4v1.2h1.9V92.7z M109.7,92.7c0.1-1.7,1.5-2.9,3.2-2.8s2.9,1.5,2.8,3.2c-0.1,1.6-1.4,2.8-3,2.8
		C110.8,96,109.7,94.5,109.7,92.7z M136.8,92.7v-8.6h-1.9v5c-0.7-0.9-1.9-1.5-3.1-1.4c-2.8,0-5,2.2-5,5s2.2,5,5,5
		c1.2,0.1,2.4-0.5,3.1-1.4v1.2h1.9V92.7z M129,92.7c0.1-1.7,1.5-2.9,3.2-2.8s2.9,1.5,2.8,3.2c-0.1,1.6-1.4,2.8-3,2.8
		c-1.6,0-3-1.2-3-2.9C129,92.9,129,92.8,129,92.7L129,92.7z"/>
	<g>
		<rect x="66.8" y="15.1" fill="#FF5F00" width="34.7" height="56.6"/>
		<path fill="#EB001B" d="M70.4,43.4c0-11,5-21.5,13.7-28.3c-15.6-12.3-38.3-9.6-50.6,6s-9.6,38.3,6,50.6c6.4,5,14.2,7.7,22.3,7.7
			c8.1,0,15.9-2.7,22.2-7.7C75.4,64.9,70.4,54.4,70.4,43.4z"/>
		<path fill="#F79E1B" d="M138.9,65.7v-1.2h0.5v-0.2h-1.2v0.2h0.5v1.2H138.9z M141.3,65.7v-1.4h-0.4l-0.4,1l-0.4-1h-0.4v1.4h0.3
			v-1.1l0.4,0.9h0.3l0.4-0.9v1.1H141.3z"/>
		<path fill="#F79E1B" d="M142.4,43.4c0,19.9-16.2,36-36,36c-8,0-15.8-2.7-22.2-7.7c15.6-12.4,18.3-35.1,5.9-50.7
			c-1.7-2.2-3.7-4.2-5.9-5.9c15.7-12.3,38.3-9.5,50.5,6.1C139.7,27.6,142.4,35.4,142.4,43.4z"/>
	</g>
</g>
</svg>
