<svg id="Layer_1" data-name="Layer 1" xmlns="http://www.w3.org/2000/svg" viewBox="0 0 67.81 72.49"><title>operator</title><path d="M4.68,46.09A13.29,13.29,0,0,0,9.94,56.61a12.09,12.09,0,0,1,3.37-.49h8.76a4.82,4.82,0,0,0,4.82-4.82l.56.15A18.71,18.71,0,0,1,15.2,33.91V28.06a35.28,35.28,0,0,0,9.36-3.5c4.34-2.5,9.35-9.35,9.35-9.35s4.28,6.59,8.18,9.35,10.52,3.5,10.52,3.5v5.85A18.7,18.7,0,0,1,40.37,51.45l.55-.15a4.82,4.82,0,0,0,4.83,4.82H54.5a12.17,12.17,0,0,1,3.38.49,13.29,13.29,0,0,0,5.26-10.52,13,13,0,0,0-.47-3.44,13.18,13.18,0,0,0,2.8-8.18A13.44,13.44,0,0,0,57.24,22.1a23.36,23.36,0,0,0-46.66,0A13.43,13.43,0,0,0,5.14,42.7,12.65,12.65,0,0,0,4.68,46.09Z" fill="#67cdfd"/><path d="M45.36,72.49H67.81V68.26A13.32,13.32,0,0,0,54.5,55H45.75c-1.74,0-3.53-1.62-3.53-4.22L38.78,52.1l-6,3.82L29.12,52l-3.35-1.26c0,2.34-2,4.22-3.7,4.22H13.31A13.32,13.32,0,0,0,0,68.26v4.23H45.36Z" fill="#6c6c6a"/><path d="M41.42,25.51c-3-2.1-6.06-6.18-7.57-8.31-1.71,2.16-5.35,6.44-8.71,8.37A35.77,35.77,0,0,1,16.37,29v4.92a17.5,17.5,0,0,0,2.71,9.33l.51,0h9.86a3.5,3.5,0,0,1,3.29-2.33h2.34a3.51,3.51,0,0,1,0,7H32.74a3.5,3.5,0,0,1-3.29-2.34H20.87A17.51,17.51,0,0,0,51.44,33.91V29.08C49.36,28.74,44.61,27.77,41.42,25.51Z" fill="#fff"/><path d="M27.05,44.43A2.34,2.34,0,0,1,29.22,42h4.34a2.5,2.5,0,0,1,0,5H29.22A2.33,2.33,0,0,1,27.05,44.43Z" fill="#fff" stroke="#6c6c6a" stroke-miterlimit="10" stroke-width="2"/><path d="M22.46,70.15a6.09,6.09,0,0,1-6.09-6.08V57.29h5.7a5.75,5.75,0,0,0,5.77-5.84c1.92.62,3.95,2.34,6.07,2.34s4.23-1.59,6.15-2.21a5.66,5.66,0,0,0,5.69,5.71h5.69v6.78a6.09,6.09,0,0,1-6.08,6.08Z" fill="#fff"/><path d="M11.71,24.49V37.62s0,6.54,6.25,6.54h8.42" fill="none" stroke="#6c6c6a" stroke-miterlimit="10" stroke-width="2"/></svg>