<svg id="Layer_1" data-name="Layer 1" xmlns="http://www.w3.org/2000/svg" viewBox="0 0 764 266.26"><title>page-error</title><rect x="9.16" y="1.11" width="49.49" height="24.74" fill="#73d3f9"/><path d="M9.16,41.15V209.4H58.65V41.15ZM33.7,193.73a15.47,15.47,0,1,1,15.46-15.47A15.47,15.47,0,0,1,33.7,193.73Z" transform="translate(0 -5.39)" fill="#6c6c6a"/><rect x="9.16" y="213.9" width="49.49" height="19.8" fill="#73d3f9"/><path d="M68.55,215.84v23.25h64.33V215.71c-2.63-1.87-10.79-6.31-29.69-6.31C85.27,209.4,73.82,213.42,68.55,215.84Z" transform="translate(0 -5.39)" fill="#73d3f9"/><path d="M68.55,73.48c5.27,2.41,16.72,6.44,34.64,6.44,18.78,0,27-4.39,29.69-6.35V56H68.55Z" transform="translate(0 -5.39)" fill="#73d3f9"/><path d="M68.55,84.19V205.12c7.16-2.68,18.64-5.61,34.64-5.61,14.43,0,23.8,2.41,29.69,5V84.82c-5.89,2.57-15.26,5-29.69,5C87.19,89.81,75.71,86.87,68.55,84.19Z" transform="translate(0 -5.39)" fill="#6c6c6a"/><rect x="206.01" y="8.62" width="34.64" height="24.74" transform="translate(0.34 39.92) rotate(-11.59)" fill="#73d3f9"/><path d="M244.77,39.33l-33.93,7,33.82,164.83,33.93-7Zm13.34,153c-6.52,1.35-13.2-4.36-14.91-12.72s2.18-16.23,8.7-17.57,13.2,4.36,14.92,12.72S264.64,191,258.11,192.35Z" transform="translate(0 -5.39)" fill="#6c6c6a"/><rect x="248.28" y="217.12" width="34.64" height="19.79" transform="translate(-40.22 52.65) rotate(-11.6)" fill="#73d3f9"/><rect x="147.72" y="1.11" width="49.49" height="24.74" fill="#73d3f9"/><rect x="147.72" y="213.9" width="49.49" height="19.8" fill="#73d3f9"/><rect x="147.72" y="60.5" width="49.49" height="118.77" fill="#6c6c6a"/><rect x="147.72" y="189.16" width="49.49" height="14.84" fill="#73d3f9"/><rect x="147.72" y="35.75" width="49.49" height="14.85" fill="#73d3f9"/><rect y="234.17" width="764" height="32.09" fill="#6c6c6a"/></svg>