<?xml version="1.0" encoding="UTF-8"?>
<svg enable-background="new 0 0 619 421" version="1.1" viewBox="0 0 619 421" xml:space="preserve" xmlns="http://www.w3.org/2000/svg" xmlns:xlink="http://www.w3.org/1999/xlink">
<title>partners</title>
		<defs>
			<rect id="i" x="-51" y="-171.8" width="712.8" height="712.8"/>
		</defs>
		<clipPath id="h">
			<use overflow="visible" xlink:href="#i"/>
		</clipPath>
		<g clip-path="url(#h)">
			<path d="m6.8 374.2s221.1-23.4 597.3 9.1c0 0-312 56.6-597.3-9.1" fill="#70B8B6"/>
			<polygon points="76.7 73.9 88.7 343.7 515.2 352.3 536.7 73.9" fill="#1C3367"/>
			<path d="m47.9 343.7l511 8.3c-6.4 18.9-24.2 31.5-44.2 31.2l-422.2-6c-16.9-0.2-32.3-9.8-40.1-24.8l-4.5-8.7z" fill="#fff"/>
			<polygon points="106.6 100.2 120.5 322.4 493.4 322.4 512.1 100.2" fill="#5180AA"/>
			<polygon points="509.3 133.7 493.4 322.4 120.5 322.4 106.6 100.2 163.4 100.2 179.5 133.7" fill="#3F6186"/>
			<path d="m420.7 110.2c-8.4 0-8.4 13 0 13s8.4-13 0-13" fill="#2BCFB4"/>
			<path d="m454.8 110.2c-8.4 0-8.4 13 0 13s8.4-13 0-13" fill="#EC8A89"/>
			<path d="m484.1 110.2c-8.4 0-8.4 13 0 13s8.4-13 0-13" fill="#FCB237"/>
			<path d="m243.6 346l0.7 1.3c5.9 10.5 16.9 17.1 28.9 17.4l63.1 1.4c12.8 0.3 24.7-6.7 30.7-18.1l-123.4-2z" fill="#3F6186"/>
					<g opacity=".2">
						<defs>
							<rect id="g" x="227" y="110.2" width="221.5" height="201.9" opacity=".2"/>
						</defs>
						<clipPath id="f">
							<use overflow="visible" xlink:href="#g"/>
						</clipPath>
						<g clip-path="url(#f)">
							<polygon points="372.5 110.2 448.5 110.2 335 312.1 227 307.7" fill="#fff"/>
						</g>
					</g>
							<g opacity=".2">
								<defs>
									<rect id="e" x="385.6" y="110.2" width="104.7" height="201.9" opacity=".2"/>
								</defs>
								<clipPath id="d">
									<use overflow="visible" xlink:href="#e"/>
								</clipPath>
								<g clip-path="url(#d)">
									<polygon points="465.9 110.2 385.6 312.1 420.7 312.1 490.3 110.2" fill="#fff"/>
								</g>
							</g>
							<path d="m80.2 53s5.9 58.1 8 58.9 101.1 2.3 101.1 2.3l15.3-59.9-124.4-1.3z" fill="#EC8A89"/>
							<polygon points="162.1 110.2 181.4 141.3 185 107.2" fill="#EC8A89"/>
							<path d="m105.3 73.9c-4.2 0-8.2 3.7-8 8 0.1 4.4 3.6 7.9 8 8 4.2 0 8.2-3.7 8-8 0-4.4-3.6-7.9-8-8" fill="#fff"/>
							<path d="m142.4 73.9c-4.2 0-8.2 3.7-8 8 0.1 4.4 3.6 7.9 8 8 4.2 0 8.2-3.7 8-8-0.1-4.4-3.6-7.9-8-8" fill="#fff"/>
							<path d="m179.5 73.9c-4.2 0-8.2 3.7-8 8 0.1 4.4 3.6 7.9 8 8 4.2 0 8.2-3.7 8-8-0.1-4.4-3.7-7.9-8-8" fill="#fff"/>
							<polygon points="461.1 233.4 468.4 383.8 566.7 383.8 579.8 233.4" fill="#121D3D"/>
							<polygon points="468.7 251.6 473.6 367 558.9 367.4 569.9 251.6" fill="#5180AA"/>
							<polygon points="481.8 265.2 485 294.8 550.4 294.8 555.4 264.6" fill="#2BCFB4"/>
							<path d="m515.2 369.5c-7.9 0-7.9 12.3 0 12.3s8-12.3 0-12.3" fill="#3F6186"/>
									<g opacity=".2">
										<defs>
											<rect id="c" x="483.4" y="255.2" width="81.7" height="104.3" opacity=".2"/>
										</defs>
										<clipPath id="b">
											<use overflow="visible" xlink:href="#c"/>
										</clipPath>
										<g clip-path="url(#b)">
											<polygon points="540.4 255.2 483.4 359.5 509.3 359.5 565.1 269.7 565.1 255.2" fill="#fff"/>
										</g>
									</g>
											<g opacity=".2">
												<defs>
													<rect id="a" x="524.3" y="296.3" width="36.6" height="63.2" opacity=".2"/>
												</defs>
												<clipPath id="l">
													<use overflow="visible" xlink:href="#a"/>
												</clipPath>
												<g clip-path="url(#l)">
													<polygon points="560.8 296.3 524.3 359.5 536.7 359.5 560.8 320" fill="#fff"/>
												</g>
											</g>
											<path d="m533.3 240.4c-0.7-1.2-1.9-1.9-3.3-1.9-6.3 0-13.4-0.8-19.5 0.7-1.7 0.5-2.6 2.3-2.1 3.9 0.3 1 1.1 1.8 2.1 2.1 6.1 1.6 13.2 0.8 19.5 0.7 1.3 0 2.6-0.7 3.3-1.9 0.7-0.9 0.7-2.4 0-3.6" fill="#3F6186"/>
												<defs>
													<rect id="k" x="-56.3" y="-211" width="712.8" height="712.8"/>
												</defs>
												<clipPath id="j">
													<use overflow="visible" xlink:href="#k"/>
												</clipPath>
												<g clip-path="url(#j)">
													<polygon points="145.9 209.7 149.1 239.3 222.6 239.3 227.5 209" fill="#2BCFB4"/>
													<polygon points="141.5 174.5 144.7 204.1 298.3 204.1 303.3 173.9" fill="#fff"/>
												</g>
											<path d="m358 395.3c-0.1 2.9-11.2 4.8-24.7 4.2s-24.4-3.5-24.3-6.4 11.2-4.8 24.7-4.2 24.4 3.5 24.3 6.4" fill="#F9D832"/>
												<rect transform="matrix(.046236 -.9989 .9989 .046236 -72.091 706.01)" x="330.2" y="366.3" width="7" height="49" fill="#F9D832"/>
											<path d="m358.3 388.3c-0.1 2.9-11.2 4.8-24.7 4.2s-24.4-3.5-24.2-6.5 11.2-4.8 24.7-4.2 24.4 3.6 24.2 6.5" fill="#FCE859"/>
											<path d="m184.6 390.7c0 2.9-11 5.3-24.5 5.3s-24.5-2.4-24.5-5.3 11-5.3 24.5-5.3 24.5 2.3 24.5 5.3" fill="#F9D832"/>
											<rect x="135.5" y="383.6" width="49" height="7" fill="#F9D832"/>
											<path d="m184.6 383.6c0 2.9-11 5.3-24.5 5.3s-24.5-2.4-24.5-5.3 11-5.3 24.5-5.3 24.5 2.4 24.5 5.3" fill="#FCE859"/>
											<path d="m184.6 380c0 2.9-11 5.3-24.5 5.3s-24.5-2.4-24.5-5.3 11-5.3 24.5-5.3 24.5 2.3 24.5 5.3" fill="#F9D832"/>
											<rect x="135.5" y="372.9" width="49" height="7" fill="#F9D832"/>
											<path d="m184.6 372.9c0 2.9-11 5.3-24.5 5.3s-24.5-2.4-24.5-5.3 11-5.3 24.5-5.3 24.5 2.4 24.5 5.3" fill="#FCE859"/>
											<path d="m184.6 369.3c0 2.9-11 5.3-24.5 5.3s-24.5-2.4-24.5-5.3 11-5.3 24.5-5.3 24.5 2.3 24.5 5.3" fill="#F9D832"/>
											<rect x="135.5" y="362.2" width="49" height="7" fill="#F9D832"/>
											<path d="m184.6 362.2c0 2.9-11 5.3-24.5 5.3s-24.5-2.4-24.5-5.3 11-5.3 24.5-5.3 24.5 2.4 24.5 5.3" fill="#FCE859"/>
											<path d="m184.6 358.6c0 2.9-11 5.3-24.5 5.3s-24.5-2.4-24.5-5.3 11-5.3 24.5-5.3 24.5 2.4 24.5 5.3" fill="#F9D832"/>
											<rect x="135.5" y="351.5" width="49" height="7" fill="#F9D832"/>
											<path d="m184.6 351.5c0 2.9-11 5.3-24.5 5.3s-24.5-2.4-24.5-5.3 11-5.3 24.5-5.3 24.5 2.4 24.5 5.3" fill="#FCE859"/>
											<path d="m184.9 347.9c0 2.9-11 5.3-24.5 5.3s-24.5-2.4-24.5-5.3 11-5.3 24.5-5.3 24.5 2.4 24.5 5.3" fill="#F9D832"/>
											<rect x="135.9" y="340.8" width="49" height="7" fill="#F9D832"/>
											<path d="m184.9 340.8c0 2.9-11 5.3-24.5 5.3s-24.5-2.4-24.5-5.3 11-5.3 24.5-5.3 24.5 2.4 24.5 5.3" fill="#FCE859"/>
											<path d="m184.9 337.2c0 2.9-11 5.3-24.5 5.3s-24.5-2.4-24.5-5.3 11-5.3 24.5-5.3 24.5 2.4 24.5 5.3" fill="#F9D832"/>
											<rect x="135.9" y="330.2" width="49" height="7" fill="#F9D832"/>
											<path d="m184.9 330.2c0 2.9-11 5.3-24.5 5.3s-24.5-2.4-24.5-5.3 11-5.3 24.5-5.3 24.5 2.3 24.5 5.3" fill="#FCE859"/>
											<path d="m184.9 326.5c0 2.9-11 5.3-24.5 5.3s-24.5-2.4-24.5-5.3 11-5.3 24.5-5.3 24.5 2.4 24.5 5.3" fill="#F9D832"/>
											<rect x="135.9" y="319.5" width="49" height="7" fill="#F9D832"/>
											<path d="m184.9 319.5c0 2.9-11 5.3-24.5 5.3s-24.5-2.4-24.5-5.3 11-5.3 24.5-5.3 24.5 2.3 24.5 5.3" fill="#FCE859"/>
											<path d="m449.3 392.2c0 2.9-11 5.3-24.5 5.3s-24.5-2.4-24.5-5.3 11-5.3 24.5-5.3 24.5 2.4 24.5 5.3" fill="#F9D832"/>
											<rect x="400.3" y="385.2" width="49" height="7" fill="#F9D832"/>
											<path d="m449.3 385.2c0 2.9-11 5.3-24.5 5.3s-24.5-2.4-24.5-5.3 11-5.3 24.5-5.3 24.5 2.4 24.5 5.3" fill="#FCE859"/>
											<path d="m449.3 381.5c0 2.9-11 5.3-24.5 5.3s-24.5-2.4-24.5-5.3 11-5.3 24.5-5.3 24.5 2.4 24.5 5.3" fill="#F9D832"/>
											<rect x="400.3" y="374.5" width="49" height="7" fill="#F9D832"/>
											<path d="m449.3 374.5c0 2.9-11 5.3-24.5 5.3s-24.5-2.4-24.5-5.3 11-5.3 24.5-5.3 24.5 2.4 24.5 5.3" fill="#FCE859"/>
											<path d="m449.3 370.8c0 2.9-11 5.3-24.5 5.3s-24.5-2.4-24.5-5.3 11-5.3 24.5-5.3 24.5 2.4 24.5 5.3" fill="#F9D832"/>
											<rect x="400.3" y="363.8" width="49" height="7" fill="#F9D832"/>
											<path d="m449.3 363.8c0 2.9-11 5.3-24.5 5.3s-24.5-2.4-24.5-5.3 11-5.3 24.5-5.3 24.5 2.4 24.5 5.3" fill="#FCE859"/>
											<path d="m449.3 360.2c0 2.9-11 5.3-24.5 5.3s-24.5-2.4-24.5-5.3 11-5.3 24.5-5.3 24.5 2.3 24.5 5.3" fill="#F9D832"/>
											<rect x="400.3" y="353.1" width="49" height="7" fill="#F9D832"/>
											<path d="m449.3 353.1c0 2.9-11 5.3-24.5 5.3s-24.5-2.4-24.5-5.3 11-5.3 24.5-5.3 24.5 2.4 24.5 5.3" fill="#FCE859"/>
											<path d="m449.7 349.5c0 2.9-11 5.3-24.5 5.3s-24.5-2.4-24.5-5.3 11-5.3 24.5-5.3 24.5 2.3 24.5 5.3" fill="#F9D832"/>
											<rect x="400.6" y="342.4" width="49" height="7" fill="#F9D832"/>
											<path d="m449.7 342.4c0 2.9-11 5.3-24.5 5.3s-24.5-2.4-24.5-5.3 11-5.3 24.5-5.3 24.5 2.4 24.5 5.3" fill="#FCE859"/>
											<path d="m449.7 338.8c0 2.9-11 5.3-24.5 5.3s-24.5-2.4-24.5-5.3 11-5.3 24.5-5.3 24.5 2.3 24.5 5.3" fill="#F9D832"/>
											<rect x="400.6" y="331.7" width="49" height="7" fill="#F9D832"/>
											<path d="m449.7 331.7c0 2.9-11 5.3-24.5 5.3s-24.5-2.4-24.5-5.3 11-5.3 24.5-5.3 24.5 2.4 24.5 5.3" fill="#FCE859"/>
											<path d="m449.7 328.1c0 2.9-11 5.3-24.5 5.3s-24.5-2.4-24.5-5.3 11-5.3 24.5-5.3 24.5 2.4 24.5 5.3" fill="#F9D832"/>
											<rect x="400.6" y="321" width="49" height="7" fill="#F9D832"/>
											<path d="m449.7 321c0 2.9-11 5.3-24.5 5.3s-24.5-2.3-24.5-5.3 11-5.3 24.5-5.3 24.5 2.4 24.5 5.3" fill="#FCE859"/>
											<path d="m131.1 383.5c0 2.9-11 5.3-24.5 5.3s-24.5-2.4-24.5-5.3 11-5.3 24.5-5.3 24.5 2.4 24.5 5.3" fill="#F9D832"/>
											<rect x="82.1" y="376.5" width="49" height="7" fill="#F9D832"/>
											<path d="m131.1 376.5c0 2.9-11 5.3-24.5 5.3s-24.5-2.4-24.5-5.3 11-5.3 24.5-5.3 24.5 2.4 24.5 5.3" fill="#FCE859"/>
											<path d="m131.1 372.8c0 2.9-11 5.3-24.5 5.3s-24.5-2.4-24.5-5.3 11-5.3 24.5-5.3 24.5 2.4 24.5 5.3" fill="#F9D832"/>
											<rect x="82.1" y="365.8" width="49" height="7" fill="#F9D832"/>
											<path d="m131.1 365.8c0 2.9-11 5.3-24.5 5.3s-24.5-2.4-24.5-5.3 11-5.3 24.5-5.3 24.5 2.4 24.5 5.3" fill="#FCE859"/>
											<path d="m131.1 362.2c0 2.9-11 5.3-24.5 5.3s-24.5-2.4-24.5-5.3 11-5.3 24.5-5.3 24.5 2.3 24.5 5.3" fill="#F9D832"/>
											<rect x="82.1" y="355.1" width="49" height="7" fill="#F9D832"/>
											<path d="m131.1 355.1c0 2.9-11 5.3-24.5 5.3s-24.5-2.4-24.5-5.3 11-5.3 24.5-5.3 24.5 2.4 24.5 5.3" fill="#FCE859"/>
											<path d="m131.1 351.5c0 2.9-11 5.3-24.5 5.3s-24.5-2.4-24.5-5.3 11-5.3 24.5-5.3 24.5 2.3 24.5 5.3" fill="#F9D832"/>
											<rect x="82.1" y="344.4" width="49" height="7" fill="#F9D832"/>
											<path d="m131.1 344.4c0 2.9-11 5.3-24.5 5.3s-24.5-2.4-24.5-5.3 11-5.3 24.5-5.3 24.5 2.4 24.5 5.3" fill="#FCE859"/>
											<path d="m131.4 340.8c0 2.9-11 5.3-24.5 5.3s-24.5-2.4-24.5-5.3 11-5.3 24.5-5.3 24.5 2.3 24.5 5.3" fill="#F9D832"/>
											<rect x="82.4" y="333.7" width="49" height="7" fill="#F9D832"/>
											<path d="m131.4 333.7c0 2.9-11 5.3-24.5 5.3s-24.5-2.4-24.5-5.3 11-5.3 24.5-5.3 24.5 2.4 24.5 5.3" fill="#FCE859"/>
											<path d="m131.4 330.1c0 2.9-11 5.3-24.5 5.3s-24.5-2.4-24.5-5.3 11-5.3 24.5-5.3 24.5 2.3 24.5 5.3" fill="#F9D832"/>
											<rect x="82.4" y="323" width="49" height="7" fill="#F9D832"/>
											<path d="m131.4 323c0 2.9-11 5.3-24.5 5.3s-24.5-2.3-24.5-5.3 11-5.3 24.5-5.3 24.5 2.4 24.5 5.3" fill="#FCE859"/>
											<path d="m131.4 319.4c0 2.9-11 5.3-24.5 5.3s-24.5-2.4-24.5-5.3 11-5.3 24.5-5.3 24.5 2.4 24.5 5.3" fill="#F9D832"/>
											<rect x="82.4" y="312.3" width="49" height="7" fill="#F9D832"/>
											<path d="m131.4 312.3c0 2.9-11 5.3-24.5 5.3s-24.5-2.4-24.5-5.3 11-5.3 24.5-5.3 24.5 2.4 24.5 5.3" fill="#FCE859"/>
											<path d="m131.4 308.7c0 2.9-11 5.3-24.5 5.3s-24.5-2.4-24.5-5.3 11-5.3 24.5-5.3 24.5 2.4 24.5 5.3" fill="#F9D832"/>
											<rect x="82.4" y="301.7" width="49" height="7" fill="#F9D832"/>
											<path d="m131.4 301.7c0 2.9-11 5.3-24.5 5.3s-24.5-2.4-24.5-5.3 11-5.3 24.5-5.3 24.5 2.3 24.5 5.3" fill="#FCE859"/>
											<path d="m374.3 165.2c0.7 2.8-9.3 7.9-22.4 11.3s-24.3 3.9-25.1 1 9.3-7.9 22.4-11.3 24.4-3.9 25.1-1" fill="#F9D832"/>
												<rect transform="matrix(.9676 -.2526 .2526 .9676 -31.095 93.782)" x="325.2" y="164.5" width="49" height="7" fill="#F9D832"/>
											<path d="m372.5 158.4c0.8 2.9-9.3 7.9-22.4 11.3s-24.3 3.9-25.1 1 9.3-7.9 22.4-11.3 24.4-3.9 25.1-1" fill="#FCE859"/>
											<path d="m308.3 267c-1 2.8-12.1 1.2-24.8-3.4s-22.2-10.6-21.2-13.4 12.1-1.2 24.8 3.4 22.2 10.6 21.2 13.4" fill="#F9D832"/>
												<rect transform="matrix(.3423 -.9396 .9396 .3423 -51.489 437.08)" x="283" y="230.8" width="7" height="49" fill="#F9D832"/>
											<path d="m310.7 260.4c-1 2.8-12.1 1.2-24.8-3.4s-22.2-10.6-21.2-13.4 12.1-1.2 24.8 3.4 22.2 10.6 21.2 13.4" fill="#FCE859"/>
											<path d="m304.8 391.8c-0.2 2.9-11.2 4.8-24.8 4.1s-24.4-3.6-24.2-6.5 11.2-4.8 24.7-4.1 24.5 3.6 24.3 6.5" fill="#F9D832"/>
												<rect transform="matrix(.04885 -.9988 .9988 .04885 -119.96 648.47)" x="277" y="362.7" width="7" height="49" fill="#F9D832"/>
											<path d="m305.2 384.8c-0.1 2.9-11.2 4.8-24.7 4.1s-24.4-3.6-24.2-6.5 11.2-4.8 24.8-4.1 24.2 3.6 24.1 6.5" fill="#FCE859"/>
											<path d="m328.3 401.6c-0.9 2.8-12.1 1.7-25-2.5s-22.6-9.8-21.7-12.6 12.1-1.7 25 2.5 22.6 9.8 21.7 12.6" fill="#F9D832"/>
												<rect transform="matrix(.3092 -.951 .951 .3092 -160.17 560.98)" x="302.6" y="366.2" width="7" height="49" fill="#F9D832"/>
											<path d="m330.5 394.9c-0.9 2.8-12.1 1.7-25-2.5s-22.6-9.8-21.7-12.6 12.1-1.7 25 2.5 22.6 9.8 21.7 12.6" fill="#FCE859"/>
											<path d="m265 394.7c0 2.9-10.9 5.4-24.5 5.5s-24.5-2.2-24.6-5.1 10.9-5.4 24.5-5.5 24.6 2.1 24.6 5.1" fill="#F9D832"/>
												<rect transform="matrix(1 -.005934 .005934 1 -2.3178 1.4334)" x="215.9" y="387.8" width="49" height="7" fill="#F9D832"/>
											<path d="m264.9 387.6c0 2.9-11 5.4-24.5 5.5s-24.5-2.2-24.5-5.2 11-5.4 24.5-5.5 24.5 2.3 24.5 5.2" fill="#FCE859"/>
											<path d="m604.1 335.6c-1 2.8-12.1 1.2-24.8-3.4s-22.3-10.7-21.3-13.4 12.1-1.2 24.8 3.4 22.3 10.6 21.3 13.4" fill="#F9D832"/>
												<rect transform="matrix(.3423 -.9396 .9396 .3423 78.713 760.09)" x="578.8" y="299.3" width="7" height="49" fill="#F9D832"/>
											<path d="m606.5 329c-1 2.8-12.1 1.2-24.8-3.4s-22.2-10.6-21.2-13.4 12.1-1.2 24.8 3.4 22.2 10.7 21.2 13.4" fill="#FCE859"/>
											<path d="m105.6 229.7c1.1 2.7-8.2 9.1-20.7 14.2s-23.6 7-24.7 4.3 8.2-9.1 20.7-14.2 23.6-7 24.7-4.3" fill="#F9D832"/>
												<rect transform="matrix(.926 -.3775 .3775 .926 -82.919 48.192)" x="57" y="232.1" width="49" height="7" fill="#F9D832"/>
											<path d="m102.9 223.2c1.1 2.7-8.2 9.1-20.7 14.2s-23.6 7-24.7 4.3 8.1-9.1 20.7-14.2 23.6-7.1 24.7-4.3" fill="#FCE859"/>
											<path d="m274.2 46c-1.8 2.3-11.9-2.6-22.6-11s-17.8-17-16-19.3 11.9 2.6 22.6 11 17.8 17 16 19.3" fill="#F9D832"/>
												<rect transform="matrix(.6174 -.7866 .7866 .6174 76.271 212.97)" x="253.6" y="3.6" width="7" height="49" fill="#F9D832"/>
											<path d="m278.5 40.4c-1.8 2.3-11.9-2.6-22.6-11s-17.8-17-16-19.3 11.9 2.6 22.6 11 17.8 17 16 19.3" fill="#FCE859"/>
											<polygon points="224.8 248.2 199.7 225.2 199.7 259.3 207.3 252 211.8 262.2 218.8 259.1 214.3 248.9" fill="#fff"/>
		</g>
</svg>