<svg id="Isolation_Mode" data-name="Isolation Mode" xmlns="http://www.w3.org/2000/svg" viewBox="0 0 60.02 60"><title>procent</title><path d="M58.5,26.34l-4.65-4.65a3.85,3.85,0,0,1-1.12-2.63V12.47a5.19,5.19,0,0,0-5.18-5.18H41a3.52,3.52,0,0,1-2.63-1.12L33.68,1.52a5.18,5.18,0,0,0-7.34,0L21.69,6.17a3.85,3.85,0,0,1-2.63,1.12h-6.6a5.19,5.19,0,0,0-5.17,5.17v6.6a3.52,3.52,0,0,1-1.12,2.63L1.52,26.34a5.18,5.18,0,0,0,0,7.34l4.65,4.65A3.85,3.85,0,0,1,7.29,41v6.59a5.19,5.19,0,0,0,5.17,5.18h6.6a3.52,3.52,0,0,1,2.63,1.12l4.64,4.65A5.22,5.22,0,0,0,30,60a5.32,5.32,0,0,0,3.67-1.5l4.65-4.65A3.85,3.85,0,0,1,41,52.73h6.59a5.19,5.19,0,0,0,5.18-5.18V41a3.52,3.52,0,0,1,1.12-2.63l4.65-4.65A5.18,5.18,0,0,0,58.5,26.34Z" fill="#73d3f9"/><text transform="translate(15.84 44.15)" font-size="38.38" fill="#fff" font-family="MyriadPro-Regular, Myriad Pro">%</text></svg>