<svg width="120" height="120" viewBox="0 0 120 120" fill="none" xmlns="http://www.w3.org/2000/svg">
<circle cx="60" cy="60" r="60" fill="#A6DAE8"/>
<path d="M90.9996 35.6421V92.1466H37.6328V19H74.1308L90.9996 35.6421Z" fill="#EDEDED"/>
<g style="mix-blend-mode:multiply" opacity="0.15">
<path d="M90.9997 52.2729V35.6421L74.1309 19V35.6421L90.9997 52.2729Z" fill="black"/>
</g>
<path d="M90.9997 35.6421H74.1309V19L90.9997 35.6421Z" fill="#B2B2B2"/>
<path d="M86.9 39.6877V96.1811H33.5332V23.0456H70.0425L86.9 39.6877Z" fill="#F6F6F6"/>
<g style="mix-blend-mode:multiply" opacity="0.1">
<path d="M86.9004 56.3186V39.6877L70.043 23.0456V39.6877L86.9004 56.3186Z" fill="black"/>
</g>
<path d="M86.9004 39.6877H70.043V23.0456L86.9004 39.6877Z" fill="#C6C6C6"/>
<path d="M82.3782 44.5066V101H29V27.8646H65.5093L82.3782 44.5066Z" fill="white"/>
<g style="mix-blend-mode:multiply" opacity="0.05">
<path d="M82.3786 61.1375V44.5066L65.5098 27.8646V44.5066L82.3786 61.1375Z" fill="black"/>
</g>
<path d="M82.3786 44.5066H65.5098V27.8646L82.3786 44.5066Z" fill="#DADADA"/>
<path d="M74.2568 49.5161H37.1113V50.6367H74.2568V49.5161Z" fill="#DADADA"/>
<path d="M74.2568 53.9427H37.1113V55.0634H74.2568V53.9427Z" fill="#DADADA"/>
<path d="M74.2568 58.3694H37.1113V59.4901H74.2568V58.3694Z" fill="#DADADA"/>
<path d="M74.2568 62.8073H37.1113V63.928H74.2568V62.8073Z" fill="#DADADA"/>
<path d="M74.2568 67.2339H37.1113V68.3547H74.2568V67.2339Z" fill="#DADADA"/>
<path d="M74.2568 71.6606H37.1113V72.7813H74.2568V71.6606Z" fill="#DADADA"/>
<path d="M74.2568 76.0873H37.1113V77.208H74.2568V76.0873Z" fill="#DADADA"/>
<path d="M74.2568 80.5252H37.1113V81.6459H74.2568V80.5252Z" fill="#DADADA"/>
<path d="M74.2568 84.9519H37.1113V86.0726H74.2568V84.9519Z" fill="#DADADA"/>
<path d="M74.2568 89.3786H37.1113V90.4993H74.2568V89.3786Z" fill="#DADADA"/>
</svg>
