<svg width="120" height="120" viewBox="0 0 120 120" fill="none" xmlns="http://www.w3.org/2000/svg">
<circle cx="60" cy="60" r="60" fill="#A6DAE8"/>
<path d="M38.7745 24.5882C37.8505 24.4795 36.7634 24.4795 35.8394 24.5882C34.8066 24.6426 33.8282 24.9144 32.9042 25.2406C32.1432 25.5124 30.9474 26.1648 31.0018 26.9803C31.0561 27.4153 31.5453 27.9589 31.7628 28.3395C32.0889 28.8832 32.4694 29.3725 32.7955 29.9161C33.6652 31.2209 34.5349 32.5257 35.9481 33.3956C36.3286 33.6131 36.7634 33.7762 37.1983 33.7218C37.6331 33.6674 37.7418 33.3956 37.9049 33.1238C38.0679 32.8519 38.1766 32.5801 38.3941 32.2539C38.992 31.4384 39.6442 30.6229 39.9704 29.6987C40.2421 28.9919 40.5683 28.2308 40.6226 27.524C40.677 26.926 40.6226 26.2736 40.4052 25.7299C40.2965 25.5124 40.1878 25.295 40.0247 25.0775C39.7529 24.8057 39.3181 24.5882 38.8833 24.5338C38.8833 24.5882 38.8289 24.5882 38.7745 24.5882Z" fill="#80BCAB"/>
<path d="M37.9597 25.893C37.6336 25.6755 37.2531 25.6212 36.8183 25.6212C34.8615 25.5668 32.1981 25.6212 31.7633 27.6327C31.6545 28.122 31.7089 28.6113 31.7089 29.1006C31.8176 31.1666 33.1765 33.2869 35.1876 34.4829C35.5681 34.7004 36.0029 34.8635 36.4378 34.8091C36.8726 34.7548 36.9813 34.4829 37.1444 34.2111C37.3075 33.9393 37.4162 33.6674 37.6336 33.3412C38.612 32.0364 39.6447 30.6229 39.536 29.1006C39.4817 28.0677 38.8838 27.0891 38.2315 26.2192C38.2315 26.1648 38.1228 26.0017 37.9597 25.893Z" fill="#71A594"/>
<path d="M39.2637 79.3898L88.9984 78.4112V23.7727L39.2637 24.7513V79.3898Z" fill="#80BCAB"/>
<path d="M37.959 81.0752L86.8784 80.0966V25.4037L37.959 26.3823V81.0752Z" fill="url(#paint0_linear)"/>
<path d="M36.4922 81.2926L85.3029 85.7507V31.1122L36.4922 26.6541V81.2926Z" fill="url(#paint1_linear)"/>
<path d="M35.4062 81.6188L79.4881 91.568V36.8751L35.4062 26.926V81.6188Z" fill="url(#paint2_linear)"/>
<path d="M34.5352 81.9994L72.4749 97.1134V42.4205L34.5352 27.3065V81.9994Z" fill="url(#paint3_linear)"/>
<path d="M33.3379 82.2169L62.146 101.408V46.7698L33.3379 27.5784V82.2169Z" fill="url(#paint4_linear)"/>
<path d="M32.5234 81.1839L52.6891 104.127L54.1567 103.909L54.4285 47.4766L32.5234 26.5454V81.1839Z" fill="#71A594"/>
<path d="M31.002 81.4558L52.6896 104.127L52.907 47.7484L31.002 26.7629V81.4558Z" fill="#80BCAB"/>
<path d="M32.8505 28.5026L32.3613 28.0677V82.8693L32.8505 83.3586C32.8505 83.3042 32.8505 28.5026 32.8505 28.5026Z" fill="#8DCCB9"/>
<path d="M32.3608 82.8693V28.0677L31.002 26.7629V81.4558L32.3608 82.8693Z" fill="#6D6D6D"/>
<path d="M36.6543 47.4222V57.8063L47.3079 68.9514V58.5674L36.6543 47.4222Z" fill="#F07F67"/>
<path d="M37.9593 26.6541C37.7962 26.6541 37.6875 26.5454 37.6875 26.3823C37.6875 26.2192 37.7962 26.1105 37.9593 26.1105L86.6613 25.1319C86.77 25.1319 86.9331 25.2406 86.9331 25.4037C86.9331 25.5668 86.8244 25.6755 86.6613 25.6755L37.9593 26.6541Z" fill="white"/>
<path d="M84.7584 31.384L36.5999 26.8172C36.4368 26.8172 36.3281 26.6541 36.3281 26.5454C36.3281 26.3823 36.4912 26.2736 36.5999 26.2736L84.8127 30.8404C84.9758 30.8404 85.0845 31.0035 85.0845 31.1122C85.0302 31.2753 84.9214 31.384 84.7584 31.384Z" fill="white"/>
<path d="M79.1613 37.0925H79.107L35.5143 27.1978C35.3512 27.1434 35.2969 27.0347 35.2969 26.8716C35.3512 26.7085 35.4599 26.6541 35.623 26.6541L79.1613 36.5489C79.3244 36.6032 79.3787 36.712 79.3787 36.8751C79.3787 36.9838 79.27 37.0925 79.1613 37.0925Z" fill="white"/>
<path d="M72.4754 42.6923C72.421 42.6923 72.421 42.6923 72.3667 42.6923L34.4269 27.5784C34.3182 27.524 34.2638 27.3609 34.3182 27.1978C34.3726 27.0347 34.5356 26.9803 34.6443 27.0347L72.5841 42.203C72.7471 42.2574 72.8015 42.4205 72.7471 42.5292C72.6928 42.6379 72.5841 42.6923 72.4754 42.6923Z" fill="white"/>
<path d="M62.1487 47.0417C62.0943 47.0417 62.04 47.0417 61.9856 46.9873L33.721 27.6328C33.6123 27.524 33.558 27.3609 33.6667 27.2522C33.7754 27.1435 33.9385 27.0891 34.0472 27.1978L62.3117 46.5524C62.4204 46.6611 62.4748 46.8242 62.3661 46.9329C62.3117 46.9873 62.2574 47.0417 62.1487 47.0417Z" fill="white"/>
<path d="M38.9381 25.8386C38.5032 25.8386 38.0684 25.8386 37.6336 25.9474C37.3618 26.0017 37.09 26.1648 36.8182 26.2736C35.7311 26.8172 34.481 27.1434 33.2852 27.4153C33.3395 27.4696 33.3939 27.4696 33.3939 27.524C33.6113 27.6871 33.7744 27.8502 33.9918 28.0677C34.0461 28.0677 34.1548 28.0133 34.2092 28.0133C35.0245 27.7958 35.7855 27.5784 36.5465 27.3065C36.9813 27.1434 37.4161 26.9803 37.7966 26.7629C38.014 26.6541 38.2315 26.5454 38.3945 26.4367C38.5032 26.3823 38.6119 26.2736 38.7207 26.2192C38.8837 26.0561 38.9381 26.0561 38.9381 25.8386Z" fill="#939393"/>
<path d="M37.7426 25.7843C37.5795 25.7843 37.4164 25.7843 37.2534 25.7843C37.0359 25.8386 36.8185 25.9474 36.6011 26.0561C35.514 26.5998 34.2095 26.926 33.0137 27.1978C33.2854 27.4153 33.5029 27.5784 33.7746 27.8502C33.829 27.8502 33.9377 27.7958 34.0464 27.7958C34.8074 27.524 35.6227 27.3065 36.3837 27.0891C36.8185 26.926 37.2534 26.7629 37.6338 26.5454C37.8513 26.4367 38.0687 26.3279 38.2317 26.2192C38.3405 26.1648 38.6666 25.8386 38.7209 25.893C38.4492 25.7843 38.123 25.7843 37.7426 25.7843Z" fill="url(#paint5_linear)"/>
<path d="M62.4183 101.68C62.2552 101.68 62.1465 101.571 62.1465 101.408V47.2047C62.1465 47.0416 62.2552 46.9329 62.4183 46.9329C62.5813 46.9329 62.69 47.0416 62.69 47.2047V101.408C62.69 101.517 62.5813 101.68 62.4183 101.68Z" fill="white"/>
<path d="M72.4749 96.8959C72.3118 96.8959 72.2031 96.7872 72.2031 96.6241V42.4205C72.2031 42.2574 72.3118 42.1486 72.4749 42.1486C72.638 42.1486 72.7467 42.2574 72.7467 42.4205V96.5697C72.7467 96.7871 72.5836 96.8959 72.4749 96.8959Z" fill="white"/>
<path d="M79.4866 91.2418C79.3236 91.2418 79.2148 91.133 79.2148 90.9699V36.8207C79.2148 36.6576 79.3236 36.5489 79.4866 36.5489C79.6497 36.5489 79.7584 36.6576 79.7584 36.8207V90.9699C79.7584 91.133 79.6497 91.2418 79.4866 91.2418Z" fill="white"/>
<path d="M85.303 85.5333C85.14 85.5333 85.0312 85.4245 85.0312 85.2614V31.1122C85.0312 30.9491 85.14 30.8404 85.303 30.8404C85.4661 30.8404 85.5748 30.9491 85.5748 31.1122V85.2614C85.5748 85.4245 85.4117 85.5333 85.303 85.5333Z" fill="white"/>
<path d="M86.7151 80.0966C86.5521 80.0966 86.4434 79.9879 86.4434 79.8248V25.6212C86.4434 25.4581 86.5521 25.3493 86.7151 25.3493C86.8782 25.3493 86.9869 25.4581 86.9869 25.6212V79.7704C86.9869 79.9879 86.8238 80.0966 86.7151 80.0966Z" fill="white"/>
<path d="M50.4062 29.9705C50.8411 30.0249 58.4508 31.819 58.4508 31.819V22.3048L54.2111 26.0017L50.4062 21V29.9705Z" fill="#FFBB4C"/>
<defs>
<linearGradient id="paint0_linear" x1="86.8887" y1="41.7473" x2="37.9703" y2="41.7473" gradientUnits="userSpaceOnUse">
<stop stop-color="#F5F5F5"/>
<stop offset="0.3209" stop-color="#DBDBDB"/>
</linearGradient>
<linearGradient id="paint1_linear" x1="85.278" y1="47.8077" x2="36.4779" y2="47.8077" gradientUnits="userSpaceOnUse">
<stop offset="0.1283" stop-color="#FAFAFA"/>
<stop offset="0.3209" stop-color="#E3E3E3"/>
</linearGradient>
<linearGradient id="paint2_linear" x1="79.4761" y1="54.522" x2="35.4298" y2="54.522" gradientUnits="userSpaceOnUse">
<stop offset="0.1283" stop-color="#FAFAFA"/>
<stop offset="0.3209" stop-color="#EBEBEB"/>
</linearGradient>
<linearGradient id="paint3_linear" x1="72.4583" y1="60.8731" x2="34.5534" y2="60.8731" gradientUnits="userSpaceOnUse">
<stop offset="0.1283" stop-color="#FAFAFA"/>
<stop offset="0.2246" stop-color="#F5F5F5"/>
<stop offset="0.4973" stop-color="#EBEBEB"/>
</linearGradient>
<linearGradient id="paint4_linear" x1="65.6552" y1="62.08" x2="30.5739" y2="70.0849" gradientUnits="userSpaceOnUse">
<stop offset="0.0962567" stop-color="#F5F5F5"/>
<stop offset="0.3476" stop-color="#EBEBEB"/>
</linearGradient>
<linearGradient id="paint5_linear" x1="32.1443" y1="26.7947" x2="38.783" y2="26.7947" gradientUnits="userSpaceOnUse">
<stop offset="0.1283" stop-color="#FAFAFA"/>
<stop offset="0.2246" stop-color="#F5F5F5"/>
<stop offset="0.4973" stop-color="#EBEBEB"/>
</linearGradient>
</defs>
</svg>
