<svg width="120" height="120" viewBox="0 0 120 120" fill="none" xmlns="http://www.w3.org/2000/svg">
<circle cx="60" cy="60" r="60" fill="#A6DAE8"/>
<mask id="mask0" mask-type="alpha" maskUnits="userSpaceOnUse" x="0" y="0" width="120" height="120">
<circle cx="60" cy="60" r="60" fill="#A6DAE8"/>
</mask>
<g mask="url(#mask0)">
<path d="M97.4336 101.567L97.4623 101.548L97.4336 101.567Z" fill="#313244"/>
<path d="M15.8203 86.7517C15.8203 86.7517 19.3816 71.2389 20.4453 69.6123C21.4998 67.9857 37.3728 64.3924 39.4541 64.3281C41.5261 64.2637 40.8323 86.3657 28.7056 97.9543C17.5501 108.606 15.8203 86.7517 15.8203 86.7517Z" fill="#EFA673"/>
<path d="M23.962 89.812L17.7275 85.3273C16.229 84.252 14.2218 84.4634 13.2413 85.8143L6.54426 95.0044C6.16501 95.519 5.99851 96.1347 6.01701 96.7505L15.2763 101.741L23.962 89.812Z" fill="white"/>
<path d="M25.9967 105.748L31.1397 98.6896C32.1202 97.3478 31.7039 95.3811 30.2054 94.3059L23.9709 89.8212L15.2852 101.731L25.9967 105.748Z" fill="#E6E6E6"/>
<path d="M21.0678 93.8472L21.0391 93.828L21.0678 93.8472Z" fill="#313244"/>
<path d="M13.1113 106.189H4V95.0687L7.33 90.2991C9.00425 88.0016 11.5758 87.0182 13.0743 88.0935L21.0385 93.828L21.02 93.8188L13.1113 106.189Z" fill="#313244"/>
<path d="M21.0304 93.828L28.9946 99.5534C30.4931 100.629 30.3543 103.367 28.6801 105.656L22.002 116.408L13.1309 106.179L21.0304 93.828Z" fill="#252633"/>
<path d="M13.1113 106.189L21.0108 93.8188L21.0293 93.828L13.1298 106.189H13.1113Z" fill="#252633"/>
<path d="M89.3397 12H29.668V90.0969H89.3397V12Z" fill="white"/>
<path d="M56.1794 37.8516H33.2949V38.4673H56.1794V37.8516Z" fill="#EDEDED"/>
<path d="M85.7068 37.8516H62.8223V38.4673H85.7068V37.8516Z" fill="#EDEDED"/>
<path d="M85.7054 43.2553H33.2949V43.8894H85.7054V43.2553Z" fill="#EDEDED"/>
<path d="M85.7699 46.7843H33.3594V47.4184H85.7699V46.7843Z" fill="#EDEDED"/>
<path d="M85.8441 50.3132H33.4336V50.9473H85.8441V50.3132Z" fill="#EDEDED"/>
<path d="M85.9105 53.8514H33.5V54.4855H85.9105V53.8514Z" fill="#EDEDED"/>
<path d="M85.975 57.3804H33.5645V58.0145H85.975V57.3804Z" fill="#EDEDED"/>
<path d="M86.0375 60.9185H33.627V61.5527H86.0375V60.9185Z" fill="#EDEDED"/>
<path d="M86.1019 64.4475H33.6914V65.0816H86.1019V64.4475Z" fill="#EDEDED"/>
<path d="M86.1761 67.9765H33.7656V68.6106H86.1761V67.9765Z" fill="#EDEDED"/>
<path d="M86.2406 71.5146H33.8301V72.1488H86.2406V71.5146Z" fill="#EDEDED"/>
<path d="M86.307 75.0436H33.8965V75.6777H86.307V75.0436Z" fill="#EDEDED"/>
<path d="M70.9411 21.3646H48.0566V24.673H70.9411V21.3646Z" fill="#EDEDED"/>
<path d="M55.8669 84.638H42.7227V85.2077H55.8669V84.638Z" fill="#EDEDED"/>
<g style="mix-blend-mode:multiply">
<path d="M20.2097 74.869C20.2097 74.869 22.9569 70.7427 24.2519 69.2723C25.5469 67.8019 32.9562 56.0294 32.9562 56.0294C32.9562 56.0294 34.1217 53.5022 36.9244 54.945C39.7364 56.3878 38.3119 58.3545 38.3119 58.3545C38.3119 58.3545 32.6324 67.3424 32.4382 68.3533C32.2347 69.3642 31.6242 76.9459 30.3569 79.271C29.0897 81.5961 27.4617 85.3456 24.1872 86.3106C20.9127 87.2755 19.8027 86.816 19.1922 85.0883C18.5817 83.3698 18.9332 75.788 20.2097 74.869Z" fill="#EDEDED"/>
</g>
<path d="M19.6159 74.869C19.6159 74.869 22.3632 70.7427 23.6582 69.2723C24.9532 67.8019 32.3624 56.0294 32.3624 56.0294C32.3624 56.0294 33.5279 53.5022 36.3307 54.945C39.1427 56.3878 37.7182 58.3545 37.7182 58.3545C37.7182 58.3545 32.0387 67.3424 31.8444 68.3533C31.6409 69.3642 31.0304 76.9459 29.7632 79.271C28.4959 81.5961 26.8679 85.3456 23.5934 86.3106C20.3189 87.2755 19.2089 86.816 18.5984 85.0883C17.9879 83.3698 18.3394 75.788 19.6159 74.869Z" fill="#EFAD73"/>
<path d="M33.6769 58.9886C33.6769 58.9886 35.4622 60.0179 35.7304 59.9076C35.9987 59.7974 37.6452 57.6377 37.1549 56.9576C36.6647 56.2776 36.1929 55.9192 35.2957 55.5516C34.4539 55.2023 34.3152 55.3586 33.9174 55.4413C33.5197 55.524 32.8907 56.2224 32.604 56.6911C32.3265 57.1598 31.9287 57.8031 31.9565 57.8858C31.975 57.9777 33.6769 58.9886 33.6769 58.9886Z" fill="#F9C08F"/>
<path d="M30.0117 61.5435C30.0117 61.5435 31.094 61.6537 31.8247 62.0489C32.5555 62.4441 33.1197 63.3723 33.1752 63.4826C33.24 63.5928 31.4825 62.1776 30.0117 61.5435Z" fill="#F9C08F"/>
<path d="M28.7832 62.0673C28.7832 62.0673 30.3464 62.2327 31.4102 62.8025C32.4647 63.3723 33.2787 64.714 33.3619 64.8702C33.4452 65.0356 30.9107 62.9863 28.7832 62.0673Z" fill="#F9C08F"/>
<path d="M104.638 95.1239C104.638 95.1239 101.854 91.843 101.669 91.1721C101.484 90.5013 95.2589 71.2298 90.9761 70.2097C86.6934 69.1896 81.4116 67.8754 80.0981 68.583C78.7939 69.2907 70.7279 75.8064 70.7279 75.8064C70.7279 75.8064 69.3589 77.9293 71.1811 80.1257C72.1061 81.2377 76.0004 82.2027 77.1104 79.7673C77.5081 80.4749 77.5081 80.4749 77.5081 80.4749C77.5081 80.4749 72.7999 82.2302 74.1041 84.9137C75.3991 87.5972 76.9531 87.1745 76.9531 87.1745C76.9531 87.1745 76.5739 89.2974 77.3231 90.391C78.0724 91.4846 79.5986 91.8798 79.5986 91.8798C79.5986 91.8798 79.7374 93.9383 80.9399 94.8941C82.1424 95.8499 84.2329 95.519 84.2329 95.519C84.2329 95.519 85.3429 98.6253 86.1384 99.4891C86.9339 100.353 91.2814 104.351 91.2814 104.351L104.638 95.1239Z" fill="#EFA673"/>
<path d="M86.4193 79.1331L82.3216 81.6328L67.3828 60.1006L71.3696 57.3804L86.4193 79.1331Z" fill="#3C3C3B"/>
<path d="M67.5469 60.3487L69.1934 62.7382C69.9241 62.4073 70.6271 62.0121 71.3116 61.5526C71.9961 61.0839 72.6159 60.5785 73.1894 60.0179L71.5429 57.6285L67.5469 60.3487Z" fill="#DADADA"/>
<path d="M72.6568 59.2585C77.8079 54.1407 77.8079 45.8432 72.6568 40.7254C67.5056 35.6077 59.1539 35.6077 54.0028 40.7254C48.8516 45.8432 48.8516 54.1407 54.0028 59.2585C59.1539 64.3763 67.5056 64.3763 72.6568 59.2585Z" fill="#3C3C3B"/>
<path d="M71.7536 58.3617C76.4063 53.7392 76.4063 46.2447 71.7536 41.6222C67.101 36.9997 59.5575 36.9997 54.9049 41.6222C50.2522 46.2447 50.2522 53.7392 54.9049 58.3617C59.5575 62.9842 67.101 62.9842 71.7536 58.3617Z" fill="#F6F6F6"/>
<g style="mix-blend-mode:multiply">
<path d="M92.9388 83.9304C92.9388 83.9304 90.0805 79.8316 88.7393 78.3704C87.398 76.9092 79.6743 65.2011 79.6743 65.2011C79.6743 65.2011 74.8457 62.7474 75.6412 64.1902C79.1285 70.5681 76.5292 71.046 76.5292 71.046C76.5292 71.046 80.2385 76.5968 80.4605 77.6168C80.6825 78.6369 81.4688 86.2738 82.8008 88.5897C84.1328 90.9148 85.8533 94.6551 89.174 95.565C92.5041 96.4748 93.8083 96.3737 94.3911 94.6184C94.9738 92.8631 94.2523 84.831 92.9388 83.9304Z" fill="#F6F6F6"/>
</g>
<path d="M93.0947 83.14C93.0947 83.14 90.2365 79.0413 88.8952 77.5801C87.554 76.1188 79.8302 64.4107 79.8302 64.4107C79.8302 64.4107 78.6 61.8927 75.7972 63.3998C72.9944 64.9162 74.4745 66.8645 74.4745 66.8645C74.4745 66.8645 80.3945 75.8064 80.6257 76.8265C80.8477 77.8466 81.634 85.4835 82.966 87.7994C84.298 90.1245 86.0185 93.8648 89.3392 94.7746C92.6692 95.6844 93.9735 95.5833 94.5562 93.828C95.1205 92.0727 94.399 84.0406 93.0947 83.14Z" fill="#EFAD73"/>
<path d="M78.5629 67.4159C78.5629 67.4159 76.7869 68.4911 76.5094 68.39C76.2319 68.2889 74.5299 66.1385 75.0109 65.4492C75.4919 64.7508 75.9637 64.3832 76.8517 63.9972C77.6934 63.6296 77.8414 63.7766 78.2392 63.8593C78.6369 63.9421 79.2937 64.6313 79.5897 65.1C79.8857 65.5687 80.2927 66.2028 80.2742 66.2947C80.2557 66.359 78.5629 67.4159 78.5629 67.4159Z" fill="#F9C08F"/>
<path d="M82.3181 69.9156C82.3181 69.9156 81.2266 70.0534 80.4959 70.467C79.7651 70.8805 79.2194 71.8271 79.1639 71.9466C79.0991 72.0569 80.8474 70.5865 82.3181 69.9156Z" fill="#F9C08F"/>
<path d="M83.5681 70.421C83.5681 70.421 81.9956 70.6232 80.9319 71.2205C79.8774 71.8179 79.0911 73.1872 79.0079 73.3526C78.9246 73.5089 81.4406 71.386 83.5681 70.421Z" fill="#F9C08F"/>
<path d="M95.0391 97.5316L101.274 93.0469C102.772 91.9717 104.779 92.183 105.76 93.534L112.457 102.724C112.836 103.239 113.003 103.854 112.984 104.47L103.725 109.46L95.0391 97.5316Z" fill="white"/>
<path d="M93.0038 113.467L87.8608 106.409C86.8803 105.067 87.2965 103.101 88.795 102.026L95.0295 97.5408L104.002 109.295L93.0038 113.467Z" fill="#E6E6E6"/>
<path d="M105.888 113.908H114.999V102.788L111.669 98.0187C109.995 95.7212 107.424 94.7378 105.925 95.8131L97.9609 101.548L97.9794 101.538L105.888 113.908Z" fill="#313244"/>
<path d="M98.0543 101.483L89.9976 107.282C88.4991 108.357 88.6378 111.096 90.3121 113.384L91.502 115.908L105.871 113.908L98.0543 101.483Z" fill="#252633"/>
<path d="M70.5056 46.1685L70.4871 46.1502C69.9043 45.5712 68.9516 45.5712 68.3688 46.1502L62.421 52.0593L59.2945 48.9531C58.7118 48.3741 57.7683 48.3741 57.1763 48.9531L57.1578 48.9715C56.575 49.5505 56.575 50.497 57.1578 51.076L61.5608 55.4505C62.0418 55.9284 62.8095 55.9284 63.2905 55.4505L70.5148 48.2822C71.0883 47.6941 71.0883 46.7475 70.5056 46.1685Z" fill="#95C11F"/>
</g>
</svg>
