<svg width="120" height="127" viewBox="0 0 120 127" fill="none" xmlns="http://www.w3.org/2000/svg">
<circle cx="60" cy="60" r="60" fill="#A6DAE8"/>
<g clip-path="url(#clip0)">
<mask id="mask0" mask-type="alpha" maskUnits="userSpaceOnUse" x="0" y="0" width="120" height="120">
<circle cx="60" cy="60" r="60" fill="#A6DAE8"/>
</mask>
<g mask="url(#mask0)">
<path d="M89.8661 90.7385C89.8661 91.9762 88.8676 92.9768 87.6325 92.9768H33.5012C32.2661 92.9768 31.2676 91.9762 31.2676 90.7385V19.6901C31.2676 18.4524 32.2661 17.4518 33.5012 17.4518H87.6325C88.8676 17.4518 89.8661 18.4524 89.8661 19.6901V90.7385Z" fill="#4D4D4D"/>
<g style="mix-blend-mode:multiply">
<path d="M74.9131 92.4238H36.3379V23.1135H85.6343V83.0754L74.9131 92.4238Z" fill="#F2F2F2"/>
</g>
<path d="M74.5186 90.0538H35.9434V20.7435H85.2135V80.7317L74.5186 90.0538Z" fill="#F7F7F7"/>
<path d="M79.4325 28.8279H42.8281V30.1446H79.4325V28.8279Z" fill="#DBDBDB"/>
<path d="M79.4325 34.121H42.8281V35.4377H79.4325V34.121Z" fill="#DBDBDB"/>
<path d="M79.4325 39.3878H42.8281V40.7044H79.4325V39.3878Z" fill="#DBDBDB"/>
<path d="M79.4325 44.6545H42.8281V45.9712H79.4325V44.6545Z" fill="#DBDBDB"/>
<path d="M79.4325 49.9475H42.8281V51.2642H79.4325V49.9475Z" fill="#DBDBDB"/>
<path d="M79.4325 55.2143H42.8281V56.531H79.4325V55.2143Z" fill="#DBDBDB"/>
<path d="M79.4325 59.6121H42.8281V60.9287H79.4325V59.6121Z" fill="#DBDBDB"/>
<path d="M85.2134 80.758L74.4922 80.7053L74.5185 90.0801L85.2134 80.758Z" fill="white"/>
<g style="mix-blend-mode:multiply">
<path d="M51.9726 17.4518C51.6047 18.4788 51.3945 19.5585 51.3945 20.6908H71.0763C71.0763 19.5585 70.8661 18.4524 70.4982 17.4518H51.9726Z" fill="#F2F2F2"/>
</g>
<path d="M70.3389 20.8225C70.3126 15.3977 65.898 11 60.4849 11C55.0717 11 50.6834 15.3977 50.6309 20.8225H70.3389Z" fill="#F6C53D"/>
<path d="M62.2204 16.6618C62.2204 17.6361 61.4321 18.4261 60.4598 18.4261C59.4875 18.4261 58.6992 17.6361 58.6992 16.6618C58.6992 15.6874 59.4875 14.8974 60.4598 14.8974C61.4321 14.8974 62.2204 15.6874 62.2204 16.6618Z" fill="#30C4C5"/>
<path d="M31.2922 127L31.3185 95.7419L31.2922 74.3063L31.2134 54.398C31.2134 54.398 28.4805 57.084 27.3506 58.427C26.2207 59.7964 19.3623 72.2259 19.3623 72.2259L16.7871 127H31.2922Z" fill="#FAC294"/>
<path d="M31.1864 74.9383L36.1791 67.6438C36.9674 66.3271 38.7018 65.9058 40.0419 66.6695C41.382 67.4332 41.855 69.1185 41.0404 70.4352L33.7353 86.5514L33.0784 91.0545L30.8711 95.6366L31.1864 74.9383Z" fill="#FAC294"/>
<path opacity="0.49" d="M35.7039 69.5135C35.7039 69.4872 35.7302 69.4608 35.7302 69.4345C35.7565 69.4082 35.7828 69.3555 35.7828 69.3292L36.5448 67.9598C37.1755 66.8275 38.6207 66.3798 39.7769 66.9855C40.9594 67.5912 41.4061 68.9868 40.7755 70.1192L39.9871 71.4622C39.9609 71.4885 39.9609 71.5412 39.9346 71.5675C39.9083 71.6202 39.882 71.6729 39.8295 71.6992C39.5667 71.9889 39.1463 72.0942 38.7784 71.9099L36.0455 70.5142C35.7039 70.3562 35.5463 69.9085 35.7039 69.5135Z" fill="white"/>
<path opacity="0.58" d="M39.8042 71.6992C39.8042 71.7519 39.8042 71.8045 39.8042 71.8309C39.5414 72.0679 39.1736 72.1205 38.8319 71.9625L36.0991 70.5668C35.7049 70.3562 35.5473 69.9085 35.7049 69.5398C35.7049 69.5135 35.7049 69.5135 35.7312 69.4872C36.1517 69.2502 36.6247 69.0922 37.1502 69.0922C38.5955 69.0922 39.8042 70.2508 39.8042 71.6992Z" fill="white"/>
<path d="M33.762 127L33.2628 96.8479L15.4467 96.6899L15 127H33.762Z" fill="#332B40"/>
<g style="mix-blend-mode:overlay" opacity="0.41">
<path d="M25.3261 126.947L25.5363 96.8479L15.4984 96.6372L15.0254 126.947H25.3261Z" fill="white"/>
</g>
<path d="M89.7871 62.693V72.1205L96.0411 77.1502L97.9331 71.4885L89.7871 62.693Z" fill="#EDB180"/>
<path d="M87.6314 105.907L87.5526 95.6102L83.4008 88.1314L82.2971 81.7587L75.5176 64.4837C75.5176 64.4837 76.4898 61.3237 79.1964 63.1671C84.1366 66.5378 86.8957 74.9382 86.8957 74.9382L93.8592 78.3616L96.5658 73.8059L93.1234 66.4851C93.1234 66.4851 81.5088 58.111 84.6096 54.6613C85.5555 53.5816 85.7658 54.3979 89.6811 57.2946C93.5964 60.1913 96.4344 61.1657 97.3804 62.1137C98.3263 63.0617 104.948 72.3839 104.948 72.3839L101.848 90.2908L101.348 106.354L87.6314 105.907Z" fill="#FAC294"/>
<path d="M85.0566 127L85.9763 98.8229H103.556L105.001 127H85.0566Z" fill="#332B40"/>
<g style="mix-blend-mode:overlay" opacity="0.41">
<path d="M93.0957 126.947V98.7439H103.528L104.973 126.947H93.0957Z" fill="white"/>
</g>
<path opacity="0.58" d="M77.6194 63.7464C77.6194 63.7464 80.1421 68.3021 77.1727 68.9868L75.4121 64.5627C75.4121 64.5627 76.1742 63.5884 77.6194 63.7464Z" fill="white"/>
<path opacity="0.58" d="M77.5426 67.3541C77.8842 67.3804 78.3046 67.4857 78.5937 67.6174C78.5148 68.2494 78.0418 68.8024 77.201 68.9867L76.5703 67.4594C76.8594 67.3804 77.201 67.3277 77.5426 67.3541Z" fill="white"/>
<path opacity="0.58" d="M84.793 55.899C84.793 55.899 87.8149 59.0064 89.0762 56.768L85.9754 54.3189C85.9754 54.3189 85.0295 54.7139 84.793 55.899Z" fill="white"/>
<path opacity="0.58" d="M87.6858 56.6626C87.6332 56.9523 87.607 57.2946 87.6595 57.558C88.1851 57.637 88.7369 57.4 89.0785 56.768L88.0274 55.899C87.8697 56.1623 87.7383 56.3993 87.6858 56.6626Z" fill="white"/>
<path d="M96.8273 87.1307L75.7266 56.0306L80.7455 52.6072L101.873 83.7073L96.8273 87.1307Z" fill="url(#paint0_linear)"/>
<path d="M75.5693 56.1096C75.5693 55.9779 75.4642 52.9759 75.543 51.4222C75.7269 51.5539 75.9372 51.6065 76.1211 51.6065L77.3298 54.8983C76.9094 56.4519 75.6744 56.1359 75.5693 56.1096Z" fill="#FFE4CC"/>
<path d="M79.2721 53.5815L76.5918 51.2642C76.6444 51.1062 76.6444 50.9218 76.6181 50.6848C78.0896 51.1852 80.8224 52.3702 80.9801 52.4229C80.6648 54.1346 79.2721 53.5815 79.2721 53.5815Z" fill="#DBB391"/>
<path d="M77.3298 54.8982L76.1211 51.6065C76.2262 51.6065 76.3313 51.5802 76.4101 51.5275C76.489 51.4748 76.5678 51.3695 76.5941 51.2642L79.2744 53.5815C79.2744 53.5815 79.1167 55.2406 77.3298 54.8982Z" fill="#F7D4B6"/>
<path d="M76.5921 51.2642C76.5396 51.3695 76.487 51.4749 76.4082 51.5275C76.3293 51.5802 76.2242 51.6065 76.1191 51.6065C75.9352 51.6065 75.7512 51.5539 75.541 51.4222C75.5673 50.9219 75.5673 50.3162 75.5673 50.3162C75.5673 50.3162 76.1191 50.5532 76.5921 50.7112C76.6447 50.8955 76.6447 51.1062 76.5921 51.2642Z" fill="url(#paint1_linear)"/>
<path d="M96.7236 87.236L75.6229 56.1886C75.5966 56.1622 75.5966 56.1359 75.5703 56.1096C75.6754 56.1359 76.9105 56.4519 77.3309 54.8982L98.4842 86.051L96.7236 87.236Z" fill="#CD2C24"/>
<path d="M98.4834 86.0247L77.3301 54.8982C79.1169 55.2406 79.2746 53.5815 79.2746 53.5815L100.428 84.708L98.4834 86.0247Z" fill="#F2836B"/>
<path d="M100.427 84.708L79.2734 53.5816C79.2734 53.5816 80.6924 54.1346 80.9815 52.4229C81.0077 52.4492 81.034 52.4756 81.034 52.5019L102.135 83.5493L100.427 84.708Z" fill="#F2594B"/>
<path d="M101.792 83.207L102.396 84.076C103.473 85.6824 103.21 87.7364 101.818 88.6581L101.581 88.8161C100.189 89.7641 98.1915 89.2374 97.1141 87.6311L96.5098 86.762L101.792 83.207Z" fill="#F2906B"/>
<path d="M96.9487 83.7799L95.1445 85.0081L96.6801 87.2735L98.4843 86.0454L96.9487 83.7799Z" fill="#333745"/>
<path d="M98.8528 82.4757L96.918 83.7924L98.4533 86.0581L100.388 84.7414L98.8528 82.4757Z" fill="#5D647D"/>
<path d="M100.652 81.2536L98.8477 82.482L100.384 84.7471L102.187 83.5188L100.652 81.2536Z" fill="#393D4D"/>
<path opacity="0.23" d="M101.634 88.0261C101.529 87.7101 100.925 87.5784 100.294 87.7364C99.6635 87.8681 99.243 88.2368 99.3481 88.5528C99.4532 88.8688 100.058 89.0004 100.688 88.8424C101.319 88.7108 101.739 88.3421 101.634 88.0261Z" fill="white"/>
<path d="M76.5923 51.2642L75.5938 50.3162C75.5938 50.3162 76.1456 50.5532 76.6186 50.7112C76.6448 50.8955 76.6448 51.1062 76.5923 51.2642Z" fill="#060F17"/>
<path d="M76.1191 51.6065C75.9352 51.6065 75.7512 51.5539 75.541 51.4222C75.5673 50.9219 75.5673 50.3162 75.5673 50.3162L76.1191 51.6065Z" fill="#5B6269"/>
<path d="M76.5923 51.2642C76.5397 51.3696 76.4872 51.4749 76.4083 51.5276C76.3295 51.5802 76.2244 51.6066 76.1193 51.6066L75.5938 50.2899L76.5923 51.2642Z" fill="#2C3033"/>
<path d="M67.7636 73.3319C66.0293 70.0402 68.9987 68.6708 68.9987 68.6708L66.5023 65.6951C65.0571 66.7221 62.587 66.4588 60.3271 65.4055V65.3791H60.3009C60.3009 65.3791 60.3009 65.3791 60.2746 65.3791V65.4055C58.0147 66.4851 55.5184 66.7485 54.0731 65.7215L51.5768 68.6972C51.5768 68.6972 54.5461 70.0665 52.8118 73.3582C51.0775 76.65 50.1315 81.6534 54.2308 84.4184C58.3563 87.1571 60.0644 88.0261 60.2483 88.0261C60.4322 88.0261 62.1666 87.1571 66.2658 84.4184C70.4439 81.627 69.4979 76.6236 67.7636 73.3319Z" fill="#DCA526"/>
<path d="M54.808 83.602C56.9102 84.9977 58.3029 85.7351 59.2489 86.2354C59.5642 86.3934 60.1424 86.8937 60.4577 86.7094C62.2183 85.6297 64.0577 84.7344 65.792 83.602C67.3161 82.575 67.9993 81.232 68.2095 79.8626C68.6037 77.2556 67.3161 74.5169 66.9219 73.8059C66.081 72.1995 66.0022 70.3299 67.211 68.9078C67.3424 68.7762 67.4737 68.6445 67.6051 68.5128C67.1584 67.9862 66.7117 67.4595 66.2913 66.9328C64.4518 67.6965 62.2971 67.2751 60.5102 66.5378C60.4314 66.5115 60.3788 66.4851 60.3 66.4588C58.4869 67.2488 56.227 67.7228 54.335 66.9328C53.9146 67.4595 53.4679 67.9862 53.0212 68.5128C53.1526 68.6182 53.284 68.7498 53.3891 68.9078C54.6241 70.3299 54.519 72.2259 53.6781 73.8059C53.284 74.5432 51.9964 77.2556 52.3905 79.8626C52.6007 81.232 53.284 82.575 54.808 83.602Z" fill="#F6C53D"/>
<path d="M64.1641 69.6189C64.1641 69.8295 64.0064 69.9875 63.7962 69.9875H56.8327C56.6225 69.9875 56.4648 69.8295 56.4648 69.6189V69.3292C56.4648 69.1185 56.6225 68.9605 56.8327 68.9605H63.7962C64.0064 68.9605 64.1641 69.1185 64.1641 69.3292V69.6189Z" fill="#DCA526"/>
<path d="M65.9244 77.8613C65.9244 80.9687 63.4018 83.4967 60.3011 83.4967C57.2004 83.4967 54.6777 80.9687 54.6777 77.8613C54.6777 74.7539 57.2004 72.2259 60.3011 72.2259C63.4018 72.2522 65.9244 74.7539 65.9244 77.8613Z" fill="#DCA526"/>
<path d="M60.1694 74.2009C60.2482 74.0166 60.3796 74.0166 60.4584 74.2009L61.3781 76.255C61.457 76.4393 61.6935 76.5973 61.8774 76.6236L64.111 76.8606C64.2949 76.887 64.3475 77.0186 64.1898 77.1503L62.5343 78.6513C62.3767 78.783 62.2978 79.0463 62.3504 79.257L62.7971 81.4427C62.8497 81.627 62.7183 81.706 62.5606 81.627L60.6161 80.521C60.4322 80.4157 60.1694 80.4157 59.9854 80.521L58.0409 81.627C57.857 81.7324 57.7519 81.6534 57.8044 81.4427L58.2511 79.257C58.3037 79.0727 58.1986 78.783 58.0672 78.6513L56.4117 77.1503C56.2541 77.0186 56.3066 76.887 56.4905 76.8606L58.7241 76.6236C58.9081 76.5973 59.1446 76.4393 59.2234 76.255L60.1694 74.2009Z" fill="white"/>
</g>
</g>
<defs>
<linearGradient id="paint0_linear" x1="86.2651" y1="71.5879" x2="91.3315" y2="68.1538" gradientUnits="userSpaceOnUse">
<stop stop-color="#FFBE00"/>
<stop offset="0.3331" stop-color="#FFC51B"/>
<stop offset="1" stop-color="#FFD55B"/>
</linearGradient>
<linearGradient id="paint1_linear" x1="75.5769" y1="50.3031" x2="76.4013" y2="51.514" gradientUnits="userSpaceOnUse">
<stop stop-color="#2F2933"/>
<stop offset="1"/>
</linearGradient>
<clipPath id="clip0">
</clipPath>
</defs>
</svg>
