<svg width="120" height="120" viewBox="0 0 120 120" fill="none" xmlns="http://www.w3.org/2000/svg">
<circle cx="60" cy="60" r="60" fill="#A6DAE8"/>
<path d="M45.9824 94.99V80.9957C45.9824 78.1743 48.2396 75.9171 51.061 75.9171H67.4253C70.2467 75.9171 72.5038 78.1743 72.5038 80.9957V94.99H45.9824Z" fill="#828282"/>
<path d="M81.9877 96.2314C81.9877 96.4571 78.0377 96.6828 73.2977 96.6828H45.3091C40.4563 96.6828 36.6191 96.4571 36.6191 96.2314V94.99C36.6191 94.7643 40.5691 94.5385 45.3091 94.5385H73.2977C78.1506 94.5385 81.9877 94.7643 81.9877 94.99V96.2314Z" fill="#E3E3E3"/>
<path d="M98.4648 89.0085H20.2549C18.3363 89.0085 16.8691 87.4285 16.8691 85.6228V35.8528C16.8691 33.9343 18.4491 32.4671 20.2549 32.4671H98.4648C100.383 32.4671 101.851 34.0471 101.851 35.8528V85.6228C101.851 87.4285 100.271 89.0085 98.4648 89.0085Z" fill="#E3E3E3"/>
<path d="M97.2203 32.4671H21.3803C19.5746 32.4671 18.1074 33.8214 18.1074 35.6271V81.3343H100.606V35.5143C100.493 33.8214 99.026 32.4671 97.2203 32.4671Z" fill="white"/>
<path d="M101.848 82.6886H16.7539V35.5143C16.7539 33.0314 18.7853 31 21.381 31H97.221C99.8167 31 101.848 33.0314 101.848 35.5143V82.6886ZM19.4625 79.98H99.2525V35.5143C99.2525 34.4986 98.3496 33.7086 97.3339 33.7086H21.381C20.2525 33.7086 19.4625 34.4986 19.4625 35.5143V79.98Z" fill="black" stroke="black" stroke-width="0.3241"/>
<path d="M31.3096 53.5715H24.3125V79.8672H31.3096V53.5715Z" fill="#F58200"/>
<path d="M41.8077 64.5186H34.8105V79.8672H41.8077V64.5186Z" fill="#F58200"/>
<path d="M52.1885 56.8443H45.1914V79.8672H52.1885V56.8443Z" fill="#F58200"/>
<path d="M62.5714 53.5715H55.5742V79.8672H62.5714V53.5715Z" fill="#F58200"/>
<path d="M73.0675 61.9229H66.0703V79.8672H73.0675V61.9229Z" fill="#FFB700"/>
<path d="M83.4483 50.4115H76.4512V79.98H83.4483V50.4115Z" fill="#F58200"/>
<path d="M93.835 47.4772H86.8379V79.8672H93.835V47.4772Z" fill="#F58200"/>
<path d="M55.5735 37.9972H49.1406V39.4643H55.5735V37.9972Z" fill="#D71B29"/>
<path d="M45.0795 37.9972H24.6523V39.4643H45.0795V37.9972Z" fill="#D71B29"/>
<path opacity="0.8" d="M20.4767 80.8829L18.4453 78.8515L34.471 62.7129L48.691 69.2586L65.8453 60.3429L79.6139 63.5029L98.0096 49.9601L99.7024 52.3301L80.291 66.6629L66.1839 63.3901L48.8039 72.5315L35.1482 66.2115L20.4767 80.8829Z" fill="#D71B29"/>
<path d="M24.6523 44.0915H45.1923H24.6523Z" stroke="#BAB9B9" stroke-width="0.9723"/>
<path d="M28.0391 47.8158H48.8048H28.0391Z" stroke="#BAB9B9" stroke-width="0.9723"/>
<path d="M51.3984 47.8158H56.8156H51.3984Z" stroke="#BAB9B9" stroke-width="0.9723"/>
<path d="M49.1406 44.0915H61.3292H49.1406Z" stroke="#BAB9B9" stroke-width="0.9723"/>
<path d="M78.2599 39.4643C78.2599 40.4801 77.4699 41.2701 76.4541 41.2701C75.4384 41.2701 74.6484 40.4801 74.6484 39.4643C74.6484 38.4486 75.4384 37.6586 76.4541 37.6586C77.4699 37.6586 78.2599 38.4486 78.2599 39.4643Z" fill="#D71B29"/>
<path d="M37.4032 65.0829C37.4032 66.4372 36.2746 67.5657 34.9204 67.5657C33.5661 67.5657 32.4375 66.4372 32.4375 65.0829C32.4375 63.7286 33.5661 62.6 34.9204 62.6C36.2746 62.6 37.4032 63.7286 37.4032 65.0829Z" fill="#C21300"/>
<path d="M68.5536 61.9229C68.5536 63.2772 67.425 64.4057 66.0707 64.4057C64.7165 64.4057 63.5879 63.2772 63.5879 61.9229C63.5879 60.5686 64.7165 59.44 66.0707 59.44C67.425 59.44 68.5536 60.4557 68.5536 61.9229Z" fill="#C21300"/>
<path d="M96.3192 54.3615C96.3192 55.7157 95.1907 56.8443 93.8364 56.8443C92.4821 56.8443 91.3535 55.7157 91.3535 54.3615C91.3535 53.0072 92.4821 51.8786 93.8364 51.8786C95.1907 51.8786 96.3192 53.0072 96.3192 54.3615Z" fill="#C21300"/>
<path d="M85.5958 39.4643C85.5958 40.4801 84.8058 41.2701 83.7901 41.2701C82.7744 41.2701 81.9844 40.4801 81.9844 39.4643C81.9844 38.4486 82.7744 37.6586 83.7901 37.6586C84.8058 37.6586 85.5958 38.4486 85.5958 39.4643Z" fill="#002E3F"/>
<path d="M92.4786 39.4643C92.4786 40.4801 91.6886 41.2701 90.6729 41.2701C89.6572 41.2701 88.8672 40.4801 88.8672 39.4643C88.8672 38.4486 89.6572 37.6586 90.6729 37.6586C91.6886 37.6586 92.4786 38.4486 92.4786 39.4643Z" fill="#FFB700"/>
<path d="M85.4879 59.7786C77.475 59.1014 70.5908 65.0829 69.9136 72.9829C69.2365 80.9957 75.2179 87.88 83.1179 88.5572C91.1308 89.2343 98.015 83.2529 98.6922 75.3529C99.3693 67.34 93.5008 60.4557 85.4879 59.7786Z" stroke="white" stroke-width="4.4851"/>
<path d="M85.4879 59.7786C77.475 59.1014 70.5908 65.0829 69.9136 72.9829C69.2365 80.9957 75.2179 87.88 83.1179 88.5572C91.1308 89.2343 98.015 83.2529 98.6922 75.3529C99.3693 67.34 93.5008 60.4557 85.4879 59.7786Z" stroke="#002E3F" stroke-width="1.5878"/>
<path opacity="0.61" d="M85.3699 61.3586C78.2599 60.7943 72.0527 66.0986 71.4884 73.0957C70.9242 80.2057 76.2284 86.4129 83.2256 86.9771C90.3356 87.5414 96.5427 82.2371 97.107 75.24C97.7841 68.13 92.4799 61.9229 85.3699 61.3586Z" fill="#769FA5"/>
<path d="M64.7198 86.8643C64.0426 87.4286 64.1555 88.7829 65.1712 89.9115C66.0741 91.04 67.4283 91.3786 68.1055 90.8143L74.9898 84.9457C75.6669 84.3815 75.5541 83.0272 74.5383 81.8986C73.6355 80.77 72.2812 80.4315 71.6041 80.9957L64.7198 86.8643Z" fill="white"/>
<path d="M47.3399 100.069C45.9856 101.197 45.9856 103.454 47.3399 105.034C48.6942 106.614 50.8385 106.953 52.1928 105.824L65.2842 94.6515C66.6385 93.5229 66.6385 91.2658 65.2842 89.6858C63.9299 88.1058 61.7856 87.7672 60.4314 88.8957L47.3399 100.069Z" fill="#F58200"/>
<path d="M65.2852 89.6857L72.9594 83.14L65.2852 89.6857Z" stroke="#FFB700" stroke-width="0.4448"/>
<path opacity="0.56" d="M47.4508 102.551C47.2251 102.213 50.3851 99.1657 54.6737 95.5543C58.9623 92.0557 62.5737 89.46 62.9122 89.7986C63.138 90.1371 59.978 93.1843 55.6894 96.7957C51.4008 100.294 47.6765 102.89 47.4508 102.551Z" fill="white"/>
</svg>
