<svg xmlns="http://www.w3.org/2000/svg" viewBox="0 0 268.85 38.77"><title>address</title><g style="isolation:isolate"><g style="isolation:isolate"><path d="M5.4,15.6a4.1,4.1,0,0,1-3.24-1.29A5.26,5.26,0,0,1,1,10.67,5.44,5.44,0,0,1,2.18,6.93,4.17,4.17,0,0,1,5.49,5.61a6.5,6.5,0,0,1,1.39.15A4.82,4.82,0,0,1,8,6.11L7.52,7.35a7.21,7.21,0,0,0-1-.32,5.08,5.08,0,0,0-1-.13q-2.94,0-2.94,3.75a4.43,4.43,0,0,0,.72,2.72,2.5,2.5,0,0,0,2.12,1,6.41,6.41,0,0,0,2.47-.52v1.29A5.15,5.15,0,0,1,5.4,15.6Z" transform="translate(-0.16 -2.57)"/><path d="M16.61,7H13.48v8.38H12V7H8.93V5.79h7.68Z" transform="translate(-0.16 -2.57)"/><path d="M18.31,14.49a1.3,1.3,0,0,1,.27-.89.93.93,0,0,1,.76-.31,1,1,0,0,1,.8.31,1.25,1.25,0,0,1,.29.89,1.26,1.26,0,0,1-.29.88,1.18,1.18,0,0,1-1.54,0A1.24,1.24,0,0,1,18.31,14.49Z" transform="translate(-0.16 -2.57)"/><path d="M33,14l.27-.81.38-1L36.25,5.8H38.1v9.62H36.81V7.47L36.63,8l-.51,1.34-2.48,6.1H32.41L29.93,9.3a16,16,0,0,1-.64-1.83v8H28V5.8h1.79l2.52,6.11C32.54,12.56,32.77,13.26,33,14Z" transform="translate(-0.16 -2.57)"/><path d="M41,14.49a1.3,1.3,0,0,1,.27-.89,1,1,0,0,1,.77-.31,1,1,0,0,1,.79.31,1.25,1.25,0,0,1,.29.89,1.26,1.26,0,0,1-.29.88,1.17,1.17,0,0,1-1.53,0A1.2,1.2,0,0,1,41,14.49Z" transform="translate(-0.16 -2.57)"/><path d="M59.23,11.68a3.42,3.42,0,0,1-1.14,2.83,5.4,5.4,0,0,1-3.43.91H50.9V2.57h7.57V3.9H52.39V8.05h2a8.14,8.14,0,0,1,2.76.4A3.07,3.07,0,0,1,58.72,9.6,3.7,3.7,0,0,1,59.23,11.68Zm-6.84,2.45h2.1a4.06,4.06,0,0,0,2.43-.57,2.19,2.19,0,0,0,.76-1.88,2,2,0,0,0-.77-1.78,5.07,5.07,0,0,0-2.7-.53H52.39Z" transform="translate(-0.16 -2.57)"/><path d="M65.78,15.6a4.41,4.41,0,0,1-3.37-1.31,5,5,0,0,1-1.24-3.61A5.57,5.57,0,0,1,62.32,7,3.81,3.81,0,0,1,65.4,5.61,3.63,3.63,0,0,1,68.26,6.8a4.54,4.54,0,0,1,1.06,3.14v.93H62.68a3.81,3.81,0,0,0,.86,2.57,3,3,0,0,0,2.29.88,7.85,7.85,0,0,0,3.08-.65V15a8.35,8.35,0,0,1-1.47.48A7.91,7.91,0,0,1,65.78,15.6Zm-.4-8.77a2.37,2.37,0,0,0-1.85.76,3.46,3.46,0,0,0-.81,2.09h5a3.2,3.2,0,0,0-.61-2.11A2.17,2.17,0,0,0,65.38,6.83Z" transform="translate(-0.16 -2.57)"/><path d="M79,15.42H77.51V7H74.62A35.39,35.39,0,0,1,74,12a7,7,0,0,1-1.09,2.69,2.08,2.08,0,0,1-1.71.85,2.25,2.25,0,0,1-.76-.1V14.36a2,2,0,0,0,.44.05c.67,0,1.21-.71,1.61-2.14a34.63,34.63,0,0,0,.9-6.48H79Z" transform="translate(-0.16 -2.57)"/><path d="M90.4,10.59a5.31,5.31,0,0,1-1.19,3.68,4.15,4.15,0,0,1-3.28,1.33A4.35,4.35,0,0,1,83.64,15a4,4,0,0,1-1.55-1.74,6.13,6.13,0,0,1-.55-2.66,5.3,5.3,0,0,1,1.18-3.66A4.17,4.17,0,0,1,86,5.61,4.05,4.05,0,0,1,89.2,7,5.25,5.25,0,0,1,90.4,10.59Zm-7.34,0a4.6,4.6,0,0,0,.73,2.82,2.94,2.94,0,0,0,4.35,0,4.52,4.52,0,0,0,.74-2.82,4.46,4.46,0,0,0-.74-2.79,2.61,2.61,0,0,0-2.19-1,2.54,2.54,0,0,0-2.16.94A4.5,4.5,0,0,0,83.06,10.59Z" transform="translate(-0.16 -2.57)"/><path d="M97.44,15.6a4.2,4.2,0,0,1-1.72-.35,3.22,3.22,0,0,1-1.31-1.07h-.1a13,13,0,0,1,.1,1.6v4H93V5.79h1.19l.2,1.32h.07A3.46,3.46,0,0,1,95.72,6a4.06,4.06,0,0,1,1.72-.35,3.56,3.56,0,0,1,3,1.31,5.73,5.73,0,0,1,1,3.67,5.75,5.75,0,0,1-1.05,3.69A3.57,3.57,0,0,1,97.44,15.6Zm-.22-8.75a2.57,2.57,0,0,0-2.13.82,4.17,4.17,0,0,0-.68,2.6v.32a4.83,4.83,0,0,0,.68,2.91,2.57,2.57,0,0,0,2.17.87,2.26,2.26,0,0,0,2-1,4.79,4.79,0,0,0,.7-2.78,4.67,4.67,0,0,0-.7-2.77A2.35,2.35,0,0,0,97.22,6.85Z" transform="translate(-0.16 -2.57)"/><path d="M102.45,5.79H104l2.11,5.49A20.74,20.74,0,0,1,107,14h.07c.08-.3.24-.81.48-1.54s1-3,2.38-6.67h1.57l-4.14,11a5.42,5.42,0,0,1-1.44,2.3,3,3,0,0,1-2,.68,5.81,5.81,0,0,1-1.32-.15V18.43a5.09,5.09,0,0,0,1.08.1,2.22,2.22,0,0,0,2.14-1.69l.54-1.37Z" transform="translate(-0.16 -2.57)"/><path d="M116.9,15.6a4.12,4.12,0,0,1-3.24-1.29,5.31,5.31,0,0,1-1.14-3.64,5.49,5.49,0,0,1,1.16-3.74A4.19,4.19,0,0,1,117,5.61a6.57,6.57,0,0,1,1.39.15,5,5,0,0,1,1.09.35L119,7.35A7.21,7.21,0,0,0,118,7a5.17,5.17,0,0,0-1-.13Q114,6.9,114,10.65a4.43,4.43,0,0,0,.72,2.72,2.48,2.48,0,0,0,2.12,1,6.45,6.45,0,0,0,2.47-.52v1.29A5.22,5.22,0,0,1,116.9,15.6Z" transform="translate(-0.16 -2.57)"/><path d="M125.47,15.6a4.12,4.12,0,0,1-3.24-1.29,5.31,5.31,0,0,1-1.14-3.64,5.49,5.49,0,0,1,1.16-3.74,4.19,4.19,0,0,1,3.32-1.32,6.57,6.57,0,0,1,1.39.15,5,5,0,0,1,1.09.35l-.45,1.24A7,7,0,0,0,126.54,7a5,5,0,0,0-1-.13q-2.93,0-2.93,3.75a4.5,4.5,0,0,0,.71,2.72,2.51,2.51,0,0,0,2.13,1,6.45,6.45,0,0,0,2.47-.52v1.29A5.22,5.22,0,0,1,125.47,15.6Z" transform="translate(-0.16 -2.57)"/><path d="M135.81,5.79h1.6l-4.16,4.65,4.5,5h-1.7l-4.4-4.88v4.88h-1.46V5.79h1.46v4.68Z" transform="translate(-0.16 -2.57)"/><path d="M145.46,15.42l-.29-1.37h-.07a4.15,4.15,0,0,1-1.44,1.23,4.44,4.44,0,0,1-1.79.32,3.22,3.22,0,0,1-2.24-.74,2.7,2.7,0,0,1-.82-2.1q0-2.92,4.67-3.06l1.64,0v-.6a2.48,2.48,0,0,0-.49-1.68,2,2,0,0,0-1.56-.54,6.45,6.45,0,0,0-2.73.74l-.44-1.11a6.76,6.76,0,0,1,1.56-.61,6.56,6.56,0,0,1,1.7-.22,3.67,3.67,0,0,1,2.55.76,3.22,3.22,0,0,1,.83,2.46v6.57Zm-3.3-1a2.94,2.94,0,0,0,2.14-.75,2.74,2.74,0,0,0,.78-2.09v-.87l-1.46.06a5.42,5.42,0,0,0-2.51.55,1.61,1.61,0,0,0-.77,1.48,1.52,1.52,0,0,0,.48,1.21A2,2,0,0,0,142.16,14.39Z" transform="translate(-0.16 -2.57)"/><path d="M150,15.42h-1.71l2.77-4.07a3,3,0,0,1-1.71-.95,2.71,2.71,0,0,1-.59-1.78,2.61,2.61,0,0,1,.89-2.08,3.73,3.73,0,0,1,2.48-.75h4.29v9.63H155V11.57h-2.44Zm.18-6.79c0,1.12.81,1.67,2.43,1.67H155V7.05h-2.65C150.92,7.05,150.21,7.58,150.21,8.63Z" transform="translate(-0.16 -2.57)"/><path d="M161.07,13.33l.13.2a19.6,19.6,0,0,1-.66,2c-.29.78-.58,1.5-.9,2.17h-1.09c.15-.61.33-1.36.52-2.26s.32-1.61.4-2.15Z" transform="translate(-0.16 -2.57)"/><path d="M170.09,15.42h-1.46V5.79h8.08v9.63h-1.47V7.05h-5.15Z" transform="translate(-0.16 -2.57)"/><path d="M187,15.42h-1.48V7h-2.89a35.39,35.39,0,0,1-.66,5,7,7,0,0,1-1.09,2.69,2.08,2.08,0,0,1-1.71.85,2.25,2.25,0,0,1-.76-.1V14.36a2,2,0,0,0,.44.05c.67,0,1.21-.71,1.61-2.14a34.63,34.63,0,0,0,.9-6.48H187Z" transform="translate(-0.16 -2.57)"/><path d="M189.87,14.49a1.3,1.3,0,0,1,.27-.89,1,1,0,0,1,.77-.31,1,1,0,0,1,.79.31,1.25,1.25,0,0,1,.29.89,1.26,1.26,0,0,1-.29.88,1.06,1.06,0,0,1-.79.3,1.08,1.08,0,0,1-.75-.27A1.24,1.24,0,0,1,189.87,14.49Z" transform="translate(-0.16 -2.57)"/></g><g style="isolation:isolate"><path d="M5.72,37H4.23V25.5H.16V24.17H9.79V25.5H5.72Z" transform="translate(-0.16 -2.57)"/><path d="M19.32,29.8a1.82,1.82,0,0,1-.54,1.43,2.93,2.93,0,0,1-1.52.66V32a3.13,3.13,0,0,1,1.8.72,2,2,0,0,1,.57,1.53,2.43,2.43,0,0,1-1,2.07,4.8,4.8,0,0,1-2.89.73H11.5V27.39h4.23Q19.32,27.39,19.32,29.8ZM17.89,30a1,1,0,0,0-.54-1,3.47,3.47,0,0,0-1.64-.3H13v2.72h2.47A4,4,0,0,0,17.34,31,1.18,1.18,0,0,0,17.89,30Zm.28,4.17a1.23,1.23,0,0,0-.6-1.14,4,4,0,0,0-2-.35H13V35.8h2.68C17.33,35.8,18.17,35.24,18.17,34.12Z" transform="translate(-0.16 -2.57)"/><path d="M25.81,37.2a4.44,4.44,0,0,1-3.37-1.31,5,5,0,0,1-1.23-3.61,5.62,5.62,0,0,1,1.14-3.7,3.85,3.85,0,0,1,3.09-1.37A3.64,3.64,0,0,1,28.3,28.4a4.59,4.59,0,0,1,1.06,3.14v.93H22.72A3.76,3.76,0,0,0,23.58,35a2.94,2.94,0,0,0,2.29.88,7.63,7.63,0,0,0,3.07-.65v1.3a7.06,7.06,0,0,1-3.13.63Zm-.39-8.77a2.39,2.39,0,0,0-1.85.76,3.52,3.52,0,0,0-.82,2.09h5a3.2,3.2,0,0,0-.61-2.11A2.17,2.17,0,0,0,25.42,28.43Z" transform="translate(-0.16 -2.57)"/><path d="M36.33,37.2a4.2,4.2,0,0,1-1.72-.35,3.22,3.22,0,0,1-1.31-1.07h-.1a13,13,0,0,1,.1,1.6v4H31.84v-14H33l.2,1.32h.07a3.46,3.46,0,0,1,1.31-1.15,4.06,4.06,0,0,1,1.72-.35,3.56,3.56,0,0,1,3,1.31,5.74,5.74,0,0,1,1,3.68,5.74,5.74,0,0,1-1,3.68A3.57,3.57,0,0,1,36.33,37.2Zm-.22-8.75a2.57,2.57,0,0,0-2.13.82,4.17,4.17,0,0,0-.68,2.6v.33A4.81,4.81,0,0,0,34,35.1a2.57,2.57,0,0,0,2.17.87,2.23,2.23,0,0,0,2-1,4.71,4.71,0,0,0,.71-2.78,4.57,4.57,0,0,0-.71-2.77A2.32,2.32,0,0,0,36.11,28.45Z" transform="translate(-0.16 -2.57)"/><path d="M46.72,37.2a4.12,4.12,0,0,1-3.24-1.29,5.31,5.31,0,0,1-1.14-3.64,5.49,5.49,0,0,1,1.16-3.74,4.19,4.19,0,0,1,3.32-1.32,6.57,6.57,0,0,1,1.39.15,5,5,0,0,1,1.09.35L48.85,29a7,7,0,0,0-1.06-.32,5,5,0,0,0-1-.13q-2.93,0-2.93,3.75A4.5,4.5,0,0,0,44.56,35a2.49,2.49,0,0,0,2.13,1,6.45,6.45,0,0,0,2.47-.52v1.3A5.35,5.35,0,0,1,46.72,37.2Z" transform="translate(-0.16 -2.57)"/><path d="M57.06,27.39h1.6L54.5,32,59,37H57.3l-4.4-4.88V37H51.44V27.39H52.9v4.68Z" transform="translate(-0.16 -2.57)"/><path d="M66.71,37l-.29-1.37h-.07a4.15,4.15,0,0,1-1.44,1.23,4.44,4.44,0,0,1-1.79.32,3.22,3.22,0,0,1-2.24-.74,2.71,2.71,0,0,1-.82-2.1q0-2.93,4.67-3.06l1.64-.05v-.6A2.48,2.48,0,0,0,65.88,29a2,2,0,0,0-1.56-.54,6.45,6.45,0,0,0-2.73.74l-.44-1.12a7.23,7.23,0,0,1,1.56-.6,6.56,6.56,0,0,1,1.7-.22A3.67,3.67,0,0,1,67,28a3.22,3.22,0,0,1,.83,2.46V37Zm-3.3-1a3,3,0,0,0,2.14-.75,2.74,2.74,0,0,0,.78-2.09v-.87l-1.46.06a5.44,5.44,0,0,0-2.51.54,1.66,1.66,0,0,0-.77,1.5,1.51,1.51,0,0,0,.48,1.2A2,2,0,0,0,63.41,36Z" transform="translate(-0.16 -2.57)"/><path d="M71.28,37H69.57L72.34,33a3,3,0,0,1-1.71-1A2.71,2.71,0,0,1,70,30.22a2.61,2.61,0,0,1,.89-2.08,3.73,3.73,0,0,1,2.48-.75H77.7V37H76.24V33.17H73.8Zm.18-6.79c0,1.12.81,1.67,2.43,1.67h2.35V28.65H73.59C72.17,28.65,71.46,29.18,71.46,30.23Z" transform="translate(-0.16 -2.57)"/><path d="M87.3,31.39c1.82,0,2.74-.51,2.74-1.51s-.74-1.43-2.22-1.43a5.83,5.83,0,0,0-1.23.12,10.12,10.12,0,0,0-1.45.5l-.52-1.19a7.83,7.83,0,0,1,3.26-.67,4.48,4.48,0,0,1,2.62.68,2.18,2.18,0,0,1,1,1.86,2.1,2.1,0,0,1-1.8,2.12v.07a3.27,3.27,0,0,1,1.61.93,2.24,2.24,0,0,1,.51,1.51,2.35,2.35,0,0,1-1.07,2.07,5.15,5.15,0,0,1-3,.75,6.66,6.66,0,0,1-3.21-.63V35.24a7.6,7.6,0,0,0,3.25.75,3.44,3.44,0,0,0,1.91-.43,1.43,1.43,0,0,0,.65-1.26c0-1.11-.92-1.67-2.74-1.67H86.26V31.39Z" transform="translate(-0.16 -2.57)"/><path d="M100.08,37l-.29-1.37h-.07a4.15,4.15,0,0,1-1.44,1.23,4.39,4.39,0,0,1-1.78.32,3.23,3.23,0,0,1-2.25-.74,2.71,2.71,0,0,1-.81-2.1q0-2.93,4.66-3.06l1.64-.05v-.6A2.43,2.43,0,0,0,99.25,29a2,2,0,0,0-1.56-.54,6.37,6.37,0,0,0-2.72.74l-.45-1.12a7.23,7.23,0,0,1,1.56-.6,6.56,6.56,0,0,1,1.7-.22,3.65,3.65,0,0,1,2.55.76,3.18,3.18,0,0,1,.83,2.46V37Zm-3.29-1a3,3,0,0,0,2.14-.75,2.77,2.77,0,0,0,.77-2.09v-.87l-1.46.06a5.44,5.44,0,0,0-2.51.54,1.65,1.65,0,0,0-.76,1.5,1.54,1.54,0,0,0,.47,1.2A2,2,0,0,0,96.79,36Z" transform="translate(-0.16 -2.57)"/><path d="M108,37.2a4.1,4.1,0,0,1-3.24-1.29,5.26,5.26,0,0,1-1.15-3.64,5.44,5.44,0,0,1,1.17-3.74,4.17,4.17,0,0,1,3.31-1.32,6.5,6.5,0,0,1,1.39.15,4.65,4.65,0,0,1,1.09.35L110.14,29a7.21,7.21,0,0,0-1-.32,5.08,5.08,0,0,0-1-.13q-2.94,0-2.94,3.75a4.43,4.43,0,0,0,.72,2.72,2.47,2.47,0,0,0,2.12,1,6.37,6.37,0,0,0,2.47-.52v1.3A5.28,5.28,0,0,1,108,37.2Z" transform="translate(-0.16 -2.57)"/><path d="M119.23,28.63H116.1V37h-1.46V28.63h-3.09V27.39h7.68Z" transform="translate(-0.16 -2.57)"/><path d="M127.06,37l-.29-1.37h-.07a4.22,4.22,0,0,1-1.43,1.23,4.48,4.48,0,0,1-1.79.32,3.23,3.23,0,0,1-2.25-.74,2.71,2.71,0,0,1-.81-2.1c0-2,1.55-3,4.67-3.06l1.63-.05v-.6a2.43,2.43,0,0,0-.49-1.68,2,2,0,0,0-1.56-.54,6.37,6.37,0,0,0-2.72.74l-.45-1.12a7.23,7.23,0,0,1,1.56-.6,6.61,6.61,0,0,1,1.7-.22,3.65,3.65,0,0,1,2.55.76,3.18,3.18,0,0,1,.83,2.46V37Zm-3.29-1a3,3,0,0,0,2.14-.75,2.74,2.74,0,0,0,.78-2.09v-.87l-1.46.06a5.41,5.41,0,0,0-2.51.54,1.64,1.64,0,0,0-.77,1.5,1.51,1.51,0,0,0,.48,1.2A2,2,0,0,0,123.77,36Z" transform="translate(-0.16 -2.57)"/><path d="M139,29.8a1.82,1.82,0,0,1-.54,1.43,2.89,2.89,0,0,1-1.51.66V32a3.13,3.13,0,0,1,1.8.72,2.07,2.07,0,0,1,.56,1.53,2.43,2.43,0,0,1-1,2.07,4.78,4.78,0,0,1-2.88.73h-4.25V27.39h4.23C137.77,27.39,139,28.19,139,29.8Zm-1.42.15a1,1,0,0,0-.54-1,3.49,3.49,0,0,0-1.64-.3h-2.75v2.72h2.47A4,4,0,0,0,137,31,1.18,1.18,0,0,0,137.54,30Zm.27,4.17a1.22,1.22,0,0,0-.59-1.14,4,4,0,0,0-2-.35h-2.64V35.8h2.68Q137.81,35.8,137.81,34.12Z" transform="translate(-0.16 -2.57)"/><path d="M147.31,37,147,35.65H147a4.22,4.22,0,0,1-1.43,1.23,4.48,4.48,0,0,1-1.79.32,3.23,3.23,0,0,1-2.25-.74,2.71,2.71,0,0,1-.81-2.1c0-2,1.55-3,4.67-3.06l1.63-.05v-.6a2.43,2.43,0,0,0-.49-1.68,2,2,0,0,0-1.56-.54,6.37,6.37,0,0,0-2.72.74l-.45-1.12a7.23,7.23,0,0,1,1.56-.6,6.61,6.61,0,0,1,1.7-.22,3.65,3.65,0,0,1,2.55.76,3.18,3.18,0,0,1,.83,2.46V37ZM144,36a3,3,0,0,0,2.14-.75,2.74,2.74,0,0,0,.78-2.09v-.87l-1.46.06a5.41,5.41,0,0,0-2.51.54,1.66,1.66,0,0,0-.77,1.5,1.51,1.51,0,0,0,.48,1.2A2,2,0,0,0,144,36Z" transform="translate(-0.16 -2.57)"/><path d="M164.44,40.35H163V37H156.3v3.33h-1.41V35.76h.76A12.38,12.38,0,0,0,157.49,32a16.07,16.07,0,0,0,.7-4.62h4.87v8.37h1.38Zm-2.78-4.59V28.54H159.5a16,16,0,0,1-.76,4,11.07,11.07,0,0,1-1.58,3.27Z" transform="translate(-0.16 -2.57)"/><path d="M166.16,36.09a1.3,1.3,0,0,1,.27-.89.93.93,0,0,1,.76-.31,1,1,0,0,1,.8.31A1.5,1.5,0,0,1,168,37a1.15,1.15,0,0,1-1.54,0A1.24,1.24,0,0,1,166.16,36.09Z" transform="translate(-0.16 -2.57)"/><path d="M178.45,27.19a3,3,0,0,1-.69,2,3.42,3.42,0,0,1-1.95,1v.07a3.67,3.67,0,0,1,2.29,1,2.88,2.88,0,0,1,.75,2.07,3.37,3.37,0,0,1-1.28,2.83,5.78,5.78,0,0,1-3.62,1,10.57,10.57,0,0,1-1.86-.16,6.14,6.14,0,0,1-1.65-.54V35.11a7.52,7.52,0,0,0,1.78.63A8.25,8.25,0,0,0,174,36q3.33,0,3.33-2.61,0-2.34-3.68-2.34H172.4V29.75h1.28a3.87,3.87,0,0,0,2.38-.66,2.17,2.17,0,0,0,.88-1.84,1.8,1.8,0,0,0-.65-1.48,2.62,2.62,0,0,0-1.75-.54,5.51,5.51,0,0,0-1.59.23,7.25,7.25,0,0,0-1.7.85l-.74-1a6.35,6.35,0,0,1,1.82-1,6.6,6.6,0,0,1,2.18-.35,4.48,4.48,0,0,1,2.91.85A2.89,2.89,0,0,1,178.45,27.19Z" transform="translate(-0.16 -2.57)"/><path d="M183,34.93l.13.2a19.6,19.6,0,0,1-.66,2c-.28.78-.58,1.5-.89,2.17h-1.1c.16-.61.33-1.36.52-2.26s.32-1.61.4-2.15Z" transform="translate(-0.16 -2.57)"/><path d="M198.85,32.2a5.29,5.29,0,0,1-1.18,3.67,4.17,4.17,0,0,1-3.28,1.33,4.41,4.41,0,0,1-2.3-.61,4,4,0,0,1-1.54-1.74A6,6,0,0,1,190,32.2a5.27,5.27,0,0,1,1.18-3.67,4.14,4.14,0,0,1,3.27-1.32,4.05,4.05,0,0,1,3.21,1.35A5.25,5.25,0,0,1,198.85,32.2Zm-7.34,0a4.59,4.59,0,0,0,.74,2.81,2.94,2.94,0,0,0,4.35,0,4.57,4.57,0,0,0,.74-2.81,4.54,4.54,0,0,0-.74-2.8,2.63,2.63,0,0,0-2.19-.95,2.57,2.57,0,0,0-2.17.94A4.58,4.58,0,0,0,191.51,32.2Z" transform="translate(-0.16 -2.57)"/><path d="M211.73,32.2a4.82,4.82,0,0,1-1.25,3.48A5.18,5.18,0,0,1,207,37.16v4.18h-1.44V37.16a5.13,5.13,0,0,1-3.45-1.49,4.84,4.84,0,0,1-1.26-3.47,4.81,4.81,0,0,1,1.26-3.49,5.25,5.25,0,0,1,3.5-1.46V23.34H207v3.91a5.23,5.23,0,0,1,3.46,1.52A4.76,4.76,0,0,1,211.73,32.2Zm-9.34,0a4.07,4.07,0,0,0,.77,2.64A3.42,3.42,0,0,0,205.62,36V28.47a3.53,3.53,0,0,0-2.43,1.06A3.87,3.87,0,0,0,202.39,32.2Zm7.83,0q0-3.38-3.21-3.71V36a3.4,3.4,0,0,0,2.44-1.13A4.12,4.12,0,0,0,210.22,32.2Z" transform="translate(-0.16 -2.57)"/><path d="M214.07,36.09a1.35,1.35,0,0,1,.26-.89,1,1,0,0,1,.77-.31,1,1,0,0,1,.8.31,1.25,1.25,0,0,1,.28.89,1.22,1.22,0,0,1-.29.88,1,1,0,0,1-.79.31,1.06,1.06,0,0,1-.74-.28A1.2,1.2,0,0,1,214.07,36.09Z" transform="translate(-0.16 -2.57)"/><path d="M232.13,34.07h-1.91v3h-1.4v-3h-6.25V32.79l6.1-8.69h1.55v8.64h1.91Zm-3.31-1.33V28.47c0-.84,0-1.79.09-2.84h-.07a12.73,12.73,0,0,1-.79,1.4l-4,5.71Z" transform="translate(-0.16 -2.57)"/><path d="M237.38,29.17a4.74,4.74,0,0,1,3.2,1,3.43,3.43,0,0,1,1.16,2.75,4,4,0,0,1-1.27,3.13A5,5,0,0,1,237,37.2a6.44,6.44,0,0,1-3.31-.7V35.1a5.14,5.14,0,0,0,1.53.61,7.53,7.53,0,0,0,1.8.23,3.57,3.57,0,0,0,2.4-.73,2.63,2.63,0,0,0,.86-2.11c0-1.79-1.1-2.69-3.3-2.69a13.24,13.24,0,0,0-2.23.26l-.76-.49.49-6h6.39v1.35H235.7l-.33,3.85A10.62,10.62,0,0,1,237.38,29.17Z" transform="translate(-0.16 -2.57)"/><path d="M252.71,34.07H250.8v3h-1.39v-3h-6.25V32.79l6.1-8.69h1.54v8.64h1.91Zm-3.3-1.33V28.47c0-.84,0-1.79.09-2.84h-.08a12.73,12.73,0,0,1-.79,1.4l-4,5.71Z" transform="translate(-0.16 -2.57)"/><path d="M259.5,24.17,254.71,37h-1.46L258,24.17Z" transform="translate(-0.16 -2.57)"/><path d="M269,37h-8.45V35.76l3.38-3.4a22.86,22.86,0,0,0,2-2.23,5.62,5.62,0,0,0,.74-1.3,3.61,3.61,0,0,0,.25-1.36,2.14,2.14,0,0,0-.63-1.63,2.38,2.38,0,0,0-1.73-.61,4.21,4.21,0,0,0-1.51.27,5.76,5.76,0,0,0-1.6,1l-.77-1A5.92,5.92,0,0,1,264.59,24a4.06,4.06,0,0,1,2.84.92,3.18,3.18,0,0,1,1,2.49,4.85,4.85,0,0,1-.68,2.42,15.58,15.58,0,0,1-2.57,3L262.4,35.6v.07H269Z" transform="translate(-0.16 -2.57)"/></g></g></svg>