<svg id="Layer_1" data-name="Layer 1" xmlns="http://www.w3.org/2000/svg" viewBox="0 0 46.46 40.39"><title>bag</title><path d="M16.53,4V3.86A1.07,1.07,0,0,1,17.6,2.79H28.87a1.08,1.08,0,0,1,1.07,1.07l.21,2.37a99.88,99.88,0,0,1-13.84,0Zm4.39,13.52H46.46V11.91c0-2.47-2-3.65-4.4-4.4,0,0-4.18-.64-9.12-1.07l-.21-2.58A3.84,3.84,0,0,0,28.87,0H17.6a3.85,3.85,0,0,0-3.87,3.86l-.21,2.58C8.58,6.87,4.4,7.51,4.4,7.51,1.93,8.26,0,9.44,0,11.91v5.58Z" fill="#73d3f9" fill-rule="evenodd"/><path d="M46.46,22.61V17.35H0V34.63c0,2.46,1.93,3.65,4.4,4.4a130.56,130.56,0,0,0,37.66,0c2.58-.75,4.4-1.94,4.4-4.4V25.18h0V22.61Z" fill="#6c6c6a" fill-rule="evenodd"/></svg>