<svg id="Layer_1" data-name="Layer 1" xmlns="http://www.w3.org/2000/svg" viewBox="0 0 43.07 39.24"><title>calc</title><path d="M39.58,34.73V2.63A2.7,2.7,0,0,0,36.9,0a2.62,2.62,0,0,0-2.63,2.63V6.11H8.85V2.63a2.66,2.66,0,0,0-5.31,0v32.1H0v4.51H43.07V34.73ZM8.85,7.54H34.27v8.68H8.85Zm0,10.11H34.27v8.74H8.85Zm0,17.08V27.82H34.27v6.91Z" fill="#6c6c6a"/><path d="M15.65,2.63a2,2,0,0,0-2.06,2.05V9a2.06,2.06,0,0,0,4.12,0V4.68A2,2,0,0,0,15.65,2.63Z" fill="#73d3f9"/><path d="M22.51,2.63a2,2,0,0,0-2.06,2.05V9a2.06,2.06,0,0,0,4.11,0V4.68A2,2,0,0,0,22.51,2.63Z" fill="#73d3f9"/><path d="M30.05,22.91A2,2,0,0,0,28,25v4.29a2.06,2.06,0,0,0,4.11,0V25A2.11,2.11,0,0,0,30.05,22.91Z" fill="#73d3f9"/><path d="M23.25,22.91A2,2,0,0,0,21.19,25v4.29a2.06,2.06,0,0,0,4.11,0V25A2.11,2.11,0,0,0,23.25,22.91Z" fill="#73d3f9"/></svg>