<svg xmlns="http://www.w3.org/2000/svg" xmlns:xlink="http://www.w3.org/1999/xlink" preserveAspectRatio="xMidYMid" width="12" height="12" viewBox="0 0 12 12">
  <path d="M10.000,9.999 C10.000,9.999 8.000,9.999 8.000,9.999 C8.000,9.999 8.000,8.000 8.000,8.000 C8.000,8.000 10.000,8.000 10.000,8.000 C10.000,8.000 10.000,9.999 10.000,9.999 ZM7.000,4.999 C7.000,4.999 5.000,4.999 5.000,4.999 C5.000,4.999 5.000,6.999 5.000,6.999 C5.000,6.999 7.000,6.999 7.000,6.999 C7.000,6.999 7.000,4.999 7.000,4.999 ZM10.000,4.999 C10.000,4.999 8.000,4.999 8.000,4.999 C8.000,4.999 8.000,6.999 8.000,6.999 C8.000,6.999 10.000,6.999 10.000,6.999 C10.000,6.999 10.000,4.999 10.000,4.999 ZM4.000,8.000 C4.000,8.000 2.000,8.000 2.000,8.000 C2.000,8.000 2.000,9.999 2.000,9.999 C2.000,9.999 4.000,9.999 4.000,9.999 C4.000,9.999 4.000,8.000 4.000,8.000 ZM7.000,8.000 C7.000,8.000 5.000,8.000 5.000,8.000 C5.000,8.000 5.000,9.999 5.000,9.999 C5.000,9.999 7.000,9.999 7.000,9.999 C7.000,9.999 7.000,8.000 7.000,8.000 ZM4.000,4.999 C4.000,4.999 2.000,4.999 2.000,4.999 C2.000,4.999 2.000,6.999 2.000,6.999 C2.000,6.999 4.000,6.999 4.000,6.999 C4.000,6.999 4.000,4.999 4.000,4.999 ZM12.000,0.999 C12.000,0.999 12.000,11.999 12.000,11.999 C12.000,11.999 -0.000,11.999 -0.000,11.999 C-0.000,11.999 -0.000,0.999 -0.000,0.999 C-0.000,0.999 1.500,0.999 1.500,0.999 C1.500,0.999 1.500,1.499 1.500,1.499 C1.500,2.051 1.948,2.499 2.500,2.499 C3.051,2.499 3.500,2.051 3.500,1.499 C3.500,1.499 3.500,0.999 3.500,0.999 C3.500,0.999 8.500,0.999 8.500,0.999 C8.500,0.999 8.500,1.499 8.500,1.499 C8.500,2.051 8.948,2.499 9.500,2.499 C10.051,2.499 10.500,2.051 10.500,1.499 C10.500,1.499 10.500,0.999 10.500,0.999 C10.500,0.999 12.000,0.999 12.000,0.999 ZM11.000,3.999 C11.000,3.999 1.000,3.999 1.000,3.999 C1.000,3.999 1.000,10.999 1.000,10.999 C1.000,10.999 11.000,10.999 11.000,10.999 C11.000,10.999 11.000,3.999 11.000,3.999 ZM10.000,0.499 C10.000,0.223 9.776,-0.001 9.500,-0.001 C9.223,-0.001 9.000,0.223 9.000,0.499 C9.000,0.499 9.000,1.499 9.000,1.499 C9.000,1.775 9.223,1.999 9.500,1.999 C9.776,1.999 10.000,1.775 10.000,1.499 C10.000,1.499 10.000,0.499 10.000,0.499 ZM3.000,1.499 C3.000,1.775 2.776,1.999 2.500,1.999 C2.223,1.999 2.000,1.775 2.000,1.499 C2.000,1.499 2.000,0.499 2.000,0.499 C2.000,0.223 2.223,-0.001 2.500,-0.001 C2.776,-0.001 3.000,0.223 3.000,0.499 C3.000,0.499 3.000,1.499 3.000,1.499 Z" fill-rule="evenodd"/>
</svg>
