<svg xmlns="http://www.w3.org/2000/svg" xmlns:xlink="http://www.w3.org/1999/xlink" viewBox="0 0 800 800"><defs><filter id="luminosity-noclip" x="506.47" y="-8592" width="224.78" height="32766" filterUnits="userSpaceOnUse" color-interpolation-filters="sRGB"><feFlood flood-color="#fff" result="bg"/><feBlend in="SourceGraphic" in2="bg"/></filter><mask id="mask" x="506.47" y="-8592" width="224.78" height="32766" maskUnits="userSpaceOnUse"><g filter="url(#luminosity-noclip)"/></mask><linearGradient id="ЃезымЯнный_градиент_3" x1="506.47" y1="415.48" x2="731.25" y2="415.48" gradientUnits="userSpaceOnUse"><stop offset="0" stop-color="#fff"/><stop offset="0.78"/></linearGradient><filter id="luminosity-noclip-2" x="0.67" y="-8592" width="730.7" height="32766" filterUnits="userSpaceOnUse" color-interpolation-filters="sRGB"><feFlood flood-color="#fff" result="bg"/><feBlend in="SourceGraphic" in2="bg"/></filter><mask id="mask-2" x="0.67" y="-8592" width="730.7" height="32766" maskUnits="userSpaceOnUse"><g filter="url(#luminosity-noclip-2)"/></mask><linearGradient id="ЃезымЯнный_градиент_2" x1="0.67" y1="355.93" x2="731.37" y2="355.93" gradientUnits="userSpaceOnUse"><stop offset="0"/><stop offset="1" stop-color="#fff"/></linearGradient><filter id="luminosity-noclip-3" x="506.47" y="383.12" width="224.78" height="64.71" filterUnits="userSpaceOnUse" color-interpolation-filters="sRGB"><feFlood flood-color="#fff" result="bg"/><feBlend in="SourceGraphic" in2="bg"/></filter><mask id="mask-3" x="505.92" y="382.56" width="224.78" height="64.71" maskUnits="userSpaceOnUse"><g filter="url(#luminosity-noclip-3)"><g transform="translate(-0.56 -0.56)"><g mask="url(#mask)"><polygon points="507.93 408.44 727.68 447.83 731.25 383.12 506.48 383.12 507.93 408.44" fill="url(#ЃезымЯнный_градиент_3)" style="mix-blend-mode:multiply"/></g></g></g></mask><filter id="luminosity-noclip-4" x="0.67" y="99.14" width="730.7" height="513.57" filterUnits="userSpaceOnUse" color-interpolation-filters="sRGB"><feFlood flood-color="#fff" result="bg"/><feBlend in="SourceGraphic" in2="bg"/></filter><mask id="mask-4" x="0.11" y="98.59" width="730.7" height="513.57" maskUnits="userSpaceOnUse"><g filter="url(#luminosity-noclip-4)"><g transform="translate(-0.56 -0.56)"><g mask="url(#mask-2)"><polygon points="514.32 546.11 496.68 379.65 731.37 383.02 11.73 99.14 0.67 612.72 514.32 546.11" fill="url(#ЃезымЯнный_градиент_2)" style="mix-blend-mode:multiply"/></g></g></g></mask><linearGradient id="linear-gradient" x1="0.11" y1="355.37" x2="730.81" y2="355.37" gradientUnits="userSpaceOnUse"><stop offset="0" stop-color="#5e38ab"/><stop offset="1" stop-color="#ffffe0"/></linearGradient><clipPath id="clip-path" transform="translate(-0.56 -0.56)"><rect x="425.19" y="334.79" width="15.12" height="14.37" transform="translate(-11.28 14.78) rotate(-1.93)" fill="none"/></clipPath><clipPath id="clip-path-2" transform="translate(-0.56 -0.56)"><rect x="498.63" y="281" width="12.63" height="13.3" fill="none"/></clipPath></defs><title>cooperation</title><g style="isolation:isolate"><g id="bag_with_money" data-name="bag with money"><rect width="800" height="800" fill="#abddef"/><path d="M273.46,428.05s-4.37,3.43-12,3.17-16.17-6-16.17-6a16.44,16.44,0,0,0,4.43-2.94v0a11.09,11.09,0,0,0,3.73-7c1-9.5-.86-13.33-.86-13.33l14.51,1.49a33.82,33.82,0,0,0,.22,10.77h0a22,22,0,0,0,.54,2.39A36,36,0,0,0,273.46,428.05Z" transform="translate(-0.56 -0.56)" fill="#ffac73"/><path d="M267.34,414.18a36.82,36.82,0,0,0-6.54,1.4c-4.54,1.35-11.06,6.73-11.06,6.73v0a11.09,11.09,0,0,0,3.73-7c1-9.5-.86-13.33-.86-13.33l14.51,1.49A33.82,33.82,0,0,0,267.34,414.18Z" transform="translate(-0.56 -0.56)" fill="#e3784e"/><polygon points="146.28 580.16 123.03 478.75 157.84 467.51 176.05 580.76 146.28 580.16" fill="#52415e"/><polygon points="157.84 467.51 266.79 469.62 272.9 581.77 176.05 580.76 157.84 467.51" fill="#443551"/><polygon points="182.55 467.99 160.38 483.27 136.33 536.75 146.28 580.16 215.37 580.76 207.45 528.6 182.55 467.99" fill="#230100" opacity="0.32"/><path d="M394.73,544.89c5,.58,22.14-11.85,29.23-12s25.54.64,25.54.64-1.36,4-9.09,4.71a71.35,71.35,0,0,0-15,3.33s8.39,5.09,17.41,6.35,15.58-.1,17.64,1.33-10.84,4.89-17.09,4.12a73.06,73.06,0,0,0-8.56-.75,65.12,65.12,0,0,0,13.62,1.35c7.94,0,14.94-2.42,16.71-1.1s-10.23,6.44-21.76,6.72c-7.43.18-10.91-1.2-10.91-1.2s3.74.93,12.52,1.12,14.19-2.74,15.44-1.23-10.84,6.31-19.47,6.24-11.75-1.12-11.75-1.12a46.43,46.43,0,0,0,11.47,2.21c6.49.44,15.55-2.93,14-1.13s-12.24,8.68-26.58,4.83c-9.86-2.66-33.26-12.89-37.58-14.91S389.75,544.3,394.73,544.89Z" transform="translate(-0.56 -0.56)" fill="#ffac73"/><path d="M443.9,547.78l-5.12,10.57L433.59,569s-35.31-8.89-64.64-15.39C352.34,550,318.5,504,316.25,501l-.07-.12,0,0s-1,9.52-1.63,21.32a250.91,250.91,0,0,0-.14,27.26c.05.51.06,1,.11,1.55v0c1.28,18.72,4.18,46.27,4.18,46.27l-103.62,3.09a225.88,225.88,0,0,1-3.56-24c-5.45.49-13.46-.3-14.43-1.06-6.18-5-15.28-96.32-14.22-126.13.16-4.74.69-7.89,1.68-8.89,6.18-6.43,60.78-15.05,60.78-15.05l28.15,2.81s34.86,2.29,48.67,5.56c2.53.6,4.33,1.24,5.11,1.9a5.65,5.65,0,0,1,.6.66c4.51,5.61,26.92,41.52,40.78,63,5.77,9,10.05,15.37,10.94,16C388.84,522.17,443.9,547.78,443.9,547.78Z" transform="translate(-0.56 -0.56)" fill="#f93d31"/><path d="M282,428.69s-4.11,39.3-8.55,38.53c-.61-.11-1.72-1-3.18-2.34-9.14-8.7-32-38.48-32-38.48l9.24-2.4s6-6.91,14.36-7.43c8.59-.52,10.77,10.4,10.77,10.4l4.59.84Z" transform="translate(-0.56 -0.56)" fill="#d8fff2"/><path d="M238.31,426.41l-7.6,1.34s36.8,48.7,45.91,48.06,11.15-46.64,11.15-46.64l-5.77-.48s-3.69,36.44-8.54,36.86C269.05,465.93,238.31,426.41,238.31,426.41Z" transform="translate(-0.56 -0.56)" fill="#ffc4cb"/><path d="M322.13,433.62c-1.64.24-38.59-6.42-72.39,12.56-24.19,13.59-66.89,3-66.89,3,.16-4.72.69-7.88,1.68-8.88,6.18-6.43,60.78-15,60.78-15l28.15,2.8S308.32,430.33,322.13,433.62Z" transform="translate(-0.56 -0.56)" fill="#590800" opacity="0.2"/><polygon points="331.83 326.2 318.34 330.37 317.38 335.7 332.97 332.52 331.83 326.2" fill="#443551"/><path d="M329.46,371.55c-.19,5.27-5.36,18.24-25.31,25.91l-.08,0c-8.16,3.14-18.79,5.4-32.58,5.87-54.89,1.89-75.41-45.14-82.08-81.05a72.74,72.74,0,0,1-1.09-8.76,56.4,56.4,0,0,1,0-7c.88-14.11,7.38-25.69,20.64-33.59,12.31-7.36,30.45-11.57,55.36-11.69,23.33-.13,36.79,5.52,44.79,12.84,8.7,8,10.94,18,12.41,24.85a36.42,36.42,0,0,1,.62,9c-.41,12.78-5,28.6-5,35.15C317.14,351.27,329.72,364.12,329.46,371.55Z" transform="translate(-0.56 -0.56)" fill="#ffac73"/><path d="M224.12,304.67c-4.1,3.94-17.81,51.7,11.29,80.82,23.78,23.79,66.53,12.48,68.66,12-8.16,3.14-18.79,5.4-32.58,5.87-54.89,1.89-75.41-45.14-82.08-81.05a72.74,72.74,0,0,1-1.09-8.76v-7c.88-14.11,7.38-25.69,20.64-33.59l40.77-5.27,59.38,6.42c8.7,8,10.94,18,12.41,24.85a36.42,36.42,0,0,1,.62,9c-2.49-5.32-12.09-14.49-26.87-16.74C268.32,287.08,228.23,300.73,224.12,304.67Z" transform="translate(-0.56 -0.56)" fill="#e3784e"/><path d="M318.31,335.3c0,12.07-5.26,21.85-11.75,21.85s-11.75-9.78-11.75-21.85,5.26-21.85,11.75-21.85S318.31,323.23,318.31,335.3Z" transform="translate(-0.56 -0.56)" fill="#fff"/><path d="M316.21,342.22c-.58,6.46-5,11.35-9.81,10.91s-8.28-6-7.7-12.5,5-11.35,9.81-10.91S316.79,335.75,316.21,342.22Z" transform="translate(-0.56 -0.56)" fill="#a43113"/><path d="M315,343.3c-.42,4.63-3.56,8.13-7,7.82s-5.93-4.33-5.52-9,3.57-8.13,7-7.82S315.41,338.66,315,343.3Z" transform="translate(-0.56 -0.56)" fill="#722e00"/><path d="M305.18,341.42c0,.8-2.06,1.45-4.61,1.45s-4.62-.65-4.62-1.45S298,340,300.57,340,305.18,340.63,305.18,341.42Z" transform="translate(-0.56 -0.56)" fill="#fff"/><path d="M238.1,335.5c0,13.67,6.5,24.75,14.51,24.75s14.51-11.08,14.51-24.75-6.5-24.74-14.51-24.74S238.1,321.84,238.1,335.5Z" transform="translate(-0.56 -0.56)" fill="#fff"/><path d="M245.86,341c0,7.29,4.42,13.19,9.87,13.19s9.86-5.9,9.86-13.19-4.42-13.18-9.86-13.18S245.86,333.68,245.86,341Z" transform="translate(-0.56 -0.56)" fill="#a43113"/><path d="M249.72,341.83c0,5.21,3.17,9.45,7.07,9.45s7.07-4.24,7.07-9.45-3.17-9.45-7.07-9.45S249.72,336.61,249.72,341.83Z" transform="translate(-0.56 -0.56)" fill="#722e00"/><path d="M252.61,339.18c0,1-2.55,1.78-5.7,1.78s-5.7-.8-5.7-1.78,2.55-1.79,5.7-1.79S252.61,338.19,252.61,339.18Z" transform="translate(-0.56 -0.56)" fill="#fff"/><path d="M257.33,365.51s15.86,7.07,28.3,9.37A109.24,109.24,0,0,0,310,376.62h0s-14.08,14.71-30.27,14.71c-16.93,0-21.9-22.32-21.9-22.32Z" transform="translate(-0.56 -0.56)" fill="#5b1800"/><path d="M249.85,323.42c-2.08,3.28-4.46,5.5-5.33,4.95s.12-3.65,2.2-6.93,4.47-5.51,5.33-5S251.93,320.13,249.85,323.42Z" transform="translate(-0.56 -0.56)" fill="#fff"/><path d="M309,323.42c-2.08,3.28-4.47,5.5-5.33,4.95s.12-3.65,2.2-6.93,4.46-5.51,5.33-5S311,320.13,309,323.42Z" transform="translate(-0.56 -0.56)" fill="#fff"/><polygon points="282.61 328.81 295.39 328.81 294.7 331.93 282.61 331.93 282.61 328.81" fill="#443551"/><path d="M295.26,334.11s2.3,26.11,20.59,26.11,17.67-27.71,17.67-27.71-2.62-24.34-18.93-24.34S295.26,334.11,295.26,334.11Z" transform="translate(-0.56 -0.56)" fill="#fff" opacity="0.53"/><path d="M237.66,335s2.71,26.85,24.16,26.85,20.74-28.5,20.74-28.5-4.69-25-24.39-25C239,308.27,237.66,335,237.66,335Z" transform="translate(-0.56 -0.56)" fill="#fff" opacity="0.53"/><path d="M314.51,306.82c-11.15,0-20.19,12.29-20.19,27.46s9,27.45,20.19,27.45,20.19-12.29,20.19-27.45S325.66,306.82,314.51,306.82Zm0,51.77c-9.88,0-17.88-10.89-17.88-24.31s8-24.32,17.88-24.32,17.88,10.89,17.88,24.32S324.38,358.59,314.51,358.59Z" transform="translate(-0.56 -0.56)" fill="#443551"/><path d="M260,306.9c-13.08,0-23.69,12.64-23.69,28.23S246.9,363.35,260,363.35s23.68-12.63,23.68-28.22S273.06,306.9,260,306.9Zm0,53.23c-11.59,0-21-11.2-21-25s9.39-25,21-25,21,11.19,21,25S271.56,360.13,260,360.13Z" transform="translate(-0.56 -0.56)" fill="#443551"/><path d="M201.68,360.13s-19.62-11.35-32.44-7.22,4.09,26.63,19,31.46,24-7.55,24-7.55Z" transform="translate(-0.56 -0.56)" fill="#e3784e"/><path d="M325.64,309a48,48,0,0,0-2-20.54c-3.39-10-11.08-18.19-11.9-19,.76,1,7,9,9.66,17.51a87.7,87.7,0,0,1,3.35,18.61s-2.71-21.06-29.94-26.06c-19.72-3.61-39.09,11.28-61.81,10-20.74-1.17-24.62-3.2-24.62-3.2s-5.52,24.38-3.2,43.09,13.73,40.14,13.73,40.14l-10.92.63a71.2,71.2,0,0,0-23.37-16.89s-23.84-36.32-23.7-55.56c.15-18.1,34.13-27.95,34.13-27.95a83.18,83.18,0,0,1,5.51-7.8l0,0v0c12.27-15.57,44.3-47.58,91.06-30.9,14.32,5.09,23.49,12.78,29.24,21.36C337.11,276.52,326.05,307.86,325.64,309Z" transform="translate(-0.56 -0.56)" fill="#5b1800"/><path d="M232.94,299.3s8.77-7,19.41-9.66,16.55-2.56,16.55-2.56v5.13l3.2-5.13s.13,6.41-2.18,8.33-8.83,2.17-17.31,3.21a61.94,61.94,0,0,0-18.85,6.05Z" transform="translate(-0.56 -0.56)" fill="#5b1800"/><path d="M283.12,366.65s9.66,5.11,16.84,2.2,6.69-8.94,4.19-15.78-12.23-20.59-12.23-20.59Z" transform="translate(-0.56 -0.56)" fill="#ffac73"/><path d="M279.31,364.3s4.07,3.84,11.93,5.95c9.33,2.49,16.22,1.64,19.49-3.25,3.5-5.22-17.06-31.74-17.06-31.74s15.45,23.41,12.15,28.93C300,374,279.31,364.3,279.31,364.3Z" transform="translate(-0.56 -0.56)" fill="#e3784e"/><path d="M260.11,367.83s14.69,6.75,27.6,8.72,16.18,1.11,16.18,1.11l-6.32,4.57S290,383.94,278,379.84s-17.88-9.7-17.88-9.7Z" transform="translate(-0.56 -0.56)" fill="#fff"/><path d="M267.12,383.35a31.69,31.69,0,0,0,10.23,4.53,34.75,34.75,0,0,0,10.08,1s-6.11,3.21-11.41,1.24A22.5,22.5,0,0,1,267.12,383.35Z" transform="translate(-0.56 -0.56)" fill="#fff"/><polygon points="186.48 353.35 237.11 330.37 237.78 339.42 190.48 354.67 186.48 353.35" fill="#443551"/><path d="M320.9,252.35c-6.22.74-19.17,1-43.26-3.24-37.12-6.59-76,12.31-77,12.8v0c12.27-15.57,44.3-47.58,91.06-30.9C306,236.08,315.15,243.77,320.9,252.35Z" transform="translate(-0.56 -0.56)" fill="#935138" opacity="0.61"/><path d="M234.81,261.91s42.51-10,62.84,0c20.56,10.13,22.4,26.28,22.4,26.28s-7.47-12.65-38.13-20.51S234.81,261.91,234.81,261.91Z" transform="translate(-0.56 -0.56)" fill="#935138" opacity="0.61"/><path d="M318.68,597.25l-4.18-46.31c0-.51-36.59,9.63-59.77-2.59-18.81-9.92-29.41-56.25-29.41-56.25s6.78,51.69,9.86,52.44c1.4.35,15.65,8.19,35.45,21.12l-59.12,10.71,3.55,24s25.65-7.18,47.45-11.8a131.51,131.51,0,0,1,39.25-2.44C311.74,592.66,318.68,597.25,318.68,597.25Z" transform="translate(-0.56 -0.56)" fill="#b70400"/><path d="M438.78,558.35,433.59,569s-35.31-8.88-64.64-15.39C352.33,550,318.5,504,316.26,501l-.08-.12c.51.47,17.4,16.49,35.33,23.8C369.73,532.11,438.78,558.35,438.78,558.35Z" transform="translate(-0.56 -0.56)" fill="#b70400"/><path d="M208,370.13l-10-1.38s-8.94-8.66-17.66-11.48a21.32,21.32,0,0,0-15.65.94s0-10.24,19.93-5A39.85,39.85,0,0,1,208,370.13Z" transform="translate(-0.56 -0.56)" fill="#ffac73"/><polygon points="436.45 543.99 428.63 567.39 433.03 568.49 443.36 547.23 436.45 543.99" fill="#ffc4cb"/><polygon points="233.07 497.26 243.29 503.81 251.58 496.08 251.18 489.85 242.76 496.49 231.97 490.66 233.07 497.26" fill="#ffe2e6"/><polygon points="253.25 496.42 263.48 502.96 271.77 495.24 271.37 489.01 262.94 495.65 252.16 489.82 253.25 496.42" fill="#ffe2e6"/><polygon points="273.87 494.66 284.1 501.2 292.39 493.47 291.99 487.25 283.56 493.88 272.78 488.05 273.87 494.66" fill="#ffe2e6"/><polygon points="294.28 493.35 304.5 499.9 312.79 492.17 312.4 485.94 303.97 492.58 293.18 486.75 294.28 493.35" fill="#ffe2e6"/><polygon points="245.84 512.52 256.07 519.06 264.36 511.33 263.96 505.11 255.53 511.75 244.75 505.91 245.84 512.52" fill="#ffe2e6"/><polygon points="266.03 511.68 276.26 518.22 284.54 510.5 284.15 504.27 275.72 510.91 264.94 505.07 266.03 511.68" fill="#ffe2e6"/><polygon points="286.65 509.91 296.88 516.46 305.17 508.73 304.77 502.5 296.34 509.14 285.56 503.31 286.65 509.91" fill="#ffe2e6"/><path d="M375.91,525.2s-4.81-4.27-21.08-12.41-38.65-11.93-38.65-11.93.58-20.43,3.71-36.89a219.86,219.86,0,0,1,7.35-28.46l.6.66c4.51,5.61,26.92,41.52,40.78,63Z" transform="translate(-0.56 -0.56)" fill="#fff" opacity="0.49"/><path d="M460.39,590.89c-.89.89-31.1-6.88-65.18-7.54l-3,0c-33.2-.3-59.91,5.47-62.51,4.59-1.44-.5-1-2.71-.06-5.25.77-2.18,1.9-4.55,2.43-6.29,1.21-3.77-8.21-35.26,1.46-71.53,11.05-41.48,43.3-87.84,45.3-90.71l.11-.13,26.25,5.6s4,5.9,9.69,15c3.3,5.25,7.16,11.59,11.16,18.48,4.26,7.35,8.68,15.35,12.74,23.37,7.44,14.7,13.64,29.49,15.36,40.52a169.64,169.64,0,0,1,.69,46.87c-.86,6.92-1.83,11.34-1.83,12.5C453,579.32,461.3,590,460.39,590.89Z" transform="translate(-0.56 -0.56)" fill="#5fad42"/><path d="M367.77,483.85c-22.93,32.6-19.54,91-16.78,92.52s73.88,7.28,73.88,7.28l-29.66-.3-3,0-62.58-.66c.78-2.16,1.9-4.54,2.44-6.28,1.2-3.78-8.21-35.26,1.46-71.54,11-41.46,43.3-87.83,45.3-90.69l.1-.14,11.86,5.61,24.08,15,1.53.95L426,453.11S390.69,451.24,367.77,483.85Z" transform="translate(-0.56 -0.56)" fill="#102100" opacity="0.2"/><polygon points="502.19 433.34 425.83 425.85 425.83 440.23 511.67 475.26 502.19 433.34" fill="#ffac73"/><path d="M432.55,430.23c-5.11-1.39-17-20.32-23.88-23.29s-25.27-9.43-25.27-9.43-.22,4.44,7.05,8.19a75.91,75.91,0,0,1,13.42,9.18s-10.21,1.68-19.54-.63-8.19-5.06-10.77-4.47,1.8,7.42,8.08,9.59,4.58,1.5,4.58,1.5-2.89.07-9-3.29c-7.34-4-5-6.49-7.23-5.9s-2,9,9.2,13.77c7.21,3.1,7.29,2.23,7.29,2.23s-.17.33-8.83-2.93-7.63-7.27-9.45-6.28,2.34,10,10.82,13.36,9.77,1.64,9.77,1.64-2.68,1.1-9.33-1.06-9.31-7.4-10.29-4.61c-.85,2.39,5.63,11.33,21.2,13.2,10.7,1.28,37.64.47,42.65.19S437.65,431.63,432.55,430.23Z" transform="translate(-0.56 -0.56)" fill="#ffac73"/><polygon points="526.91 587.2 527.47 581.05 610.93 580.3 596.03 587.2 526.91 587.2" fill="#253854"/><polygon points="642.4 550.13 640.01 582.01 623.21 582.01 611.95 550.3 642.4 550.13" fill="#3c4c66"/><polygon points="590.71 588.16 620.5 574.37 640.32 574.37 674.88 588.16 590.71 588.16" fill="#3c4c66"/><polygon points="642.4 550.13 612.59 550.13 617.55 564.11 641.66 558.07 642.4 550.13" fill="#253854"/><polygon points="639.91 574.37 647.21 588.16 674.47 588.16 639.91 574.37" fill="#253854"/><polygon points="737.98 382.88 505.41 382.88 516.38 552.14 727.46 552.04 737.98 382.88" fill="#586680"/><path d="M730.46,513.33s-50.92-1.93-118-18.3-103.16-59.46-103.16-59.46l7.58,117.13L728,552.6Z" transform="translate(-0.56 -0.56)" fill="#3c4c66" opacity="0.83"/><polygon points="516.38 552.14 514.13 550.13 496.01 379.2 737.98 382.88 505.41 382.88 516.38 552.14" fill="#89cadb"/><polygon points="737.98 382.88 727.46 552.04 723.42 552.04 730.7 382.88 737.98 382.88" fill="#3c4c66"/><g mask="url(#mask-3)"><polygon points="507.38 407.89 727.13 447.28 730.7 382.56 505.92 382.56 507.38 407.89" opacity="0.21" fill="url(#ЃезымЯнный_градиент_3)" style="mix-blend-mode:color-dodge"/></g><path d="M503.13,441.7s-2.61,15.75-19.13,16.88c-12.63.87-56.12-17.19-56.12-17.19l78.62,32.09Z" transform="translate(-0.56 -0.56)" fill="#e3784e"/><path d="M428.37,384.51,407.81,410l-3.95,4.9s-11.05,1.64-19.08-.52-9-3.9-9-3.9l-18.72-26.3s16.35-17.35,28.2-8.94,19.82,13.6,30.89,11.82C426.58,385.39,428.2,384.6,428.37,384.51Z" transform="translate(-0.56 -0.56)" fill="#5fad42"/><path d="M428.37,384.51,407.81,410c-5.86,1.24-14,1.67-17.36-4.28-5.47-9.77-5.15-30.48-5.15-30.48,11.87,8.38,19.82,13.6,30.89,11.82C426.58,385.39,428.2,384.6,428.37,384.51Z" transform="translate(-0.56 -0.56)" fill="#74c453"/><path d="M296.94,543.51c5,.58,32.41-12,32.41-12l-.24,9.54A45.51,45.51,0,0,0,345,546.5c9,1.26,15.58-.1,17.64,1.33s-10.84,4.89-17.09,4.12a73.06,73.06,0,0,0-8.56-.75,65.12,65.12,0,0,0,13.62,1.35c7.94,0,14.94-2.42,16.72-1.1s-10.24,6.44-21.77,6.72c-7.43.18-10.91-1.21-10.91-1.21s3.74.94,12.52,1.13,14.2-2.74,15.45-1.23-10.85,6.31-19.47,6.24S331.38,562,331.38,562a46.43,46.43,0,0,0,11.47,2.21c6.49.44,15.55-2.93,14-1.13s-12.23,8.68-26.58,4.82C320.37,565.23,297,555,292.66,553S292,542.92,296.94,543.51Z" transform="translate(-0.56 -0.56)" fill="#ffac73"/><polygon points="302.35 537.32 303.34 559.08 210.96 575.81 230.16 539.76 302.35 537.32" fill="#f93d31"/><path d="M454.83,563.87l-3.2,12.5s-5.89-2.8-20.78-6.58-19.39-5.13-19.39-5.13-1.57-25.58,6.27-51.87,21-36.31,21-36.31c7.44,14.7,13.64,29.49,15.36,40.52A169.64,169.64,0,0,1,454.83,563.87Z" transform="translate(-0.56 -0.56)" fill="#74c453"/><path d="M302.91,537.88l-69.58,2.35s-14.27-1-23.09,4.93S195.16,567,195.16,567s33.62-16.63,57.33-20.83c33.62-6,50.51-6.35,50.51-6.35Z" transform="translate(-0.56 -0.56)" fill="#fff" opacity="0.49"/><polygon points="302.22 536.75 294.14 537.6 297.16 560.2 303.34 559.08 302.22 536.75" fill="#ffc4cb"/><path d="M282,428.69s-4.07,36.86-8.55,36.86c-1,0-3.29-2-4.75-3.35h0s4.91-9.9,6.09-16.58,2.47-17.81,2.47-17.81Z" transform="translate(-0.56 -0.56)" fill="#590800" opacity="0.2"/><path d="M261.91,416.57h2.59L268,430.51a14,14,0,0,1-3.71.72c-1.62,0-3.47-.05-3.47-.05Z" transform="translate(-0.56 -0.56)" fill="#d8fff2"/><path d="M261.91,416.57h2.59L268,430.51a14,14,0,0,1-3.71.72c-1.62,0-3.47-.05-3.47-.05Z" transform="translate(-0.56 -0.56)" fill="#590800" opacity="0.2"/><polygon points="239.14 425.15 252.05 410.13 262.26 415.23 259.42 441.35 239.14 425.15" fill="#fff"/><polygon points="276.72 427.26 267.73 411.56 262.91 415.03 270.01 440.3 276.72 427.26" fill="#fff"/><path d="M303,295.87a37,37,0,0,1,10.77,4.76,44.31,44.31,0,0,1,8.31,7.54L323,304s-2.82-7.24-7.89-10.83a23.12,23.12,0,0,0-8.53-4l-1.38,3.72-2.57-4.62S301.67,294,303,295.87Z" transform="translate(-0.56 -0.56)" fill="#5b1800"/><path d="M402.17,301.75l14.38,9s10.06-12.43,22.21-14.89c15.08-3,30.54,2.31,30.54,2.31L448.68,291S423.41,285,402.17,301.75Z" transform="translate(-0.56 -0.56)" fill="#76bc00"/><path d="M408.72,299.14l8,3.92s11.43-7.9,21.56-9.21,14.49,0,14.49,0l-5.87-2.48s-6.21-1.89-17.7,0A58.54,58.54,0,0,0,408.72,299.14Z" transform="translate(-0.56 -0.56)" fill="#fff" opacity="0.47"/><path d="M452.73,331.51s7.19,14.83,26.78,20.23,32.71,3.49,32.71,3.49l26.85-9.07s-28,1.8-44.67-2.63-22.47-12.61-22.47-12.61Z" transform="translate(-0.56 -0.56)" fill="#76bc00"/><path d="M460.7,335.71s5,9.41,24,14.24,24.55,3.13,24.55,3.13l18-4.83s-20.64,1.7-34.62-2.09-19.59-10.45-19.59-10.45Z" transform="translate(-0.56 -0.56)" fill="#fff" opacity="0.47"/><path d="M509,172.41s-5.79,11.94-21.57,16.29S461,191.51,461,191.51l-21.63-7.3s22.52,1.45,36-2.12,18.1-10.15,18.1-10.15Z" transform="translate(-0.56 -0.56)" fill="#76bc00"/><path d="M502.54,175.79s-4,7.58-19.36,11.47-19.78,2.53-19.78,2.53l-14.52-3.89s16.62,1.36,27.88-1.69,15.78-8.42,15.78-8.42Z" transform="translate(-0.56 -0.56)" fill="#fff" opacity="0.47"/><path d="M302.29,180s11.95,4.83,20.69,19.72,9.41,22.33,9.41,22.33l13.83-3.13s-1.38-15.09-6.08-27-10.68-16.26-10.68-16.26Z" transform="translate(-0.56 -0.56)" fill="#76bc00"/><path d="M311.34,181.62s7.94,4.11,15.09,16.26,8.91,19.69,8.91,19.69l7.94-1.76s-1.08-12.15-5.2-21.85-8.38-14.5-8.38-14.5Z" transform="translate(-0.56 -0.56)" fill="#fff" opacity="0.47"/><g mask="url(#mask-4)"><polygon points="513.77 545.56 496.12 379.1 730.81 382.46 11.17 98.59 0.11 612.16 513.77 545.56" opacity="0.34" fill="url(#linear-gradient)" style="mix-blend-mode:color-dodge"/></g><polygon points="750.57 585.75 57.92 578.57 57.92 595.18 750.57 595.18 750.57 585.75" fill="#5b3e43"/><polygon points="84.9 595.18 91.17 633.52 716.97 623.67 729.5 595.18 84.9 595.18" fill="#806266"/><polygon points="643.64 584.64 625.53 595.18 396.6 614.35 331.66 629.74 91.17 633.52 84.9 595.18 139.26 595.18 182.56 579.86 643.64 584.64" fill="#590800" opacity="0.2"/><path d="M514.56,309.77c-1.73,1.21-6.4-2.44-10.43-8.16S498.23,290.26,500,289s6.39,2.44,10.43,8.16,5.89,11.35,4.17,12.57" transform="translate(-0.56 -0.56)" fill="#f9d832"/><rect x="506.79" y="285.27" width="5.07" height="25.35" transform="translate(-79.2 347.14) rotate(-35.16)" fill="#f9d832"/><path d="M518.7,306.85c-1.73,1.22-6.4-2.44-10.43-8.16s-5.9-11.35-4.17-12.57,6.4,2.44,10.43,8.16,5.9,11.35,4.17,12.57" transform="translate(-0.56 -0.56)" fill="#fce859"/><path d="M436,342.54c-.7,2-6.63,1.73-13.23-.59s-11.39-5.83-10.69-7.82,6.62-1.73,13.23.6,11.39,5.82,10.69,7.81" transform="translate(-0.56 -0.56)" fill="#f9d832"/><rect x="422.29" y="323.27" width="5.07" height="25.35" transform="translate(-33.61 624.67) rotate(-70.62)" fill="#f9d832"/><path d="M437.63,337.76c-.7,2-6.63,1.73-13.23-.59s-11.39-5.83-10.69-7.82,6.63-1.73,13.23.59,11.39,5.83,10.69,7.82" transform="translate(-0.56 -0.56)" fill="#fce859"/><path d="M382.1,259.12c1.9.91,1,6.77-2,13.08s-7,10.68-8.93,9.77-1-6.77,2-13.08,7-10.69,8.94-9.77" transform="translate(-0.56 -0.56)" fill="#f9d832"/><rect x="361.65" y="266.91" width="25.35" height="5.07" transform="translate(-31.13 489.74) rotate(-64.36)" fill="#f9d832"/><path d="M377.53,256.92c1.91.92,1,6.77-2,13.09s-7,10.68-8.94,9.77-1-6.78,2-13.09,7-10.68,8.93-9.77" transform="translate(-0.56 -0.56)" fill="#fce859"/><path d="M497,520.09c1.08,1.81-2.9,6.2-8.9,9.8s-11.76,5.05-12.84,3.24,2.89-6.2,8.9-9.8,11.75-5.05,12.84-3.24" transform="translate(-0.56 -0.56)" fill="#f9d832"/><rect x="472.16" y="521.9" width="25.35" height="5.07" transform="translate(-201.26 323.53) rotate(-30.96)" fill="#f9d832"/><path d="M494.4,515.74c1.09,1.82-2.9,6.21-8.9,9.81s-11.75,5.05-12.84,3.23,2.9-6.19,8.9-9.8,11.75-5.05,12.84-3.24" transform="translate(-0.56 -0.56)" fill="#fce859"/><path d="M594.41,354.82c-.48-2.05,4.67-5,11.49-6.57s12.74-1.18,13.21.88-4.67,5-11.49,6.57-12.73,1.18-13.21-.88" transform="translate(-0.56 -0.56)" fill="#f9d832"/><rect x="594.65" y="351.91" width="25.35" height="5.07" transform="translate(-64.69 145.05) rotate(-12.99)" fill="#f9d832"/><path d="M595.55,359.77c-.48-2.06,4.67-5,11.49-6.59s12.74-1.18,13.21.89-4.67,5-11.49,6.57-12.74,1.18-13.21-.87" transform="translate(-0.56 -0.56)" fill="#fce859"/><g opacity="0.49"><g clip-path="url(#clip-path)"><path d="M440.31,341.72h0s-6.25-1.52-7.8-6.92c-1.18,5.49-7.31,7.43-7.31,7.43s6.25,1.52,7.8,6.93c1.17-5.5,7.31-7.44,7.31-7.44" transform="translate(-0.56 -0.56)" fill="#fff"/></g></g><g opacity="0.49"><g clip-path="url(#clip-path-2)"><path d="M505,281h0s-1.52,5.45-6.32,6.65c4.8,1.2,6.32,6.65,6.32,6.65s1.52-5.45,6.31-6.65C506.47,286.45,505,281,505,281" transform="translate(-0.56 -0.56)" fill="#fff"/></g></g></g></g></svg>