<svg id="Layer_1" data-name="Layer 1" xmlns="http://www.w3.org/2000/svg" viewBox="0 0 28 32"><title>job-icon_04</title><rect width="28" height="32" rx="2" ry="2" fill="#727270"/><path d="M17.58,4.26a.47.47,0,0,1,.84,0l1.49,3a.48.48,0,0,0,.35.25L23.6,8a.45.45,0,0,1,.38.31.48.48,0,0,1-.12.48l-2.42,2.35a.46.46,0,0,0-.13.42l.57,3.33a.46.46,0,0,1-.68.48l-3-1.57a.47.47,0,0,0-.43,0l-3,1.57a.44.44,0,0,1-.48,0,.46.46,0,0,1-.19-.45l.57-3.33a.46.46,0,0,0-.13-.42L12.14,8.82A.48.48,0,0,1,12,8.34.45.45,0,0,1,12.4,8l3.34-.49a.48.48,0,0,0,.35-.25Z" fill="#73d3f9"/></svg>