<svg width="197" height="31" fill="none" xmlns="http://www.w3.org/2000/svg"><path d="M8.672 15.234H4.266V24H.312V1.25h8c2.626 0 4.652.589 6.079 1.766 1.427 1.177 2.14 2.88 2.14 5.109 0 1.52-.37 2.797-1.11 3.828-.728 1.021-1.75 1.807-3.062 2.36l5.11 9.484V24h-4.235l-4.562-8.766zm-4.406-3.171h4.062c1.333 0 2.375-.334 3.125-1 .75-.678 1.125-1.6 1.125-2.766 0-1.219-.349-2.162-1.047-2.828-.687-.667-1.719-1.01-3.094-1.032H4.266v7.625zm23.093 12.25c-2.406 0-4.359-.756-5.859-2.266-1.49-1.521-2.234-3.542-2.234-6.063v-.468c0-1.688.323-3.193.968-4.516.657-1.333 1.573-2.37 2.75-3.11 1.177-.739 2.49-1.109 3.938-1.109 2.302 0 4.078.735 5.328 2.203 1.26 1.47 1.89 3.547 1.89 6.235v1.531H23.095c.114 1.396.578 2.5 1.39 3.313.823.812 1.854 1.218 3.094 1.218 1.74 0 3.156-.703 4.25-2.11l2.047 1.954c-.677 1.01-1.583 1.797-2.719 2.36-1.125.552-2.39.828-3.797.828zm-.453-14.485c-1.041 0-1.885.365-2.531 1.094-.635.729-1.042 1.745-1.219 3.047h7.235v-.281c-.084-1.271-.422-2.23-1.016-2.876-.594-.656-1.417-.984-2.469-.984zM47.203 24c-.167-.323-.312-.849-.437-1.578-1.209 1.26-2.688 1.89-4.438 1.89-1.698 0-3.083-.484-4.156-1.453-1.073-.968-1.61-2.166-1.61-3.593 0-1.802.667-3.183 2-4.141 1.344-.969 3.26-1.453 5.75-1.453h2.329v-1.11c0-.874-.245-1.572-.735-2.093-.49-.531-1.234-.797-2.234-.797-.865 0-1.573.219-2.125.656-.552.427-.828.974-.828 1.64h-3.797c0-.926.307-1.79.922-2.593.614-.813 1.448-1.448 2.5-1.906 1.062-.459 2.245-.688 3.547-.688 1.979 0 3.557.5 4.734 1.5 1.177.99 1.781 2.386 1.813 4.188v7.625c0 1.52.213 2.734.64 3.64V24h-3.875zm-4.172-2.734c.75 0 1.453-.183 2.11-.547.666-.365 1.166-.854 1.5-1.469v-3.188h-2.047c-1.407 0-2.464.245-3.172.735-.708.49-1.063 1.182-1.063 2.078 0 .73.24 1.313.72 1.75.489.427 1.14.64 1.952.64zm10.672-5.844c0-2.604.604-4.693 1.813-6.266 1.208-1.583 2.828-2.375 4.859-2.375 1.792 0 3.24.625 4.344 1.875V0h3.797v24h-3.438l-.187-1.75c-1.136 1.375-2.651 2.063-4.547 2.063-1.98 0-3.584-.797-4.813-2.391-1.218-1.594-1.828-3.76-1.828-6.5zm3.797.328c0 1.719.328 3.063.984 4.031.667.959 1.61 1.438 2.828 1.438 1.553 0 2.688-.693 3.407-2.078v-7.22c-.698-1.353-1.823-2.03-3.375-2.03-1.23 0-2.177.49-2.844 1.468-.667.97-1 2.433-1 4.391zm20.89 2.813l3.438-11.47h4.047l-6.719 19.47c-1.031 2.843-2.781 4.265-5.25 4.265-.552 0-1.161-.094-1.828-.281v-2.938l.719.047c.958 0 1.677-.177 2.156-.531.49-.344.875-.927 1.156-1.75l.547-1.453L70.72 7.094h4.094l3.578 11.468z" fill="#76BC00"/><path d="M106.281 18.375l3.5-17.125h3.922L108.453 24h-3.781l-4.328-16.61L95.922 24h-3.797l-5.25-22.75h3.922l3.531 17.094L98.672 1.25h3.312l4.297 17.125zm8.735-2.984c0-1.657.328-3.146.984-4.47.656-1.332 1.578-2.353 2.766-3.062 1.187-.718 2.552-1.078 4.093-1.078 2.282 0 4.131.735 5.547 2.203 1.427 1.47 2.198 3.417 2.313 5.844l.015.89c0 1.667-.323 3.157-.968 4.47-.636 1.312-1.552 2.328-2.75 3.046-1.188.72-2.563 1.078-4.125 1.078-2.386 0-4.297-.791-5.735-2.375-1.427-1.593-2.14-3.713-2.14-6.359v-.187zm3.796.328c0 1.74.36 3.104 1.079 4.094.718.979 1.718 1.468 3 1.468 1.281 0 2.276-.5 2.984-1.5.719-1 1.078-2.463 1.078-4.39 0-1.709-.37-3.063-1.109-4.063-.729-1-1.724-1.5-2.985-1.5-1.239 0-2.224.495-2.953 1.485-.729.979-1.094 2.447-1.094 4.406zm23.985-5.156a9.403 9.403 0 00-1.547-.126c-1.74 0-2.911.667-3.516 2V24h-3.796V7.094h3.624l.094 1.89c.917-1.468 2.188-2.203 3.813-2.203.541 0 .989.073 1.343.219l-.015 3.563zm7.891 6.187L149 18.484V24h-3.797V0H149v13.844l1.188-1.485 4.671-5.265h4.563l-6.281 7.047L160.094 24h-4.391l-5.015-7.25z" fill="#1BAAEF"/><path d="M164.281 20c.709 0 1.255.203 1.641.61.385.395.578.895.578 1.5 0 .593-.193 1.088-.578 1.484-.386.385-.932.578-1.641.578-.677 0-1.213-.193-1.609-.578-.396-.386-.594-.88-.594-1.485 0-.604.193-1.104.578-1.5.386-.406.927-.609 1.625-.609zm15.422-9.438a9.394 9.394 0 00-1.547-.124c-1.739 0-2.911.666-3.515 2V24h-3.797V7.094h3.625l.093 1.89c.917-1.468 2.188-2.203 3.813-2.203.542 0 .99.073 1.344.219l-.016 3.563zm12.641 11.782c-1.115 1.312-2.698 1.968-4.75 1.968-1.834 0-3.224-.536-4.172-1.609-.938-1.073-1.406-2.625-1.406-4.656V7.094h3.796V18c0 2.146.891 3.219 2.672 3.219 1.844 0 3.089-.662 3.735-1.985V7.094h3.797V24h-3.578l-.094-1.656z" fill="#757989"/></svg>