<svg id="Layer_1" data-name="Layer 1" xmlns="http://www.w3.org/2000/svg" viewBox="0 0 34.82 35.95"><title>pencil</title><path d="M5.59,3.66,2,7.22C-4.33-2.54,6.34,3,5.59,3.66Z" fill="#6c6c6a" fill-rule="evenodd"/><polygon points="34.82 35.6 34.46 35.95 33.77 35.32 33.59 35.49 27.33 32.62 31.82 28.24 34.4 34.72 34.22 34.89 34.82 35.6" fill="#6c6c6a" fill-rule="evenodd"/><path d="M2,7.19A1.55,1.55,0,0,0,2,9.34L24.32,29.76l3.06,2.9,4.47-4.38L29,25.13,10.84,5.37l.67-.66L20,13.23a.71.71,0,0,0,1.08,0l.16-.08a.87.87,0,0,0,0-1.08L9.44.25a.7.7,0,0,0-1.07,0L8.28.33a.7.7,0,0,0,0,1.07L9.94,3.06l-.66.66-.75-.91a1.55,1.55,0,0,0-2.15,0Z" fill="#73d3f9" fill-rule="evenodd"/></svg>