<svg width="18" height="17" viewBox="0 0 18 17" fill="none" xmlns="http://www.w3.org/2000/svg">
<path fill-rule="evenodd" clip-rule="evenodd" d="M0 4.71426C0 6.8445 1.7269 8.5714 3.85714 8.5714C5.98738 8.5714 7.71429 6.8445 7.71429 4.71426C7.71429 2.58402 5.98738 0.857117 3.85714 0.857117C1.7269 0.857117 0 2.58402 0 4.71426ZM14.1428 16.2856C12.0125 16.2856 10.2856 14.5587 10.2856 12.4285C10.2856 10.2983 12.0125 8.57135 14.1428 8.57135C16.273 8.57135 17.9999 10.2983 17.9999 12.4285C17.9999 14.5587 16.273 16.2856 14.1428 16.2856ZM14.1428 13.7142C14.8528 13.7142 15.4285 13.1386 15.4285 12.4285C15.4285 11.7184 14.8528 11.1428 14.1428 11.1428C13.4327 11.1428 12.8571 11.7184 12.8571 12.4285C12.8571 13.1386 13.4327 13.7142 14.1428 13.7142ZM3.85717 5.99997C4.56725 5.99997 5.14289 5.42434 5.14289 4.71426C5.14289 4.00418 4.56725 3.42854 3.85717 3.42854C3.14709 3.42854 2.57146 4.00418 2.57146 4.71426C2.57146 5.42434 3.14709 5.99997 3.85717 5.99997ZM6.58063 16.2857L14.2949 0.857117H11.42L3.70569 16.2857H6.58063Z" fill="#76BC00"/>
</svg>
