<svg id="Layer_1" data-name="Layer 1" xmlns="http://www.w3.org/2000/svg" viewBox="0 0 48 48"><title>phone</title><path d="M46.92,38l-7.41-7.43a3.86,3.86,0,0,0-5.45.1l-3.73,3.74L29.59,34a37.18,37.18,0,0,1-9-6.51,37.56,37.56,0,0,1-6.51-9c-.14-.25-.27-.49-.41-.72l2.51-2.51L17.43,14a3.87,3.87,0,0,0,.1-5.46L10.12,1.08a3.86,3.86,0,0,0-5.45.1L2.58,3.29l.06,0A12,12,0,0,0,.92,6.39,12.52,12.52,0,0,0,.15,9.47C-.83,17.61,2.88,25,12.94,35.13,26.86,49.07,38.07,48,38.55,48a12.72,12.72,0,0,0,3.09-.77,12.27,12.27,0,0,0,3-1.72l.05,0,2.11-2.08A3.87,3.87,0,0,0,46.92,38Z" fill="#73d3f9"/><path d="M39.51,30.54a3.86,3.86,0,0,0-5.45.1l-.47.47L46.36,43.89l.46-.46a3.87,3.87,0,0,0,.1-5.46Z" fill="#6c6c6a"/><path d="M16.94,14.47l.49-.5a3.87,3.87,0,0,0,.1-5.46L10.12,1.08a3.86,3.86,0,0,0-5.45.1l-.5.51Z" fill="#6c6c6a"/></svg>