<svg width="120" height="120" viewBox="0 0 120 120" fill="none" xmlns="http://www.w3.org/2000/svg">
<circle cx="60" cy="60" r="60" fill="#A6DAE8"/>
<mask id="mask0" mask-type="alpha" maskUnits="userSpaceOnUse" x="0" y="0" width="120" height="120">
<circle cx="60" cy="60" r="60" fill="#A6DAE8"/>
</mask>
<g mask="url(#mask0)">
<path d="M25.5019 91.5165L30.8527 89.7065L27.391 79.4894L22.0401 81.2994C21.7632 85.1864 22.9204 88.5987 25.5019 91.5165Z" fill="#CEDCE3"/>
<path d="M28.1323 92.2385L33.4832 90.4285L29.0423 77.3332L23.6914 79.1432C23.7409 83.9896 25.2245 88.3514 28.1323 92.2385Z" fill="#E6ECF0"/>
<path d="M27.3926 79.4894L94.8175 56.6419C97.3989 59.5695 98.5561 62.9719 98.2792 66.859L30.8543 89.7065L27.3926 79.4894Z" fill="#CEDCE3"/>
<path d="M29.041 77.3233L92.1832 55.9198C95.0911 59.8069 96.5747 64.1687 96.6241 69.0151L33.4819 90.4186L29.041 77.3233Z" fill="#E6ECF0"/>
<path d="M88.9242 55C78.6873 59.4508 68.3021 63.4763 57.7784 67.0568C47.2448 70.6174 36.553 73.733 25.7227 76.4233C26.504 82.3775 28.3931 87.9558 31.39 93.1484C41.6269 88.6976 52.0121 84.6721 62.5358 81.0917C73.0694 77.531 83.7613 74.4154 94.5916 71.7252C93.8201 65.7809 91.9211 60.2124 88.9242 55Z" fill="white"/>
<path opacity="0.7" d="M93.776 67.2348C94.1222 68.7085 94.3991 70.2119 94.597 71.7252C83.7666 74.4154 73.0748 77.531 62.5412 81.0917C52.0175 84.6721 41.6323 88.6976 31.3954 93.1484C30.6338 91.8231 29.9415 90.468 29.3184 89.0833L93.776 67.2348Z" fill="#DEEEF7"/>
<path d="M60.7721 66.0294L54.7676 68.0645L59.5363 82.1345L65.5409 80.0994L60.7721 66.0294Z" fill="#F0542B"/>
<path opacity="0.4" d="M60.7788 66.023L57.7812 67.039L62.55 81.1089L65.5476 80.0929L60.7788 66.023Z" fill="#F0542B"/>
<path d="M62.8225 72.7835L62.6246 86.4128L60.4289 84.771L58.1738 86.3436L58.3716 72.7142L62.8225 72.7835Z" fill="#D44D2B"/>
<path d="M57.8301 74.4748L66.2767 85.1765L67.0284 82.5357L69.7681 82.417L61.3215 71.7153L57.8301 74.4748Z" fill="#D44D2B"/>
<path d="M64.5879 80.0051C66.6118 77.9811 66.6118 74.6996 64.5879 72.6756C62.5639 70.6517 59.2824 70.6517 57.2585 72.6756C55.2345 74.6996 55.2345 77.9811 57.2585 80.0051C59.2824 82.029 62.5639 82.029 64.5879 80.0051Z" fill="#F6D20A"/>
<path opacity="0.5" d="M65.8293 74.6825C66.7491 77.3926 65.2952 80.3301 62.5851 81.2499L59.252 71.4384C61.962 70.5185 64.9094 71.9725 65.8293 74.6825Z" fill="#F6D20A"/>
<path d="M73.4051 77.3472V76.4511L70.265 70.1787C69.8164 68.8346 69.8164 67.9386 69.8164 67.9386C69.8164 65.6984 72.5079 65.6984 72.5079 65.6984C72.0593 64.3543 72.0593 63.4583 72.0593 63.4583C72.5079 60.3221 74.7509 62.1142 75.1995 62.1142L76.0966 63.0103C76.0966 60.3221 79.2368 60.7701 79.2368 61.2181C79.6853 61.6662 88.6571 73.3149 88.6571 73.3149C88.6571 73.3149 84.6198 65.2504 84.1712 64.8024C84.1712 64.3543 85.0684 62.1142 86.8627 63.4583C88.6571 64.8024 93.5916 74.211 93.5916 74.211C95.8345 76.0031 98.9746 86.3078 98.9746 86.3078L111.535 98.8526C111.535 98.8526 95.8345 104.229 95.8345 103.333L86.4142 97.0605C86.4142 97.0605 79.6853 91.6841 79.2368 90.34C79.2368 90.34 77.4424 85.4117 76.9938 84.0676C76.9938 84.0676 76.9938 84.0676 76.9938 83.6196C76.5452 83.1716 75.648 80.4834 75.1995 80.0354L73.4051 77.3472Z" fill="#F7CB98"/>
<g opacity="0.2">
<path opacity="0.2" d="M84.6052 75.1071C84.6052 75.1071 82.8109 73.763 81.9137 71.0748C81.9137 71.0748 80.5679 68.8346 80.1193 68.3866C80.1193 68.3866 76.5306 63.4583 76.082 62.5622C76.5306 63.4583 80.1193 67.9386 80.1193 68.3866C81.0165 68.8346 81.9137 71.0748 81.9137 71.0748C82.8109 73.763 84.6052 75.1071 84.6052 75.1071Z" fill="#333333"/>
</g>
<g opacity="0.2">
<path opacity="0.2" d="M80.1416 77.3472C80.1416 77.3472 72.5156 66.1465 72.5156 65.2504C72.5156 66.1465 79.693 76.8992 80.1416 77.3472Z" fill="#383838"/>
</g>
<g opacity="0.25">
<path opacity="0.25" d="M77.4316 70.6268C77.8802 70.6268 77.8802 70.1787 78.3288 70.1787C78.3288 70.1787 77.8802 70.6268 77.4316 70.6268Z" fill="#3F3F3F"/>
<path opacity="0.25" d="M76.5391 70.6268C76.9877 70.6268 76.9877 70.1787 77.4362 70.1787C77.4362 69.7307 78.3334 69.2827 79.2306 69.2827C78.3334 69.2827 77.4362 69.7307 76.9877 70.1787C76.9877 70.6268 76.5391 70.6268 76.5391 70.6268Z" fill="#3F3F3F"/>
<path opacity="0.25" d="M79.6915 70.1787C79.2429 70.1787 79.2429 70.6268 78.7944 70.6268C78.3458 71.0748 77.8972 71.9709 77 71.9709C77.8972 71.9709 78.3458 71.5228 78.7944 70.6268C79.2429 70.6268 79.2429 70.1787 79.6915 70.1787Z" fill="#3F3F3F"/>
</g>
<g opacity="0.25">
<path opacity="0.25" d="M73.8438 73.3149C74.2923 73.3149 74.2923 73.3149 74.7409 72.8669C74.7409 73.3149 74.2923 73.3149 73.8438 73.3149Z" fill="#3F3F3F"/>
<path opacity="0.25" d="M72.9512 73.3149C73.3998 73.3149 73.3998 72.8669 73.8483 72.8669C74.2969 72.4189 75.1941 71.9708 75.6427 71.9708C74.7455 71.9708 74.2969 72.4189 73.3998 72.8669L72.9512 73.3149Z" fill="#3F3F3F"/>
<path opacity="0.25" d="M76.0919 73.3149C75.6433 73.3149 75.6433 73.763 75.1947 73.763C74.7462 74.211 74.2976 74.659 73.4004 74.211C74.2976 74.211 74.7462 73.763 75.1947 73.3149C75.6433 73.3149 75.6433 73.3149 76.0919 73.3149Z" fill="#3F3F3F"/>
</g>
<g opacity="0.25">
<path opacity="0.25" d="M81.4746 68.8347C81.9232 68.8347 81.9232 68.8347 82.3718 68.3866C82.3718 68.8347 81.9232 68.8347 81.4746 68.8347Z" fill="#3F3F3F"/>
<path opacity="0.25" d="M80.582 68.8347C81.0306 68.8347 81.0306 68.3866 81.0306 68.3866C81.9278 67.9386 82.3764 67.9386 83.2736 67.9386C82.3764 67.9386 81.9278 67.9386 81.4792 68.3866C81.0306 68.3866 81.0306 68.8347 80.582 68.8347Z" fill="#3F3F3F"/>
<path opacity="0.25" d="M83.2781 68.8346C82.8295 68.8346 82.8295 69.2827 82.8295 69.2827C82.3809 69.2827 81.9323 69.7307 81.0352 69.7307C81.9323 69.7307 82.3809 69.2827 82.8295 69.2827C82.8295 68.8346 83.2781 68.8346 83.2781 68.8346Z" fill="#3F3F3F"/>
</g>
<g opacity="0.25">
<path opacity="0.25" d="M87.3047 68.8346C87.3047 68.8346 87.7533 68.8346 87.7533 68.3866C88.2019 67.9385 88.6505 67.9385 89.5476 67.9385C89.099 67.9385 88.2019 67.9385 87.7533 68.3866L87.3047 68.8346Z" fill="#3F3F3F"/>
<path opacity="0.25" d="M89.5476 68.8346C89.5476 68.8346 89.099 68.8346 89.099 69.2826C88.6505 69.7306 88.2019 69.7306 87.3047 69.7306C87.7533 69.7306 88.6505 69.7306 89.099 69.2826L89.5476 68.8346Z" fill="#3F3F3F"/>
</g>
<path d="M85.0632 95.2684C85.0632 95.2684 78.783 93.9243 76.54 91.2361C74.7457 88.5479 72.5027 87.6519 72.0542 86.7558C71.157 85.4117 69.8112 80.9314 68.914 80.4834C68.914 80.4834 68.0169 79.1393 68.4654 78.6913C68.4654 78.6913 69.3626 77.3472 70.7084 77.3472C70.7084 77.3472 73.3999 77.7952 75.1943 80.4834C75.1943 80.4834 78.3344 86.3078 77.8858 86.7558L79.2316 87.2038L85.0632 95.2684Z" fill="#F7CB98"/>
<g opacity="0.25">
<path opacity="0.25" d="M72.0547 82.7236C72.5033 82.7236 72.5033 82.7236 72.9519 82.2755C72.5033 82.7236 72.0547 82.7236 72.0547 82.7236Z" fill="#3F3F3F"/>
<path opacity="0.25" d="M71.1621 83.1716L71.6107 82.7235C72.0593 82.2755 72.9565 81.8275 73.405 81.8275C72.5079 81.8275 72.0593 82.2755 71.6107 82.7235C71.6107 82.7235 71.1621 82.7235 71.1621 83.1716Z" fill="#3F3F3F"/>
<path opacity="0.25" d="M73.8621 82.2755L73.4135 82.7236C72.9649 83.1716 72.0677 83.6196 71.6191 84.0676C72.5163 83.6196 72.5163 83.6196 72.9649 83.1716C73.4135 82.7236 73.4135 82.7236 73.8621 82.2755Z" fill="#3F3F3F"/>
</g>
<path opacity="0.65" d="M69.3669 80.0354C69.8155 80.4834 70.7127 80.4834 71.1613 80.0354C71.6099 79.1393 71.6099 78.6913 71.6099 78.2433C71.1613 77.7952 70.2641 77.7952 69.8155 78.2433C68.9183 78.6913 68.9183 79.5874 69.3669 80.0354Z" fill="white"/>
<path opacity="0.65" d="M76.0879 63.0102C76.0879 63.4583 76.9851 63.4583 77.8822 63.0102C78.7794 62.5622 79.228 62.1142 78.7794 61.6662C78.7794 61.2181 77.8822 61.2181 76.9851 61.6662C76.0879 61.6662 76.0879 62.5622 76.0879 63.0102Z" fill="white"/>
<path opacity="0.65" d="M70.2656 67.9386C70.2656 68.3866 71.1628 68.3866 71.6114 67.9386C72.5086 67.4906 72.9572 66.5945 72.5086 66.5945C72.5086 66.1465 71.6114 66.1465 71.1628 66.5945C70.2656 66.5945 70.2656 67.4906 70.2656 67.9386Z" fill="white"/>
<path opacity="0.65" d="M72.0625 63.9063C72.5111 64.3544 72.9597 64.3544 73.8569 63.9063C74.754 63.4583 74.754 63.0103 74.754 62.5623C74.754 62.1142 73.8569 61.6662 72.9597 62.1142C72.0625 62.5623 72.0625 63.4583 72.0625 63.9063Z" fill="white"/>
<path opacity="0.65" d="M84.6211 64.8024C84.6211 65.2504 85.5183 65.2504 85.9669 64.8024C86.4154 64.3543 86.864 63.9063 86.864 63.9063C86.864 63.4583 85.9669 63.4583 85.5183 63.9063C85.0697 63.9063 84.6211 64.8024 84.6211 64.8024Z" fill="white"/>
<path d="M102.104 87.6518C102.104 87.6518 100.31 84.9637 99.4128 84.5156C98.9642 84.5156 84.6094 95.7164 84.6094 96.1644C84.6094 96.6124 87.3009 99.3006 87.3009 99.3006L102.104 87.6518Z" fill="#F4F4F4"/>
<path d="M103.446 87.2038C101.652 86.3078 84.6058 98.8526 85.5029 100.645C86.4001 102.437 99.8577 119.014 99.8577 119.014L117.801 104.229C118.25 103.781 105.241 88.0999 103.446 87.2038Z" fill="#4F4F4F"/>
</g>
<path d="M110.01 23.379L57.5789 41.1724L17.0963 27.4737L15.8798 27.0583L5 23.379L15.8798 19.9865L17.0963 19.6007L57.5097 7L110.01 23.379Z" fill="#1C4A69"/>
<path d="M84.1766 32.5872V50.4597H84.1271C83.1776 50.163 81.8523 49.9751 80.2797 49.8762C72.4858 49.3915 58.8564 51.0828 57.5014 52.4181C55.8793 50.8158 36.5331 48.6893 30.8756 50.4498H30.8262V32.5872C30.8262 28.6112 42.7741 25.3868 57.5014 25.3868C67.1448 25.3868 75.5915 26.7715 80.2797 28.8386C82.7523 29.9365 84.1766 31.2124 84.1766 32.5872Z" fill="#2272A8"/>
<path d="M17.1033 19.6007V45.5342H15.8867V19.9865L17.1033 19.6007Z" fill="#E8B417"/>
<path d="M19.8704 61.6362L17.6351 47.9376C18.5351 47.5024 19.1681 46.5924 19.1681 45.5341C19.1681 44.0505 17.9713 42.8538 16.4877 42.8538C15.0041 42.8538 13.8074 44.0505 13.8074 45.5341C13.8074 46.5924 14.4305 47.5123 15.3404 47.9376L13.1051 61.6362C12.7688 63.5055 14.0052 65.187 16.4877 65.187C18.9604 65.187 20.2066 63.5055 19.8704 61.6362Z" fill="#F6D20A"/>
<path d="M84.1782 32.5872V50.4597H84.1287C83.1792 50.163 81.8539 49.9751 80.2812 49.8762V28.8387C82.7539 29.9365 84.1782 31.2124 84.1782 32.5872Z" fill="#1C5F8C"/>
</svg>
